M48
INCH,TZ
T1C0.0138
T2C0.0236
T3C0.0394
T4C0.0866
%
G90
G05
T1
X53300Y-40100
X53300Y-41800
X61750Y-41200
X63350Y-41200
X66750Y-44900
T2
X53600Y-35600
X55100Y-36450
X56950Y-37650
X57100Y-34950
X57750Y-44300
X58150Y-43400
X58850Y-42650
X59650Y-36100
X59750Y-46300
X59850Y-37650
X60650Y-35700
X60650Y-38850
X64550Y-41800
X65550Y-34750
X65550Y-37900
X65550Y-38900
X65550Y-43750
X65550Y-44450
X66200Y-46150
X67250Y-46150
X68000Y-41200
X68000Y-44350
T3
X51700Y-33700
X51700Y-34700
X51700Y-37200
X51700Y-38200
X51700Y-39200
X51700Y-40200
X51700Y-41200
X51700Y-42200
X51700Y-44200
X51700Y-45200
X51700Y-46200
X52700Y-44200
X52700Y-45200
X52700Y-46200
X58900Y-31700
X59900Y-31700
X60700Y-48300
X60700Y-49300
X60900Y-31700
X61700Y-48300
X61700Y-49300
X61900Y-31700
X62700Y-48300
X62700Y-49300
X63700Y-48300
X63700Y-49300
X65700Y-47300
X65700Y-48300
X65700Y-49300
X66700Y-47300
X66700Y-48300
X66700Y-49300
T4
X51100Y-31100
X51100Y-49900
X68900Y-31100
X68900Y-49900
T0
M30
