%TF.GenerationSoftware,KiCad,Pcbnew,(5.1.9)-1*%
%TF.CreationDate,2021-02-03T11:38:48-08:00*%
%TF.ProjectId,ATMEGA328_RTC_EEPROM,41544d45-4741-4333-9238-5f5254435f45,1*%
%TF.SameCoordinates,Original*%
%TF.FileFunction,Copper,L1,Top*%
%TF.FilePolarity,Positive*%
%FSLAX46Y46*%
G04 Gerber Fmt 4.6, Leading zero omitted, Abs format (unit mm)*
G04 Created by KiCad (PCBNEW (5.1.9)-1) date 2021-02-03 11:38:48*
%MOMM*%
%LPD*%
G01*
G04 APERTURE LIST*
%TA.AperFunction,SMDPad,CuDef*%
%ADD10R,1.000000X1.800000*%
%TD*%
%TA.AperFunction,SMDPad,CuDef*%
%ADD11C,0.100000*%
%TD*%
%TA.AperFunction,SMDPad,CuDef*%
%ADD12R,1.700000X0.650000*%
%TD*%
%TA.AperFunction,SMDPad,CuDef*%
%ADD13R,0.550000X1.600000*%
%TD*%
%TA.AperFunction,SMDPad,CuDef*%
%ADD14R,1.600000X0.550000*%
%TD*%
%TA.AperFunction,SMDPad,CuDef*%
%ADD15R,1.300000X1.550000*%
%TD*%
%TA.AperFunction,SMDPad,CuDef*%
%ADD16R,0.900000X0.800000*%
%TD*%
%TA.AperFunction,ComponentPad*%
%ADD17O,1.700000X1.700000*%
%TD*%
%TA.AperFunction,ComponentPad*%
%ADD18R,1.700000X1.700000*%
%TD*%
%TA.AperFunction,SMDPad,CuDef*%
%ADD19R,0.900000X1.200000*%
%TD*%
%TA.AperFunction,ComponentPad*%
%ADD20C,4.400000*%
%TD*%
%TA.AperFunction,ViaPad*%
%ADD21C,1.000000*%
%TD*%
%TA.AperFunction,ViaPad*%
%ADD22C,0.650000*%
%TD*%
%TA.AperFunction,Conductor*%
%ADD23C,0.300000*%
%TD*%
%TA.AperFunction,Conductor*%
%ADD24C,0.500000*%
%TD*%
%TA.AperFunction,Conductor*%
%ADD25C,0.200000*%
%TD*%
G04 APERTURE END LIST*
D10*
%TO.P,Y2,1*%
%TO.N,/X1*%
X147086000Y-97790000D03*
%TO.P,Y2,2*%
%TO.N,/X2*%
X149586000Y-97790000D03*
%TD*%
%TA.AperFunction,SMDPad,CuDef*%
D11*
%TO.P,Y1,2*%
%TO.N,/XTAL2*%
G36*
X146907365Y-118505421D02*
G01*
X148604421Y-116808365D01*
X150018635Y-118222579D01*
X148321579Y-119919635D01*
X146907365Y-118505421D01*
G37*
%TD.AperFunction*%
%TA.AperFunction,SMDPad,CuDef*%
%TO.P,Y1,1*%
%TO.N,/XTAL1*%
G36*
X144291069Y-115889125D02*
G01*
X145988125Y-114192069D01*
X147402339Y-115606283D01*
X145705283Y-117303339D01*
X144291069Y-115889125D01*
G37*
%TD.AperFunction*%
%TD*%
%TO.P,U4,1*%
%TO.N,/X1*%
%TA.AperFunction,SMDPad,CuDef*%
G36*
G01*
X147851000Y-94366000D02*
X147551000Y-94366000D01*
G75*
G02*
X147401000Y-94216000I0J150000D01*
G01*
X147401000Y-92616000D01*
G75*
G02*
X147551000Y-92466000I150000J0D01*
G01*
X147851000Y-92466000D01*
G75*
G02*
X148001000Y-92616000I0J-150000D01*
G01*
X148001000Y-94216000D01*
G75*
G02*
X147851000Y-94366000I-150000J0D01*
G01*
G37*
%TD.AperFunction*%
%TO.P,U4,2*%
%TO.N,/X2*%
%TA.AperFunction,SMDPad,CuDef*%
G36*
G01*
X149121000Y-94366000D02*
X148821000Y-94366000D01*
G75*
G02*
X148671000Y-94216000I0J150000D01*
G01*
X148671000Y-92616000D01*
G75*
G02*
X148821000Y-92466000I150000J0D01*
G01*
X149121000Y-92466000D01*
G75*
G02*
X149271000Y-92616000I0J-150000D01*
G01*
X149271000Y-94216000D01*
G75*
G02*
X149121000Y-94366000I-150000J0D01*
G01*
G37*
%TD.AperFunction*%
%TO.P,U4,3*%
%TO.N,Net-(R5-Pad2)*%
%TA.AperFunction,SMDPad,CuDef*%
G36*
G01*
X150391000Y-94366000D02*
X150091000Y-94366000D01*
G75*
G02*
X149941000Y-94216000I0J150000D01*
G01*
X149941000Y-92616000D01*
G75*
G02*
X150091000Y-92466000I150000J0D01*
G01*
X150391000Y-92466000D01*
G75*
G02*
X150541000Y-92616000I0J-150000D01*
G01*
X150541000Y-94216000D01*
G75*
G02*
X150391000Y-94366000I-150000J0D01*
G01*
G37*
%TD.AperFunction*%
%TO.P,U4,4*%
%TO.N,GND*%
%TA.AperFunction,SMDPad,CuDef*%
G36*
G01*
X151661000Y-94366000D02*
X151361000Y-94366000D01*
G75*
G02*
X151211000Y-94216000I0J150000D01*
G01*
X151211000Y-92616000D01*
G75*
G02*
X151361000Y-92466000I150000J0D01*
G01*
X151661000Y-92466000D01*
G75*
G02*
X151811000Y-92616000I0J-150000D01*
G01*
X151811000Y-94216000D01*
G75*
G02*
X151661000Y-94366000I-150000J0D01*
G01*
G37*
%TD.AperFunction*%
%TO.P,U4,5*%
%TO.N,/SDA*%
%TA.AperFunction,SMDPad,CuDef*%
G36*
G01*
X151661000Y-87366000D02*
X151361000Y-87366000D01*
G75*
G02*
X151211000Y-87216000I0J150000D01*
G01*
X151211000Y-85616000D01*
G75*
G02*
X151361000Y-85466000I150000J0D01*
G01*
X151661000Y-85466000D01*
G75*
G02*
X151811000Y-85616000I0J-150000D01*
G01*
X151811000Y-87216000D01*
G75*
G02*
X151661000Y-87366000I-150000J0D01*
G01*
G37*
%TD.AperFunction*%
%TO.P,U4,6*%
%TO.N,/SCL*%
%TA.AperFunction,SMDPad,CuDef*%
G36*
G01*
X150391000Y-87366000D02*
X150091000Y-87366000D01*
G75*
G02*
X149941000Y-87216000I0J150000D01*
G01*
X149941000Y-85616000D01*
G75*
G02*
X150091000Y-85466000I150000J0D01*
G01*
X150391000Y-85466000D01*
G75*
G02*
X150541000Y-85616000I0J-150000D01*
G01*
X150541000Y-87216000D01*
G75*
G02*
X150391000Y-87366000I-150000J0D01*
G01*
G37*
%TD.AperFunction*%
%TO.P,U4,7*%
%TO.N,Net-(U4-Pad7)*%
%TA.AperFunction,SMDPad,CuDef*%
G36*
G01*
X149121000Y-87366000D02*
X148821000Y-87366000D01*
G75*
G02*
X148671000Y-87216000I0J150000D01*
G01*
X148671000Y-85616000D01*
G75*
G02*
X148821000Y-85466000I150000J0D01*
G01*
X149121000Y-85466000D01*
G75*
G02*
X149271000Y-85616000I0J-150000D01*
G01*
X149271000Y-87216000D01*
G75*
G02*
X149121000Y-87366000I-150000J0D01*
G01*
G37*
%TD.AperFunction*%
%TO.P,U4,8*%
%TO.N,/Vcc2*%
%TA.AperFunction,SMDPad,CuDef*%
G36*
G01*
X147851000Y-87366000D02*
X147551000Y-87366000D01*
G75*
G02*
X147401000Y-87216000I0J150000D01*
G01*
X147401000Y-85616000D01*
G75*
G02*
X147551000Y-85466000I150000J0D01*
G01*
X147851000Y-85466000D01*
G75*
G02*
X148001000Y-85616000I0J-150000D01*
G01*
X148001000Y-87216000D01*
G75*
G02*
X147851000Y-87366000I-150000J0D01*
G01*
G37*
%TD.AperFunction*%
%TD*%
D12*
%TO.P,U3,8*%
%TO.N,/Vcc*%
X157513000Y-92075000D03*
%TO.P,U3,7*%
%TO.N,GND*%
X157513000Y-90805000D03*
%TO.P,U3,6*%
%TO.N,/SCL*%
X157513000Y-89535000D03*
%TO.P,U3,5*%
%TO.N,/SDA*%
X157513000Y-88265000D03*
%TO.P,U3,4*%
%TO.N,GND*%
X164813000Y-88265000D03*
%TO.P,U3,3*%
%TO.N,/Vcc*%
X164813000Y-89535000D03*
%TO.P,U3,2*%
%TO.N,/ADDR2*%
X164813000Y-90805000D03*
%TO.P,U3,1*%
%TO.N,/Vcc*%
X164813000Y-92075000D03*
%TD*%
%TO.P,U2,8*%
%TO.N,/Vcc*%
X157513000Y-100076000D03*
%TO.P,U2,7*%
%TO.N,GND*%
X157513000Y-98806000D03*
%TO.P,U2,6*%
%TO.N,/SCL*%
X157513000Y-97536000D03*
%TO.P,U2,5*%
%TO.N,/SDA*%
X157513000Y-96266000D03*
%TO.P,U2,4*%
%TO.N,GND*%
X164813000Y-96266000D03*
%TO.P,U2,3*%
%TO.N,/Vcc*%
X164813000Y-97536000D03*
%TO.P,U2,2*%
%TO.N,GND*%
X164813000Y-98806000D03*
%TO.P,U2,1*%
%TO.N,/ADDR1*%
X164813000Y-100076000D03*
%TD*%
D13*
%TO.P,U1,32*%
%TO.N,/D2*%
X154426000Y-106494000D03*
%TO.P,U1,31*%
%TO.N,/TX*%
X155226000Y-106494000D03*
%TO.P,U1,30*%
%TO.N,/RX*%
X156026000Y-106494000D03*
%TO.P,U1,29*%
%TO.N,/~RESET*%
X156826000Y-106494000D03*
%TO.P,U1,28*%
%TO.N,/SCL*%
X157626000Y-106494000D03*
%TO.P,U1,27*%
%TO.N,/SDA*%
X158426000Y-106494000D03*
%TO.P,U1,26*%
%TO.N,/ADDR2*%
X159226000Y-106494000D03*
%TO.P,U1,25*%
%TO.N,/ADDR1*%
X160026000Y-106494000D03*
D14*
%TO.P,U1,24*%
%TO.N,Net-(U1-Pad24)*%
X161476000Y-107944000D03*
%TO.P,U1,23*%
%TO.N,Net-(U1-Pad23)*%
X161476000Y-108744000D03*
%TO.P,U1,22*%
%TO.N,/VSUPPLY*%
X161476000Y-109544000D03*
%TO.P,U1,21*%
%TO.N,GND*%
X161476000Y-110344000D03*
%TO.P,U1,20*%
%TO.N,Net-(C4-Pad1)*%
X161476000Y-111144000D03*
%TO.P,U1,19*%
%TO.N,Net-(U1-Pad19)*%
X161476000Y-111944000D03*
%TO.P,U1,18*%
%TO.N,/Vcc*%
X161476000Y-112744000D03*
%TO.P,U1,17*%
%TO.N,/SCK*%
X161476000Y-113544000D03*
D13*
%TO.P,U1,16*%
%TO.N,/MISO*%
X160026000Y-114994000D03*
%TO.P,U1,15*%
%TO.N,/MOSI*%
X159226000Y-114994000D03*
%TO.P,U1,14*%
%TO.N,Net-(U1-Pad14)*%
X158426000Y-114994000D03*
%TO.P,U1,13*%
%TO.N,Net-(U1-Pad13)*%
X157626000Y-114994000D03*
%TO.P,U1,12*%
%TO.N,/D8*%
X156826000Y-114994000D03*
%TO.P,U1,11*%
%TO.N,/D7*%
X156026000Y-114994000D03*
%TO.P,U1,10*%
%TO.N,/D6*%
X155226000Y-114994000D03*
%TO.P,U1,9*%
%TO.N,/D5*%
X154426000Y-114994000D03*
D14*
%TO.P,U1,8*%
%TO.N,/XTAL2*%
X152976000Y-113544000D03*
%TO.P,U1,7*%
%TO.N,/XTAL1*%
X152976000Y-112744000D03*
%TO.P,U1,6*%
%TO.N,/Vcc*%
X152976000Y-111944000D03*
%TO.P,U1,5*%
%TO.N,GND*%
X152976000Y-111144000D03*
%TO.P,U1,4*%
%TO.N,/Vcc*%
X152976000Y-110344000D03*
%TO.P,U1,3*%
%TO.N,GND*%
X152976000Y-109544000D03*
%TO.P,U1,2*%
%TO.N,/D4*%
X152976000Y-108744000D03*
%TO.P,U1,1*%
%TO.N,/D3*%
X152976000Y-107944000D03*
%TD*%
D15*
%TO.P,SW1,2*%
%TO.N,/~RESET*%
X169581000Y-104648000D03*
%TO.P,SW1,1*%
%TO.N,GND*%
X174081000Y-104648000D03*
X174081000Y-112608000D03*
%TO.P,SW1,2*%
%TO.N,/~RESET*%
X169581000Y-112608000D03*
%TD*%
%TO.P,R6,1*%
%TO.N,/Vcc*%
%TA.AperFunction,SMDPad,CuDef*%
G36*
G01*
X136594001Y-83213000D02*
X135693999Y-83213000D01*
G75*
G02*
X135444000Y-82963001I0J249999D01*
G01*
X135444000Y-82437999D01*
G75*
G02*
X135693999Y-82188000I249999J0D01*
G01*
X136594001Y-82188000D01*
G75*
G02*
X136844000Y-82437999I0J-249999D01*
G01*
X136844000Y-82963001D01*
G75*
G02*
X136594001Y-83213000I-249999J0D01*
G01*
G37*
%TD.AperFunction*%
%TO.P,R6,2*%
%TO.N,Net-(D4-Pad2)*%
%TA.AperFunction,SMDPad,CuDef*%
G36*
G01*
X136594001Y-81388000D02*
X135693999Y-81388000D01*
G75*
G02*
X135444000Y-81138001I0J249999D01*
G01*
X135444000Y-80612999D01*
G75*
G02*
X135693999Y-80363000I249999J0D01*
G01*
X136594001Y-80363000D01*
G75*
G02*
X136844000Y-80612999I0J-249999D01*
G01*
X136844000Y-81138001D01*
G75*
G02*
X136594001Y-81388000I-249999J0D01*
G01*
G37*
%TD.AperFunction*%
%TD*%
%TO.P,R5,1*%
%TO.N,/Vcc2*%
%TA.AperFunction,SMDPad,CuDef*%
G36*
G01*
X142551999Y-87729000D02*
X143452001Y-87729000D01*
G75*
G02*
X143702000Y-87978999I0J-249999D01*
G01*
X143702000Y-88504001D01*
G75*
G02*
X143452001Y-88754000I-249999J0D01*
G01*
X142551999Y-88754000D01*
G75*
G02*
X142302000Y-88504001I0J249999D01*
G01*
X142302000Y-87978999D01*
G75*
G02*
X142551999Y-87729000I249999J0D01*
G01*
G37*
%TD.AperFunction*%
%TO.P,R5,2*%
%TO.N,Net-(R5-Pad2)*%
%TA.AperFunction,SMDPad,CuDef*%
G36*
G01*
X142551999Y-89554000D02*
X143452001Y-89554000D01*
G75*
G02*
X143702000Y-89803999I0J-249999D01*
G01*
X143702000Y-90329001D01*
G75*
G02*
X143452001Y-90579000I-249999J0D01*
G01*
X142551999Y-90579000D01*
G75*
G02*
X142302000Y-90329001I0J249999D01*
G01*
X142302000Y-89803999D01*
G75*
G02*
X142551999Y-89554000I249999J0D01*
G01*
G37*
%TD.AperFunction*%
%TD*%
%TO.P,R4,1*%
%TO.N,/Vcc*%
%TA.AperFunction,SMDPad,CuDef*%
G36*
G01*
X154206000Y-83369999D02*
X154206000Y-84270001D01*
G75*
G02*
X153956001Y-84520000I-249999J0D01*
G01*
X153430999Y-84520000D01*
G75*
G02*
X153181000Y-84270001I0J249999D01*
G01*
X153181000Y-83369999D01*
G75*
G02*
X153430999Y-83120000I249999J0D01*
G01*
X153956001Y-83120000D01*
G75*
G02*
X154206000Y-83369999I0J-249999D01*
G01*
G37*
%TD.AperFunction*%
%TO.P,R4,2*%
%TO.N,/SDA*%
%TA.AperFunction,SMDPad,CuDef*%
G36*
G01*
X152381000Y-83369999D02*
X152381000Y-84270001D01*
G75*
G02*
X152131001Y-84520000I-249999J0D01*
G01*
X151605999Y-84520000D01*
G75*
G02*
X151356000Y-84270001I0J249999D01*
G01*
X151356000Y-83369999D01*
G75*
G02*
X151605999Y-83120000I249999J0D01*
G01*
X152131001Y-83120000D01*
G75*
G02*
X152381000Y-83369999I0J-249999D01*
G01*
G37*
%TD.AperFunction*%
%TD*%
%TO.P,R3,2*%
%TO.N,Net-(D1-Pad2)*%
%TA.AperFunction,SMDPad,CuDef*%
G36*
G01*
X172916001Y-121393000D02*
X172015999Y-121393000D01*
G75*
G02*
X171766000Y-121143001I0J249999D01*
G01*
X171766000Y-120617999D01*
G75*
G02*
X172015999Y-120368000I249999J0D01*
G01*
X172916001Y-120368000D01*
G75*
G02*
X173166000Y-120617999I0J-249999D01*
G01*
X173166000Y-121143001D01*
G75*
G02*
X172916001Y-121393000I-249999J0D01*
G01*
G37*
%TD.AperFunction*%
%TO.P,R3,1*%
%TO.N,/SCK*%
%TA.AperFunction,SMDPad,CuDef*%
G36*
G01*
X172916001Y-123218000D02*
X172015999Y-123218000D01*
G75*
G02*
X171766000Y-122968001I0J249999D01*
G01*
X171766000Y-122442999D01*
G75*
G02*
X172015999Y-122193000I249999J0D01*
G01*
X172916001Y-122193000D01*
G75*
G02*
X173166000Y-122442999I0J-249999D01*
G01*
X173166000Y-122968001D01*
G75*
G02*
X172916001Y-123218000I-249999J0D01*
G01*
G37*
%TD.AperFunction*%
%TD*%
%TO.P,R2,1*%
%TO.N,/Vcc*%
%TA.AperFunction,SMDPad,CuDef*%
G36*
G01*
X147546000Y-84270001D02*
X147546000Y-83369999D01*
G75*
G02*
X147795999Y-83120000I249999J0D01*
G01*
X148321001Y-83120000D01*
G75*
G02*
X148571000Y-83369999I0J-249999D01*
G01*
X148571000Y-84270001D01*
G75*
G02*
X148321001Y-84520000I-249999J0D01*
G01*
X147795999Y-84520000D01*
G75*
G02*
X147546000Y-84270001I0J249999D01*
G01*
G37*
%TD.AperFunction*%
%TO.P,R2,2*%
%TO.N,/SCL*%
%TA.AperFunction,SMDPad,CuDef*%
G36*
G01*
X149371000Y-84270001D02*
X149371000Y-83369999D01*
G75*
G02*
X149620999Y-83120000I249999J0D01*
G01*
X150146001Y-83120000D01*
G75*
G02*
X150396000Y-83369999I0J-249999D01*
G01*
X150396000Y-84270001D01*
G75*
G02*
X150146001Y-84520000I-249999J0D01*
G01*
X149620999Y-84520000D01*
G75*
G02*
X149371000Y-84270001I0J249999D01*
G01*
G37*
%TD.AperFunction*%
%TD*%
%TO.P,R1,2*%
%TO.N,/~RESET*%
%TA.AperFunction,SMDPad,CuDef*%
G36*
G01*
X137560000Y-100399001D02*
X137560000Y-99498999D01*
G75*
G02*
X137809999Y-99249000I249999J0D01*
G01*
X138335001Y-99249000D01*
G75*
G02*
X138585000Y-99498999I0J-249999D01*
G01*
X138585000Y-100399001D01*
G75*
G02*
X138335001Y-100649000I-249999J0D01*
G01*
X137809999Y-100649000D01*
G75*
G02*
X137560000Y-100399001I0J249999D01*
G01*
G37*
%TD.AperFunction*%
%TO.P,R1,1*%
%TO.N,/Vcc*%
%TA.AperFunction,SMDPad,CuDef*%
G36*
G01*
X135735000Y-100399001D02*
X135735000Y-99498999D01*
G75*
G02*
X135984999Y-99249000I249999J0D01*
G01*
X136510001Y-99249000D01*
G75*
G02*
X136760000Y-99498999I0J-249999D01*
G01*
X136760000Y-100399001D01*
G75*
G02*
X136510001Y-100649000I-249999J0D01*
G01*
X135984999Y-100649000D01*
G75*
G02*
X135735000Y-100399001I0J249999D01*
G01*
G37*
%TD.AperFunction*%
%TD*%
D16*
%TO.P,Q1,1*%
%TO.N,GND*%
X136128000Y-89088000D03*
%TO.P,Q1,2*%
%TO.N,/Vcc*%
X136128000Y-87188000D03*
%TO.P,Q1,3*%
%TO.N,/Vin*%
X134128000Y-88138000D03*
%TD*%
D17*
%TO.P,J4,6*%
%TO.N,GND*%
X166878000Y-120142000D03*
%TO.P,J4,5*%
%TO.N,/~RESET*%
X169418000Y-120142000D03*
%TO.P,J4,4*%
%TO.N,/MOSI*%
X166878000Y-122682000D03*
%TO.P,J4,3*%
%TO.N,/SCK*%
X169418000Y-122682000D03*
%TO.P,J4,2*%
%TO.N,/Vcc*%
X166878000Y-125222000D03*
D18*
%TO.P,J4,1*%
%TO.N,/MISO*%
X169418000Y-125222000D03*
%TD*%
%TO.P,J3,1*%
%TO.N,GND*%
X157226000Y-80518000D03*
D17*
%TO.P,J3,2*%
%TO.N,/Vcc*%
X154686000Y-80518000D03*
%TO.P,J3,3*%
%TO.N,/SDA*%
X152146000Y-80518000D03*
%TO.P,J3,4*%
%TO.N,/SCL*%
X149606000Y-80518000D03*
%TD*%
%TO.P,J1,6*%
%TO.N,/DTR*%
X131318000Y-107188000D03*
%TO.P,J1,5*%
%TO.N,/TX*%
X131318000Y-104648000D03*
%TO.P,J1,4*%
%TO.N,/RX*%
X131318000Y-102108000D03*
%TO.P,J1,3*%
%TO.N,/Vcc*%
X131318000Y-99568000D03*
%TO.P,J1,2*%
%TO.N,GND*%
X131318000Y-97028000D03*
D18*
%TO.P,J1,1*%
X131318000Y-94488000D03*
%TD*%
%TO.P,D4,1*%
%TO.N,GND*%
%TA.AperFunction,SMDPad,CuDef*%
G36*
G01*
X134314250Y-83213000D02*
X133401750Y-83213000D01*
G75*
G02*
X133158000Y-82969250I0J243750D01*
G01*
X133158000Y-82481750D01*
G75*
G02*
X133401750Y-82238000I243750J0D01*
G01*
X134314250Y-82238000D01*
G75*
G02*
X134558000Y-82481750I0J-243750D01*
G01*
X134558000Y-82969250D01*
G75*
G02*
X134314250Y-83213000I-243750J0D01*
G01*
G37*
%TD.AperFunction*%
%TO.P,D4,2*%
%TO.N,Net-(D4-Pad2)*%
%TA.AperFunction,SMDPad,CuDef*%
G36*
G01*
X134314250Y-81338000D02*
X133401750Y-81338000D01*
G75*
G02*
X133158000Y-81094250I0J243750D01*
G01*
X133158000Y-80606750D01*
G75*
G02*
X133401750Y-80363000I243750J0D01*
G01*
X134314250Y-80363000D01*
G75*
G02*
X134558000Y-80606750I0J-243750D01*
G01*
X134558000Y-81094250D01*
G75*
G02*
X134314250Y-81338000I-243750J0D01*
G01*
G37*
%TD.AperFunction*%
%TD*%
D19*
%TO.P,D3,1*%
%TO.N,/Vcc2*%
X143255000Y-85979000D03*
%TO.P,D3,2*%
%TO.N,Net-(BT1-Pad1)*%
X139955000Y-85979000D03*
%TD*%
%TO.P,D2,1*%
%TO.N,/Vcc2*%
X143255000Y-83312000D03*
%TO.P,D2,2*%
%TO.N,/Vcc*%
X139955000Y-83312000D03*
%TD*%
%TO.P,D1,2*%
%TO.N,Net-(D1-Pad2)*%
%TA.AperFunction,SMDPad,CuDef*%
G36*
G01*
X172009750Y-118560000D02*
X172922250Y-118560000D01*
G75*
G02*
X173166000Y-118803750I0J-243750D01*
G01*
X173166000Y-119291250D01*
G75*
G02*
X172922250Y-119535000I-243750J0D01*
G01*
X172009750Y-119535000D01*
G75*
G02*
X171766000Y-119291250I0J243750D01*
G01*
X171766000Y-118803750D01*
G75*
G02*
X172009750Y-118560000I243750J0D01*
G01*
G37*
%TD.AperFunction*%
%TO.P,D1,1*%
%TO.N,GND*%
%TA.AperFunction,SMDPad,CuDef*%
G36*
G01*
X172009750Y-116685000D02*
X172922250Y-116685000D01*
G75*
G02*
X173166000Y-116928750I0J-243750D01*
G01*
X173166000Y-117416250D01*
G75*
G02*
X172922250Y-117660000I-243750J0D01*
G01*
X172009750Y-117660000D01*
G75*
G02*
X171766000Y-117416250I0J243750D01*
G01*
X171766000Y-116928750D01*
G75*
G02*
X172009750Y-116685000I243750J0D01*
G01*
G37*
%TD.AperFunction*%
%TD*%
%TO.P,C11,2*%
%TO.N,/DTR*%
%TA.AperFunction,SMDPad,CuDef*%
G36*
G01*
X136962000Y-101604000D02*
X136962000Y-102104000D01*
G75*
G02*
X136737000Y-102329000I-225000J0D01*
G01*
X136287000Y-102329000D01*
G75*
G02*
X136062000Y-102104000I0J225000D01*
G01*
X136062000Y-101604000D01*
G75*
G02*
X136287000Y-101379000I225000J0D01*
G01*
X136737000Y-101379000D01*
G75*
G02*
X136962000Y-101604000I0J-225000D01*
G01*
G37*
%TD.AperFunction*%
%TO.P,C11,1*%
%TO.N,/~RESET*%
%TA.AperFunction,SMDPad,CuDef*%
G36*
G01*
X138512000Y-101604000D02*
X138512000Y-102104000D01*
G75*
G02*
X138287000Y-102329000I-225000J0D01*
G01*
X137837000Y-102329000D01*
G75*
G02*
X137612000Y-102104000I0J225000D01*
G01*
X137612000Y-101604000D01*
G75*
G02*
X137837000Y-101379000I225000J0D01*
G01*
X138287000Y-101379000D01*
G75*
G02*
X138512000Y-101604000I0J-225000D01*
G01*
G37*
%TD.AperFunction*%
%TD*%
%TO.P,C10,1*%
%TO.N,/Vcc2*%
%TA.AperFunction,SMDPad,CuDef*%
G36*
G01*
X144784000Y-85516000D02*
X145284000Y-85516000D01*
G75*
G02*
X145509000Y-85741000I0J-225000D01*
G01*
X145509000Y-86191000D01*
G75*
G02*
X145284000Y-86416000I-225000J0D01*
G01*
X144784000Y-86416000D01*
G75*
G02*
X144559000Y-86191000I0J225000D01*
G01*
X144559000Y-85741000D01*
G75*
G02*
X144784000Y-85516000I225000J0D01*
G01*
G37*
%TD.AperFunction*%
%TO.P,C10,2*%
%TO.N,GND*%
%TA.AperFunction,SMDPad,CuDef*%
G36*
G01*
X144784000Y-87066000D02*
X145284000Y-87066000D01*
G75*
G02*
X145509000Y-87291000I0J-225000D01*
G01*
X145509000Y-87741000D01*
G75*
G02*
X145284000Y-87966000I-225000J0D01*
G01*
X144784000Y-87966000D01*
G75*
G02*
X144559000Y-87741000I0J225000D01*
G01*
X144559000Y-87291000D01*
G75*
G02*
X144784000Y-87066000I225000J0D01*
G01*
G37*
%TD.AperFunction*%
%TD*%
%TO.P,C9,2*%
%TO.N,GND*%
%TA.AperFunction,SMDPad,CuDef*%
G36*
G01*
X155571000Y-91115000D02*
X155071000Y-91115000D01*
G75*
G02*
X154846000Y-90890000I0J225000D01*
G01*
X154846000Y-90440000D01*
G75*
G02*
X155071000Y-90215000I225000J0D01*
G01*
X155571000Y-90215000D01*
G75*
G02*
X155796000Y-90440000I0J-225000D01*
G01*
X155796000Y-90890000D01*
G75*
G02*
X155571000Y-91115000I-225000J0D01*
G01*
G37*
%TD.AperFunction*%
%TO.P,C9,1*%
%TO.N,/Vcc*%
%TA.AperFunction,SMDPad,CuDef*%
G36*
G01*
X155571000Y-92665000D02*
X155071000Y-92665000D01*
G75*
G02*
X154846000Y-92440000I0J225000D01*
G01*
X154846000Y-91990000D01*
G75*
G02*
X155071000Y-91765000I225000J0D01*
G01*
X155571000Y-91765000D01*
G75*
G02*
X155796000Y-91990000I0J-225000D01*
G01*
X155796000Y-92440000D01*
G75*
G02*
X155571000Y-92665000I-225000J0D01*
G01*
G37*
%TD.AperFunction*%
%TD*%
%TO.P,C8,2*%
%TO.N,GND*%
%TA.AperFunction,SMDPad,CuDef*%
G36*
G01*
X155571000Y-99116000D02*
X155071000Y-99116000D01*
G75*
G02*
X154846000Y-98891000I0J225000D01*
G01*
X154846000Y-98441000D01*
G75*
G02*
X155071000Y-98216000I225000J0D01*
G01*
X155571000Y-98216000D01*
G75*
G02*
X155796000Y-98441000I0J-225000D01*
G01*
X155796000Y-98891000D01*
G75*
G02*
X155571000Y-99116000I-225000J0D01*
G01*
G37*
%TD.AperFunction*%
%TO.P,C8,1*%
%TO.N,/Vcc*%
%TA.AperFunction,SMDPad,CuDef*%
G36*
G01*
X155571000Y-100666000D02*
X155071000Y-100666000D01*
G75*
G02*
X154846000Y-100441000I0J225000D01*
G01*
X154846000Y-99991000D01*
G75*
G02*
X155071000Y-99766000I225000J0D01*
G01*
X155571000Y-99766000D01*
G75*
G02*
X155796000Y-99991000I0J-225000D01*
G01*
X155796000Y-100441000D01*
G75*
G02*
X155571000Y-100666000I-225000J0D01*
G01*
G37*
%TD.AperFunction*%
%TD*%
%TO.P,C3,1*%
%TO.N,/Vcc*%
%TA.AperFunction,SMDPad,CuDef*%
G36*
G01*
X136578000Y-84615000D02*
X136578000Y-85565000D01*
G75*
G02*
X136328000Y-85815000I-250000J0D01*
G01*
X135828000Y-85815000D01*
G75*
G02*
X135578000Y-85565000I0J250000D01*
G01*
X135578000Y-84615000D01*
G75*
G02*
X135828000Y-84365000I250000J0D01*
G01*
X136328000Y-84365000D01*
G75*
G02*
X136578000Y-84615000I0J-250000D01*
G01*
G37*
%TD.AperFunction*%
%TO.P,C3,2*%
%TO.N,GND*%
%TA.AperFunction,SMDPad,CuDef*%
G36*
G01*
X134678000Y-84615000D02*
X134678000Y-85565000D01*
G75*
G02*
X134428000Y-85815000I-250000J0D01*
G01*
X133928000Y-85815000D01*
G75*
G02*
X133678000Y-85565000I0J250000D01*
G01*
X133678000Y-84615000D01*
G75*
G02*
X133928000Y-84365000I250000J0D01*
G01*
X134428000Y-84365000D01*
G75*
G02*
X134678000Y-84615000I0J-250000D01*
G01*
G37*
%TD.AperFunction*%
%TD*%
D18*
%TO.P,BT2,1*%
%TO.N,/Vin*%
X131318000Y-88138000D03*
D17*
%TO.P,BT2,2*%
%TO.N,GND*%
X131318000Y-85598000D03*
%TD*%
%TO.P,C1,2*%
%TO.N,GND*%
%TA.AperFunction,SMDPad,CuDef*%
G36*
G01*
X148028967Y-113512413D02*
X147675413Y-113865967D01*
G75*
G02*
X147357215Y-113865967I-159099J159099D01*
G01*
X147039017Y-113547769D01*
G75*
G02*
X147039017Y-113229571I159099J159099D01*
G01*
X147392571Y-112876017D01*
G75*
G02*
X147710769Y-112876017I159099J-159099D01*
G01*
X148028967Y-113194215D01*
G75*
G02*
X148028967Y-113512413I-159099J-159099D01*
G01*
G37*
%TD.AperFunction*%
%TO.P,C1,1*%
%TO.N,/XTAL1*%
%TA.AperFunction,SMDPad,CuDef*%
G36*
G01*
X149124983Y-114608429D02*
X148771429Y-114961983D01*
G75*
G02*
X148453231Y-114961983I-159099J159099D01*
G01*
X148135033Y-114643785D01*
G75*
G02*
X148135033Y-114325587I159099J159099D01*
G01*
X148488587Y-113972033D01*
G75*
G02*
X148806785Y-113972033I159099J-159099D01*
G01*
X149124983Y-114290231D01*
G75*
G02*
X149124983Y-114608429I-159099J-159099D01*
G01*
G37*
%TD.AperFunction*%
%TD*%
%TO.P,C2,2*%
%TO.N,GND*%
%TA.AperFunction,SMDPad,CuDef*%
G36*
G01*
X150421033Y-116611587D02*
X150774587Y-116258033D01*
G75*
G02*
X151092785Y-116258033I159099J-159099D01*
G01*
X151410983Y-116576231D01*
G75*
G02*
X151410983Y-116894429I-159099J-159099D01*
G01*
X151057429Y-117247983D01*
G75*
G02*
X150739231Y-117247983I-159099J159099D01*
G01*
X150421033Y-116929785D01*
G75*
G02*
X150421033Y-116611587I159099J159099D01*
G01*
G37*
%TD.AperFunction*%
%TO.P,C2,1*%
%TO.N,/XTAL2*%
%TA.AperFunction,SMDPad,CuDef*%
G36*
G01*
X149325017Y-115515571D02*
X149678571Y-115162017D01*
G75*
G02*
X149996769Y-115162017I159099J-159099D01*
G01*
X150314967Y-115480215D01*
G75*
G02*
X150314967Y-115798413I-159099J-159099D01*
G01*
X149961413Y-116151967D01*
G75*
G02*
X149643215Y-116151967I-159099J159099D01*
G01*
X149325017Y-115833769D01*
G75*
G02*
X149325017Y-115515571I159099J159099D01*
G01*
G37*
%TD.AperFunction*%
%TD*%
%TO.P,C4,1*%
%TO.N,Net-(C4-Pad1)*%
%TA.AperFunction,SMDPad,CuDef*%
G36*
G01*
X163240000Y-111375000D02*
X163240000Y-110875000D01*
G75*
G02*
X163465000Y-110650000I225000J0D01*
G01*
X163915000Y-110650000D01*
G75*
G02*
X164140000Y-110875000I0J-225000D01*
G01*
X164140000Y-111375000D01*
G75*
G02*
X163915000Y-111600000I-225000J0D01*
G01*
X163465000Y-111600000D01*
G75*
G02*
X163240000Y-111375000I0J225000D01*
G01*
G37*
%TD.AperFunction*%
%TO.P,C4,2*%
%TO.N,GND*%
%TA.AperFunction,SMDPad,CuDef*%
G36*
G01*
X164790000Y-111375000D02*
X164790000Y-110875000D01*
G75*
G02*
X165015000Y-110650000I225000J0D01*
G01*
X165465000Y-110650000D01*
G75*
G02*
X165690000Y-110875000I0J-225000D01*
G01*
X165690000Y-111375000D01*
G75*
G02*
X165465000Y-111600000I-225000J0D01*
G01*
X165015000Y-111600000D01*
G75*
G02*
X164790000Y-111375000I0J225000D01*
G01*
G37*
%TD.AperFunction*%
%TD*%
%TO.P,C5,1*%
%TO.N,/Vcc*%
%TA.AperFunction,SMDPad,CuDef*%
G36*
G01*
X150999000Y-110445000D02*
X150499000Y-110445000D01*
G75*
G02*
X150274000Y-110220000I0J225000D01*
G01*
X150274000Y-109770000D01*
G75*
G02*
X150499000Y-109545000I225000J0D01*
G01*
X150999000Y-109545000D01*
G75*
G02*
X151224000Y-109770000I0J-225000D01*
G01*
X151224000Y-110220000D01*
G75*
G02*
X150999000Y-110445000I-225000J0D01*
G01*
G37*
%TD.AperFunction*%
%TO.P,C5,2*%
%TO.N,GND*%
%TA.AperFunction,SMDPad,CuDef*%
G36*
G01*
X150999000Y-108895000D02*
X150499000Y-108895000D01*
G75*
G02*
X150274000Y-108670000I0J225000D01*
G01*
X150274000Y-108220000D01*
G75*
G02*
X150499000Y-107995000I225000J0D01*
G01*
X150999000Y-107995000D01*
G75*
G02*
X151224000Y-108220000I0J-225000D01*
G01*
X151224000Y-108670000D01*
G75*
G02*
X150999000Y-108895000I-225000J0D01*
G01*
G37*
%TD.AperFunction*%
%TD*%
%TO.P,C6,1*%
%TO.N,/Vcc*%
%TA.AperFunction,SMDPad,CuDef*%
G36*
G01*
X149221000Y-112223000D02*
X148721000Y-112223000D01*
G75*
G02*
X148496000Y-111998000I0J225000D01*
G01*
X148496000Y-111548000D01*
G75*
G02*
X148721000Y-111323000I225000J0D01*
G01*
X149221000Y-111323000D01*
G75*
G02*
X149446000Y-111548000I0J-225000D01*
G01*
X149446000Y-111998000D01*
G75*
G02*
X149221000Y-112223000I-225000J0D01*
G01*
G37*
%TD.AperFunction*%
%TO.P,C6,2*%
%TO.N,GND*%
%TA.AperFunction,SMDPad,CuDef*%
G36*
G01*
X149221000Y-110673000D02*
X148721000Y-110673000D01*
G75*
G02*
X148496000Y-110448000I0J225000D01*
G01*
X148496000Y-109998000D01*
G75*
G02*
X148721000Y-109773000I225000J0D01*
G01*
X149221000Y-109773000D01*
G75*
G02*
X149446000Y-109998000I0J-225000D01*
G01*
X149446000Y-110448000D01*
G75*
G02*
X149221000Y-110673000I-225000J0D01*
G01*
G37*
%TD.AperFunction*%
%TD*%
%TO.P,C7,2*%
%TO.N,GND*%
%TA.AperFunction,SMDPad,CuDef*%
G36*
G01*
X164790000Y-113153000D02*
X164790000Y-112653000D01*
G75*
G02*
X165015000Y-112428000I225000J0D01*
G01*
X165465000Y-112428000D01*
G75*
G02*
X165690000Y-112653000I0J-225000D01*
G01*
X165690000Y-113153000D01*
G75*
G02*
X165465000Y-113378000I-225000J0D01*
G01*
X165015000Y-113378000D01*
G75*
G02*
X164790000Y-113153000I0J225000D01*
G01*
G37*
%TD.AperFunction*%
%TO.P,C7,1*%
%TO.N,/Vcc*%
%TA.AperFunction,SMDPad,CuDef*%
G36*
G01*
X163240000Y-113153000D02*
X163240000Y-112653000D01*
G75*
G02*
X163465000Y-112428000I225000J0D01*
G01*
X163915000Y-112428000D01*
G75*
G02*
X164140000Y-112653000I0J-225000D01*
G01*
X164140000Y-113153000D01*
G75*
G02*
X163915000Y-113378000I-225000J0D01*
G01*
X163465000Y-113378000D01*
G75*
G02*
X163240000Y-113153000I0J225000D01*
G01*
G37*
%TD.AperFunction*%
%TD*%
%TO.P,C12,2*%
%TO.N,GND*%
%TA.AperFunction,SMDPad,CuDef*%
G36*
G01*
X146360000Y-95381000D02*
X146360000Y-95881000D01*
G75*
G02*
X146135000Y-96106000I-225000J0D01*
G01*
X145685000Y-96106000D01*
G75*
G02*
X145460000Y-95881000I0J225000D01*
G01*
X145460000Y-95381000D01*
G75*
G02*
X145685000Y-95156000I225000J0D01*
G01*
X146135000Y-95156000D01*
G75*
G02*
X146360000Y-95381000I0J-225000D01*
G01*
G37*
%TD.AperFunction*%
%TO.P,C12,1*%
%TO.N,/X1*%
%TA.AperFunction,SMDPad,CuDef*%
G36*
G01*
X147910000Y-95381000D02*
X147910000Y-95881000D01*
G75*
G02*
X147685000Y-96106000I-225000J0D01*
G01*
X147235000Y-96106000D01*
G75*
G02*
X147010000Y-95881000I0J225000D01*
G01*
X147010000Y-95381000D01*
G75*
G02*
X147235000Y-95156000I225000J0D01*
G01*
X147685000Y-95156000D01*
G75*
G02*
X147910000Y-95381000I0J-225000D01*
G01*
G37*
%TD.AperFunction*%
%TD*%
%TO.P,C13,1*%
%TO.N,/X2*%
%TA.AperFunction,SMDPad,CuDef*%
G36*
G01*
X148762000Y-95881000D02*
X148762000Y-95381000D01*
G75*
G02*
X148987000Y-95156000I225000J0D01*
G01*
X149437000Y-95156000D01*
G75*
G02*
X149662000Y-95381000I0J-225000D01*
G01*
X149662000Y-95881000D01*
G75*
G02*
X149437000Y-96106000I-225000J0D01*
G01*
X148987000Y-96106000D01*
G75*
G02*
X148762000Y-95881000I0J225000D01*
G01*
G37*
%TD.AperFunction*%
%TO.P,C13,2*%
%TO.N,GND*%
%TA.AperFunction,SMDPad,CuDef*%
G36*
G01*
X150312000Y-95881000D02*
X150312000Y-95381000D01*
G75*
G02*
X150537000Y-95156000I225000J0D01*
G01*
X150987000Y-95156000D01*
G75*
G02*
X151212000Y-95381000I0J-225000D01*
G01*
X151212000Y-95881000D01*
G75*
G02*
X150987000Y-96106000I-225000J0D01*
G01*
X150537000Y-96106000D01*
G75*
G02*
X150312000Y-95881000I0J225000D01*
G01*
G37*
%TD.AperFunction*%
%TD*%
D20*
%TO.P,H1,1*%
%TO.N,GND*%
X129794000Y-78994000D03*
%TD*%
%TO.P,H2,1*%
%TO.N,GND*%
X175006000Y-78994000D03*
%TD*%
%TO.P,H3,1*%
%TO.N,GND*%
X129794000Y-126746000D03*
%TD*%
%TO.P,H4,1*%
%TO.N,GND*%
X175006000Y-126746000D03*
%TD*%
%TO.P,R7,1*%
%TO.N,/Vcc*%
%TA.AperFunction,SMDPad,CuDef*%
G36*
G01*
X165665999Y-106906000D02*
X166566001Y-106906000D01*
G75*
G02*
X166816000Y-107155999I0J-249999D01*
G01*
X166816000Y-107681001D01*
G75*
G02*
X166566001Y-107931000I-249999J0D01*
G01*
X165665999Y-107931000D01*
G75*
G02*
X165416000Y-107681001I0J249999D01*
G01*
X165416000Y-107155999D01*
G75*
G02*
X165665999Y-106906000I249999J0D01*
G01*
G37*
%TD.AperFunction*%
%TO.P,R7,2*%
%TO.N,/VSUPPLY*%
%TA.AperFunction,SMDPad,CuDef*%
G36*
G01*
X165665999Y-108731000D02*
X166566001Y-108731000D01*
G75*
G02*
X166816000Y-108980999I0J-249999D01*
G01*
X166816000Y-109506001D01*
G75*
G02*
X166566001Y-109756000I-249999J0D01*
G01*
X165665999Y-109756000D01*
G75*
G02*
X165416000Y-109506001I0J249999D01*
G01*
X165416000Y-108980999D01*
G75*
G02*
X165665999Y-108731000I249999J0D01*
G01*
G37*
%TD.AperFunction*%
%TD*%
%TO.P,R8,1*%
%TO.N,/VSUPPLY*%
%TA.AperFunction,SMDPad,CuDef*%
G36*
G01*
X164407001Y-109732500D02*
X163506999Y-109732500D01*
G75*
G02*
X163257000Y-109482501I0J249999D01*
G01*
X163257000Y-108957499D01*
G75*
G02*
X163506999Y-108707500I249999J0D01*
G01*
X164407001Y-108707500D01*
G75*
G02*
X164657000Y-108957499I0J-249999D01*
G01*
X164657000Y-109482501D01*
G75*
G02*
X164407001Y-109732500I-249999J0D01*
G01*
G37*
%TD.AperFunction*%
%TO.P,R8,2*%
%TO.N,GND*%
%TA.AperFunction,SMDPad,CuDef*%
G36*
G01*
X164407001Y-107907500D02*
X163506999Y-107907500D01*
G75*
G02*
X163257000Y-107657501I0J249999D01*
G01*
X163257000Y-107132499D01*
G75*
G02*
X163506999Y-106882500I249999J0D01*
G01*
X164407001Y-106882500D01*
G75*
G02*
X164657000Y-107132499I0J-249999D01*
G01*
X164657000Y-107657501D01*
G75*
G02*
X164407001Y-107907500I-249999J0D01*
G01*
G37*
%TD.AperFunction*%
%TD*%
D18*
%TO.P,J2,1*%
%TO.N,/D2*%
X133858000Y-112268000D03*
D17*
%TO.P,J2,2*%
%TO.N,GND*%
X131318000Y-112268000D03*
%TO.P,J2,3*%
%TO.N,/D3*%
X133858000Y-114808000D03*
%TO.P,J2,4*%
%TO.N,GND*%
X131318000Y-114808000D03*
%TO.P,J2,5*%
%TO.N,/D4*%
X133858000Y-117348000D03*
%TO.P,J2,6*%
%TO.N,GND*%
X131318000Y-117348000D03*
%TD*%
D18*
%TO.P,J5,1*%
%TO.N,/D5*%
X154178000Y-122682000D03*
D17*
%TO.P,J5,2*%
%TO.N,GND*%
X154178000Y-125222000D03*
%TO.P,J5,3*%
%TO.N,/D6*%
X156718000Y-122682000D03*
%TO.P,J5,4*%
%TO.N,GND*%
X156718000Y-125222000D03*
%TO.P,J5,5*%
%TO.N,/D7*%
X159258000Y-122682000D03*
%TO.P,J5,6*%
%TO.N,GND*%
X159258000Y-125222000D03*
%TO.P,J5,7*%
%TO.N,/D8*%
X161798000Y-122682000D03*
%TO.P,J5,8*%
%TO.N,GND*%
X161798000Y-125222000D03*
%TD*%
D21*
%TO.N,GND*%
X166497000Y-98806000D03*
X168148000Y-117221000D03*
X172720000Y-104648000D03*
X145034000Y-88773000D03*
X163957000Y-106172000D03*
X144653000Y-95631000D03*
X166497000Y-96266000D03*
X146685000Y-112522000D03*
X151765000Y-117602000D03*
X147701000Y-110236000D03*
X149479000Y-108331000D03*
X166497000Y-112903000D03*
X166497000Y-111125000D03*
X172720000Y-112649000D03*
X154051000Y-90678000D03*
X154051000Y-98679000D03*
X152019000Y-95631000D03*
X151511000Y-91694000D03*
X136144000Y-90424000D03*
X166497000Y-88265000D03*
X170815000Y-117221000D03*
%TO.N,Net-(BT1-Pad1)*%
X139954000Y-92583000D03*
D22*
%TO.N,/DTR*%
X135382000Y-101854000D03*
X135382000Y-106172000D03*
%TO.N,/~RESET*%
X169545000Y-114046000D03*
X160909000Y-104648000D03*
X156845000Y-104648000D03*
%TD*%
D23*
%TO.N,GND*%
X151848000Y-109544000D02*
X150749000Y-108445000D01*
X152976000Y-109544000D02*
X151848000Y-109544000D01*
X149892000Y-111144000D02*
X148971000Y-110223000D01*
X152976000Y-111144000D02*
X149892000Y-111144000D01*
X164314990Y-110199990D02*
X165240000Y-111125000D01*
X163041390Y-110344000D02*
X163185400Y-110199990D01*
X163185400Y-110199990D02*
X164314990Y-110199990D01*
X161476000Y-110344000D02*
X163041390Y-110344000D01*
D24*
X133670000Y-85598000D02*
X134178000Y-85090000D01*
X131318000Y-85598000D02*
X133670000Y-85598000D01*
X165240000Y-111125000D02*
X166497000Y-111125000D01*
X165240000Y-112903000D02*
X166497000Y-112903000D01*
X165240000Y-111125000D02*
X165240000Y-112903000D01*
X150916008Y-116753008D02*
X151765000Y-117602000D01*
X147533992Y-113370992D02*
X146685000Y-112522000D01*
X147714000Y-110223000D02*
X147701000Y-110236000D01*
X148971000Y-110223000D02*
X147714000Y-110223000D01*
X149492000Y-108445000D02*
X149479000Y-108458000D01*
X164813000Y-88265000D02*
X166497000Y-88265000D01*
X164813000Y-96266000D02*
X166497000Y-96266000D01*
X154064000Y-98666000D02*
X154051000Y-98679000D01*
X155321000Y-98666000D02*
X154064000Y-98666000D01*
X150762000Y-95631000D02*
X152019000Y-95631000D01*
X151511000Y-93416000D02*
X151511000Y-91694000D01*
X145910000Y-95631000D02*
X144653000Y-95631000D01*
X154064000Y-90665000D02*
X154051000Y-90678000D01*
X155321000Y-90665000D02*
X154064000Y-90665000D01*
X136128000Y-90408000D02*
X136144000Y-90424000D01*
X136128000Y-89088000D02*
X136128000Y-90408000D01*
X145034000Y-88773000D02*
X145034000Y-87516000D01*
X172761000Y-112608000D02*
X172720000Y-112649000D01*
X133858000Y-83058000D02*
X131318000Y-85598000D01*
X133858000Y-82725500D02*
X133858000Y-83058000D01*
X168148000Y-117221000D02*
X170815000Y-117221000D01*
X170863500Y-117172500D02*
X170815000Y-117221000D01*
X172466000Y-117172500D02*
X170863500Y-117172500D01*
X163957000Y-107395000D02*
X163957000Y-106172000D01*
X150635000Y-108331000D02*
X150749000Y-108445000D01*
X149479000Y-108331000D02*
X150635000Y-108331000D01*
X164813000Y-98806000D02*
X166497000Y-98806000D01*
X174081000Y-104648000D02*
X172720000Y-104648000D01*
X174081000Y-112608000D02*
X172761000Y-112608000D01*
X155461000Y-98806000D02*
X155321000Y-98666000D01*
X157513000Y-98806000D02*
X155461000Y-98806000D01*
X155461000Y-90805000D02*
X155321000Y-90665000D01*
X157513000Y-90805000D02*
X155461000Y-90805000D01*
%TO.N,Net-(BT1-Pad1)*%
X139955000Y-92582000D02*
X139954000Y-92583000D01*
X139955000Y-85979000D02*
X139955000Y-92582000D01*
%TO.N,/Vin*%
X134128000Y-88138000D02*
X131318000Y-88138000D01*
D25*
%TO.N,/XTAL1*%
X150353016Y-112744000D02*
X148630008Y-114467008D01*
X152976000Y-112744000D02*
X150353016Y-112744000D01*
X147349312Y-115747704D02*
X148630008Y-114467008D01*
X145846704Y-115747704D02*
X147349312Y-115747704D01*
%TO.N,/XTAL2*%
X151932984Y-113544000D02*
X149819992Y-115656992D01*
X152976000Y-113544000D02*
X151932984Y-113544000D01*
X149819992Y-115656992D02*
X148636984Y-116840000D01*
X148636984Y-118190016D02*
X148463000Y-118364000D01*
X148636984Y-116840000D02*
X148636984Y-118190016D01*
D23*
%TO.N,/Vcc*%
X152965000Y-111944000D02*
X152908000Y-111887000D01*
X152976000Y-111944000D02*
X152965000Y-111944000D01*
X152908000Y-111887000D02*
X149085000Y-111887000D01*
X151098000Y-110344000D02*
X150749000Y-109995000D01*
X152976000Y-110344000D02*
X151098000Y-110344000D01*
D24*
X136128000Y-85140000D02*
X136078000Y-85090000D01*
X137294001Y-90976001D02*
X135282003Y-92987999D01*
X137294001Y-86306001D02*
X137294001Y-90976001D01*
X165377999Y-126722001D02*
X166878000Y-125222000D01*
X138471999Y-126722001D02*
X165377999Y-126722001D01*
X166929002Y-89535000D02*
X164813000Y-89535000D01*
X167647001Y-87712999D02*
X167647001Y-88817001D01*
X166929002Y-97536000D02*
X167647001Y-96818001D01*
X164813000Y-97536000D02*
X166929002Y-97536000D01*
X130597999Y-118848001D02*
X130144499Y-118394501D01*
D23*
X161476000Y-112744000D02*
X163531000Y-112744000D01*
D24*
X154686000Y-82827500D02*
X153693500Y-83820000D01*
X154686000Y-80518000D02*
X154686000Y-82827500D01*
X146935001Y-79017999D02*
X145328999Y-79017999D01*
X148058500Y-83820000D02*
X148058500Y-80141498D01*
X175481001Y-113983001D02*
X175481001Y-94074001D01*
X174470001Y-114994001D02*
X175481001Y-113983001D01*
X175481001Y-94074001D02*
X159512000Y-78105000D01*
X136078000Y-82766500D02*
X136144000Y-82700500D01*
D23*
X167767000Y-108839000D02*
X167767000Y-114291002D01*
X166346500Y-107418500D02*
X167767000Y-108839000D01*
X166116000Y-107418500D02*
X166346500Y-107418500D01*
D24*
X168469999Y-114994001D02*
X174470001Y-114994001D01*
X131699000Y-99949000D02*
X131318000Y-99568000D01*
X136247500Y-99949000D02*
X131699000Y-99949000D01*
X154699000Y-100838000D02*
X155321000Y-100216000D01*
X142510004Y-100219004D02*
X143129000Y-100838000D01*
X142510004Y-100216000D02*
X142510004Y-100219004D01*
X135282003Y-92987999D02*
X142510004Y-100216000D01*
X155321000Y-92215000D02*
X155321000Y-95758000D01*
X143129000Y-100838000D02*
X150241000Y-100838000D01*
X141572001Y-111854001D02*
X141854003Y-111571999D01*
X142154001Y-111272001D02*
X141572001Y-111854001D01*
X141572001Y-111854001D02*
X134578001Y-118848001D01*
D23*
X148769999Y-111571999D02*
X145222001Y-111571999D01*
X148971000Y-111773000D02*
X148769999Y-111571999D01*
D24*
X146519001Y-109385999D02*
X144040003Y-109385999D01*
D23*
X146573001Y-109331999D02*
X146519001Y-109385999D01*
X150085999Y-109331999D02*
X146573001Y-109331999D01*
X150749000Y-109995000D02*
X150085999Y-109331999D01*
X167767000Y-114291002D02*
X167767000Y-114554000D01*
X142461001Y-110965001D02*
X142461001Y-111538999D01*
X142461001Y-111538999D02*
X142428001Y-111571999D01*
D24*
X142428001Y-111571999D02*
X145222001Y-111571999D01*
X144040003Y-109385999D02*
X142461001Y-110965001D01*
X141854003Y-111571999D02*
X142428001Y-111571999D01*
X142461001Y-110965001D02*
X142154001Y-111272001D01*
D23*
X150876000Y-100584000D02*
X150622000Y-100838000D01*
X150876000Y-100203000D02*
X150876000Y-100584000D01*
D24*
X150622000Y-100838000D02*
X154699000Y-100838000D01*
X150241000Y-100838000D02*
X150622000Y-100838000D01*
X155321000Y-95758000D02*
X150876000Y-100203000D01*
X150876000Y-100203000D02*
X150241000Y-100838000D01*
D23*
X131160499Y-119283501D02*
X131595999Y-118848001D01*
D24*
X131595999Y-118848001D02*
X130597999Y-118848001D01*
X134578001Y-118848001D02*
X131595999Y-118848001D01*
X130144499Y-118394501D02*
X131160499Y-119410501D01*
D23*
X131160499Y-119410501D02*
X131160499Y-119283501D01*
D24*
X131160499Y-119410501D02*
X138471999Y-126722001D01*
X145328999Y-79017999D02*
X147470999Y-79017999D01*
X147470999Y-79017999D02*
X147851999Y-79017999D01*
D23*
X167767000Y-114554000D02*
X167767000Y-114681000D01*
X167767000Y-114935000D02*
X167826001Y-114994001D01*
X167767000Y-114554000D02*
X167767000Y-114935000D01*
D24*
X163690000Y-112903000D02*
X165781001Y-114994001D01*
X159512000Y-78105000D02*
X143063000Y-78105000D01*
X138177000Y-85090000D02*
X139955000Y-83312000D01*
X136078000Y-85090000D02*
X138177000Y-85090000D01*
X144249001Y-79017999D02*
X139955000Y-83312000D01*
X145328999Y-79017999D02*
X144249001Y-79017999D01*
D23*
X136619000Y-84549000D02*
X136619000Y-84676000D01*
D24*
X143063000Y-78105000D02*
X136619000Y-84549000D01*
X136619000Y-84549000D02*
X136078000Y-85090000D01*
X167513000Y-89535000D02*
X167647001Y-89400999D01*
X166929002Y-89535000D02*
X167513000Y-89535000D01*
X136619000Y-85504000D02*
X136555500Y-85567500D01*
X136619000Y-84549000D02*
X136619000Y-85504000D01*
X136078000Y-85090000D02*
X136555500Y-85567500D01*
X136240500Y-85694500D02*
X136128000Y-85582000D01*
X136682500Y-85694500D02*
X136240500Y-85694500D01*
X136128000Y-85582000D02*
X136128000Y-85140000D01*
X136555500Y-85567500D02*
X136682500Y-85694500D01*
X136128000Y-87188000D02*
X136128000Y-85582000D01*
X136682500Y-85694500D02*
X137294001Y-86306001D01*
X136106000Y-84549000D02*
X136078000Y-84521000D01*
X136078000Y-84521000D02*
X136078000Y-82766500D01*
X136619000Y-84549000D02*
X136106000Y-84549000D01*
X136078000Y-85090000D02*
X136078000Y-84521000D01*
X158952001Y-79017999D02*
X167647001Y-87712999D01*
X154686000Y-79121000D02*
X154582999Y-79017999D01*
X129817999Y-118068001D02*
X130144499Y-118394501D01*
X129841998Y-99568000D02*
X129817999Y-99591999D01*
D23*
X154686000Y-79375000D02*
X154638002Y-79375000D01*
D24*
X154281001Y-79017999D02*
X154582999Y-79017999D01*
X154686000Y-79375000D02*
X154686000Y-79121000D01*
X155090999Y-79017999D02*
X158952001Y-79017999D01*
D23*
X154686000Y-79375000D02*
X154733998Y-79375000D01*
D24*
X154582999Y-79017999D02*
X155090999Y-79017999D01*
D23*
X147470999Y-79017999D02*
X148058500Y-79605500D01*
D24*
X148058500Y-80141498D02*
X148058500Y-79605500D01*
D23*
X130302000Y-99568000D02*
X129817999Y-99083999D01*
D24*
X129817999Y-99083999D02*
X129817999Y-99591999D01*
X131318000Y-99568000D02*
X130302000Y-99568000D01*
X130302000Y-99568000D02*
X129841998Y-99568000D01*
D23*
X130302000Y-99568000D02*
X129817999Y-100052001D01*
D24*
X129817999Y-100052001D02*
X129817999Y-118068001D01*
X129817999Y-99591999D02*
X129817999Y-100052001D01*
D23*
X154733998Y-79375000D02*
X155090999Y-79017999D01*
X154638002Y-79375000D02*
X154281001Y-79017999D01*
X148058500Y-79605500D02*
X148105500Y-79605500D01*
D24*
X148058500Y-79605500D02*
X148058500Y-79224500D01*
D23*
X148486999Y-79177001D02*
X148058500Y-79605500D01*
X148486999Y-79017999D02*
X148486999Y-79177001D01*
D24*
X147851999Y-79017999D02*
X148486999Y-79017999D01*
X148486999Y-79017999D02*
X154281001Y-79017999D01*
D23*
X154281001Y-79097001D02*
X154686000Y-79502000D01*
X154281001Y-79017999D02*
X154281001Y-79097001D01*
D24*
X154686000Y-79502000D02*
X154686000Y-79375000D01*
X154686000Y-80518000D02*
X154686000Y-79502000D01*
D23*
X155090999Y-79097001D02*
X154686000Y-79502000D01*
X155090999Y-79017999D02*
X155090999Y-79097001D01*
D24*
X129947999Y-92987999D02*
X129817999Y-93117999D01*
D23*
X129947999Y-92987999D02*
X129947999Y-93117999D01*
X130532001Y-92987999D02*
X130405001Y-92987999D01*
D24*
X129817999Y-93575001D02*
X129817999Y-99083999D01*
D23*
X130405001Y-92987999D02*
X129817999Y-93575001D01*
D24*
X129817999Y-93117999D02*
X129817999Y-93575001D01*
X135282003Y-92987999D02*
X130532001Y-92987999D01*
X130532001Y-92987999D02*
X129947999Y-92987999D01*
D23*
X167453999Y-114867001D02*
X167767000Y-114554000D01*
X167453999Y-114994001D02*
X167453999Y-114867001D01*
D24*
X165781001Y-114994001D02*
X167453999Y-114994001D01*
X167453999Y-114994001D02*
X167826001Y-114994001D01*
D23*
X167767000Y-114554000D02*
X168207001Y-114994001D01*
D24*
X168207001Y-114994001D02*
X168469999Y-114994001D01*
X167826001Y-114994001D02*
X168207001Y-114994001D01*
D23*
X167005000Y-89535000D02*
X167647001Y-90177001D01*
D24*
X167647001Y-90177001D02*
X167647001Y-89400999D01*
D23*
X167005000Y-89535000D02*
X167647001Y-88892999D01*
X166929002Y-89535000D02*
X167005000Y-89535000D01*
D24*
X167647001Y-88892999D02*
X167647001Y-87712999D01*
X167647001Y-89400999D02*
X167647001Y-88892999D01*
X167146002Y-92075000D02*
X167647001Y-91574001D01*
X164813000Y-92075000D02*
X167146002Y-92075000D01*
X167647001Y-91574001D02*
X167647001Y-90177001D01*
X167146002Y-92089002D02*
X167647001Y-92590001D01*
X167146002Y-92075000D02*
X167146002Y-92089002D01*
X167647001Y-92590001D02*
X167647001Y-91574001D01*
X167647001Y-96818001D02*
X167647001Y-92590001D01*
X155461000Y-100076000D02*
X155321000Y-100216000D01*
X157513000Y-100076000D02*
X155461000Y-100076000D01*
X155461000Y-92075000D02*
X155321000Y-92215000D01*
X157513000Y-92075000D02*
X155461000Y-92075000D01*
D23*
%TO.N,Net-(C4-Pad1)*%
X163671000Y-111144000D02*
X163690000Y-111125000D01*
X161476000Y-111144000D02*
X163671000Y-111144000D01*
D24*
%TO.N,/Vcc2*%
X143255000Y-87988500D02*
X143002000Y-88241500D01*
X143255000Y-85979000D02*
X143255000Y-87988500D01*
X143255000Y-83312000D02*
X143255000Y-85979000D01*
X145021000Y-85979000D02*
X145034000Y-85966000D01*
X143255000Y-85979000D02*
X145021000Y-85979000D01*
X145034000Y-85966000D02*
X147307000Y-85966000D01*
X147701000Y-86360000D02*
X147701000Y-86416000D01*
X147307000Y-85966000D02*
X147701000Y-86360000D01*
D25*
%TO.N,/DTR*%
X135382000Y-101854000D02*
X136512000Y-101854000D01*
X134366000Y-107188000D02*
X135382000Y-106172000D01*
X131318000Y-107188000D02*
X134366000Y-107188000D01*
%TO.N,Net-(D1-Pad2)*%
X172466000Y-120880500D02*
X172466000Y-119047500D01*
%TO.N,/TX*%
X154375002Y-104648000D02*
X131318000Y-104648000D01*
X155226000Y-105498998D02*
X154375002Y-104648000D01*
X155226000Y-106494000D02*
X155226000Y-105498998D01*
%TO.N,/RX*%
X156026000Y-106494000D02*
X156026000Y-105494000D01*
X156026000Y-105494000D02*
X153910000Y-103378000D01*
X132588000Y-103378000D02*
X131318000Y-102108000D01*
X153910000Y-103378000D02*
X132588000Y-103378000D01*
%TO.N,/D8*%
X156826000Y-117710000D02*
X161798000Y-122682000D01*
X156826000Y-114994000D02*
X156826000Y-117710000D01*
%TO.N,/D7*%
X156026000Y-119450000D02*
X159258000Y-122682000D01*
X156026000Y-114994000D02*
X156026000Y-119450000D01*
%TO.N,/D6*%
X155226000Y-121190000D02*
X156718000Y-122682000D01*
X155226000Y-114994000D02*
X155226000Y-121190000D01*
%TO.N,/D5*%
X154426000Y-122434000D02*
X154178000Y-122682000D01*
X154426000Y-114994000D02*
X154426000Y-122434000D01*
%TO.N,/D4*%
X151980998Y-108744000D02*
X152976000Y-108744000D01*
X151624010Y-108387012D02*
X151980998Y-108744000D01*
X151624010Y-107961110D02*
X151624010Y-108387012D01*
X150977900Y-107315000D02*
X151624010Y-107961110D01*
X143891000Y-107315000D02*
X150977900Y-107315000D01*
X133858000Y-117348000D02*
X143891000Y-107315000D01*
%TO.N,/D3*%
X133858000Y-114808000D02*
X133731000Y-114808000D01*
X152314020Y-107944000D02*
X152976000Y-107944000D01*
X150923020Y-106553000D02*
X152314020Y-107944000D01*
X142113000Y-106553000D02*
X150923020Y-106553000D01*
X133858000Y-114808000D02*
X142113000Y-106553000D01*
%TO.N,/D2*%
X154426000Y-106494000D02*
X153230000Y-106494000D01*
X153230000Y-106494000D02*
X152400000Y-105664000D01*
X152400000Y-105664000D02*
X140462000Y-105664000D01*
X140462000Y-105664000D02*
X139509500Y-106616500D01*
X139509500Y-106616500D02*
X133858000Y-112268000D01*
X139632000Y-106494000D02*
X139509500Y-106616500D01*
%TO.N,/SCL*%
X158318002Y-97536000D02*
X157513000Y-97536000D01*
X157513000Y-97536000D02*
X156707998Y-97536000D01*
X150241000Y-87015256D02*
X150241000Y-86416000D01*
X150241000Y-84177500D02*
X149883500Y-83820000D01*
X150241000Y-86416000D02*
X150241000Y-84177500D01*
X149883500Y-80795500D02*
X149606000Y-80518000D01*
X149883500Y-83820000D02*
X149883500Y-80795500D01*
X157626000Y-102038002D02*
X157626000Y-106494000D01*
X158863001Y-100801001D02*
X157626000Y-102038002D01*
X158863001Y-97836001D02*
X158863001Y-100801001D01*
X158563000Y-97536000D02*
X158863001Y-97836001D01*
X157513000Y-97536000D02*
X158563000Y-97536000D01*
X156463000Y-97536000D02*
X157513000Y-97536000D01*
X156162999Y-97235999D02*
X156463000Y-97536000D01*
X158863001Y-92800001D02*
X156162999Y-95500003D01*
X156162999Y-95500003D02*
X156162999Y-97235999D01*
X158863001Y-89775001D02*
X158863001Y-92800001D01*
X158623000Y-89535000D02*
X158863001Y-89775001D01*
X157513000Y-89535000D02*
X158623000Y-89535000D01*
X150241000Y-87503000D02*
X150241000Y-86416000D01*
X152273000Y-89535000D02*
X150241000Y-87503000D01*
X157513000Y-89535000D02*
X152273000Y-89535000D01*
%TO.N,/SDA*%
X158318002Y-96266000D02*
X157513000Y-96266000D01*
X158318002Y-88265000D02*
X157513000Y-88265000D01*
X157513000Y-96266000D02*
X158563000Y-96266000D01*
X151868500Y-80795500D02*
X152146000Y-80518000D01*
X151868500Y-83820000D02*
X151868500Y-80795500D01*
X151511000Y-84177500D02*
X151868500Y-83820000D01*
X151511000Y-86416000D02*
X151511000Y-84177500D01*
X157513000Y-88265000D02*
X152339286Y-88265000D01*
X151511000Y-87436714D02*
X151511000Y-86416000D01*
X152339286Y-88265000D02*
X151511000Y-87436714D01*
X159463010Y-101049534D02*
X159463010Y-97166010D01*
X158426000Y-102086544D02*
X159463010Y-101049534D01*
X158426000Y-106494000D02*
X158426000Y-102086544D01*
X158623000Y-88265000D02*
X157513000Y-88265000D01*
X159463010Y-95365990D02*
X159463010Y-89105010D01*
X159463010Y-89105010D02*
X158623000Y-88265000D01*
X158656500Y-96172500D02*
X158656500Y-96359500D01*
X158656500Y-96359500D02*
X158563000Y-96266000D01*
X159463010Y-97166010D02*
X158656500Y-96359500D01*
X158563000Y-96266000D02*
X158656500Y-96172500D01*
X158656500Y-96172500D02*
X159463010Y-95365990D01*
%TO.N,/MOSI*%
X165227000Y-122682000D02*
X166878000Y-122682000D01*
X159226000Y-116681000D02*
X165227000Y-122682000D01*
X159226000Y-114994000D02*
X159226000Y-116681000D01*
%TO.N,/SCK*%
X162130002Y-113544000D02*
X161476000Y-113544000D01*
X172442500Y-122682000D02*
X172466000Y-122705500D01*
X169418000Y-122682000D02*
X172442500Y-122682000D01*
X162427000Y-113544000D02*
X161476000Y-113544000D01*
X168128001Y-119245001D02*
X162427000Y-113544000D01*
X168128001Y-120742001D02*
X168128001Y-119245001D01*
X169418000Y-122032000D02*
X168128001Y-120742001D01*
X169418000Y-122682000D02*
X169418000Y-122032000D01*
%TO.N,/MISO*%
X168167999Y-123971999D02*
X169418000Y-125222000D01*
X168167999Y-122121997D02*
X168167999Y-123971999D01*
X165463999Y-121431999D02*
X167478001Y-121431999D01*
X167478001Y-121431999D02*
X168167999Y-122121997D01*
X160026000Y-115994000D02*
X165463999Y-121431999D01*
X160026000Y-114994000D02*
X160026000Y-115994000D01*
%TO.N,Net-(R5-Pad2)*%
X150241000Y-93416000D02*
X150241000Y-92329000D01*
X147978500Y-90066500D02*
X143002000Y-90066500D01*
X150241000Y-92329000D02*
X147978500Y-90066500D01*
%TO.N,/ADDR2*%
X159226000Y-106494000D02*
X159226000Y-103537000D01*
X159226000Y-103537000D02*
X162687000Y-100076000D01*
X163763000Y-90805000D02*
X164813000Y-90805000D01*
X162687000Y-91881000D02*
X163763000Y-90805000D01*
X162687000Y-100076000D02*
X162687000Y-91881000D01*
%TO.N,/ADDR1*%
X163763000Y-100076000D02*
X164813000Y-100076000D01*
X160026000Y-103813000D02*
X163763000Y-100076000D01*
X160026000Y-106494000D02*
X160026000Y-103813000D01*
%TO.N,/X2*%
X148971000Y-95390000D02*
X149212000Y-95631000D01*
X148971000Y-93416000D02*
X148971000Y-95390000D01*
X149212000Y-97416000D02*
X149586000Y-97790000D01*
X149212000Y-95631000D02*
X149212000Y-97416000D01*
%TO.N,/X1*%
X147701000Y-95390000D02*
X147460000Y-95631000D01*
X147701000Y-93416000D02*
X147701000Y-95390000D01*
X147460000Y-97416000D02*
X147086000Y-97790000D01*
X147460000Y-95631000D02*
X147460000Y-97416000D01*
%TO.N,/~RESET*%
X156826000Y-104667000D02*
X156845000Y-104648000D01*
X156826000Y-106494000D02*
X156826000Y-104667000D01*
X154051000Y-101854000D02*
X138062000Y-101854000D01*
X156845000Y-104648000D02*
X154051000Y-101854000D01*
X138062000Y-99959500D02*
X138072500Y-99949000D01*
X138062000Y-101854000D02*
X138062000Y-99959500D01*
X160909000Y-104648000D02*
X169581000Y-104648000D01*
X169581000Y-112608000D02*
X169581000Y-104648000D01*
X169581000Y-114010000D02*
X169545000Y-114046000D01*
X169581000Y-113883000D02*
X169545000Y-113919000D01*
X169581000Y-112608000D02*
X169581000Y-114010000D01*
%TO.N,/VSUPPLY*%
X163633000Y-109544000D02*
X163957000Y-109220000D01*
X161476000Y-109544000D02*
X163633000Y-109544000D01*
X166092500Y-109220000D02*
X166116000Y-109243500D01*
X163957000Y-109220000D02*
X166092500Y-109220000D01*
%TO.N,Net-(D4-Pad2)*%
X136119000Y-80850500D02*
X136144000Y-80875500D01*
X133858000Y-80850500D02*
X136119000Y-80850500D01*
%TD*%
M02*
