M48
; DRILL file {KiCad (5.1.9)-1} date 01/12/21 20:26:04
; FORMAT={2:4/ absolute / inch / suppress leading zeros}
; #@! TF.CreationDate,2021-01-12T20:26:04-08:00
; #@! TF.GenerationSoftware,Kicad,Pcbnew,(5.1.9)-1
; #@! TF.FileFunction,Plated,1,2,PTH
FMAT,2
INCH,TZ
T1C0.0315
T2C0.0354
T3C0.0394
T4C0.0400
T5C0.0433
T6C0.0630
%
G90
G05
T1
X45250Y-31500
X46234Y-31500
X47900Y-30600
X47900Y-33600
X47900Y-46900
X47900Y-49900
T2
X47550Y-36350
X47550Y-44150
X48550Y-36350
X48550Y-44150
T3
X41250Y-32300
X43219Y-32300
X50100Y-30850
X50100Y-31850
X50100Y-48550
X50100Y-49550
X51100Y-30850
X51100Y-31850
X51100Y-48550
X51100Y-49550
T4
X48288Y-39270
X48288Y-40250
X48288Y-41230
T5
X40800Y-39100
X40800Y-40883
X40800Y-42667
X40800Y-44450
X41450Y-36800
X42450Y-36800
X43450Y-36800
X44800Y-39100
X44800Y-40883
X44800Y-42667
X44800Y-44450
T6
X43288Y-47900
X44469Y-49750
X45650Y-47900
T0
M30
