G04 #@! TF.GenerationSoftware,KiCad,Pcbnew,(5.1.9)-1*
G04 #@! TF.CreationDate,2021-01-12T20:24:35-08:00*
G04 #@! TF.ProjectId,BreadboardPowerSupply,42726561-6462-46f6-9172-64506f776572,1*
G04 #@! TF.SameCoordinates,Original*
G04 #@! TF.FileFunction,Legend,Top*
G04 #@! TF.FilePolarity,Positive*
%FSLAX46Y46*%
G04 Gerber Fmt 4.6, Leading zero omitted, Abs format (unit mm)*
G04 Created by KiCad (PCBNEW (5.1.9)-1) date 2021-01-12 20:24:35*
%MOMM*%
%LPD*%
G01*
G04 APERTURE LIST*
%ADD10C,0.150000*%
%ADD11C,0.250000*%
%ADD12C,0.120000*%
%ADD13C,0.152400*%
G04 APERTURE END LIST*
D10*
X114371380Y-94749666D02*
X114371380Y-95225857D01*
X113371380Y-95225857D01*
X114371380Y-94416333D02*
X113371380Y-94416333D01*
X114085666Y-94083000D01*
X113371380Y-93749666D01*
X114371380Y-93749666D01*
X113371380Y-93368714D02*
X113371380Y-92702047D01*
X114371380Y-93130619D01*
X113799952Y-92178238D02*
X113752333Y-92273476D01*
X113704714Y-92321095D01*
X113609476Y-92368714D01*
X113561857Y-92368714D01*
X113466619Y-92321095D01*
X113419000Y-92273476D01*
X113371380Y-92178238D01*
X113371380Y-91987761D01*
X113419000Y-91892523D01*
X113466619Y-91844904D01*
X113561857Y-91797285D01*
X113609476Y-91797285D01*
X113704714Y-91844904D01*
X113752333Y-91892523D01*
X113799952Y-91987761D01*
X113799952Y-92178238D01*
X113847571Y-92273476D01*
X113895190Y-92321095D01*
X113990428Y-92368714D01*
X114180904Y-92368714D01*
X114276142Y-92321095D01*
X114323761Y-92273476D01*
X114371380Y-92178238D01*
X114371380Y-91987761D01*
X114323761Y-91892523D01*
X114276142Y-91844904D01*
X114180904Y-91797285D01*
X113990428Y-91797285D01*
X113895190Y-91844904D01*
X113847571Y-91892523D01*
X113799952Y-91987761D01*
X113371380Y-91178238D02*
X113371380Y-91083000D01*
X113419000Y-90987761D01*
X113466619Y-90940142D01*
X113561857Y-90892523D01*
X113752333Y-90844904D01*
X113990428Y-90844904D01*
X114180904Y-90892523D01*
X114276142Y-90940142D01*
X114323761Y-90987761D01*
X114371380Y-91083000D01*
X114371380Y-91178238D01*
X114323761Y-91273476D01*
X114276142Y-91321095D01*
X114180904Y-91368714D01*
X113990428Y-91416333D01*
X113752333Y-91416333D01*
X113561857Y-91368714D01*
X113466619Y-91321095D01*
X113419000Y-91273476D01*
X113371380Y-91178238D01*
X113371380Y-89940142D02*
X113371380Y-90416333D01*
X113847571Y-90463952D01*
X113799952Y-90416333D01*
X113752333Y-90321095D01*
X113752333Y-90083000D01*
X113799952Y-89987761D01*
X113847571Y-89940142D01*
X113942809Y-89892523D01*
X114180904Y-89892523D01*
X114276142Y-89940142D01*
X114323761Y-89987761D01*
X114371380Y-90083000D01*
X114371380Y-90321095D01*
X114323761Y-90416333D01*
X114276142Y-90463952D01*
X118959380Y-85677142D02*
X118959380Y-85058095D01*
X119340333Y-85391428D01*
X119340333Y-85248571D01*
X119387952Y-85153333D01*
X119435571Y-85105714D01*
X119530809Y-85058095D01*
X119768904Y-85058095D01*
X119864142Y-85105714D01*
X119911761Y-85153333D01*
X119959380Y-85248571D01*
X119959380Y-85534285D01*
X119911761Y-85629523D01*
X119864142Y-85677142D01*
X118959380Y-84724761D02*
X118959380Y-84105714D01*
X119340333Y-84439047D01*
X119340333Y-84296190D01*
X119387952Y-84200952D01*
X119435571Y-84153333D01*
X119530809Y-84105714D01*
X119768904Y-84105714D01*
X119864142Y-84153333D01*
X119911761Y-84200952D01*
X119959380Y-84296190D01*
X119959380Y-84581904D01*
X119911761Y-84677142D01*
X119864142Y-84724761D01*
X118959380Y-83486666D02*
X118959380Y-83391428D01*
X119007000Y-83296190D01*
X119054619Y-83248571D01*
X119149857Y-83200952D01*
X119340333Y-83153333D01*
X119578428Y-83153333D01*
X119768904Y-83200952D01*
X119864142Y-83248571D01*
X119911761Y-83296190D01*
X119959380Y-83391428D01*
X119959380Y-83486666D01*
X119911761Y-83581904D01*
X119864142Y-83629523D01*
X119768904Y-83677142D01*
X119578428Y-83724761D01*
X119340333Y-83724761D01*
X119149857Y-83677142D01*
X119054619Y-83629523D01*
X119007000Y-83581904D01*
X118959380Y-83486666D01*
X119959380Y-82772380D02*
X119959380Y-82534285D01*
X119768904Y-82534285D01*
X119721285Y-82629523D01*
X119626047Y-82724761D01*
X119483190Y-82772380D01*
X119245095Y-82772380D01*
X119102238Y-82724761D01*
X119007000Y-82629523D01*
X118959380Y-82486666D01*
X118959380Y-82296190D01*
X119007000Y-82153333D01*
X119102238Y-82058095D01*
X119245095Y-82010476D01*
X119483190Y-82010476D01*
X119626047Y-82058095D01*
X119721285Y-82153333D01*
X119768904Y-82248571D01*
X119959380Y-82248571D01*
X119959380Y-82010476D01*
X118959380Y-124793142D02*
X118959380Y-124174095D01*
X119340333Y-124507428D01*
X119340333Y-124364571D01*
X119387952Y-124269333D01*
X119435571Y-124221714D01*
X119530809Y-124174095D01*
X119768904Y-124174095D01*
X119864142Y-124221714D01*
X119911761Y-124269333D01*
X119959380Y-124364571D01*
X119959380Y-124650285D01*
X119911761Y-124745523D01*
X119864142Y-124793142D01*
X118959380Y-123840761D02*
X118959380Y-123221714D01*
X119340333Y-123555047D01*
X119340333Y-123412190D01*
X119387952Y-123316952D01*
X119435571Y-123269333D01*
X119530809Y-123221714D01*
X119768904Y-123221714D01*
X119864142Y-123269333D01*
X119911761Y-123316952D01*
X119959380Y-123412190D01*
X119959380Y-123697904D01*
X119911761Y-123793142D01*
X119864142Y-123840761D01*
X118959380Y-122602666D02*
X118959380Y-122507428D01*
X119007000Y-122412190D01*
X119054619Y-122364571D01*
X119149857Y-122316952D01*
X119340333Y-122269333D01*
X119578428Y-122269333D01*
X119768904Y-122316952D01*
X119864142Y-122364571D01*
X119911761Y-122412190D01*
X119959380Y-122507428D01*
X119959380Y-122602666D01*
X119911761Y-122697904D01*
X119864142Y-122745523D01*
X119768904Y-122793142D01*
X119578428Y-122840761D01*
X119340333Y-122840761D01*
X119149857Y-122793142D01*
X119054619Y-122745523D01*
X119007000Y-122697904D01*
X118959380Y-122602666D01*
X119959380Y-121888380D02*
X119959380Y-121650285D01*
X119768904Y-121650285D01*
X119721285Y-121745523D01*
X119626047Y-121840761D01*
X119483190Y-121888380D01*
X119245095Y-121888380D01*
X119102238Y-121840761D01*
X119007000Y-121745523D01*
X118959380Y-121602666D01*
X118959380Y-121412190D01*
X119007000Y-121269333D01*
X119102238Y-121174095D01*
X119245095Y-121126476D01*
X119483190Y-121126476D01*
X119626047Y-121174095D01*
X119721285Y-121269333D01*
X119768904Y-121364571D01*
X119959380Y-121364571D01*
X119959380Y-121126476D01*
X114585904Y-84113714D02*
X114585904Y-84780380D01*
X114347809Y-83732761D02*
X114109714Y-84447047D01*
X114728761Y-84447047D01*
X115014476Y-83780380D02*
X115681142Y-83780380D01*
X115252571Y-84780380D01*
X116062095Y-84113714D02*
X116062095Y-85113714D01*
X116538285Y-84637523D02*
X116585904Y-84732761D01*
X116681142Y-84780380D01*
X116062095Y-84637523D02*
X116109714Y-84732761D01*
X116204952Y-84780380D01*
X116395428Y-84780380D01*
X116490666Y-84732761D01*
X116538285Y-84637523D01*
X116538285Y-84113714D01*
X117443047Y-84256571D02*
X117109714Y-84256571D01*
X117109714Y-84780380D02*
X117109714Y-83780380D01*
X117585904Y-83780380D01*
X102425714Y-87796714D02*
X102425714Y-88463380D01*
X102187619Y-87415761D02*
X101949523Y-88130047D01*
X102568571Y-88130047D01*
X102854285Y-87463380D02*
X103520952Y-87463380D01*
X103092380Y-88463380D01*
X104092380Y-87463380D02*
X104187619Y-87463380D01*
X104282857Y-87511000D01*
X104330476Y-87558619D01*
X104378095Y-87653857D01*
X104425714Y-87844333D01*
X104425714Y-88082428D01*
X104378095Y-88272904D01*
X104330476Y-88368142D01*
X104282857Y-88415761D01*
X104187619Y-88463380D01*
X104092380Y-88463380D01*
X103997142Y-88415761D01*
X103949523Y-88368142D01*
X103901904Y-88272904D01*
X103854285Y-88082428D01*
X103854285Y-87844333D01*
X103901904Y-87653857D01*
X103949523Y-87558619D01*
X103997142Y-87511000D01*
X104092380Y-87463380D01*
X104854285Y-87796714D02*
X104854285Y-88796714D01*
X105330476Y-88320523D02*
X105378095Y-88415761D01*
X105473333Y-88463380D01*
X104854285Y-88320523D02*
X104901904Y-88415761D01*
X104997142Y-88463380D01*
X105187619Y-88463380D01*
X105282857Y-88415761D01*
X105330476Y-88320523D01*
X105330476Y-87796714D01*
X106235238Y-87939571D02*
X105901904Y-87939571D01*
X105901904Y-88463380D02*
X105901904Y-87463380D01*
X106378095Y-87463380D01*
D11*
X123952095Y-81288000D02*
X123856857Y-81240380D01*
X123714000Y-81240380D01*
X123571142Y-81288000D01*
X123475904Y-81383238D01*
X123428285Y-81478476D01*
X123380666Y-81668952D01*
X123380666Y-81811809D01*
X123428285Y-82002285D01*
X123475904Y-82097523D01*
X123571142Y-82192761D01*
X123714000Y-82240380D01*
X123809238Y-82240380D01*
X123952095Y-82192761D01*
X123999714Y-82145142D01*
X123999714Y-81811809D01*
X123809238Y-81811809D01*
X124428285Y-82240380D02*
X124428285Y-81240380D01*
X124999714Y-82240380D01*
X124999714Y-81240380D01*
X125475904Y-82240380D02*
X125475904Y-81240380D01*
X125714000Y-81240380D01*
X125856857Y-81288000D01*
X125952095Y-81383238D01*
X125999714Y-81478476D01*
X126047333Y-81668952D01*
X126047333Y-81811809D01*
X125999714Y-82002285D01*
X125952095Y-82097523D01*
X125856857Y-82192761D01*
X125714000Y-82240380D01*
X125475904Y-82240380D01*
X124269523Y-76922380D02*
X123793333Y-76922380D01*
X123745714Y-77398571D01*
X123793333Y-77350952D01*
X123888571Y-77303333D01*
X124126666Y-77303333D01*
X124221904Y-77350952D01*
X124269523Y-77398571D01*
X124317142Y-77493809D01*
X124317142Y-77731904D01*
X124269523Y-77827142D01*
X124221904Y-77874761D01*
X124126666Y-77922380D01*
X123888571Y-77922380D01*
X123793333Y-77874761D01*
X123745714Y-77827142D01*
X124602857Y-76922380D02*
X124936190Y-77922380D01*
X125269523Y-76922380D01*
X124269523Y-121880380D02*
X123793333Y-121880380D01*
X123745714Y-122356571D01*
X123793333Y-122308952D01*
X123888571Y-122261333D01*
X124126666Y-122261333D01*
X124221904Y-122308952D01*
X124269523Y-122356571D01*
X124317142Y-122451809D01*
X124317142Y-122689904D01*
X124269523Y-122785142D01*
X124221904Y-122832761D01*
X124126666Y-122880380D01*
X123888571Y-122880380D01*
X123793333Y-122832761D01*
X123745714Y-122785142D01*
X124602857Y-121880380D02*
X124936190Y-122880380D01*
X125269523Y-121880380D01*
X123952095Y-126246000D02*
X123856857Y-126198380D01*
X123714000Y-126198380D01*
X123571142Y-126246000D01*
X123475904Y-126341238D01*
X123428285Y-126436476D01*
X123380666Y-126626952D01*
X123380666Y-126769809D01*
X123428285Y-126960285D01*
X123475904Y-127055523D01*
X123571142Y-127150761D01*
X123714000Y-127198380D01*
X123809238Y-127198380D01*
X123952095Y-127150761D01*
X123999714Y-127103142D01*
X123999714Y-126769809D01*
X123809238Y-126769809D01*
X124428285Y-127198380D02*
X124428285Y-126198380D01*
X124999714Y-127198380D01*
X124999714Y-126198380D01*
X125475904Y-127198380D02*
X125475904Y-126198380D01*
X125714000Y-126198380D01*
X125856857Y-126246000D01*
X125952095Y-126341238D01*
X125999714Y-126436476D01*
X126047333Y-126626952D01*
X126047333Y-126769809D01*
X125999714Y-126960285D01*
X125952095Y-127055523D01*
X125856857Y-127150761D01*
X125714000Y-127198380D01*
X125475904Y-127198380D01*
X121666000Y-105640142D02*
X121713619Y-105687761D01*
X121666000Y-105735380D01*
X121618380Y-105687761D01*
X121666000Y-105640142D01*
X121666000Y-105735380D01*
D12*
G04 #@! TO.C,C1*
X102295354Y-78667000D02*
X102295354Y-79667000D01*
X101795354Y-79167000D02*
X102795354Y-79167000D01*
X112356000Y-81443000D02*
X112356000Y-82641000D01*
X112316000Y-81180000D02*
X112316000Y-82904000D01*
X112276000Y-80980000D02*
X112276000Y-83104000D01*
X112236000Y-80812000D02*
X112236000Y-83272000D01*
X112196000Y-80664000D02*
X112196000Y-83420000D01*
X112156000Y-80532000D02*
X112156000Y-83552000D01*
X112116000Y-80412000D02*
X112116000Y-83672000D01*
X112076000Y-80300000D02*
X112076000Y-83784000D01*
X112036000Y-80196000D02*
X112036000Y-83888000D01*
X111996000Y-80098000D02*
X111996000Y-83986000D01*
X111956000Y-80005000D02*
X111956000Y-84079000D01*
X111916000Y-79917000D02*
X111916000Y-84167000D01*
X111876000Y-79833000D02*
X111876000Y-84251000D01*
X111836000Y-79753000D02*
X111836000Y-84331000D01*
X111796000Y-79677000D02*
X111796000Y-84407000D01*
X111756000Y-79603000D02*
X111756000Y-84481000D01*
X111716000Y-79532000D02*
X111716000Y-84552000D01*
X111676000Y-79463000D02*
X111676000Y-84621000D01*
X111636000Y-79397000D02*
X111636000Y-84687000D01*
X111596000Y-79333000D02*
X111596000Y-84751000D01*
X111556000Y-79272000D02*
X111556000Y-84812000D01*
X111516000Y-79212000D02*
X111516000Y-84872000D01*
X111476000Y-79153000D02*
X111476000Y-84931000D01*
X111436000Y-79097000D02*
X111436000Y-84987000D01*
X111396000Y-79042000D02*
X111396000Y-85042000D01*
X111356000Y-78988000D02*
X111356000Y-85096000D01*
X111316000Y-78936000D02*
X111316000Y-85148000D01*
X111276000Y-78886000D02*
X111276000Y-85198000D01*
X111236000Y-78836000D02*
X111236000Y-85248000D01*
X111196000Y-78788000D02*
X111196000Y-85296000D01*
X111156000Y-78741000D02*
X111156000Y-85343000D01*
X111116000Y-78695000D02*
X111116000Y-85389000D01*
X111076000Y-78650000D02*
X111076000Y-85434000D01*
X111036000Y-78606000D02*
X111036000Y-85478000D01*
X110996000Y-83283000D02*
X110996000Y-85520000D01*
X110996000Y-78564000D02*
X110996000Y-80801000D01*
X110956000Y-83283000D02*
X110956000Y-85562000D01*
X110956000Y-78522000D02*
X110956000Y-80801000D01*
X110916000Y-83283000D02*
X110916000Y-85603000D01*
X110916000Y-78481000D02*
X110916000Y-80801000D01*
X110876000Y-83283000D02*
X110876000Y-85643000D01*
X110876000Y-78441000D02*
X110876000Y-80801000D01*
X110836000Y-83283000D02*
X110836000Y-85682000D01*
X110836000Y-78402000D02*
X110836000Y-80801000D01*
X110796000Y-83283000D02*
X110796000Y-85721000D01*
X110796000Y-78363000D02*
X110796000Y-80801000D01*
X110756000Y-83283000D02*
X110756000Y-85758000D01*
X110756000Y-78326000D02*
X110756000Y-80801000D01*
X110716000Y-83283000D02*
X110716000Y-85795000D01*
X110716000Y-78289000D02*
X110716000Y-80801000D01*
X110676000Y-83283000D02*
X110676000Y-85831000D01*
X110676000Y-78253000D02*
X110676000Y-80801000D01*
X110636000Y-83283000D02*
X110636000Y-85866000D01*
X110636000Y-78218000D02*
X110636000Y-80801000D01*
X110596000Y-83283000D02*
X110596000Y-85900000D01*
X110596000Y-78184000D02*
X110596000Y-80801000D01*
X110556000Y-83283000D02*
X110556000Y-85934000D01*
X110556000Y-78150000D02*
X110556000Y-80801000D01*
X110516000Y-83283000D02*
X110516000Y-85967000D01*
X110516000Y-78117000D02*
X110516000Y-80801000D01*
X110476000Y-83283000D02*
X110476000Y-85999000D01*
X110476000Y-78085000D02*
X110476000Y-80801000D01*
X110436000Y-83283000D02*
X110436000Y-86031000D01*
X110436000Y-78053000D02*
X110436000Y-80801000D01*
X110396000Y-83283000D02*
X110396000Y-86062000D01*
X110396000Y-78022000D02*
X110396000Y-80801000D01*
X110356000Y-83283000D02*
X110356000Y-86092000D01*
X110356000Y-77992000D02*
X110356000Y-80801000D01*
X110316000Y-83283000D02*
X110316000Y-86122000D01*
X110316000Y-77962000D02*
X110316000Y-80801000D01*
X110276000Y-83283000D02*
X110276000Y-86152000D01*
X110276000Y-77932000D02*
X110276000Y-80801000D01*
X110236000Y-83283000D02*
X110236000Y-86180000D01*
X110236000Y-77904000D02*
X110236000Y-80801000D01*
X110196000Y-83283000D02*
X110196000Y-86208000D01*
X110196000Y-77876000D02*
X110196000Y-80801000D01*
X110156000Y-83283000D02*
X110156000Y-86236000D01*
X110156000Y-77848000D02*
X110156000Y-80801000D01*
X110116000Y-83283000D02*
X110116000Y-86263000D01*
X110116000Y-77821000D02*
X110116000Y-80801000D01*
X110076000Y-83283000D02*
X110076000Y-86289000D01*
X110076000Y-77795000D02*
X110076000Y-80801000D01*
X110036000Y-83283000D02*
X110036000Y-86315000D01*
X110036000Y-77769000D02*
X110036000Y-80801000D01*
X109996000Y-83283000D02*
X109996000Y-86340000D01*
X109996000Y-77744000D02*
X109996000Y-80801000D01*
X109956000Y-83283000D02*
X109956000Y-86365000D01*
X109956000Y-77719000D02*
X109956000Y-80801000D01*
X109916000Y-83283000D02*
X109916000Y-86389000D01*
X109916000Y-77695000D02*
X109916000Y-80801000D01*
X109876000Y-83283000D02*
X109876000Y-86413000D01*
X109876000Y-77671000D02*
X109876000Y-80801000D01*
X109836000Y-83283000D02*
X109836000Y-86437000D01*
X109836000Y-77647000D02*
X109836000Y-80801000D01*
X109796000Y-83283000D02*
X109796000Y-86459000D01*
X109796000Y-77625000D02*
X109796000Y-80801000D01*
X109756000Y-83283000D02*
X109756000Y-86482000D01*
X109756000Y-77602000D02*
X109756000Y-80801000D01*
X109716000Y-83283000D02*
X109716000Y-86504000D01*
X109716000Y-77580000D02*
X109716000Y-80801000D01*
X109676000Y-83283000D02*
X109676000Y-86525000D01*
X109676000Y-77559000D02*
X109676000Y-80801000D01*
X109636000Y-83283000D02*
X109636000Y-86546000D01*
X109636000Y-77538000D02*
X109636000Y-80801000D01*
X109596000Y-83283000D02*
X109596000Y-86567000D01*
X109596000Y-77517000D02*
X109596000Y-80801000D01*
X109556000Y-83283000D02*
X109556000Y-86587000D01*
X109556000Y-77497000D02*
X109556000Y-80801000D01*
X109516000Y-83283000D02*
X109516000Y-86606000D01*
X109516000Y-77478000D02*
X109516000Y-80801000D01*
X109476000Y-83283000D02*
X109476000Y-86626000D01*
X109476000Y-77458000D02*
X109476000Y-80801000D01*
X109436000Y-83283000D02*
X109436000Y-86645000D01*
X109436000Y-77439000D02*
X109436000Y-80801000D01*
X109396000Y-83283000D02*
X109396000Y-86663000D01*
X109396000Y-77421000D02*
X109396000Y-80801000D01*
X109356000Y-83283000D02*
X109356000Y-86681000D01*
X109356000Y-77403000D02*
X109356000Y-80801000D01*
X109316000Y-83283000D02*
X109316000Y-86699000D01*
X109316000Y-77385000D02*
X109316000Y-80801000D01*
X109276000Y-83283000D02*
X109276000Y-86716000D01*
X109276000Y-77368000D02*
X109276000Y-80801000D01*
X109236000Y-83283000D02*
X109236000Y-86732000D01*
X109236000Y-77352000D02*
X109236000Y-80801000D01*
X109196000Y-83283000D02*
X109196000Y-86749000D01*
X109196000Y-77335000D02*
X109196000Y-80801000D01*
X109156000Y-83283000D02*
X109156000Y-86765000D01*
X109156000Y-77319000D02*
X109156000Y-80801000D01*
X109116000Y-83283000D02*
X109116000Y-86780000D01*
X109116000Y-77304000D02*
X109116000Y-80801000D01*
X109076000Y-83283000D02*
X109076000Y-86796000D01*
X109076000Y-77288000D02*
X109076000Y-80801000D01*
X109036000Y-83283000D02*
X109036000Y-86810000D01*
X109036000Y-77274000D02*
X109036000Y-80801000D01*
X108996000Y-83283000D02*
X108996000Y-86825000D01*
X108996000Y-77259000D02*
X108996000Y-80801000D01*
X108956000Y-83283000D02*
X108956000Y-86839000D01*
X108956000Y-77245000D02*
X108956000Y-80801000D01*
X108916000Y-83283000D02*
X108916000Y-86853000D01*
X108916000Y-77231000D02*
X108916000Y-80801000D01*
X108876000Y-83283000D02*
X108876000Y-86866000D01*
X108876000Y-77218000D02*
X108876000Y-80801000D01*
X108836000Y-83283000D02*
X108836000Y-86879000D01*
X108836000Y-77205000D02*
X108836000Y-80801000D01*
X108796000Y-83283000D02*
X108796000Y-86892000D01*
X108796000Y-77192000D02*
X108796000Y-80801000D01*
X108756000Y-83283000D02*
X108756000Y-86904000D01*
X108756000Y-77180000D02*
X108756000Y-80801000D01*
X108716000Y-83283000D02*
X108716000Y-86916000D01*
X108716000Y-77168000D02*
X108716000Y-80801000D01*
X108676000Y-83283000D02*
X108676000Y-86927000D01*
X108676000Y-77157000D02*
X108676000Y-80801000D01*
X108636000Y-83283000D02*
X108636000Y-86939000D01*
X108636000Y-77145000D02*
X108636000Y-80801000D01*
X108596000Y-83283000D02*
X108596000Y-86949000D01*
X108596000Y-77135000D02*
X108596000Y-80801000D01*
X108556000Y-83283000D02*
X108556000Y-86960000D01*
X108556000Y-77124000D02*
X108556000Y-80801000D01*
X108516000Y-77114000D02*
X108516000Y-86970000D01*
X108476000Y-77104000D02*
X108476000Y-86980000D01*
X108436000Y-77095000D02*
X108436000Y-86989000D01*
X108396000Y-77086000D02*
X108396000Y-86998000D01*
X108356000Y-77077000D02*
X108356000Y-87007000D01*
X108316000Y-77068000D02*
X108316000Y-87016000D01*
X108276000Y-77060000D02*
X108276000Y-87024000D01*
X108236000Y-77052000D02*
X108236000Y-87032000D01*
X108196000Y-77045000D02*
X108196000Y-87039000D01*
X108156000Y-77038000D02*
X108156000Y-87046000D01*
X108116000Y-77031000D02*
X108116000Y-87053000D01*
X108076000Y-77024000D02*
X108076000Y-87060000D01*
X108036000Y-77018000D02*
X108036000Y-87066000D01*
X107996000Y-77012000D02*
X107996000Y-87072000D01*
X107955000Y-77007000D02*
X107955000Y-87077000D01*
X107915000Y-77002000D02*
X107915000Y-87082000D01*
X107875000Y-76997000D02*
X107875000Y-87087000D01*
X107835000Y-76992000D02*
X107835000Y-87092000D01*
X107795000Y-76988000D02*
X107795000Y-87096000D01*
X107755000Y-76984000D02*
X107755000Y-87100000D01*
X107715000Y-76980000D02*
X107715000Y-87104000D01*
X107675000Y-76977000D02*
X107675000Y-87107000D01*
X107635000Y-76974000D02*
X107635000Y-87110000D01*
X107595000Y-76972000D02*
X107595000Y-87112000D01*
X107555000Y-76969000D02*
X107555000Y-87115000D01*
X107515000Y-76967000D02*
X107515000Y-87117000D01*
X107475000Y-76965000D02*
X107475000Y-87119000D01*
X107435000Y-76964000D02*
X107435000Y-87120000D01*
X107395000Y-76963000D02*
X107395000Y-87121000D01*
X107355000Y-76962000D02*
X107355000Y-87122000D01*
X107315000Y-76962000D02*
X107315000Y-87122000D01*
X107275000Y-76962000D02*
X107275000Y-87122000D01*
X112395000Y-82042000D02*
G75*
G03*
X112395000Y-82042000I-5120000J0D01*
G01*
G04 #@! TO.C,C2*
X112999759Y-77856000D02*
X112999759Y-78486000D01*
X112684759Y-78171000D02*
X113314759Y-78171000D01*
X119426000Y-79608000D02*
X119426000Y-80412000D01*
X119386000Y-79377000D02*
X119386000Y-80643000D01*
X119346000Y-79208000D02*
X119346000Y-80812000D01*
X119306000Y-79070000D02*
X119306000Y-80950000D01*
X119266000Y-78951000D02*
X119266000Y-81069000D01*
X119226000Y-78845000D02*
X119226000Y-81175000D01*
X119186000Y-78748000D02*
X119186000Y-81272000D01*
X119146000Y-78660000D02*
X119146000Y-81360000D01*
X119106000Y-78578000D02*
X119106000Y-81442000D01*
X119066000Y-78501000D02*
X119066000Y-81519000D01*
X119026000Y-78429000D02*
X119026000Y-81591000D01*
X118986000Y-78360000D02*
X118986000Y-81660000D01*
X118946000Y-78296000D02*
X118946000Y-81724000D01*
X118906000Y-78234000D02*
X118906000Y-81786000D01*
X118866000Y-78176000D02*
X118866000Y-81844000D01*
X118826000Y-78120000D02*
X118826000Y-81900000D01*
X118786000Y-78066000D02*
X118786000Y-81954000D01*
X118746000Y-78015000D02*
X118746000Y-82005000D01*
X118706000Y-77966000D02*
X118706000Y-82054000D01*
X118666000Y-77918000D02*
X118666000Y-82102000D01*
X118626000Y-77873000D02*
X118626000Y-82147000D01*
X118586000Y-77828000D02*
X118586000Y-82192000D01*
X118546000Y-77786000D02*
X118546000Y-82234000D01*
X118506000Y-77745000D02*
X118506000Y-82275000D01*
X118466000Y-81050000D02*
X118466000Y-82315000D01*
X118466000Y-77705000D02*
X118466000Y-78970000D01*
X118426000Y-81050000D02*
X118426000Y-82353000D01*
X118426000Y-77667000D02*
X118426000Y-78970000D01*
X118386000Y-81050000D02*
X118386000Y-82390000D01*
X118386000Y-77630000D02*
X118386000Y-78970000D01*
X118346000Y-81050000D02*
X118346000Y-82426000D01*
X118346000Y-77594000D02*
X118346000Y-78970000D01*
X118306000Y-81050000D02*
X118306000Y-82460000D01*
X118306000Y-77560000D02*
X118306000Y-78970000D01*
X118266000Y-81050000D02*
X118266000Y-82494000D01*
X118266000Y-77526000D02*
X118266000Y-78970000D01*
X118226000Y-81050000D02*
X118226000Y-82526000D01*
X118226000Y-77494000D02*
X118226000Y-78970000D01*
X118186000Y-81050000D02*
X118186000Y-82558000D01*
X118186000Y-77462000D02*
X118186000Y-78970000D01*
X118146000Y-81050000D02*
X118146000Y-82588000D01*
X118146000Y-77432000D02*
X118146000Y-78970000D01*
X118106000Y-81050000D02*
X118106000Y-82617000D01*
X118106000Y-77403000D02*
X118106000Y-78970000D01*
X118066000Y-81050000D02*
X118066000Y-82646000D01*
X118066000Y-77374000D02*
X118066000Y-78970000D01*
X118026000Y-81050000D02*
X118026000Y-82674000D01*
X118026000Y-77346000D02*
X118026000Y-78970000D01*
X117986000Y-81050000D02*
X117986000Y-82700000D01*
X117986000Y-77320000D02*
X117986000Y-78970000D01*
X117946000Y-81050000D02*
X117946000Y-82726000D01*
X117946000Y-77294000D02*
X117946000Y-78970000D01*
X117906000Y-81050000D02*
X117906000Y-82752000D01*
X117906000Y-77268000D02*
X117906000Y-78970000D01*
X117866000Y-81050000D02*
X117866000Y-82776000D01*
X117866000Y-77244000D02*
X117866000Y-78970000D01*
X117826000Y-81050000D02*
X117826000Y-82800000D01*
X117826000Y-77220000D02*
X117826000Y-78970000D01*
X117786000Y-81050000D02*
X117786000Y-82822000D01*
X117786000Y-77198000D02*
X117786000Y-78970000D01*
X117746000Y-81050000D02*
X117746000Y-82844000D01*
X117746000Y-77176000D02*
X117746000Y-78970000D01*
X117706000Y-81050000D02*
X117706000Y-82866000D01*
X117706000Y-77154000D02*
X117706000Y-78970000D01*
X117666000Y-81050000D02*
X117666000Y-82886000D01*
X117666000Y-77134000D02*
X117666000Y-78970000D01*
X117626000Y-81050000D02*
X117626000Y-82906000D01*
X117626000Y-77114000D02*
X117626000Y-78970000D01*
X117586000Y-81050000D02*
X117586000Y-82926000D01*
X117586000Y-77094000D02*
X117586000Y-78970000D01*
X117546000Y-81050000D02*
X117546000Y-82944000D01*
X117546000Y-77076000D02*
X117546000Y-78970000D01*
X117506000Y-81050000D02*
X117506000Y-82962000D01*
X117506000Y-77058000D02*
X117506000Y-78970000D01*
X117466000Y-81050000D02*
X117466000Y-82980000D01*
X117466000Y-77040000D02*
X117466000Y-78970000D01*
X117426000Y-81050000D02*
X117426000Y-82996000D01*
X117426000Y-77024000D02*
X117426000Y-78970000D01*
X117386000Y-81050000D02*
X117386000Y-83012000D01*
X117386000Y-77008000D02*
X117386000Y-78970000D01*
X117346000Y-81050000D02*
X117346000Y-83028000D01*
X117346000Y-76992000D02*
X117346000Y-78970000D01*
X117306000Y-81050000D02*
X117306000Y-83043000D01*
X117306000Y-76977000D02*
X117306000Y-78970000D01*
X117266000Y-81050000D02*
X117266000Y-83057000D01*
X117266000Y-76963000D02*
X117266000Y-78970000D01*
X117226000Y-81050000D02*
X117226000Y-83071000D01*
X117226000Y-76949000D02*
X117226000Y-78970000D01*
X117186000Y-81050000D02*
X117186000Y-83084000D01*
X117186000Y-76936000D02*
X117186000Y-78970000D01*
X117146000Y-81050000D02*
X117146000Y-83096000D01*
X117146000Y-76924000D02*
X117146000Y-78970000D01*
X117106000Y-81050000D02*
X117106000Y-83108000D01*
X117106000Y-76912000D02*
X117106000Y-78970000D01*
X117066000Y-81050000D02*
X117066000Y-83120000D01*
X117066000Y-76900000D02*
X117066000Y-78970000D01*
X117026000Y-81050000D02*
X117026000Y-83131000D01*
X117026000Y-76889000D02*
X117026000Y-78970000D01*
X116986000Y-81050000D02*
X116986000Y-83141000D01*
X116986000Y-76879000D02*
X116986000Y-78970000D01*
X116946000Y-81050000D02*
X116946000Y-83151000D01*
X116946000Y-76869000D02*
X116946000Y-78970000D01*
X116906000Y-81050000D02*
X116906000Y-83160000D01*
X116906000Y-76860000D02*
X116906000Y-78970000D01*
X116865000Y-81050000D02*
X116865000Y-83169000D01*
X116865000Y-76851000D02*
X116865000Y-78970000D01*
X116825000Y-81050000D02*
X116825000Y-83177000D01*
X116825000Y-76843000D02*
X116825000Y-78970000D01*
X116785000Y-81050000D02*
X116785000Y-83185000D01*
X116785000Y-76835000D02*
X116785000Y-78970000D01*
X116745000Y-81050000D02*
X116745000Y-83192000D01*
X116745000Y-76828000D02*
X116745000Y-78970000D01*
X116705000Y-81050000D02*
X116705000Y-83199000D01*
X116705000Y-76821000D02*
X116705000Y-78970000D01*
X116665000Y-81050000D02*
X116665000Y-83205000D01*
X116665000Y-76815000D02*
X116665000Y-78970000D01*
X116625000Y-81050000D02*
X116625000Y-83211000D01*
X116625000Y-76809000D02*
X116625000Y-78970000D01*
X116585000Y-81050000D02*
X116585000Y-83216000D01*
X116585000Y-76804000D02*
X116585000Y-78970000D01*
X116545000Y-81050000D02*
X116545000Y-83221000D01*
X116545000Y-76799000D02*
X116545000Y-78970000D01*
X116505000Y-81050000D02*
X116505000Y-83225000D01*
X116505000Y-76795000D02*
X116505000Y-78970000D01*
X116465000Y-81050000D02*
X116465000Y-83228000D01*
X116465000Y-76792000D02*
X116465000Y-78970000D01*
X116425000Y-81050000D02*
X116425000Y-83232000D01*
X116425000Y-76788000D02*
X116425000Y-78970000D01*
X116385000Y-76786000D02*
X116385000Y-83234000D01*
X116345000Y-76783000D02*
X116345000Y-83237000D01*
X116305000Y-76782000D02*
X116305000Y-83238000D01*
X116265000Y-76780000D02*
X116265000Y-83240000D01*
X116225000Y-76780000D02*
X116225000Y-83240000D01*
X116185000Y-76780000D02*
X116185000Y-83240000D01*
X119455000Y-80010000D02*
G75*
G03*
X119455000Y-80010000I-3270000J0D01*
G01*
G04 #@! TO.C,D1*
X106772000Y-106903332D02*
X106772000Y-109843332D01*
X107012000Y-106903332D02*
X107012000Y-109843332D01*
X106892000Y-106903332D02*
X106892000Y-109843332D01*
X112452000Y-108373332D02*
X111432000Y-108373332D01*
X104972000Y-108373332D02*
X105992000Y-108373332D01*
X111432000Y-106903332D02*
X105992000Y-106903332D01*
X111432000Y-109843332D02*
X111432000Y-106903332D01*
X105992000Y-109843332D02*
X111432000Y-109843332D01*
X105992000Y-106903332D02*
X105992000Y-109843332D01*
G04 #@! TO.C,D2*
X106772000Y-97844000D02*
X106772000Y-100784000D01*
X107012000Y-97844000D02*
X107012000Y-100784000D01*
X106892000Y-97844000D02*
X106892000Y-100784000D01*
X112452000Y-99314000D02*
X111432000Y-99314000D01*
X104972000Y-99314000D02*
X105992000Y-99314000D01*
X111432000Y-97844000D02*
X105992000Y-97844000D01*
X111432000Y-100784000D02*
X111432000Y-97844000D01*
X105992000Y-100784000D02*
X111432000Y-100784000D01*
X105992000Y-97844000D02*
X105992000Y-100784000D01*
G04 #@! TO.C,D3*
X105992000Y-111433000D02*
X105992000Y-114373000D01*
X105992000Y-114373000D02*
X111432000Y-114373000D01*
X111432000Y-114373000D02*
X111432000Y-111433000D01*
X111432000Y-111433000D02*
X105992000Y-111433000D01*
X104972000Y-112903000D02*
X105992000Y-112903000D01*
X112452000Y-112903000D02*
X111432000Y-112903000D01*
X106892000Y-111433000D02*
X106892000Y-114373000D01*
X107012000Y-111433000D02*
X107012000Y-114373000D01*
X106772000Y-111433000D02*
X106772000Y-114373000D01*
G04 #@! TO.C,D4*
X105992000Y-102373666D02*
X105992000Y-105313666D01*
X105992000Y-105313666D02*
X111432000Y-105313666D01*
X111432000Y-105313666D02*
X111432000Y-102373666D01*
X111432000Y-102373666D02*
X105992000Y-102373666D01*
X104972000Y-103843666D02*
X105992000Y-103843666D01*
X112452000Y-103843666D02*
X111432000Y-103843666D01*
X106892000Y-102373666D02*
X106892000Y-105313666D01*
X107012000Y-102373666D02*
X107012000Y-105313666D01*
X106772000Y-102373666D02*
X106772000Y-105313666D01*
G04 #@! TO.C,D5*
X119487000Y-110596000D02*
X119487000Y-113686000D01*
X124547000Y-112141000D02*
G75*
G03*
X124547000Y-112141000I-2500000J0D01*
G01*
X125037000Y-112141462D02*
G75*
G03*
X119487000Y-110596170I-2990000J462D01*
G01*
X125037000Y-112140538D02*
G75*
G02*
X119487000Y-113685830I-2990000J-462D01*
G01*
G04 #@! TO.C,D6*
X125037000Y-92328538D02*
G75*
G02*
X119487000Y-93873830I-2990000J-462D01*
G01*
X125037000Y-92329462D02*
G75*
G03*
X119487000Y-90784170I-2990000J462D01*
G01*
X124547000Y-92329000D02*
G75*
G03*
X124547000Y-92329000I-2500000J0D01*
G01*
X119487000Y-90784000D02*
X119487000Y-93874000D01*
G04 #@! TO.C,J1*
X116991000Y-116826000D02*
X116991000Y-118566000D01*
X115251000Y-116826000D02*
X116991000Y-116826000D01*
X116751000Y-126266000D02*
X114751000Y-126266000D01*
X116751000Y-123466000D02*
X116751000Y-126266000D01*
X116751000Y-117066000D02*
X116751000Y-119866000D01*
X102151000Y-117066000D02*
X116751000Y-117066000D01*
X102151000Y-126266000D02*
X102151000Y-117066000D01*
X111151000Y-126266000D02*
X102151000Y-126266000D01*
G04 #@! TO.C,J2*
X125924000Y-77029000D02*
X127254000Y-77029000D01*
X125924000Y-78359000D02*
X125924000Y-77029000D01*
X128524000Y-77029000D02*
X131124000Y-77029000D01*
X128524000Y-79629000D02*
X128524000Y-77029000D01*
X125924000Y-79629000D02*
X128524000Y-79629000D01*
X131124000Y-77029000D02*
X131124000Y-82229000D01*
X125924000Y-79629000D02*
X125924000Y-82229000D01*
X125924000Y-82229000D02*
X131124000Y-82229000D01*
G04 #@! TO.C,J3*
X125924000Y-127187000D02*
X131124000Y-127187000D01*
X125924000Y-124587000D02*
X125924000Y-127187000D01*
X131124000Y-121987000D02*
X131124000Y-127187000D01*
X125924000Y-124587000D02*
X128524000Y-124587000D01*
X128524000Y-124587000D02*
X128524000Y-121987000D01*
X128524000Y-121987000D02*
X131124000Y-121987000D01*
X125924000Y-123317000D02*
X125924000Y-121987000D01*
X125924000Y-121987000D02*
X127254000Y-121987000D01*
G04 #@! TO.C,R1*
X120296000Y-126206000D02*
X120626000Y-126206000D01*
X120296000Y-119666000D02*
X120296000Y-126206000D01*
X120626000Y-119666000D02*
X120296000Y-119666000D01*
X123036000Y-126206000D02*
X122706000Y-126206000D01*
X123036000Y-119666000D02*
X123036000Y-126206000D01*
X122706000Y-119666000D02*
X123036000Y-119666000D01*
G04 #@! TO.C,R2*
X122706000Y-78264000D02*
X123036000Y-78264000D01*
X123036000Y-78264000D02*
X123036000Y-84804000D01*
X123036000Y-84804000D02*
X122706000Y-84804000D01*
X120626000Y-78264000D02*
X120296000Y-78264000D01*
X120296000Y-78264000D02*
X120296000Y-84804000D01*
X120296000Y-84804000D02*
X120626000Y-84804000D01*
D13*
G04 #@! TO.C,SW1*
X120618680Y-96235000D02*
X124682680Y-96235000D01*
X124682680Y-96235000D02*
X124682680Y-108235000D01*
X120618680Y-96235000D02*
X120618680Y-108235000D01*
X120618680Y-108235000D02*
X124682680Y-108235000D01*
D12*
G04 #@! TO.C,U1*
X109674000Y-90202000D02*
X109674000Y-91712000D01*
X105973000Y-90202000D02*
X105973000Y-91712000D01*
X102703000Y-91712000D02*
X112943000Y-91712000D01*
X112943000Y-90202000D02*
X112943000Y-94843000D01*
X102703000Y-90202000D02*
X102703000Y-94843000D01*
X102703000Y-94843000D02*
X112943000Y-94843000D01*
X102703000Y-90202000D02*
X112943000Y-90202000D01*
G04 #@! TO.C,C1*
D10*
X102703333Y-77700142D02*
X102655714Y-77747761D01*
X102512857Y-77795380D01*
X102417619Y-77795380D01*
X102274761Y-77747761D01*
X102179523Y-77652523D01*
X102131904Y-77557285D01*
X102084285Y-77366809D01*
X102084285Y-77223952D01*
X102131904Y-77033476D01*
X102179523Y-76938238D01*
X102274761Y-76843000D01*
X102417619Y-76795380D01*
X102512857Y-76795380D01*
X102655714Y-76843000D01*
X102703333Y-76890619D01*
X103655714Y-77795380D02*
X103084285Y-77795380D01*
X103370000Y-77795380D02*
X103370000Y-76795380D01*
X103274761Y-76938238D01*
X103179523Y-77033476D01*
X103084285Y-77081095D01*
G04 #@! TO.C,C2*
X112609333Y-77446142D02*
X112561714Y-77493761D01*
X112418857Y-77541380D01*
X112323619Y-77541380D01*
X112180761Y-77493761D01*
X112085523Y-77398523D01*
X112037904Y-77303285D01*
X111990285Y-77112809D01*
X111990285Y-76969952D01*
X112037904Y-76779476D01*
X112085523Y-76684238D01*
X112180761Y-76589000D01*
X112323619Y-76541380D01*
X112418857Y-76541380D01*
X112561714Y-76589000D01*
X112609333Y-76636619D01*
X112990285Y-76636619D02*
X113037904Y-76589000D01*
X113133142Y-76541380D01*
X113371238Y-76541380D01*
X113466476Y-76589000D01*
X113514095Y-76636619D01*
X113561714Y-76731857D01*
X113561714Y-76827095D01*
X113514095Y-76969952D01*
X112942666Y-77541380D01*
X113561714Y-77541380D01*
G04 #@! TO.C,D1*
X107973904Y-106624380D02*
X107973904Y-105624380D01*
X108212000Y-105624380D01*
X108354857Y-105672000D01*
X108450095Y-105767238D01*
X108497714Y-105862476D01*
X108545333Y-106052952D01*
X108545333Y-106195809D01*
X108497714Y-106386285D01*
X108450095Y-106481523D01*
X108354857Y-106576761D01*
X108212000Y-106624380D01*
X107973904Y-106624380D01*
X109497714Y-106624380D02*
X108926285Y-106624380D01*
X109212000Y-106624380D02*
X109212000Y-105624380D01*
X109116761Y-105767238D01*
X109021523Y-105862476D01*
X108926285Y-105910095D01*
X103370095Y-106725712D02*
X103370095Y-105725712D01*
X103941523Y-106725712D02*
X103512952Y-106154284D01*
X103941523Y-105725712D02*
X103370095Y-106297141D01*
G04 #@! TO.C,D2*
X107973904Y-97480380D02*
X107973904Y-96480380D01*
X108212000Y-96480380D01*
X108354857Y-96528000D01*
X108450095Y-96623238D01*
X108497714Y-96718476D01*
X108545333Y-96908952D01*
X108545333Y-97051809D01*
X108497714Y-97242285D01*
X108450095Y-97337523D01*
X108354857Y-97432761D01*
X108212000Y-97480380D01*
X107973904Y-97480380D01*
X108926285Y-96575619D02*
X108973904Y-96528000D01*
X109069142Y-96480380D01*
X109307238Y-96480380D01*
X109402476Y-96528000D01*
X109450095Y-96575619D01*
X109497714Y-96670857D01*
X109497714Y-96766095D01*
X109450095Y-96908952D01*
X108878666Y-97480380D01*
X109497714Y-97480380D01*
X103370095Y-97666380D02*
X103370095Y-96666380D01*
X103941523Y-97666380D02*
X103512952Y-97094952D01*
X103941523Y-96666380D02*
X103370095Y-97237809D01*
G04 #@! TO.C,D3*
X107973904Y-111196380D02*
X107973904Y-110196380D01*
X108212000Y-110196380D01*
X108354857Y-110244000D01*
X108450095Y-110339238D01*
X108497714Y-110434476D01*
X108545333Y-110624952D01*
X108545333Y-110767809D01*
X108497714Y-110958285D01*
X108450095Y-111053523D01*
X108354857Y-111148761D01*
X108212000Y-111196380D01*
X107973904Y-111196380D01*
X108878666Y-110196380D02*
X109497714Y-110196380D01*
X109164380Y-110577333D01*
X109307238Y-110577333D01*
X109402476Y-110624952D01*
X109450095Y-110672571D01*
X109497714Y-110767809D01*
X109497714Y-111005904D01*
X109450095Y-111101142D01*
X109402476Y-111148761D01*
X109307238Y-111196380D01*
X109021523Y-111196380D01*
X108926285Y-111148761D01*
X108878666Y-111101142D01*
X103370095Y-111255380D02*
X103370095Y-110255380D01*
X103941523Y-111255380D02*
X103512952Y-110683952D01*
X103941523Y-110255380D02*
X103370095Y-110826809D01*
G04 #@! TO.C,D4*
X107973904Y-102052380D02*
X107973904Y-101052380D01*
X108212000Y-101052380D01*
X108354857Y-101100000D01*
X108450095Y-101195238D01*
X108497714Y-101290476D01*
X108545333Y-101480952D01*
X108545333Y-101623809D01*
X108497714Y-101814285D01*
X108450095Y-101909523D01*
X108354857Y-102004761D01*
X108212000Y-102052380D01*
X107973904Y-102052380D01*
X109402476Y-101385714D02*
X109402476Y-102052380D01*
X109164380Y-101004761D02*
X108926285Y-101719047D01*
X109545333Y-101719047D01*
X103370095Y-102196046D02*
X103370095Y-101196046D01*
X103941523Y-102196046D02*
X103512952Y-101624618D01*
X103941523Y-101196046D02*
X103370095Y-101767475D01*
G04 #@! TO.C,D5*
X117117904Y-112593380D02*
X117117904Y-111593380D01*
X117356000Y-111593380D01*
X117498857Y-111641000D01*
X117594095Y-111736238D01*
X117641714Y-111831476D01*
X117689333Y-112021952D01*
X117689333Y-112164809D01*
X117641714Y-112355285D01*
X117594095Y-112450523D01*
X117498857Y-112545761D01*
X117356000Y-112593380D01*
X117117904Y-112593380D01*
X118594095Y-111593380D02*
X118117904Y-111593380D01*
X118070285Y-112069571D01*
X118117904Y-112021952D01*
X118213142Y-111974333D01*
X118451238Y-111974333D01*
X118546476Y-112021952D01*
X118594095Y-112069571D01*
X118641714Y-112164809D01*
X118641714Y-112402904D01*
X118594095Y-112498142D01*
X118546476Y-112545761D01*
X118451238Y-112593380D01*
X118213142Y-112593380D01*
X118117904Y-112545761D01*
X118070285Y-112498142D01*
G04 #@! TO.C,D6*
X117117904Y-92781380D02*
X117117904Y-91781380D01*
X117356000Y-91781380D01*
X117498857Y-91829000D01*
X117594095Y-91924238D01*
X117641714Y-92019476D01*
X117689333Y-92209952D01*
X117689333Y-92352809D01*
X117641714Y-92543285D01*
X117594095Y-92638523D01*
X117498857Y-92733761D01*
X117356000Y-92781380D01*
X117117904Y-92781380D01*
X118546476Y-91781380D02*
X118356000Y-91781380D01*
X118260761Y-91829000D01*
X118213142Y-91876619D01*
X118117904Y-92019476D01*
X118070285Y-92209952D01*
X118070285Y-92590904D01*
X118117904Y-92686142D01*
X118165523Y-92733761D01*
X118260761Y-92781380D01*
X118451238Y-92781380D01*
X118546476Y-92733761D01*
X118594095Y-92686142D01*
X118641714Y-92590904D01*
X118641714Y-92352809D01*
X118594095Y-92257571D01*
X118546476Y-92209952D01*
X118451238Y-92162333D01*
X118260761Y-92162333D01*
X118165523Y-92209952D01*
X118117904Y-92257571D01*
X118070285Y-92352809D01*
G04 #@! TO.C,J1*
X107167666Y-126868380D02*
X107167666Y-127582666D01*
X107120047Y-127725523D01*
X107024809Y-127820761D01*
X106881952Y-127868380D01*
X106786714Y-127868380D01*
X108167666Y-127868380D02*
X107596238Y-127868380D01*
X107881952Y-127868380D02*
X107881952Y-126868380D01*
X107786714Y-127011238D01*
X107691476Y-127106476D01*
X107596238Y-127154095D01*
G04 #@! TO.C,J2*
X124634666Y-78954380D02*
X124634666Y-79668666D01*
X124587047Y-79811523D01*
X124491809Y-79906761D01*
X124348952Y-79954380D01*
X124253714Y-79954380D01*
X125063238Y-79049619D02*
X125110857Y-79002000D01*
X125206095Y-78954380D01*
X125444190Y-78954380D01*
X125539428Y-79002000D01*
X125587047Y-79049619D01*
X125634666Y-79144857D01*
X125634666Y-79240095D01*
X125587047Y-79382952D01*
X125015619Y-79954380D01*
X125634666Y-79954380D01*
G04 #@! TO.C,J3*
X124634666Y-124039380D02*
X124634666Y-124753666D01*
X124587047Y-124896523D01*
X124491809Y-124991761D01*
X124348952Y-125039380D01*
X124253714Y-125039380D01*
X125015619Y-124039380D02*
X125634666Y-124039380D01*
X125301333Y-124420333D01*
X125444190Y-124420333D01*
X125539428Y-124467952D01*
X125587047Y-124515571D01*
X125634666Y-124610809D01*
X125634666Y-124848904D01*
X125587047Y-124944142D01*
X125539428Y-124991761D01*
X125444190Y-125039380D01*
X125158476Y-125039380D01*
X125063238Y-124991761D01*
X125015619Y-124944142D01*
G04 #@! TO.C,R1*
X124531380Y-119673666D02*
X124055190Y-120007000D01*
X124531380Y-120245095D02*
X123531380Y-120245095D01*
X123531380Y-119864142D01*
X123579000Y-119768904D01*
X123626619Y-119721285D01*
X123721857Y-119673666D01*
X123864714Y-119673666D01*
X123959952Y-119721285D01*
X124007571Y-119768904D01*
X124055190Y-119864142D01*
X124055190Y-120245095D01*
X124531380Y-118721285D02*
X124531380Y-119292714D01*
X124531380Y-119007000D02*
X123531380Y-119007000D01*
X123674238Y-119102238D01*
X123769476Y-119197476D01*
X123817095Y-119292714D01*
G04 #@! TO.C,R2*
X124531380Y-85129666D02*
X124055190Y-85463000D01*
X124531380Y-85701095D02*
X123531380Y-85701095D01*
X123531380Y-85320142D01*
X123579000Y-85224904D01*
X123626619Y-85177285D01*
X123721857Y-85129666D01*
X123864714Y-85129666D01*
X123959952Y-85177285D01*
X124007571Y-85224904D01*
X124055190Y-85320142D01*
X124055190Y-85701095D01*
X123626619Y-84748714D02*
X123579000Y-84701095D01*
X123531380Y-84605857D01*
X123531380Y-84367761D01*
X123579000Y-84272523D01*
X123626619Y-84224904D01*
X123721857Y-84177285D01*
X123817095Y-84177285D01*
X123959952Y-84224904D01*
X124531380Y-84796333D01*
X124531380Y-84177285D01*
G04 #@! TO.C,SW1*
X120038761Y-103504833D02*
X120086380Y-103361976D01*
X120086380Y-103123880D01*
X120038761Y-103028642D01*
X119991142Y-102981023D01*
X119895904Y-102933404D01*
X119800666Y-102933404D01*
X119705428Y-102981023D01*
X119657809Y-103028642D01*
X119610190Y-103123880D01*
X119562571Y-103314357D01*
X119514952Y-103409595D01*
X119467333Y-103457214D01*
X119372095Y-103504833D01*
X119276857Y-103504833D01*
X119181619Y-103457214D01*
X119134000Y-103409595D01*
X119086380Y-103314357D01*
X119086380Y-103076261D01*
X119134000Y-102933404D01*
X119086380Y-102600071D02*
X120086380Y-102361976D01*
X119372095Y-102171500D01*
X120086380Y-101981023D01*
X119086380Y-101742928D01*
X120086380Y-100838166D02*
X120086380Y-101409595D01*
X120086380Y-101123880D02*
X119086380Y-101123880D01*
X119229238Y-101219119D01*
X119324476Y-101314357D01*
X119372095Y-101409595D01*
G04 #@! TO.C,U1*
X107061095Y-88654380D02*
X107061095Y-89463904D01*
X107108714Y-89559142D01*
X107156333Y-89606761D01*
X107251571Y-89654380D01*
X107442047Y-89654380D01*
X107537285Y-89606761D01*
X107584904Y-89559142D01*
X107632523Y-89463904D01*
X107632523Y-88654380D01*
X108632523Y-89654380D02*
X108061095Y-89654380D01*
X108346809Y-89654380D02*
X108346809Y-88654380D01*
X108251571Y-88797238D01*
X108156333Y-88892476D01*
X108061095Y-88940095D01*
G04 #@! TD*
M02*
