G04 #@! TF.GenerationSoftware,KiCad,Pcbnew,(5.1.9)-1*
G04 #@! TF.CreationDate,2021-01-12T20:24:35-08:00*
G04 #@! TF.ProjectId,BreadboardPowerSupply,42726561-6462-46f6-9172-64506f776572,1*
G04 #@! TF.SameCoordinates,Original*
G04 #@! TF.FileFunction,Soldermask,Top*
G04 #@! TF.FilePolarity,Negative*
%FSLAX46Y46*%
G04 Gerber Fmt 4.6, Leading zero omitted, Abs format (unit mm)*
G04 Created by KiCad (PCBNEW (5.1.9)-1) date 2021-01-12 20:24:35*
%MOMM*%
%LPD*%
G01*
G04 APERTURE LIST*
%ADD10R,2.000000X2.000000*%
%ADD11C,2.000000*%
%ADD12R,1.600000X1.600000*%
%ADD13C,1.600000*%
%ADD14R,2.200000X2.200000*%
%ADD15O,2.200000X2.200000*%
%ADD16R,1.800000X1.800000*%
%ADD17C,1.800000*%
%ADD18R,2.600000X2.600000*%
%ADD19C,2.600000*%
%ADD20R,1.700000X1.700000*%
%ADD21O,1.700000X1.700000*%
%ADD22O,1.600000X1.600000*%
%ADD23C,1.524000*%
%ADD24R,1.905000X2.000000*%
%ADD25O,1.905000X2.000000*%
G04 APERTURE END LIST*
D10*
G04 #@! TO.C,C1*
X104775000Y-82042000D03*
D11*
X109775000Y-82042000D03*
G04 #@! TD*
D12*
G04 #@! TO.C,C2*
X114935000Y-80010000D03*
D13*
X117435000Y-80010000D03*
G04 #@! TD*
D14*
G04 #@! TO.C,D1*
X103632000Y-108373332D03*
D15*
X113792000Y-108373332D03*
G04 #@! TD*
D14*
G04 #@! TO.C,D2*
X103632000Y-99314000D03*
D15*
X113792000Y-99314000D03*
G04 #@! TD*
G04 #@! TO.C,D3*
X113792000Y-112903000D03*
D14*
X103632000Y-112903000D03*
G04 #@! TD*
D15*
G04 #@! TO.C,D4*
X113792000Y-103843666D03*
D14*
X103632000Y-103843666D03*
G04 #@! TD*
D16*
G04 #@! TO.C,D5*
X120777000Y-112141000D03*
D17*
X123317000Y-112141000D03*
G04 #@! TD*
G04 #@! TO.C,D6*
X123317000Y-92329000D03*
D16*
X120777000Y-92329000D03*
G04 #@! TD*
D18*
G04 #@! TO.C,J1*
X115951000Y-121666000D03*
D19*
X109951000Y-121666000D03*
X112951000Y-126366000D03*
G04 #@! TD*
D20*
G04 #@! TO.C,J2*
X127254000Y-78359000D03*
D21*
X129794000Y-78359000D03*
X127254000Y-80899000D03*
X129794000Y-80899000D03*
G04 #@! TD*
G04 #@! TO.C,J3*
X129794000Y-125857000D03*
X127254000Y-125857000D03*
X129794000Y-123317000D03*
D20*
X127254000Y-123317000D03*
G04 #@! TD*
D13*
G04 #@! TO.C,R1*
X121666000Y-119126000D03*
D22*
X121666000Y-126746000D03*
G04 #@! TD*
G04 #@! TO.C,R2*
X121666000Y-85344000D03*
D13*
X121666000Y-77724000D03*
G04 #@! TD*
D23*
G04 #@! TO.C,SW1*
X122650680Y-102235000D03*
X122650680Y-99745800D03*
X122650680Y-104724200D03*
G04 #@! TD*
D24*
G04 #@! TO.C,U1*
X105283000Y-93472000D03*
D25*
X107823000Y-93472000D03*
X110363000Y-93472000D03*
G04 #@! TD*
M02*
