G04 #@! TF.GenerationSoftware,KiCad,Pcbnew,(5.1.9)-1*
G04 #@! TF.CreationDate,2021-01-12T20:24:35-08:00*
G04 #@! TF.ProjectId,BreadboardPowerSupply,42726561-6462-46f6-9172-64506f776572,1*
G04 #@! TF.SameCoordinates,Original*
G04 #@! TF.FileFunction,Copper,L2,Bot*
G04 #@! TF.FilePolarity,Positive*
%FSLAX46Y46*%
G04 Gerber Fmt 4.6, Leading zero omitted, Abs format (unit mm)*
G04 Created by KiCad (PCBNEW (5.1.9)-1) date 2021-01-12 20:24:35*
%MOMM*%
%LPD*%
G01*
G04 APERTURE LIST*
G04 #@! TA.AperFunction,ComponentPad*
%ADD10R,2.000000X2.000000*%
G04 #@! TD*
G04 #@! TA.AperFunction,ComponentPad*
%ADD11C,2.000000*%
G04 #@! TD*
G04 #@! TA.AperFunction,ComponentPad*
%ADD12R,1.600000X1.600000*%
G04 #@! TD*
G04 #@! TA.AperFunction,ComponentPad*
%ADD13C,1.600000*%
G04 #@! TD*
G04 #@! TA.AperFunction,ComponentPad*
%ADD14R,2.200000X2.200000*%
G04 #@! TD*
G04 #@! TA.AperFunction,ComponentPad*
%ADD15O,2.200000X2.200000*%
G04 #@! TD*
G04 #@! TA.AperFunction,ComponentPad*
%ADD16R,1.800000X1.800000*%
G04 #@! TD*
G04 #@! TA.AperFunction,ComponentPad*
%ADD17C,1.800000*%
G04 #@! TD*
G04 #@! TA.AperFunction,ComponentPad*
%ADD18R,2.600000X2.600000*%
G04 #@! TD*
G04 #@! TA.AperFunction,ComponentPad*
%ADD19C,2.600000*%
G04 #@! TD*
G04 #@! TA.AperFunction,ComponentPad*
%ADD20R,1.700000X1.700000*%
G04 #@! TD*
G04 #@! TA.AperFunction,ComponentPad*
%ADD21O,1.700000X1.700000*%
G04 #@! TD*
G04 #@! TA.AperFunction,ComponentPad*
%ADD22O,1.600000X1.600000*%
G04 #@! TD*
G04 #@! TA.AperFunction,ComponentPad*
%ADD23C,1.524000*%
G04 #@! TD*
G04 #@! TA.AperFunction,ComponentPad*
%ADD24R,1.905000X2.000000*%
G04 #@! TD*
G04 #@! TA.AperFunction,ComponentPad*
%ADD25O,1.905000X2.000000*%
G04 #@! TD*
G04 #@! TA.AperFunction,Conductor*
%ADD26C,0.300000*%
G04 #@! TD*
G04 #@! TA.AperFunction,Conductor*
%ADD27C,0.254000*%
G04 #@! TD*
G04 #@! TA.AperFunction,Conductor*
%ADD28C,0.100000*%
G04 #@! TD*
G04 APERTURE END LIST*
D10*
G04 #@! TO.P,C1,1*
G04 #@! TO.N,/Vin*
X104775000Y-82042000D03*
D11*
G04 #@! TO.P,C1,2*
G04 #@! TO.N,/V-*
X109775000Y-82042000D03*
G04 #@! TD*
D12*
G04 #@! TO.P,C2,1*
G04 #@! TO.N,/Vout1*
X114935000Y-80010000D03*
D13*
G04 #@! TO.P,C2,2*
G04 #@! TO.N,/V-*
X117435000Y-80010000D03*
G04 #@! TD*
D14*
G04 #@! TO.P,D1,1*
G04 #@! TO.N,/Vin*
X103632000Y-108373332D03*
D15*
G04 #@! TO.P,D1,2*
G04 #@! TO.N,Net-(D1-Pad2)*
X113792000Y-108373332D03*
G04 #@! TD*
D14*
G04 #@! TO.P,D2,1*
G04 #@! TO.N,Net-(D1-Pad2)*
X103632000Y-99314000D03*
D15*
G04 #@! TO.P,D2,2*
G04 #@! TO.N,/V-*
X113792000Y-99314000D03*
G04 #@! TD*
G04 #@! TO.P,D3,2*
G04 #@! TO.N,Net-(D3-Pad2)*
X113792000Y-112903000D03*
D14*
G04 #@! TO.P,D3,1*
G04 #@! TO.N,/Vin*
X103632000Y-112903000D03*
G04 #@! TD*
D15*
G04 #@! TO.P,D4,2*
G04 #@! TO.N,/V-*
X113792000Y-103843666D03*
D14*
G04 #@! TO.P,D4,1*
G04 #@! TO.N,Net-(D3-Pad2)*
X103632000Y-103843666D03*
G04 #@! TD*
D16*
G04 #@! TO.P,D5,1*
G04 #@! TO.N,/V-*
X120777000Y-112141000D03*
D17*
G04 #@! TO.P,D5,2*
G04 #@! TO.N,Net-(D5-Pad2)*
X123317000Y-112141000D03*
G04 #@! TD*
G04 #@! TO.P,D6,2*
G04 #@! TO.N,Net-(D6-Pad2)*
X123317000Y-92329000D03*
D16*
G04 #@! TO.P,D6,1*
G04 #@! TO.N,/V-*
X120777000Y-92329000D03*
G04 #@! TD*
D18*
G04 #@! TO.P,J1,1*
G04 #@! TO.N,Net-(D1-Pad2)*
X115951000Y-121666000D03*
D19*
G04 #@! TO.P,J1,2*
G04 #@! TO.N,Net-(D3-Pad2)*
X109951000Y-121666000D03*
G04 #@! TO.P,J1,3*
G04 #@! TO.N,Net-(J1-Pad3)*
X112951000Y-126366000D03*
G04 #@! TD*
D20*
G04 #@! TO.P,J2,1*
G04 #@! TO.N,/Vout2*
X127254000Y-78359000D03*
D21*
G04 #@! TO.P,J2,2*
X129794000Y-78359000D03*
G04 #@! TO.P,J2,3*
G04 #@! TO.N,/V-*
X127254000Y-80899000D03*
G04 #@! TO.P,J2,4*
X129794000Y-80899000D03*
G04 #@! TD*
G04 #@! TO.P,J3,4*
G04 #@! TO.N,/V-*
X129794000Y-125857000D03*
G04 #@! TO.P,J3,3*
X127254000Y-125857000D03*
G04 #@! TO.P,J3,2*
G04 #@! TO.N,/Vout2*
X129794000Y-123317000D03*
D20*
G04 #@! TO.P,J3,1*
X127254000Y-123317000D03*
G04 #@! TD*
D13*
G04 #@! TO.P,R1,1*
G04 #@! TO.N,/Vout1*
X121666000Y-119126000D03*
D22*
G04 #@! TO.P,R1,2*
G04 #@! TO.N,Net-(D5-Pad2)*
X121666000Y-126746000D03*
G04 #@! TD*
G04 #@! TO.P,R2,2*
G04 #@! TO.N,Net-(D6-Pad2)*
X121666000Y-85344000D03*
D13*
G04 #@! TO.P,R2,1*
G04 #@! TO.N,/Vout2*
X121666000Y-77724000D03*
G04 #@! TD*
D23*
G04 #@! TO.P,SW1,2*
G04 #@! TO.N,/Vout1*
X122650680Y-102235000D03*
G04 #@! TO.P,SW1,3*
G04 #@! TO.N,Net-(SW1-Pad3)*
X122650680Y-99745800D03*
G04 #@! TO.P,SW1,1*
G04 #@! TO.N,/Vout2*
X122650680Y-104724200D03*
G04 #@! TD*
D24*
G04 #@! TO.P,U1,1*
G04 #@! TO.N,/Vin*
X105283000Y-93472000D03*
D25*
G04 #@! TO.P,U1,2*
G04 #@! TO.N,/V-*
X107823000Y-93472000D03*
G04 #@! TO.P,U1,3*
G04 #@! TO.N,/Vout1*
X110363000Y-93472000D03*
G04 #@! TD*
D26*
G04 #@! TO.N,/V-*
X129794000Y-125857000D02*
X127254000Y-125857000D01*
X125000990Y-116364990D02*
X120777000Y-112141000D01*
X125000990Y-123603990D02*
X125000990Y-116364990D01*
X127254000Y-125857000D02*
X125000990Y-123603990D01*
X120777000Y-110828666D02*
X113792000Y-103843666D01*
X120777000Y-112141000D02*
X120777000Y-110828666D01*
X113792000Y-103843666D02*
X113792000Y-99314000D01*
X113792000Y-99314000D02*
X120777000Y-92329000D01*
X107950000Y-93472000D02*
X107823000Y-93472000D01*
X113792000Y-99314000D02*
X107950000Y-93472000D01*
X107823000Y-83994000D02*
X109775000Y-82042000D01*
X107823000Y-93472000D02*
X107823000Y-83994000D01*
X115403000Y-82042000D02*
X117435000Y-80010000D01*
X109775000Y-82042000D02*
X115403000Y-82042000D01*
X126365000Y-80010000D02*
X127254000Y-80899000D01*
X117435000Y-80010000D02*
X126365000Y-80010000D01*
X127254000Y-80899000D02*
X129794000Y-80899000D01*
G04 #@! TO.N,Net-(D3-Pad2)*
X109951000Y-116744000D02*
X113792000Y-112903000D01*
X109951000Y-121666000D02*
X109951000Y-116744000D01*
X104732666Y-103843666D02*
X103632000Y-103843666D01*
X113792000Y-112903000D02*
X104732666Y-103843666D01*
G04 #@! TD*
D27*
G04 #@! TO.N,/V-*
X120394320Y-77044273D02*
X120286147Y-77305426D01*
X120231000Y-77582665D01*
X120231000Y-77865335D01*
X120286147Y-78142574D01*
X120394320Y-78403727D01*
X120551363Y-78638759D01*
X120751241Y-78838637D01*
X120986273Y-78995680D01*
X121247426Y-79103853D01*
X121524665Y-79159000D01*
X121807335Y-79159000D01*
X122084574Y-79103853D01*
X122345727Y-78995680D01*
X122580759Y-78838637D01*
X122780637Y-78638759D01*
X122937680Y-78403727D01*
X123045853Y-78142574D01*
X123101000Y-77865335D01*
X123101000Y-77582665D01*
X123045853Y-77305426D01*
X122937680Y-77044273D01*
X122814553Y-76860000D01*
X131039000Y-76860000D01*
X131039000Y-77549345D01*
X130947475Y-77412368D01*
X130740632Y-77205525D01*
X130497411Y-77043010D01*
X130227158Y-76931068D01*
X129940260Y-76874000D01*
X129647740Y-76874000D01*
X129360842Y-76931068D01*
X129090589Y-77043010D01*
X128847368Y-77205525D01*
X128715513Y-77337380D01*
X128693502Y-77264820D01*
X128634537Y-77154506D01*
X128555185Y-77057815D01*
X128458494Y-76978463D01*
X128348180Y-76919498D01*
X128228482Y-76883188D01*
X128104000Y-76870928D01*
X126404000Y-76870928D01*
X126279518Y-76883188D01*
X126159820Y-76919498D01*
X126049506Y-76978463D01*
X125952815Y-77057815D01*
X125873463Y-77154506D01*
X125814498Y-77264820D01*
X125778188Y-77384518D01*
X125765928Y-77509000D01*
X125765928Y-79209000D01*
X125778188Y-79333482D01*
X125814498Y-79453180D01*
X125873463Y-79563494D01*
X125952815Y-79660185D01*
X126049506Y-79739537D01*
X126159820Y-79798502D01*
X126240466Y-79822966D01*
X126156412Y-79898731D01*
X125982359Y-80132080D01*
X125857175Y-80394901D01*
X125812524Y-80542110D01*
X125933845Y-80772000D01*
X127127000Y-80772000D01*
X127127000Y-80752000D01*
X127381000Y-80752000D01*
X127381000Y-80772000D01*
X129667000Y-80772000D01*
X129667000Y-80752000D01*
X129921000Y-80752000D01*
X129921000Y-80772000D01*
X129941000Y-80772000D01*
X129941000Y-81026000D01*
X129921000Y-81026000D01*
X129921000Y-82219814D01*
X130150891Y-82340481D01*
X130425252Y-82243157D01*
X130675355Y-82094178D01*
X130891588Y-81899269D01*
X131039001Y-81701636D01*
X131039001Y-82525000D01*
X125508419Y-82525000D01*
X125476000Y-82521807D01*
X125443581Y-82525000D01*
X125346617Y-82534550D01*
X125222207Y-82572290D01*
X125107550Y-82633575D01*
X125007052Y-82716052D01*
X124924575Y-82816550D01*
X124863290Y-82931207D01*
X124825550Y-83055617D01*
X124812807Y-83185000D01*
X124816000Y-83217419D01*
X124816000Y-91996832D01*
X124793011Y-91881257D01*
X124677299Y-91601905D01*
X124509312Y-91350495D01*
X124295505Y-91136688D01*
X124044095Y-90968701D01*
X123764743Y-90852989D01*
X123468184Y-90794000D01*
X123165816Y-90794000D01*
X122869257Y-90852989D01*
X122589905Y-90968701D01*
X122338495Y-91136688D01*
X122272056Y-91203127D01*
X122266502Y-91184820D01*
X122207537Y-91074506D01*
X122128185Y-90977815D01*
X122031494Y-90898463D01*
X121921180Y-90839498D01*
X121801482Y-90803188D01*
X121677000Y-90790928D01*
X121062750Y-90794000D01*
X120904000Y-90952750D01*
X120904000Y-92202000D01*
X120924000Y-92202000D01*
X120924000Y-92456000D01*
X120904000Y-92456000D01*
X120904000Y-93705250D01*
X121062750Y-93864000D01*
X121677000Y-93867072D01*
X121801482Y-93854812D01*
X121921180Y-93818502D01*
X122031494Y-93759537D01*
X122128185Y-93680185D01*
X122207537Y-93583494D01*
X122266502Y-93473180D01*
X122272056Y-93454873D01*
X122338495Y-93521312D01*
X122589905Y-93689299D01*
X122869257Y-93805011D01*
X123165816Y-93864000D01*
X123468184Y-93864000D01*
X123764743Y-93805011D01*
X124044095Y-93689299D01*
X124295505Y-93521312D01*
X124509312Y-93307505D01*
X124677299Y-93056095D01*
X124793011Y-92776743D01*
X124816000Y-92661168D01*
X124816001Y-111808835D01*
X124793011Y-111693257D01*
X124677299Y-111413905D01*
X124509312Y-111162495D01*
X124295505Y-110948688D01*
X124044095Y-110780701D01*
X123764743Y-110664989D01*
X123468184Y-110606000D01*
X123165816Y-110606000D01*
X122869257Y-110664989D01*
X122589905Y-110780701D01*
X122338495Y-110948688D01*
X122272056Y-111015127D01*
X122266502Y-110996820D01*
X122207537Y-110886506D01*
X122128185Y-110789815D01*
X122031494Y-110710463D01*
X121921180Y-110651498D01*
X121801482Y-110615188D01*
X121677000Y-110602928D01*
X121062750Y-110606000D01*
X120904000Y-110764750D01*
X120904000Y-112014000D01*
X120924000Y-112014000D01*
X120924000Y-112268000D01*
X120904000Y-112268000D01*
X120904000Y-113517250D01*
X121062750Y-113676000D01*
X121677000Y-113679072D01*
X121801482Y-113666812D01*
X121921180Y-113630502D01*
X122031494Y-113571537D01*
X122128185Y-113492185D01*
X122207537Y-113395494D01*
X122266502Y-113285180D01*
X122272056Y-113266873D01*
X122338495Y-113333312D01*
X122589905Y-113501299D01*
X122869257Y-113617011D01*
X123165816Y-113676000D01*
X123468184Y-113676000D01*
X123764743Y-113617011D01*
X124044095Y-113501299D01*
X124295505Y-113333312D01*
X124509312Y-113119505D01*
X124677299Y-112868095D01*
X124793011Y-112588743D01*
X124816001Y-112473165D01*
X124816001Y-121252571D01*
X124812807Y-121285000D01*
X124825550Y-121414383D01*
X124863290Y-121538793D01*
X124924575Y-121653450D01*
X125007052Y-121753948D01*
X125107550Y-121836425D01*
X125222207Y-121897710D01*
X125346617Y-121935450D01*
X125443581Y-121945000D01*
X125476000Y-121948193D01*
X125508419Y-121945000D01*
X126039104Y-121945000D01*
X125952815Y-122015815D01*
X125873463Y-122112506D01*
X125814498Y-122222820D01*
X125778188Y-122342518D01*
X125765928Y-122467000D01*
X125765928Y-124167000D01*
X125778188Y-124291482D01*
X125814498Y-124411180D01*
X125873463Y-124521494D01*
X125952815Y-124618185D01*
X126049506Y-124697537D01*
X126159820Y-124756502D01*
X126240466Y-124780966D01*
X126156412Y-124856731D01*
X125982359Y-125090080D01*
X125857175Y-125352901D01*
X125812524Y-125500110D01*
X125933845Y-125730000D01*
X127127000Y-125730000D01*
X127127000Y-125710000D01*
X127381000Y-125710000D01*
X127381000Y-125730000D01*
X129667000Y-125730000D01*
X129667000Y-125710000D01*
X129921000Y-125710000D01*
X129921000Y-125730000D01*
X129941000Y-125730000D01*
X129941000Y-125984000D01*
X129921000Y-125984000D01*
X129921000Y-127177814D01*
X130150891Y-127298481D01*
X130425252Y-127201157D01*
X130675355Y-127052178D01*
X130891588Y-126857269D01*
X131039000Y-126659637D01*
X131039000Y-127610000D01*
X122814553Y-127610000D01*
X122937680Y-127425727D01*
X123045853Y-127164574D01*
X123101000Y-126887335D01*
X123101000Y-126604665D01*
X123045853Y-126327426D01*
X122998825Y-126213890D01*
X125812524Y-126213890D01*
X125857175Y-126361099D01*
X125982359Y-126623920D01*
X126156412Y-126857269D01*
X126372645Y-127052178D01*
X126622748Y-127201157D01*
X126897109Y-127298481D01*
X127127000Y-127177814D01*
X127127000Y-125984000D01*
X127381000Y-125984000D01*
X127381000Y-127177814D01*
X127610891Y-127298481D01*
X127885252Y-127201157D01*
X128135355Y-127052178D01*
X128351588Y-126857269D01*
X128524000Y-126626120D01*
X128696412Y-126857269D01*
X128912645Y-127052178D01*
X129162748Y-127201157D01*
X129437109Y-127298481D01*
X129667000Y-127177814D01*
X129667000Y-125984000D01*
X127381000Y-125984000D01*
X127127000Y-125984000D01*
X125933845Y-125984000D01*
X125812524Y-126213890D01*
X122998825Y-126213890D01*
X122937680Y-126066273D01*
X122780637Y-125831241D01*
X122580759Y-125631363D01*
X122345727Y-125474320D01*
X122084574Y-125366147D01*
X121807335Y-125311000D01*
X121524665Y-125311000D01*
X121247426Y-125366147D01*
X120986273Y-125474320D01*
X120751241Y-125631363D01*
X120551363Y-125831241D01*
X120394320Y-126066273D01*
X120286147Y-126327426D01*
X120231000Y-126604665D01*
X120231000Y-126887335D01*
X120286147Y-127164574D01*
X120394320Y-127425727D01*
X120517447Y-127610000D01*
X114443504Y-127610000D01*
X114454013Y-127599491D01*
X114665775Y-127282566D01*
X114811639Y-126930419D01*
X114886000Y-126556581D01*
X114886000Y-126175419D01*
X114811639Y-125801581D01*
X114665775Y-125449434D01*
X114454013Y-125132509D01*
X114184491Y-124862987D01*
X113867566Y-124651225D01*
X113515419Y-124505361D01*
X113141581Y-124431000D01*
X112760419Y-124431000D01*
X112386581Y-124505361D01*
X112034434Y-124651225D01*
X111717509Y-124862987D01*
X111447987Y-125132509D01*
X111236225Y-125449434D01*
X111090361Y-125801581D01*
X111016000Y-126175419D01*
X111016000Y-126556581D01*
X111090361Y-126930419D01*
X111236225Y-127282566D01*
X111447987Y-127599491D01*
X111458496Y-127610000D01*
X102260000Y-127610000D01*
X102260000Y-114577632D01*
X102287820Y-114592502D01*
X102407518Y-114628812D01*
X102532000Y-114641072D01*
X104732000Y-114641072D01*
X104856482Y-114628812D01*
X104976180Y-114592502D01*
X105086494Y-114533537D01*
X105183185Y-114454185D01*
X105262537Y-114357494D01*
X105321502Y-114247180D01*
X105357812Y-114127482D01*
X105370072Y-114003000D01*
X105370072Y-111803000D01*
X105357812Y-111678518D01*
X105321502Y-111558820D01*
X105262537Y-111448506D01*
X105183185Y-111351815D01*
X105086494Y-111272463D01*
X104976180Y-111213498D01*
X104856482Y-111177188D01*
X104732000Y-111164928D01*
X102532000Y-111164928D01*
X102407518Y-111177188D01*
X102287820Y-111213498D01*
X102260000Y-111228368D01*
X102260000Y-110047964D01*
X102287820Y-110062834D01*
X102407518Y-110099144D01*
X102532000Y-110111404D01*
X104732000Y-110111404D01*
X104856482Y-110099144D01*
X104976180Y-110062834D01*
X105086494Y-110003869D01*
X105183185Y-109924517D01*
X105262537Y-109827826D01*
X105321502Y-109717512D01*
X105357812Y-109597814D01*
X105370072Y-109473332D01*
X105370072Y-107273332D01*
X105357812Y-107148850D01*
X105321502Y-107029152D01*
X105262537Y-106918838D01*
X105183185Y-106822147D01*
X105086494Y-106742795D01*
X104976180Y-106683830D01*
X104856482Y-106647520D01*
X104732000Y-106635260D01*
X102532000Y-106635260D01*
X102407518Y-106647520D01*
X102287820Y-106683830D01*
X102260000Y-106698700D01*
X102260000Y-105518298D01*
X102287820Y-105533168D01*
X102407518Y-105569478D01*
X102532000Y-105581738D01*
X104732000Y-105581738D01*
X104856482Y-105569478D01*
X104976180Y-105533168D01*
X105086494Y-105474203D01*
X105177972Y-105399129D01*
X112138931Y-112360089D01*
X112123675Y-112396919D01*
X112057000Y-112732117D01*
X112057000Y-113073883D01*
X112123675Y-113409081D01*
X112138931Y-113445912D01*
X109423185Y-116161658D01*
X109393237Y-116186236D01*
X109368659Y-116216184D01*
X109368655Y-116216188D01*
X109335690Y-116256356D01*
X109295139Y-116305767D01*
X109256177Y-116378660D01*
X109222246Y-116442141D01*
X109177359Y-116590114D01*
X109162203Y-116744000D01*
X109166001Y-116782563D01*
X109166000Y-119896728D01*
X109034434Y-119951225D01*
X108717509Y-120162987D01*
X108447987Y-120432509D01*
X108236225Y-120749434D01*
X108090361Y-121101581D01*
X108016000Y-121475419D01*
X108016000Y-121856581D01*
X108090361Y-122230419D01*
X108236225Y-122582566D01*
X108447987Y-122899491D01*
X108717509Y-123169013D01*
X109034434Y-123380775D01*
X109386581Y-123526639D01*
X109760419Y-123601000D01*
X110141581Y-123601000D01*
X110515419Y-123526639D01*
X110867566Y-123380775D01*
X111184491Y-123169013D01*
X111454013Y-122899491D01*
X111665775Y-122582566D01*
X111811639Y-122230419D01*
X111886000Y-121856581D01*
X111886000Y-121475419D01*
X111811639Y-121101581D01*
X111665775Y-120749434D01*
X111454013Y-120432509D01*
X111387504Y-120366000D01*
X114012928Y-120366000D01*
X114012928Y-122966000D01*
X114025188Y-123090482D01*
X114061498Y-123210180D01*
X114120463Y-123320494D01*
X114199815Y-123417185D01*
X114296506Y-123496537D01*
X114406820Y-123555502D01*
X114526518Y-123591812D01*
X114651000Y-123604072D01*
X117251000Y-123604072D01*
X117375482Y-123591812D01*
X117495180Y-123555502D01*
X117605494Y-123496537D01*
X117702185Y-123417185D01*
X117781537Y-123320494D01*
X117840502Y-123210180D01*
X117876812Y-123090482D01*
X117889072Y-122966000D01*
X117889072Y-120366000D01*
X117876812Y-120241518D01*
X117840502Y-120121820D01*
X117781537Y-120011506D01*
X117702185Y-119914815D01*
X117605494Y-119835463D01*
X117495180Y-119776498D01*
X117375482Y-119740188D01*
X117251000Y-119727928D01*
X114651000Y-119727928D01*
X114526518Y-119740188D01*
X114406820Y-119776498D01*
X114296506Y-119835463D01*
X114199815Y-119914815D01*
X114120463Y-120011506D01*
X114061498Y-120121820D01*
X114025188Y-120241518D01*
X114012928Y-120366000D01*
X111387504Y-120366000D01*
X111184491Y-120162987D01*
X110867566Y-119951225D01*
X110736000Y-119896729D01*
X110736000Y-118984665D01*
X120231000Y-118984665D01*
X120231000Y-119267335D01*
X120286147Y-119544574D01*
X120394320Y-119805727D01*
X120551363Y-120040759D01*
X120751241Y-120240637D01*
X120986273Y-120397680D01*
X121247426Y-120505853D01*
X121524665Y-120561000D01*
X121807335Y-120561000D01*
X122084574Y-120505853D01*
X122345727Y-120397680D01*
X122580759Y-120240637D01*
X122780637Y-120040759D01*
X122937680Y-119805727D01*
X123045853Y-119544574D01*
X123101000Y-119267335D01*
X123101000Y-118984665D01*
X123045853Y-118707426D01*
X122937680Y-118446273D01*
X122780637Y-118211241D01*
X122580759Y-118011363D01*
X122345727Y-117854320D01*
X122084574Y-117746147D01*
X121807335Y-117691000D01*
X121524665Y-117691000D01*
X121247426Y-117746147D01*
X120986273Y-117854320D01*
X120751241Y-118011363D01*
X120551363Y-118211241D01*
X120394320Y-118446273D01*
X120286147Y-118707426D01*
X120231000Y-118984665D01*
X110736000Y-118984665D01*
X110736000Y-117069157D01*
X113249088Y-114556069D01*
X113285919Y-114571325D01*
X113621117Y-114638000D01*
X113962883Y-114638000D01*
X114298081Y-114571325D01*
X114613831Y-114440537D01*
X114897998Y-114250663D01*
X115139663Y-114008998D01*
X115329537Y-113724831D01*
X115460325Y-113409081D01*
X115527000Y-113073883D01*
X115527000Y-113041000D01*
X119238928Y-113041000D01*
X119251188Y-113165482D01*
X119287498Y-113285180D01*
X119346463Y-113395494D01*
X119425815Y-113492185D01*
X119522506Y-113571537D01*
X119632820Y-113630502D01*
X119752518Y-113666812D01*
X119877000Y-113679072D01*
X120491250Y-113676000D01*
X120650000Y-113517250D01*
X120650000Y-112268000D01*
X119400750Y-112268000D01*
X119242000Y-112426750D01*
X119238928Y-113041000D01*
X115527000Y-113041000D01*
X115527000Y-112732117D01*
X115460325Y-112396919D01*
X115329537Y-112081169D01*
X115139663Y-111797002D01*
X114897998Y-111555337D01*
X114613831Y-111365463D01*
X114313351Y-111241000D01*
X119238928Y-111241000D01*
X119242000Y-111855250D01*
X119400750Y-112014000D01*
X120650000Y-112014000D01*
X120650000Y-110764750D01*
X120491250Y-110606000D01*
X119877000Y-110602928D01*
X119752518Y-110615188D01*
X119632820Y-110651498D01*
X119522506Y-110710463D01*
X119425815Y-110789815D01*
X119346463Y-110886506D01*
X119287498Y-110996820D01*
X119251188Y-111116518D01*
X119238928Y-111241000D01*
X114313351Y-111241000D01*
X114298081Y-111234675D01*
X113962883Y-111168000D01*
X113621117Y-111168000D01*
X113285919Y-111234675D01*
X113249089Y-111249931D01*
X110201607Y-108202449D01*
X112057000Y-108202449D01*
X112057000Y-108544215D01*
X112123675Y-108879413D01*
X112254463Y-109195163D01*
X112444337Y-109479330D01*
X112686002Y-109720995D01*
X112970169Y-109910869D01*
X113285919Y-110041657D01*
X113621117Y-110108332D01*
X113962883Y-110108332D01*
X114298081Y-110041657D01*
X114613831Y-109910869D01*
X114897998Y-109720995D01*
X115139663Y-109479330D01*
X115329537Y-109195163D01*
X115460325Y-108879413D01*
X115527000Y-108544215D01*
X115527000Y-108202449D01*
X115460325Y-107867251D01*
X115329537Y-107551501D01*
X115139663Y-107267334D01*
X114897998Y-107025669D01*
X114613831Y-106835795D01*
X114298081Y-106705007D01*
X113962883Y-106638332D01*
X113621117Y-106638332D01*
X113285919Y-106705007D01*
X112970169Y-106835795D01*
X112686002Y-107025669D01*
X112444337Y-107267334D01*
X112254463Y-107551501D01*
X112123675Y-107867251D01*
X112057000Y-108202449D01*
X110201607Y-108202449D01*
X106238946Y-104239788D01*
X112102825Y-104239788D01*
X112167425Y-104452760D01*
X112317469Y-104757995D01*
X112524178Y-105028093D01*
X112779609Y-105252674D01*
X113073946Y-105423108D01*
X113395877Y-105532845D01*
X113665000Y-105415266D01*
X113665000Y-103970666D01*
X113919000Y-103970666D01*
X113919000Y-105415266D01*
X114188123Y-105532845D01*
X114510054Y-105423108D01*
X114804391Y-105252674D01*
X115059822Y-105028093D01*
X115266531Y-104757995D01*
X115416575Y-104452760D01*
X115481175Y-104239788D01*
X115363125Y-103970666D01*
X113919000Y-103970666D01*
X113665000Y-103970666D01*
X112220875Y-103970666D01*
X112102825Y-104239788D01*
X106238946Y-104239788D01*
X105446702Y-103447544D01*
X112102825Y-103447544D01*
X112220875Y-103716666D01*
X113665000Y-103716666D01*
X113665000Y-102272066D01*
X113919000Y-102272066D01*
X113919000Y-103716666D01*
X115363125Y-103716666D01*
X115481175Y-103447544D01*
X115416575Y-103234572D01*
X115266531Y-102929337D01*
X115059822Y-102659239D01*
X114804391Y-102434658D01*
X114510054Y-102264224D01*
X114188123Y-102154487D01*
X113919000Y-102272066D01*
X113665000Y-102272066D01*
X113395877Y-102154487D01*
X113073946Y-102264224D01*
X112779609Y-102434658D01*
X112524178Y-102659239D01*
X112317469Y-102929337D01*
X112167425Y-103234572D01*
X112102825Y-103447544D01*
X105446702Y-103447544D01*
X105370072Y-103370915D01*
X105370072Y-102743666D01*
X105357812Y-102619184D01*
X105321502Y-102499486D01*
X105262537Y-102389172D01*
X105183185Y-102292481D01*
X105086494Y-102213129D01*
X104976180Y-102154164D01*
X104856482Y-102117854D01*
X104732000Y-102105594D01*
X102532000Y-102105594D01*
X102407518Y-102117854D01*
X102287820Y-102154164D01*
X102260000Y-102169034D01*
X102260000Y-100988632D01*
X102287820Y-101003502D01*
X102407518Y-101039812D01*
X102532000Y-101052072D01*
X104732000Y-101052072D01*
X104856482Y-101039812D01*
X104976180Y-101003502D01*
X105086494Y-100944537D01*
X105183185Y-100865185D01*
X105262537Y-100768494D01*
X105321502Y-100658180D01*
X105357812Y-100538482D01*
X105370072Y-100414000D01*
X105370072Y-99710122D01*
X112102825Y-99710122D01*
X112167425Y-99923094D01*
X112317469Y-100228329D01*
X112524178Y-100498427D01*
X112779609Y-100723008D01*
X113073946Y-100893442D01*
X113395877Y-101003179D01*
X113665000Y-100885600D01*
X113665000Y-99441000D01*
X113919000Y-99441000D01*
X113919000Y-100885600D01*
X114188123Y-101003179D01*
X114510054Y-100893442D01*
X114804391Y-100723008D01*
X115059822Y-100498427D01*
X115266531Y-100228329D01*
X115416575Y-99923094D01*
X115481175Y-99710122D01*
X115436471Y-99608208D01*
X121253680Y-99608208D01*
X121253680Y-99883392D01*
X121307366Y-100153290D01*
X121412675Y-100407527D01*
X121565560Y-100636335D01*
X121760145Y-100830920D01*
X121988953Y-100983805D01*
X122004875Y-100990400D01*
X121988953Y-100996995D01*
X121760145Y-101149880D01*
X121565560Y-101344465D01*
X121412675Y-101573273D01*
X121307366Y-101827510D01*
X121253680Y-102097408D01*
X121253680Y-102372592D01*
X121307366Y-102642490D01*
X121412675Y-102896727D01*
X121565560Y-103125535D01*
X121760145Y-103320120D01*
X121988953Y-103473005D01*
X122004875Y-103479600D01*
X121988953Y-103486195D01*
X121760145Y-103639080D01*
X121565560Y-103833665D01*
X121412675Y-104062473D01*
X121307366Y-104316710D01*
X121253680Y-104586608D01*
X121253680Y-104861792D01*
X121307366Y-105131690D01*
X121412675Y-105385927D01*
X121565560Y-105614735D01*
X121760145Y-105809320D01*
X121988953Y-105962205D01*
X122243190Y-106067514D01*
X122513088Y-106121200D01*
X122788272Y-106121200D01*
X123058170Y-106067514D01*
X123312407Y-105962205D01*
X123541215Y-105809320D01*
X123735800Y-105614735D01*
X123888685Y-105385927D01*
X123993994Y-105131690D01*
X124047680Y-104861792D01*
X124047680Y-104586608D01*
X123993994Y-104316710D01*
X123888685Y-104062473D01*
X123735800Y-103833665D01*
X123541215Y-103639080D01*
X123312407Y-103486195D01*
X123296485Y-103479600D01*
X123312407Y-103473005D01*
X123541215Y-103320120D01*
X123735800Y-103125535D01*
X123888685Y-102896727D01*
X123993994Y-102642490D01*
X124047680Y-102372592D01*
X124047680Y-102097408D01*
X123993994Y-101827510D01*
X123888685Y-101573273D01*
X123735800Y-101344465D01*
X123541215Y-101149880D01*
X123312407Y-100996995D01*
X123296485Y-100990400D01*
X123312407Y-100983805D01*
X123541215Y-100830920D01*
X123735800Y-100636335D01*
X123888685Y-100407527D01*
X123993994Y-100153290D01*
X124047680Y-99883392D01*
X124047680Y-99608208D01*
X123993994Y-99338310D01*
X123888685Y-99084073D01*
X123735800Y-98855265D01*
X123541215Y-98660680D01*
X123312407Y-98507795D01*
X123058170Y-98402486D01*
X122788272Y-98348800D01*
X122513088Y-98348800D01*
X122243190Y-98402486D01*
X121988953Y-98507795D01*
X121760145Y-98660680D01*
X121565560Y-98855265D01*
X121412675Y-99084073D01*
X121307366Y-99338310D01*
X121253680Y-99608208D01*
X115436471Y-99608208D01*
X115363125Y-99441000D01*
X113919000Y-99441000D01*
X113665000Y-99441000D01*
X112220875Y-99441000D01*
X112102825Y-99710122D01*
X105370072Y-99710122D01*
X105370072Y-98917878D01*
X112102825Y-98917878D01*
X112220875Y-99187000D01*
X113665000Y-99187000D01*
X113665000Y-97742400D01*
X113919000Y-97742400D01*
X113919000Y-99187000D01*
X115363125Y-99187000D01*
X115481175Y-98917878D01*
X115416575Y-98704906D01*
X115266531Y-98399671D01*
X115059822Y-98129573D01*
X114804391Y-97904992D01*
X114510054Y-97734558D01*
X114188123Y-97624821D01*
X113919000Y-97742400D01*
X113665000Y-97742400D01*
X113395877Y-97624821D01*
X113073946Y-97734558D01*
X112779609Y-97904992D01*
X112524178Y-98129573D01*
X112317469Y-98399671D01*
X112167425Y-98704906D01*
X112102825Y-98917878D01*
X105370072Y-98917878D01*
X105370072Y-98214000D01*
X105357812Y-98089518D01*
X105321502Y-97969820D01*
X105262537Y-97859506D01*
X105183185Y-97762815D01*
X105086494Y-97683463D01*
X104976180Y-97624498D01*
X104856482Y-97588188D01*
X104732000Y-97575928D01*
X102532000Y-97575928D01*
X102407518Y-97588188D01*
X102287820Y-97624498D01*
X102260000Y-97639368D01*
X102260000Y-92472000D01*
X103692428Y-92472000D01*
X103692428Y-94472000D01*
X103704688Y-94596482D01*
X103740998Y-94716180D01*
X103799963Y-94826494D01*
X103879315Y-94923185D01*
X103976006Y-95002537D01*
X104086320Y-95061502D01*
X104206018Y-95097812D01*
X104330500Y-95110072D01*
X106235500Y-95110072D01*
X106359982Y-95097812D01*
X106479680Y-95061502D01*
X106589994Y-95002537D01*
X106686685Y-94923185D01*
X106766037Y-94826494D01*
X106815059Y-94734781D01*
X106956077Y-94847969D01*
X107231906Y-94991571D01*
X107450020Y-95062563D01*
X107696000Y-94942594D01*
X107696000Y-93599000D01*
X107676000Y-93599000D01*
X107676000Y-93345000D01*
X107696000Y-93345000D01*
X107696000Y-92001406D01*
X107950000Y-92001406D01*
X107950000Y-93345000D01*
X107970000Y-93345000D01*
X107970000Y-93599000D01*
X107950000Y-93599000D01*
X107950000Y-94942594D01*
X108195980Y-95062563D01*
X108414094Y-94991571D01*
X108689923Y-94847969D01*
X108932437Y-94653315D01*
X109087837Y-94468101D01*
X109235037Y-94647463D01*
X109476766Y-94845845D01*
X109752552Y-94993255D01*
X110051797Y-95084030D01*
X110363000Y-95114681D01*
X110674204Y-95084030D01*
X110973449Y-94993255D01*
X111249235Y-94845845D01*
X111490963Y-94647463D01*
X111689345Y-94405734D01*
X111836755Y-94129948D01*
X111927530Y-93830703D01*
X111950500Y-93597485D01*
X111950500Y-93346514D01*
X111938926Y-93229000D01*
X119238928Y-93229000D01*
X119251188Y-93353482D01*
X119287498Y-93473180D01*
X119346463Y-93583494D01*
X119425815Y-93680185D01*
X119522506Y-93759537D01*
X119632820Y-93818502D01*
X119752518Y-93854812D01*
X119877000Y-93867072D01*
X120491250Y-93864000D01*
X120650000Y-93705250D01*
X120650000Y-92456000D01*
X119400750Y-92456000D01*
X119242000Y-92614750D01*
X119238928Y-93229000D01*
X111938926Y-93229000D01*
X111927530Y-93113296D01*
X111836755Y-92814051D01*
X111689345Y-92538265D01*
X111490963Y-92296537D01*
X111249234Y-92098155D01*
X110973448Y-91950745D01*
X110674203Y-91859970D01*
X110363000Y-91829319D01*
X110051796Y-91859970D01*
X109752551Y-91950745D01*
X109476765Y-92098155D01*
X109235037Y-92296537D01*
X109087838Y-92475900D01*
X108932437Y-92290685D01*
X108689923Y-92096031D01*
X108414094Y-91952429D01*
X108195980Y-91881437D01*
X107950000Y-92001406D01*
X107696000Y-92001406D01*
X107450020Y-91881437D01*
X107231906Y-91952429D01*
X106956077Y-92096031D01*
X106815059Y-92209219D01*
X106766037Y-92117506D01*
X106686685Y-92020815D01*
X106589994Y-91941463D01*
X106479680Y-91882498D01*
X106359982Y-91846188D01*
X106235500Y-91833928D01*
X104330500Y-91833928D01*
X104206018Y-91846188D01*
X104086320Y-91882498D01*
X103976006Y-91941463D01*
X103879315Y-92020815D01*
X103799963Y-92117506D01*
X103740998Y-92227820D01*
X103704688Y-92347518D01*
X103692428Y-92472000D01*
X102260000Y-92472000D01*
X102260000Y-91429000D01*
X119238928Y-91429000D01*
X119242000Y-92043250D01*
X119400750Y-92202000D01*
X120650000Y-92202000D01*
X120650000Y-90952750D01*
X120491250Y-90794000D01*
X119877000Y-90790928D01*
X119752518Y-90803188D01*
X119632820Y-90839498D01*
X119522506Y-90898463D01*
X119425815Y-90977815D01*
X119346463Y-91074506D01*
X119287498Y-91184820D01*
X119251188Y-91304518D01*
X119238928Y-91429000D01*
X102260000Y-91429000D01*
X102260000Y-85202665D01*
X120231000Y-85202665D01*
X120231000Y-85485335D01*
X120286147Y-85762574D01*
X120394320Y-86023727D01*
X120551363Y-86258759D01*
X120751241Y-86458637D01*
X120986273Y-86615680D01*
X121247426Y-86723853D01*
X121524665Y-86779000D01*
X121807335Y-86779000D01*
X122084574Y-86723853D01*
X122345727Y-86615680D01*
X122580759Y-86458637D01*
X122780637Y-86258759D01*
X122937680Y-86023727D01*
X123045853Y-85762574D01*
X123101000Y-85485335D01*
X123101000Y-85202665D01*
X123045853Y-84925426D01*
X122937680Y-84664273D01*
X122780637Y-84429241D01*
X122580759Y-84229363D01*
X122345727Y-84072320D01*
X122084574Y-83964147D01*
X121807335Y-83909000D01*
X121524665Y-83909000D01*
X121247426Y-83964147D01*
X120986273Y-84072320D01*
X120751241Y-84229363D01*
X120551363Y-84429241D01*
X120394320Y-84664273D01*
X120286147Y-84925426D01*
X120231000Y-85202665D01*
X102260000Y-85202665D01*
X102260000Y-81042000D01*
X103136928Y-81042000D01*
X103136928Y-83042000D01*
X103149188Y-83166482D01*
X103185498Y-83286180D01*
X103244463Y-83396494D01*
X103323815Y-83493185D01*
X103420506Y-83572537D01*
X103530820Y-83631502D01*
X103650518Y-83667812D01*
X103775000Y-83680072D01*
X105775000Y-83680072D01*
X105899482Y-83667812D01*
X106019180Y-83631502D01*
X106129494Y-83572537D01*
X106226185Y-83493185D01*
X106305537Y-83396494D01*
X106364502Y-83286180D01*
X106397496Y-83177413D01*
X108819192Y-83177413D01*
X108914956Y-83441814D01*
X109204571Y-83582704D01*
X109516108Y-83664384D01*
X109837595Y-83683718D01*
X110156675Y-83639961D01*
X110461088Y-83534795D01*
X110635044Y-83441814D01*
X110730808Y-83177413D01*
X109775000Y-82221605D01*
X108819192Y-83177413D01*
X106397496Y-83177413D01*
X106400812Y-83166482D01*
X106413072Y-83042000D01*
X106413072Y-82104595D01*
X108133282Y-82104595D01*
X108177039Y-82423675D01*
X108282205Y-82728088D01*
X108375186Y-82902044D01*
X108639587Y-82997808D01*
X109595395Y-82042000D01*
X109954605Y-82042000D01*
X110910413Y-82997808D01*
X111174814Y-82902044D01*
X111315704Y-82612429D01*
X111397384Y-82300892D01*
X111416718Y-81979405D01*
X111372961Y-81660325D01*
X111267795Y-81355912D01*
X111174814Y-81181956D01*
X110910413Y-81086192D01*
X109954605Y-82042000D01*
X109595395Y-82042000D01*
X108639587Y-81086192D01*
X108375186Y-81181956D01*
X108234296Y-81471571D01*
X108152616Y-81783108D01*
X108133282Y-82104595D01*
X106413072Y-82104595D01*
X106413072Y-81042000D01*
X106400812Y-80917518D01*
X106397497Y-80906587D01*
X108819192Y-80906587D01*
X109775000Y-81862395D01*
X110730808Y-80906587D01*
X110635044Y-80642186D01*
X110345429Y-80501296D01*
X110033892Y-80419616D01*
X109712405Y-80400282D01*
X109393325Y-80444039D01*
X109088912Y-80549205D01*
X108914956Y-80642186D01*
X108819192Y-80906587D01*
X106397497Y-80906587D01*
X106364502Y-80797820D01*
X106305537Y-80687506D01*
X106226185Y-80590815D01*
X106129494Y-80511463D01*
X106019180Y-80452498D01*
X105899482Y-80416188D01*
X105775000Y-80403928D01*
X103775000Y-80403928D01*
X103650518Y-80416188D01*
X103530820Y-80452498D01*
X103420506Y-80511463D01*
X103323815Y-80590815D01*
X103244463Y-80687506D01*
X103185498Y-80797820D01*
X103149188Y-80917518D01*
X103136928Y-81042000D01*
X102260000Y-81042000D01*
X102260000Y-79210000D01*
X113496928Y-79210000D01*
X113496928Y-80810000D01*
X113509188Y-80934482D01*
X113545498Y-81054180D01*
X113604463Y-81164494D01*
X113683815Y-81261185D01*
X113780506Y-81340537D01*
X113890820Y-81399502D01*
X114010518Y-81435812D01*
X114135000Y-81448072D01*
X115735000Y-81448072D01*
X115859482Y-81435812D01*
X115979180Y-81399502D01*
X116089494Y-81340537D01*
X116186185Y-81261185D01*
X116265537Y-81164494D01*
X116324502Y-81054180D01*
X116340117Y-81002702D01*
X116621903Y-81002702D01*
X116693486Y-81246671D01*
X116948996Y-81367571D01*
X117223184Y-81436300D01*
X117505512Y-81450217D01*
X117785130Y-81408787D01*
X118051292Y-81313603D01*
X118159266Y-81255890D01*
X125812524Y-81255890D01*
X125857175Y-81403099D01*
X125982359Y-81665920D01*
X126156412Y-81899269D01*
X126372645Y-82094178D01*
X126622748Y-82243157D01*
X126897109Y-82340481D01*
X127127000Y-82219814D01*
X127127000Y-81026000D01*
X127381000Y-81026000D01*
X127381000Y-82219814D01*
X127610891Y-82340481D01*
X127885252Y-82243157D01*
X128135355Y-82094178D01*
X128351588Y-81899269D01*
X128524000Y-81668120D01*
X128696412Y-81899269D01*
X128912645Y-82094178D01*
X129162748Y-82243157D01*
X129437109Y-82340481D01*
X129667000Y-82219814D01*
X129667000Y-81026000D01*
X127381000Y-81026000D01*
X127127000Y-81026000D01*
X125933845Y-81026000D01*
X125812524Y-81255890D01*
X118159266Y-81255890D01*
X118176514Y-81246671D01*
X118248097Y-81002702D01*
X117435000Y-80189605D01*
X116621903Y-81002702D01*
X116340117Y-81002702D01*
X116360812Y-80934482D01*
X116373072Y-80810000D01*
X116373072Y-80802785D01*
X116442298Y-80823097D01*
X117255395Y-80010000D01*
X117614605Y-80010000D01*
X118427702Y-80823097D01*
X118671671Y-80751514D01*
X118792571Y-80496004D01*
X118861300Y-80221816D01*
X118875217Y-79939488D01*
X118833787Y-79659870D01*
X118738603Y-79393708D01*
X118671671Y-79268486D01*
X118427702Y-79196903D01*
X117614605Y-80010000D01*
X117255395Y-80010000D01*
X116442298Y-79196903D01*
X116373072Y-79217215D01*
X116373072Y-79210000D01*
X116360812Y-79085518D01*
X116340118Y-79017298D01*
X116621903Y-79017298D01*
X117435000Y-79830395D01*
X118248097Y-79017298D01*
X118176514Y-78773329D01*
X117921004Y-78652429D01*
X117646816Y-78583700D01*
X117364488Y-78569783D01*
X117084870Y-78611213D01*
X116818708Y-78706397D01*
X116693486Y-78773329D01*
X116621903Y-79017298D01*
X116340118Y-79017298D01*
X116324502Y-78965820D01*
X116265537Y-78855506D01*
X116186185Y-78758815D01*
X116089494Y-78679463D01*
X115979180Y-78620498D01*
X115859482Y-78584188D01*
X115735000Y-78571928D01*
X114135000Y-78571928D01*
X114010518Y-78584188D01*
X113890820Y-78620498D01*
X113780506Y-78679463D01*
X113683815Y-78758815D01*
X113604463Y-78855506D01*
X113545498Y-78965820D01*
X113509188Y-79085518D01*
X113496928Y-79210000D01*
X102260000Y-79210000D01*
X102260000Y-76860000D01*
X120517447Y-76860000D01*
X120394320Y-77044273D01*
G04 #@! TA.AperFunction,Conductor*
D28*
G36*
X120394320Y-77044273D02*
G01*
X120286147Y-77305426D01*
X120231000Y-77582665D01*
X120231000Y-77865335D01*
X120286147Y-78142574D01*
X120394320Y-78403727D01*
X120551363Y-78638759D01*
X120751241Y-78838637D01*
X120986273Y-78995680D01*
X121247426Y-79103853D01*
X121524665Y-79159000D01*
X121807335Y-79159000D01*
X122084574Y-79103853D01*
X122345727Y-78995680D01*
X122580759Y-78838637D01*
X122780637Y-78638759D01*
X122937680Y-78403727D01*
X123045853Y-78142574D01*
X123101000Y-77865335D01*
X123101000Y-77582665D01*
X123045853Y-77305426D01*
X122937680Y-77044273D01*
X122814553Y-76860000D01*
X131039000Y-76860000D01*
X131039000Y-77549345D01*
X130947475Y-77412368D01*
X130740632Y-77205525D01*
X130497411Y-77043010D01*
X130227158Y-76931068D01*
X129940260Y-76874000D01*
X129647740Y-76874000D01*
X129360842Y-76931068D01*
X129090589Y-77043010D01*
X128847368Y-77205525D01*
X128715513Y-77337380D01*
X128693502Y-77264820D01*
X128634537Y-77154506D01*
X128555185Y-77057815D01*
X128458494Y-76978463D01*
X128348180Y-76919498D01*
X128228482Y-76883188D01*
X128104000Y-76870928D01*
X126404000Y-76870928D01*
X126279518Y-76883188D01*
X126159820Y-76919498D01*
X126049506Y-76978463D01*
X125952815Y-77057815D01*
X125873463Y-77154506D01*
X125814498Y-77264820D01*
X125778188Y-77384518D01*
X125765928Y-77509000D01*
X125765928Y-79209000D01*
X125778188Y-79333482D01*
X125814498Y-79453180D01*
X125873463Y-79563494D01*
X125952815Y-79660185D01*
X126049506Y-79739537D01*
X126159820Y-79798502D01*
X126240466Y-79822966D01*
X126156412Y-79898731D01*
X125982359Y-80132080D01*
X125857175Y-80394901D01*
X125812524Y-80542110D01*
X125933845Y-80772000D01*
X127127000Y-80772000D01*
X127127000Y-80752000D01*
X127381000Y-80752000D01*
X127381000Y-80772000D01*
X129667000Y-80772000D01*
X129667000Y-80752000D01*
X129921000Y-80752000D01*
X129921000Y-80772000D01*
X129941000Y-80772000D01*
X129941000Y-81026000D01*
X129921000Y-81026000D01*
X129921000Y-82219814D01*
X130150891Y-82340481D01*
X130425252Y-82243157D01*
X130675355Y-82094178D01*
X130891588Y-81899269D01*
X131039001Y-81701636D01*
X131039001Y-82525000D01*
X125508419Y-82525000D01*
X125476000Y-82521807D01*
X125443581Y-82525000D01*
X125346617Y-82534550D01*
X125222207Y-82572290D01*
X125107550Y-82633575D01*
X125007052Y-82716052D01*
X124924575Y-82816550D01*
X124863290Y-82931207D01*
X124825550Y-83055617D01*
X124812807Y-83185000D01*
X124816000Y-83217419D01*
X124816000Y-91996832D01*
X124793011Y-91881257D01*
X124677299Y-91601905D01*
X124509312Y-91350495D01*
X124295505Y-91136688D01*
X124044095Y-90968701D01*
X123764743Y-90852989D01*
X123468184Y-90794000D01*
X123165816Y-90794000D01*
X122869257Y-90852989D01*
X122589905Y-90968701D01*
X122338495Y-91136688D01*
X122272056Y-91203127D01*
X122266502Y-91184820D01*
X122207537Y-91074506D01*
X122128185Y-90977815D01*
X122031494Y-90898463D01*
X121921180Y-90839498D01*
X121801482Y-90803188D01*
X121677000Y-90790928D01*
X121062750Y-90794000D01*
X120904000Y-90952750D01*
X120904000Y-92202000D01*
X120924000Y-92202000D01*
X120924000Y-92456000D01*
X120904000Y-92456000D01*
X120904000Y-93705250D01*
X121062750Y-93864000D01*
X121677000Y-93867072D01*
X121801482Y-93854812D01*
X121921180Y-93818502D01*
X122031494Y-93759537D01*
X122128185Y-93680185D01*
X122207537Y-93583494D01*
X122266502Y-93473180D01*
X122272056Y-93454873D01*
X122338495Y-93521312D01*
X122589905Y-93689299D01*
X122869257Y-93805011D01*
X123165816Y-93864000D01*
X123468184Y-93864000D01*
X123764743Y-93805011D01*
X124044095Y-93689299D01*
X124295505Y-93521312D01*
X124509312Y-93307505D01*
X124677299Y-93056095D01*
X124793011Y-92776743D01*
X124816000Y-92661168D01*
X124816001Y-111808835D01*
X124793011Y-111693257D01*
X124677299Y-111413905D01*
X124509312Y-111162495D01*
X124295505Y-110948688D01*
X124044095Y-110780701D01*
X123764743Y-110664989D01*
X123468184Y-110606000D01*
X123165816Y-110606000D01*
X122869257Y-110664989D01*
X122589905Y-110780701D01*
X122338495Y-110948688D01*
X122272056Y-111015127D01*
X122266502Y-110996820D01*
X122207537Y-110886506D01*
X122128185Y-110789815D01*
X122031494Y-110710463D01*
X121921180Y-110651498D01*
X121801482Y-110615188D01*
X121677000Y-110602928D01*
X121062750Y-110606000D01*
X120904000Y-110764750D01*
X120904000Y-112014000D01*
X120924000Y-112014000D01*
X120924000Y-112268000D01*
X120904000Y-112268000D01*
X120904000Y-113517250D01*
X121062750Y-113676000D01*
X121677000Y-113679072D01*
X121801482Y-113666812D01*
X121921180Y-113630502D01*
X122031494Y-113571537D01*
X122128185Y-113492185D01*
X122207537Y-113395494D01*
X122266502Y-113285180D01*
X122272056Y-113266873D01*
X122338495Y-113333312D01*
X122589905Y-113501299D01*
X122869257Y-113617011D01*
X123165816Y-113676000D01*
X123468184Y-113676000D01*
X123764743Y-113617011D01*
X124044095Y-113501299D01*
X124295505Y-113333312D01*
X124509312Y-113119505D01*
X124677299Y-112868095D01*
X124793011Y-112588743D01*
X124816001Y-112473165D01*
X124816001Y-121252571D01*
X124812807Y-121285000D01*
X124825550Y-121414383D01*
X124863290Y-121538793D01*
X124924575Y-121653450D01*
X125007052Y-121753948D01*
X125107550Y-121836425D01*
X125222207Y-121897710D01*
X125346617Y-121935450D01*
X125443581Y-121945000D01*
X125476000Y-121948193D01*
X125508419Y-121945000D01*
X126039104Y-121945000D01*
X125952815Y-122015815D01*
X125873463Y-122112506D01*
X125814498Y-122222820D01*
X125778188Y-122342518D01*
X125765928Y-122467000D01*
X125765928Y-124167000D01*
X125778188Y-124291482D01*
X125814498Y-124411180D01*
X125873463Y-124521494D01*
X125952815Y-124618185D01*
X126049506Y-124697537D01*
X126159820Y-124756502D01*
X126240466Y-124780966D01*
X126156412Y-124856731D01*
X125982359Y-125090080D01*
X125857175Y-125352901D01*
X125812524Y-125500110D01*
X125933845Y-125730000D01*
X127127000Y-125730000D01*
X127127000Y-125710000D01*
X127381000Y-125710000D01*
X127381000Y-125730000D01*
X129667000Y-125730000D01*
X129667000Y-125710000D01*
X129921000Y-125710000D01*
X129921000Y-125730000D01*
X129941000Y-125730000D01*
X129941000Y-125984000D01*
X129921000Y-125984000D01*
X129921000Y-127177814D01*
X130150891Y-127298481D01*
X130425252Y-127201157D01*
X130675355Y-127052178D01*
X130891588Y-126857269D01*
X131039000Y-126659637D01*
X131039000Y-127610000D01*
X122814553Y-127610000D01*
X122937680Y-127425727D01*
X123045853Y-127164574D01*
X123101000Y-126887335D01*
X123101000Y-126604665D01*
X123045853Y-126327426D01*
X122998825Y-126213890D01*
X125812524Y-126213890D01*
X125857175Y-126361099D01*
X125982359Y-126623920D01*
X126156412Y-126857269D01*
X126372645Y-127052178D01*
X126622748Y-127201157D01*
X126897109Y-127298481D01*
X127127000Y-127177814D01*
X127127000Y-125984000D01*
X127381000Y-125984000D01*
X127381000Y-127177814D01*
X127610891Y-127298481D01*
X127885252Y-127201157D01*
X128135355Y-127052178D01*
X128351588Y-126857269D01*
X128524000Y-126626120D01*
X128696412Y-126857269D01*
X128912645Y-127052178D01*
X129162748Y-127201157D01*
X129437109Y-127298481D01*
X129667000Y-127177814D01*
X129667000Y-125984000D01*
X127381000Y-125984000D01*
X127127000Y-125984000D01*
X125933845Y-125984000D01*
X125812524Y-126213890D01*
X122998825Y-126213890D01*
X122937680Y-126066273D01*
X122780637Y-125831241D01*
X122580759Y-125631363D01*
X122345727Y-125474320D01*
X122084574Y-125366147D01*
X121807335Y-125311000D01*
X121524665Y-125311000D01*
X121247426Y-125366147D01*
X120986273Y-125474320D01*
X120751241Y-125631363D01*
X120551363Y-125831241D01*
X120394320Y-126066273D01*
X120286147Y-126327426D01*
X120231000Y-126604665D01*
X120231000Y-126887335D01*
X120286147Y-127164574D01*
X120394320Y-127425727D01*
X120517447Y-127610000D01*
X114443504Y-127610000D01*
X114454013Y-127599491D01*
X114665775Y-127282566D01*
X114811639Y-126930419D01*
X114886000Y-126556581D01*
X114886000Y-126175419D01*
X114811639Y-125801581D01*
X114665775Y-125449434D01*
X114454013Y-125132509D01*
X114184491Y-124862987D01*
X113867566Y-124651225D01*
X113515419Y-124505361D01*
X113141581Y-124431000D01*
X112760419Y-124431000D01*
X112386581Y-124505361D01*
X112034434Y-124651225D01*
X111717509Y-124862987D01*
X111447987Y-125132509D01*
X111236225Y-125449434D01*
X111090361Y-125801581D01*
X111016000Y-126175419D01*
X111016000Y-126556581D01*
X111090361Y-126930419D01*
X111236225Y-127282566D01*
X111447987Y-127599491D01*
X111458496Y-127610000D01*
X102260000Y-127610000D01*
X102260000Y-114577632D01*
X102287820Y-114592502D01*
X102407518Y-114628812D01*
X102532000Y-114641072D01*
X104732000Y-114641072D01*
X104856482Y-114628812D01*
X104976180Y-114592502D01*
X105086494Y-114533537D01*
X105183185Y-114454185D01*
X105262537Y-114357494D01*
X105321502Y-114247180D01*
X105357812Y-114127482D01*
X105370072Y-114003000D01*
X105370072Y-111803000D01*
X105357812Y-111678518D01*
X105321502Y-111558820D01*
X105262537Y-111448506D01*
X105183185Y-111351815D01*
X105086494Y-111272463D01*
X104976180Y-111213498D01*
X104856482Y-111177188D01*
X104732000Y-111164928D01*
X102532000Y-111164928D01*
X102407518Y-111177188D01*
X102287820Y-111213498D01*
X102260000Y-111228368D01*
X102260000Y-110047964D01*
X102287820Y-110062834D01*
X102407518Y-110099144D01*
X102532000Y-110111404D01*
X104732000Y-110111404D01*
X104856482Y-110099144D01*
X104976180Y-110062834D01*
X105086494Y-110003869D01*
X105183185Y-109924517D01*
X105262537Y-109827826D01*
X105321502Y-109717512D01*
X105357812Y-109597814D01*
X105370072Y-109473332D01*
X105370072Y-107273332D01*
X105357812Y-107148850D01*
X105321502Y-107029152D01*
X105262537Y-106918838D01*
X105183185Y-106822147D01*
X105086494Y-106742795D01*
X104976180Y-106683830D01*
X104856482Y-106647520D01*
X104732000Y-106635260D01*
X102532000Y-106635260D01*
X102407518Y-106647520D01*
X102287820Y-106683830D01*
X102260000Y-106698700D01*
X102260000Y-105518298D01*
X102287820Y-105533168D01*
X102407518Y-105569478D01*
X102532000Y-105581738D01*
X104732000Y-105581738D01*
X104856482Y-105569478D01*
X104976180Y-105533168D01*
X105086494Y-105474203D01*
X105177972Y-105399129D01*
X112138931Y-112360089D01*
X112123675Y-112396919D01*
X112057000Y-112732117D01*
X112057000Y-113073883D01*
X112123675Y-113409081D01*
X112138931Y-113445912D01*
X109423185Y-116161658D01*
X109393237Y-116186236D01*
X109368659Y-116216184D01*
X109368655Y-116216188D01*
X109335690Y-116256356D01*
X109295139Y-116305767D01*
X109256177Y-116378660D01*
X109222246Y-116442141D01*
X109177359Y-116590114D01*
X109162203Y-116744000D01*
X109166001Y-116782563D01*
X109166000Y-119896728D01*
X109034434Y-119951225D01*
X108717509Y-120162987D01*
X108447987Y-120432509D01*
X108236225Y-120749434D01*
X108090361Y-121101581D01*
X108016000Y-121475419D01*
X108016000Y-121856581D01*
X108090361Y-122230419D01*
X108236225Y-122582566D01*
X108447987Y-122899491D01*
X108717509Y-123169013D01*
X109034434Y-123380775D01*
X109386581Y-123526639D01*
X109760419Y-123601000D01*
X110141581Y-123601000D01*
X110515419Y-123526639D01*
X110867566Y-123380775D01*
X111184491Y-123169013D01*
X111454013Y-122899491D01*
X111665775Y-122582566D01*
X111811639Y-122230419D01*
X111886000Y-121856581D01*
X111886000Y-121475419D01*
X111811639Y-121101581D01*
X111665775Y-120749434D01*
X111454013Y-120432509D01*
X111387504Y-120366000D01*
X114012928Y-120366000D01*
X114012928Y-122966000D01*
X114025188Y-123090482D01*
X114061498Y-123210180D01*
X114120463Y-123320494D01*
X114199815Y-123417185D01*
X114296506Y-123496537D01*
X114406820Y-123555502D01*
X114526518Y-123591812D01*
X114651000Y-123604072D01*
X117251000Y-123604072D01*
X117375482Y-123591812D01*
X117495180Y-123555502D01*
X117605494Y-123496537D01*
X117702185Y-123417185D01*
X117781537Y-123320494D01*
X117840502Y-123210180D01*
X117876812Y-123090482D01*
X117889072Y-122966000D01*
X117889072Y-120366000D01*
X117876812Y-120241518D01*
X117840502Y-120121820D01*
X117781537Y-120011506D01*
X117702185Y-119914815D01*
X117605494Y-119835463D01*
X117495180Y-119776498D01*
X117375482Y-119740188D01*
X117251000Y-119727928D01*
X114651000Y-119727928D01*
X114526518Y-119740188D01*
X114406820Y-119776498D01*
X114296506Y-119835463D01*
X114199815Y-119914815D01*
X114120463Y-120011506D01*
X114061498Y-120121820D01*
X114025188Y-120241518D01*
X114012928Y-120366000D01*
X111387504Y-120366000D01*
X111184491Y-120162987D01*
X110867566Y-119951225D01*
X110736000Y-119896729D01*
X110736000Y-118984665D01*
X120231000Y-118984665D01*
X120231000Y-119267335D01*
X120286147Y-119544574D01*
X120394320Y-119805727D01*
X120551363Y-120040759D01*
X120751241Y-120240637D01*
X120986273Y-120397680D01*
X121247426Y-120505853D01*
X121524665Y-120561000D01*
X121807335Y-120561000D01*
X122084574Y-120505853D01*
X122345727Y-120397680D01*
X122580759Y-120240637D01*
X122780637Y-120040759D01*
X122937680Y-119805727D01*
X123045853Y-119544574D01*
X123101000Y-119267335D01*
X123101000Y-118984665D01*
X123045853Y-118707426D01*
X122937680Y-118446273D01*
X122780637Y-118211241D01*
X122580759Y-118011363D01*
X122345727Y-117854320D01*
X122084574Y-117746147D01*
X121807335Y-117691000D01*
X121524665Y-117691000D01*
X121247426Y-117746147D01*
X120986273Y-117854320D01*
X120751241Y-118011363D01*
X120551363Y-118211241D01*
X120394320Y-118446273D01*
X120286147Y-118707426D01*
X120231000Y-118984665D01*
X110736000Y-118984665D01*
X110736000Y-117069157D01*
X113249088Y-114556069D01*
X113285919Y-114571325D01*
X113621117Y-114638000D01*
X113962883Y-114638000D01*
X114298081Y-114571325D01*
X114613831Y-114440537D01*
X114897998Y-114250663D01*
X115139663Y-114008998D01*
X115329537Y-113724831D01*
X115460325Y-113409081D01*
X115527000Y-113073883D01*
X115527000Y-113041000D01*
X119238928Y-113041000D01*
X119251188Y-113165482D01*
X119287498Y-113285180D01*
X119346463Y-113395494D01*
X119425815Y-113492185D01*
X119522506Y-113571537D01*
X119632820Y-113630502D01*
X119752518Y-113666812D01*
X119877000Y-113679072D01*
X120491250Y-113676000D01*
X120650000Y-113517250D01*
X120650000Y-112268000D01*
X119400750Y-112268000D01*
X119242000Y-112426750D01*
X119238928Y-113041000D01*
X115527000Y-113041000D01*
X115527000Y-112732117D01*
X115460325Y-112396919D01*
X115329537Y-112081169D01*
X115139663Y-111797002D01*
X114897998Y-111555337D01*
X114613831Y-111365463D01*
X114313351Y-111241000D01*
X119238928Y-111241000D01*
X119242000Y-111855250D01*
X119400750Y-112014000D01*
X120650000Y-112014000D01*
X120650000Y-110764750D01*
X120491250Y-110606000D01*
X119877000Y-110602928D01*
X119752518Y-110615188D01*
X119632820Y-110651498D01*
X119522506Y-110710463D01*
X119425815Y-110789815D01*
X119346463Y-110886506D01*
X119287498Y-110996820D01*
X119251188Y-111116518D01*
X119238928Y-111241000D01*
X114313351Y-111241000D01*
X114298081Y-111234675D01*
X113962883Y-111168000D01*
X113621117Y-111168000D01*
X113285919Y-111234675D01*
X113249089Y-111249931D01*
X110201607Y-108202449D01*
X112057000Y-108202449D01*
X112057000Y-108544215D01*
X112123675Y-108879413D01*
X112254463Y-109195163D01*
X112444337Y-109479330D01*
X112686002Y-109720995D01*
X112970169Y-109910869D01*
X113285919Y-110041657D01*
X113621117Y-110108332D01*
X113962883Y-110108332D01*
X114298081Y-110041657D01*
X114613831Y-109910869D01*
X114897998Y-109720995D01*
X115139663Y-109479330D01*
X115329537Y-109195163D01*
X115460325Y-108879413D01*
X115527000Y-108544215D01*
X115527000Y-108202449D01*
X115460325Y-107867251D01*
X115329537Y-107551501D01*
X115139663Y-107267334D01*
X114897998Y-107025669D01*
X114613831Y-106835795D01*
X114298081Y-106705007D01*
X113962883Y-106638332D01*
X113621117Y-106638332D01*
X113285919Y-106705007D01*
X112970169Y-106835795D01*
X112686002Y-107025669D01*
X112444337Y-107267334D01*
X112254463Y-107551501D01*
X112123675Y-107867251D01*
X112057000Y-108202449D01*
X110201607Y-108202449D01*
X106238946Y-104239788D01*
X112102825Y-104239788D01*
X112167425Y-104452760D01*
X112317469Y-104757995D01*
X112524178Y-105028093D01*
X112779609Y-105252674D01*
X113073946Y-105423108D01*
X113395877Y-105532845D01*
X113665000Y-105415266D01*
X113665000Y-103970666D01*
X113919000Y-103970666D01*
X113919000Y-105415266D01*
X114188123Y-105532845D01*
X114510054Y-105423108D01*
X114804391Y-105252674D01*
X115059822Y-105028093D01*
X115266531Y-104757995D01*
X115416575Y-104452760D01*
X115481175Y-104239788D01*
X115363125Y-103970666D01*
X113919000Y-103970666D01*
X113665000Y-103970666D01*
X112220875Y-103970666D01*
X112102825Y-104239788D01*
X106238946Y-104239788D01*
X105446702Y-103447544D01*
X112102825Y-103447544D01*
X112220875Y-103716666D01*
X113665000Y-103716666D01*
X113665000Y-102272066D01*
X113919000Y-102272066D01*
X113919000Y-103716666D01*
X115363125Y-103716666D01*
X115481175Y-103447544D01*
X115416575Y-103234572D01*
X115266531Y-102929337D01*
X115059822Y-102659239D01*
X114804391Y-102434658D01*
X114510054Y-102264224D01*
X114188123Y-102154487D01*
X113919000Y-102272066D01*
X113665000Y-102272066D01*
X113395877Y-102154487D01*
X113073946Y-102264224D01*
X112779609Y-102434658D01*
X112524178Y-102659239D01*
X112317469Y-102929337D01*
X112167425Y-103234572D01*
X112102825Y-103447544D01*
X105446702Y-103447544D01*
X105370072Y-103370915D01*
X105370072Y-102743666D01*
X105357812Y-102619184D01*
X105321502Y-102499486D01*
X105262537Y-102389172D01*
X105183185Y-102292481D01*
X105086494Y-102213129D01*
X104976180Y-102154164D01*
X104856482Y-102117854D01*
X104732000Y-102105594D01*
X102532000Y-102105594D01*
X102407518Y-102117854D01*
X102287820Y-102154164D01*
X102260000Y-102169034D01*
X102260000Y-100988632D01*
X102287820Y-101003502D01*
X102407518Y-101039812D01*
X102532000Y-101052072D01*
X104732000Y-101052072D01*
X104856482Y-101039812D01*
X104976180Y-101003502D01*
X105086494Y-100944537D01*
X105183185Y-100865185D01*
X105262537Y-100768494D01*
X105321502Y-100658180D01*
X105357812Y-100538482D01*
X105370072Y-100414000D01*
X105370072Y-99710122D01*
X112102825Y-99710122D01*
X112167425Y-99923094D01*
X112317469Y-100228329D01*
X112524178Y-100498427D01*
X112779609Y-100723008D01*
X113073946Y-100893442D01*
X113395877Y-101003179D01*
X113665000Y-100885600D01*
X113665000Y-99441000D01*
X113919000Y-99441000D01*
X113919000Y-100885600D01*
X114188123Y-101003179D01*
X114510054Y-100893442D01*
X114804391Y-100723008D01*
X115059822Y-100498427D01*
X115266531Y-100228329D01*
X115416575Y-99923094D01*
X115481175Y-99710122D01*
X115436471Y-99608208D01*
X121253680Y-99608208D01*
X121253680Y-99883392D01*
X121307366Y-100153290D01*
X121412675Y-100407527D01*
X121565560Y-100636335D01*
X121760145Y-100830920D01*
X121988953Y-100983805D01*
X122004875Y-100990400D01*
X121988953Y-100996995D01*
X121760145Y-101149880D01*
X121565560Y-101344465D01*
X121412675Y-101573273D01*
X121307366Y-101827510D01*
X121253680Y-102097408D01*
X121253680Y-102372592D01*
X121307366Y-102642490D01*
X121412675Y-102896727D01*
X121565560Y-103125535D01*
X121760145Y-103320120D01*
X121988953Y-103473005D01*
X122004875Y-103479600D01*
X121988953Y-103486195D01*
X121760145Y-103639080D01*
X121565560Y-103833665D01*
X121412675Y-104062473D01*
X121307366Y-104316710D01*
X121253680Y-104586608D01*
X121253680Y-104861792D01*
X121307366Y-105131690D01*
X121412675Y-105385927D01*
X121565560Y-105614735D01*
X121760145Y-105809320D01*
X121988953Y-105962205D01*
X122243190Y-106067514D01*
X122513088Y-106121200D01*
X122788272Y-106121200D01*
X123058170Y-106067514D01*
X123312407Y-105962205D01*
X123541215Y-105809320D01*
X123735800Y-105614735D01*
X123888685Y-105385927D01*
X123993994Y-105131690D01*
X124047680Y-104861792D01*
X124047680Y-104586608D01*
X123993994Y-104316710D01*
X123888685Y-104062473D01*
X123735800Y-103833665D01*
X123541215Y-103639080D01*
X123312407Y-103486195D01*
X123296485Y-103479600D01*
X123312407Y-103473005D01*
X123541215Y-103320120D01*
X123735800Y-103125535D01*
X123888685Y-102896727D01*
X123993994Y-102642490D01*
X124047680Y-102372592D01*
X124047680Y-102097408D01*
X123993994Y-101827510D01*
X123888685Y-101573273D01*
X123735800Y-101344465D01*
X123541215Y-101149880D01*
X123312407Y-100996995D01*
X123296485Y-100990400D01*
X123312407Y-100983805D01*
X123541215Y-100830920D01*
X123735800Y-100636335D01*
X123888685Y-100407527D01*
X123993994Y-100153290D01*
X124047680Y-99883392D01*
X124047680Y-99608208D01*
X123993994Y-99338310D01*
X123888685Y-99084073D01*
X123735800Y-98855265D01*
X123541215Y-98660680D01*
X123312407Y-98507795D01*
X123058170Y-98402486D01*
X122788272Y-98348800D01*
X122513088Y-98348800D01*
X122243190Y-98402486D01*
X121988953Y-98507795D01*
X121760145Y-98660680D01*
X121565560Y-98855265D01*
X121412675Y-99084073D01*
X121307366Y-99338310D01*
X121253680Y-99608208D01*
X115436471Y-99608208D01*
X115363125Y-99441000D01*
X113919000Y-99441000D01*
X113665000Y-99441000D01*
X112220875Y-99441000D01*
X112102825Y-99710122D01*
X105370072Y-99710122D01*
X105370072Y-98917878D01*
X112102825Y-98917878D01*
X112220875Y-99187000D01*
X113665000Y-99187000D01*
X113665000Y-97742400D01*
X113919000Y-97742400D01*
X113919000Y-99187000D01*
X115363125Y-99187000D01*
X115481175Y-98917878D01*
X115416575Y-98704906D01*
X115266531Y-98399671D01*
X115059822Y-98129573D01*
X114804391Y-97904992D01*
X114510054Y-97734558D01*
X114188123Y-97624821D01*
X113919000Y-97742400D01*
X113665000Y-97742400D01*
X113395877Y-97624821D01*
X113073946Y-97734558D01*
X112779609Y-97904992D01*
X112524178Y-98129573D01*
X112317469Y-98399671D01*
X112167425Y-98704906D01*
X112102825Y-98917878D01*
X105370072Y-98917878D01*
X105370072Y-98214000D01*
X105357812Y-98089518D01*
X105321502Y-97969820D01*
X105262537Y-97859506D01*
X105183185Y-97762815D01*
X105086494Y-97683463D01*
X104976180Y-97624498D01*
X104856482Y-97588188D01*
X104732000Y-97575928D01*
X102532000Y-97575928D01*
X102407518Y-97588188D01*
X102287820Y-97624498D01*
X102260000Y-97639368D01*
X102260000Y-92472000D01*
X103692428Y-92472000D01*
X103692428Y-94472000D01*
X103704688Y-94596482D01*
X103740998Y-94716180D01*
X103799963Y-94826494D01*
X103879315Y-94923185D01*
X103976006Y-95002537D01*
X104086320Y-95061502D01*
X104206018Y-95097812D01*
X104330500Y-95110072D01*
X106235500Y-95110072D01*
X106359982Y-95097812D01*
X106479680Y-95061502D01*
X106589994Y-95002537D01*
X106686685Y-94923185D01*
X106766037Y-94826494D01*
X106815059Y-94734781D01*
X106956077Y-94847969D01*
X107231906Y-94991571D01*
X107450020Y-95062563D01*
X107696000Y-94942594D01*
X107696000Y-93599000D01*
X107676000Y-93599000D01*
X107676000Y-93345000D01*
X107696000Y-93345000D01*
X107696000Y-92001406D01*
X107950000Y-92001406D01*
X107950000Y-93345000D01*
X107970000Y-93345000D01*
X107970000Y-93599000D01*
X107950000Y-93599000D01*
X107950000Y-94942594D01*
X108195980Y-95062563D01*
X108414094Y-94991571D01*
X108689923Y-94847969D01*
X108932437Y-94653315D01*
X109087837Y-94468101D01*
X109235037Y-94647463D01*
X109476766Y-94845845D01*
X109752552Y-94993255D01*
X110051797Y-95084030D01*
X110363000Y-95114681D01*
X110674204Y-95084030D01*
X110973449Y-94993255D01*
X111249235Y-94845845D01*
X111490963Y-94647463D01*
X111689345Y-94405734D01*
X111836755Y-94129948D01*
X111927530Y-93830703D01*
X111950500Y-93597485D01*
X111950500Y-93346514D01*
X111938926Y-93229000D01*
X119238928Y-93229000D01*
X119251188Y-93353482D01*
X119287498Y-93473180D01*
X119346463Y-93583494D01*
X119425815Y-93680185D01*
X119522506Y-93759537D01*
X119632820Y-93818502D01*
X119752518Y-93854812D01*
X119877000Y-93867072D01*
X120491250Y-93864000D01*
X120650000Y-93705250D01*
X120650000Y-92456000D01*
X119400750Y-92456000D01*
X119242000Y-92614750D01*
X119238928Y-93229000D01*
X111938926Y-93229000D01*
X111927530Y-93113296D01*
X111836755Y-92814051D01*
X111689345Y-92538265D01*
X111490963Y-92296537D01*
X111249234Y-92098155D01*
X110973448Y-91950745D01*
X110674203Y-91859970D01*
X110363000Y-91829319D01*
X110051796Y-91859970D01*
X109752551Y-91950745D01*
X109476765Y-92098155D01*
X109235037Y-92296537D01*
X109087838Y-92475900D01*
X108932437Y-92290685D01*
X108689923Y-92096031D01*
X108414094Y-91952429D01*
X108195980Y-91881437D01*
X107950000Y-92001406D01*
X107696000Y-92001406D01*
X107450020Y-91881437D01*
X107231906Y-91952429D01*
X106956077Y-92096031D01*
X106815059Y-92209219D01*
X106766037Y-92117506D01*
X106686685Y-92020815D01*
X106589994Y-91941463D01*
X106479680Y-91882498D01*
X106359982Y-91846188D01*
X106235500Y-91833928D01*
X104330500Y-91833928D01*
X104206018Y-91846188D01*
X104086320Y-91882498D01*
X103976006Y-91941463D01*
X103879315Y-92020815D01*
X103799963Y-92117506D01*
X103740998Y-92227820D01*
X103704688Y-92347518D01*
X103692428Y-92472000D01*
X102260000Y-92472000D01*
X102260000Y-91429000D01*
X119238928Y-91429000D01*
X119242000Y-92043250D01*
X119400750Y-92202000D01*
X120650000Y-92202000D01*
X120650000Y-90952750D01*
X120491250Y-90794000D01*
X119877000Y-90790928D01*
X119752518Y-90803188D01*
X119632820Y-90839498D01*
X119522506Y-90898463D01*
X119425815Y-90977815D01*
X119346463Y-91074506D01*
X119287498Y-91184820D01*
X119251188Y-91304518D01*
X119238928Y-91429000D01*
X102260000Y-91429000D01*
X102260000Y-85202665D01*
X120231000Y-85202665D01*
X120231000Y-85485335D01*
X120286147Y-85762574D01*
X120394320Y-86023727D01*
X120551363Y-86258759D01*
X120751241Y-86458637D01*
X120986273Y-86615680D01*
X121247426Y-86723853D01*
X121524665Y-86779000D01*
X121807335Y-86779000D01*
X122084574Y-86723853D01*
X122345727Y-86615680D01*
X122580759Y-86458637D01*
X122780637Y-86258759D01*
X122937680Y-86023727D01*
X123045853Y-85762574D01*
X123101000Y-85485335D01*
X123101000Y-85202665D01*
X123045853Y-84925426D01*
X122937680Y-84664273D01*
X122780637Y-84429241D01*
X122580759Y-84229363D01*
X122345727Y-84072320D01*
X122084574Y-83964147D01*
X121807335Y-83909000D01*
X121524665Y-83909000D01*
X121247426Y-83964147D01*
X120986273Y-84072320D01*
X120751241Y-84229363D01*
X120551363Y-84429241D01*
X120394320Y-84664273D01*
X120286147Y-84925426D01*
X120231000Y-85202665D01*
X102260000Y-85202665D01*
X102260000Y-81042000D01*
X103136928Y-81042000D01*
X103136928Y-83042000D01*
X103149188Y-83166482D01*
X103185498Y-83286180D01*
X103244463Y-83396494D01*
X103323815Y-83493185D01*
X103420506Y-83572537D01*
X103530820Y-83631502D01*
X103650518Y-83667812D01*
X103775000Y-83680072D01*
X105775000Y-83680072D01*
X105899482Y-83667812D01*
X106019180Y-83631502D01*
X106129494Y-83572537D01*
X106226185Y-83493185D01*
X106305537Y-83396494D01*
X106364502Y-83286180D01*
X106397496Y-83177413D01*
X108819192Y-83177413D01*
X108914956Y-83441814D01*
X109204571Y-83582704D01*
X109516108Y-83664384D01*
X109837595Y-83683718D01*
X110156675Y-83639961D01*
X110461088Y-83534795D01*
X110635044Y-83441814D01*
X110730808Y-83177413D01*
X109775000Y-82221605D01*
X108819192Y-83177413D01*
X106397496Y-83177413D01*
X106400812Y-83166482D01*
X106413072Y-83042000D01*
X106413072Y-82104595D01*
X108133282Y-82104595D01*
X108177039Y-82423675D01*
X108282205Y-82728088D01*
X108375186Y-82902044D01*
X108639587Y-82997808D01*
X109595395Y-82042000D01*
X109954605Y-82042000D01*
X110910413Y-82997808D01*
X111174814Y-82902044D01*
X111315704Y-82612429D01*
X111397384Y-82300892D01*
X111416718Y-81979405D01*
X111372961Y-81660325D01*
X111267795Y-81355912D01*
X111174814Y-81181956D01*
X110910413Y-81086192D01*
X109954605Y-82042000D01*
X109595395Y-82042000D01*
X108639587Y-81086192D01*
X108375186Y-81181956D01*
X108234296Y-81471571D01*
X108152616Y-81783108D01*
X108133282Y-82104595D01*
X106413072Y-82104595D01*
X106413072Y-81042000D01*
X106400812Y-80917518D01*
X106397497Y-80906587D01*
X108819192Y-80906587D01*
X109775000Y-81862395D01*
X110730808Y-80906587D01*
X110635044Y-80642186D01*
X110345429Y-80501296D01*
X110033892Y-80419616D01*
X109712405Y-80400282D01*
X109393325Y-80444039D01*
X109088912Y-80549205D01*
X108914956Y-80642186D01*
X108819192Y-80906587D01*
X106397497Y-80906587D01*
X106364502Y-80797820D01*
X106305537Y-80687506D01*
X106226185Y-80590815D01*
X106129494Y-80511463D01*
X106019180Y-80452498D01*
X105899482Y-80416188D01*
X105775000Y-80403928D01*
X103775000Y-80403928D01*
X103650518Y-80416188D01*
X103530820Y-80452498D01*
X103420506Y-80511463D01*
X103323815Y-80590815D01*
X103244463Y-80687506D01*
X103185498Y-80797820D01*
X103149188Y-80917518D01*
X103136928Y-81042000D01*
X102260000Y-81042000D01*
X102260000Y-79210000D01*
X113496928Y-79210000D01*
X113496928Y-80810000D01*
X113509188Y-80934482D01*
X113545498Y-81054180D01*
X113604463Y-81164494D01*
X113683815Y-81261185D01*
X113780506Y-81340537D01*
X113890820Y-81399502D01*
X114010518Y-81435812D01*
X114135000Y-81448072D01*
X115735000Y-81448072D01*
X115859482Y-81435812D01*
X115979180Y-81399502D01*
X116089494Y-81340537D01*
X116186185Y-81261185D01*
X116265537Y-81164494D01*
X116324502Y-81054180D01*
X116340117Y-81002702D01*
X116621903Y-81002702D01*
X116693486Y-81246671D01*
X116948996Y-81367571D01*
X117223184Y-81436300D01*
X117505512Y-81450217D01*
X117785130Y-81408787D01*
X118051292Y-81313603D01*
X118159266Y-81255890D01*
X125812524Y-81255890D01*
X125857175Y-81403099D01*
X125982359Y-81665920D01*
X126156412Y-81899269D01*
X126372645Y-82094178D01*
X126622748Y-82243157D01*
X126897109Y-82340481D01*
X127127000Y-82219814D01*
X127127000Y-81026000D01*
X127381000Y-81026000D01*
X127381000Y-82219814D01*
X127610891Y-82340481D01*
X127885252Y-82243157D01*
X128135355Y-82094178D01*
X128351588Y-81899269D01*
X128524000Y-81668120D01*
X128696412Y-81899269D01*
X128912645Y-82094178D01*
X129162748Y-82243157D01*
X129437109Y-82340481D01*
X129667000Y-82219814D01*
X129667000Y-81026000D01*
X127381000Y-81026000D01*
X127127000Y-81026000D01*
X125933845Y-81026000D01*
X125812524Y-81255890D01*
X118159266Y-81255890D01*
X118176514Y-81246671D01*
X118248097Y-81002702D01*
X117435000Y-80189605D01*
X116621903Y-81002702D01*
X116340117Y-81002702D01*
X116360812Y-80934482D01*
X116373072Y-80810000D01*
X116373072Y-80802785D01*
X116442298Y-80823097D01*
X117255395Y-80010000D01*
X117614605Y-80010000D01*
X118427702Y-80823097D01*
X118671671Y-80751514D01*
X118792571Y-80496004D01*
X118861300Y-80221816D01*
X118875217Y-79939488D01*
X118833787Y-79659870D01*
X118738603Y-79393708D01*
X118671671Y-79268486D01*
X118427702Y-79196903D01*
X117614605Y-80010000D01*
X117255395Y-80010000D01*
X116442298Y-79196903D01*
X116373072Y-79217215D01*
X116373072Y-79210000D01*
X116360812Y-79085518D01*
X116340118Y-79017298D01*
X116621903Y-79017298D01*
X117435000Y-79830395D01*
X118248097Y-79017298D01*
X118176514Y-78773329D01*
X117921004Y-78652429D01*
X117646816Y-78583700D01*
X117364488Y-78569783D01*
X117084870Y-78611213D01*
X116818708Y-78706397D01*
X116693486Y-78773329D01*
X116621903Y-79017298D01*
X116340118Y-79017298D01*
X116324502Y-78965820D01*
X116265537Y-78855506D01*
X116186185Y-78758815D01*
X116089494Y-78679463D01*
X115979180Y-78620498D01*
X115859482Y-78584188D01*
X115735000Y-78571928D01*
X114135000Y-78571928D01*
X114010518Y-78584188D01*
X113890820Y-78620498D01*
X113780506Y-78679463D01*
X113683815Y-78758815D01*
X113604463Y-78855506D01*
X113545498Y-78965820D01*
X113509188Y-79085518D01*
X113496928Y-79210000D01*
X102260000Y-79210000D01*
X102260000Y-76860000D01*
X120517447Y-76860000D01*
X120394320Y-77044273D01*
G37*
G04 #@! TD.AperFunction*
G04 #@! TD*
M02*
