M48
INCH,TZ
T1C0.0236
T2C0.0394
T3C0.0400
%
G90
G05
T1
X63700Y-47150
T2
X56500Y-44000
X56500Y-45000
X57500Y-44000
X57500Y-45000
X58500Y-44000
X58500Y-45000
X59500Y-44000
X59500Y-45000
X60400Y-49400
X60500Y-44000
X60500Y-45000
X61400Y-49400
X61500Y-44000
X61500Y-45000
X62400Y-49400
X62500Y-44000
X62500Y-45000
X63400Y-49400
X63500Y-44000
X63500Y-45000
T3
X56170Y-47860
X56170Y-49640
X58730Y-47860
X58730Y-49640
T0
M30
