G04 #@! TF.GenerationSoftware,KiCad,Pcbnew,(5.1.9)-1*
G04 #@! TF.CreationDate,2021-01-19T23:29:13-08:00*
G04 #@! TF.ProjectId,RPI_FS_HAT_REV1,5250495f-4653-45f4-9841-545f52455631,1*
G04 #@! TF.SameCoordinates,Original*
G04 #@! TF.FileFunction,Copper,L2,Bot*
G04 #@! TF.FilePolarity,Positive*
%FSLAX46Y46*%
G04 Gerber Fmt 4.6, Leading zero omitted, Abs format (unit mm)*
G04 Created by KiCad (PCBNEW (5.1.9)-1) date 2021-01-19 23:29:13*
%MOMM*%
%LPD*%
G01*
G04 APERTURE LIST*
G04 #@! TA.AperFunction,ComponentPad*
%ADD10O,1.700000X1.700000*%
G04 #@! TD*
G04 #@! TA.AperFunction,ComponentPad*
%ADD11R,1.700000X1.700000*%
G04 #@! TD*
G04 #@! TA.AperFunction,ComponentPad*
%ADD12O,1.524000X1.524000*%
G04 #@! TD*
G04 #@! TA.AperFunction,ViaPad*
%ADD13C,1.000000*%
G04 #@! TD*
G04 #@! TA.AperFunction,Conductor*
%ADD14C,0.300000*%
G04 #@! TD*
G04 #@! TA.AperFunction,Conductor*
%ADD15C,0.254000*%
G04 #@! TD*
G04 #@! TA.AperFunction,Conductor*
%ADD16C,0.100000*%
G04 #@! TD*
G04 APERTURE END LIST*
D10*
G04 #@! TO.P,J1,16*
G04 #@! TO.N,Net-(J1-Pad16)*
X161290000Y-111760000D03*
G04 #@! TO.P,J1,15*
G04 #@! TO.N,Net-(J1-Pad15)*
X161290000Y-114300000D03*
G04 #@! TO.P,J1,14*
G04 #@! TO.N,Net-(J1-Pad14)*
X158750000Y-111760000D03*
G04 #@! TO.P,J1,13*
G04 #@! TO.N,Net-(J1-Pad13)*
X158750000Y-114300000D03*
G04 #@! TO.P,J1,12*
G04 #@! TO.N,Net-(J1-Pad12)*
X156210000Y-111760000D03*
G04 #@! TO.P,J1,11*
G04 #@! TO.N,Net-(J1-Pad11)*
X156210000Y-114300000D03*
G04 #@! TO.P,J1,10*
G04 #@! TO.N,Net-(J1-Pad10)*
X153670000Y-111760000D03*
G04 #@! TO.P,J1,9*
G04 #@! TO.N,GND*
X153670000Y-114300000D03*
G04 #@! TO.P,J1,8*
G04 #@! TO.N,/button_input*
X151130000Y-111760000D03*
G04 #@! TO.P,J1,7*
G04 #@! TO.N,Net-(J1-Pad7)*
X151130000Y-114300000D03*
G04 #@! TO.P,J1,6*
G04 #@! TO.N,GND*
X148590000Y-111760000D03*
G04 #@! TO.P,J1,5*
G04 #@! TO.N,Net-(J1-Pad5)*
X148590000Y-114300000D03*
G04 #@! TO.P,J1,4*
G04 #@! TO.N,Net-(J1-Pad4)*
X146050000Y-111760000D03*
G04 #@! TO.P,J1,3*
G04 #@! TO.N,Net-(J1-Pad3)*
X146050000Y-114300000D03*
G04 #@! TO.P,J1,2*
G04 #@! TO.N,Net-(J1-Pad2)*
X143510000Y-111760000D03*
D11*
G04 #@! TO.P,J1,1*
G04 #@! TO.N,/3.3V*
X143510000Y-114300000D03*
G04 #@! TD*
D12*
G04 #@! TO.P,SW1,1*
G04 #@! TO.N,/3.3V*
X149174200Y-126085600D03*
X142671800Y-126085600D03*
G04 #@! TO.P,SW1,2*
G04 #@! TO.N,/button_input*
X149174200Y-121564400D03*
X142671800Y-121564400D03*
G04 #@! TD*
D11*
G04 #@! TO.P,U1,1*
G04 #@! TO.N,/3.3V*
X161036000Y-125476000D03*
D10*
G04 #@! TO.P,U1,2*
G04 #@! TO.N,Net-(J1-Pad11)*
X158496000Y-125476000D03*
G04 #@! TO.P,U1,3*
G04 #@! TO.N,Net-(U1-Pad3)*
X155956000Y-125476000D03*
G04 #@! TO.P,U1,4*
G04 #@! TO.N,GND*
X153416000Y-125476000D03*
G04 #@! TD*
D13*
G04 #@! TO.N,GND*
X161798000Y-119761000D03*
G04 #@! TD*
D14*
G04 #@! TO.N,/button_input*
X142671800Y-121564400D02*
X149174200Y-121564400D01*
G04 #@! TD*
D15*
G04 #@! TO.N,GND*
X163170001Y-127102000D02*
X150133455Y-127102000D01*
X150259320Y-126976135D01*
X150412205Y-126747327D01*
X150517514Y-126493090D01*
X150571200Y-126223192D01*
X150571200Y-125948008D01*
X150548302Y-125832891D01*
X151974519Y-125832891D01*
X152071843Y-126107252D01*
X152220822Y-126357355D01*
X152415731Y-126573588D01*
X152649080Y-126747641D01*
X152911901Y-126872825D01*
X153059110Y-126917476D01*
X153289000Y-126796155D01*
X153289000Y-125603000D01*
X152095186Y-125603000D01*
X151974519Y-125832891D01*
X150548302Y-125832891D01*
X150517514Y-125678110D01*
X150412205Y-125423873D01*
X150259320Y-125195065D01*
X150183364Y-125119109D01*
X151974519Y-125119109D01*
X152095186Y-125349000D01*
X153289000Y-125349000D01*
X153289000Y-124155845D01*
X153543000Y-124155845D01*
X153543000Y-125349000D01*
X153563000Y-125349000D01*
X153563000Y-125603000D01*
X153543000Y-125603000D01*
X153543000Y-126796155D01*
X153772890Y-126917476D01*
X153920099Y-126872825D01*
X154182920Y-126747641D01*
X154416269Y-126573588D01*
X154611178Y-126357355D01*
X154680805Y-126240466D01*
X154802525Y-126422632D01*
X155009368Y-126629475D01*
X155252589Y-126791990D01*
X155522842Y-126903932D01*
X155809740Y-126961000D01*
X156102260Y-126961000D01*
X156389158Y-126903932D01*
X156659411Y-126791990D01*
X156902632Y-126629475D01*
X157109475Y-126422632D01*
X157226000Y-126248240D01*
X157342525Y-126422632D01*
X157549368Y-126629475D01*
X157792589Y-126791990D01*
X158062842Y-126903932D01*
X158349740Y-126961000D01*
X158642260Y-126961000D01*
X158929158Y-126903932D01*
X159199411Y-126791990D01*
X159442632Y-126629475D01*
X159574487Y-126497620D01*
X159596498Y-126570180D01*
X159655463Y-126680494D01*
X159734815Y-126777185D01*
X159831506Y-126856537D01*
X159941820Y-126915502D01*
X160061518Y-126951812D01*
X160186000Y-126964072D01*
X161886000Y-126964072D01*
X162010482Y-126951812D01*
X162130180Y-126915502D01*
X162240494Y-126856537D01*
X162337185Y-126777185D01*
X162416537Y-126680494D01*
X162475502Y-126570180D01*
X162511812Y-126450482D01*
X162524072Y-126326000D01*
X162524072Y-124626000D01*
X162511812Y-124501518D01*
X162475502Y-124381820D01*
X162416537Y-124271506D01*
X162337185Y-124174815D01*
X162240494Y-124095463D01*
X162130180Y-124036498D01*
X162010482Y-124000188D01*
X161886000Y-123987928D01*
X160186000Y-123987928D01*
X160061518Y-124000188D01*
X159941820Y-124036498D01*
X159831506Y-124095463D01*
X159734815Y-124174815D01*
X159655463Y-124271506D01*
X159596498Y-124381820D01*
X159574487Y-124454380D01*
X159442632Y-124322525D01*
X159199411Y-124160010D01*
X158929158Y-124048068D01*
X158642260Y-123991000D01*
X158349740Y-123991000D01*
X158062842Y-124048068D01*
X157792589Y-124160010D01*
X157549368Y-124322525D01*
X157342525Y-124529368D01*
X157226000Y-124703760D01*
X157109475Y-124529368D01*
X156902632Y-124322525D01*
X156659411Y-124160010D01*
X156389158Y-124048068D01*
X156102260Y-123991000D01*
X155809740Y-123991000D01*
X155522842Y-124048068D01*
X155252589Y-124160010D01*
X155009368Y-124322525D01*
X154802525Y-124529368D01*
X154680805Y-124711534D01*
X154611178Y-124594645D01*
X154416269Y-124378412D01*
X154182920Y-124204359D01*
X153920099Y-124079175D01*
X153772890Y-124034524D01*
X153543000Y-124155845D01*
X153289000Y-124155845D01*
X153059110Y-124034524D01*
X152911901Y-124079175D01*
X152649080Y-124204359D01*
X152415731Y-124378412D01*
X152220822Y-124594645D01*
X152071843Y-124844748D01*
X151974519Y-125119109D01*
X150183364Y-125119109D01*
X150064735Y-125000480D01*
X149835927Y-124847595D01*
X149581690Y-124742286D01*
X149311792Y-124688600D01*
X149036608Y-124688600D01*
X148766710Y-124742286D01*
X148512473Y-124847595D01*
X148283665Y-125000480D01*
X148089080Y-125195065D01*
X147936195Y-125423873D01*
X147830886Y-125678110D01*
X147777200Y-125948008D01*
X147777200Y-126223192D01*
X147830886Y-126493090D01*
X147936195Y-126747327D01*
X148089080Y-126976135D01*
X148214945Y-127102000D01*
X143631055Y-127102000D01*
X143756920Y-126976135D01*
X143909805Y-126747327D01*
X144015114Y-126493090D01*
X144068800Y-126223192D01*
X144068800Y-125948008D01*
X144015114Y-125678110D01*
X143909805Y-125423873D01*
X143756920Y-125195065D01*
X143562335Y-125000480D01*
X143333527Y-124847595D01*
X143079290Y-124742286D01*
X142809392Y-124688600D01*
X142534208Y-124688600D01*
X142264310Y-124742286D01*
X142010073Y-124847595D01*
X141781265Y-125000480D01*
X141630000Y-125151745D01*
X141630000Y-122498255D01*
X141781265Y-122649520D01*
X142010073Y-122802405D01*
X142264310Y-122907714D01*
X142534208Y-122961400D01*
X142809392Y-122961400D01*
X143079290Y-122907714D01*
X143333527Y-122802405D01*
X143562335Y-122649520D01*
X143756920Y-122454935D01*
X143827436Y-122349400D01*
X148018564Y-122349400D01*
X148089080Y-122454935D01*
X148283665Y-122649520D01*
X148512473Y-122802405D01*
X148766710Y-122907714D01*
X149036608Y-122961400D01*
X149311792Y-122961400D01*
X149581690Y-122907714D01*
X149835927Y-122802405D01*
X150064735Y-122649520D01*
X150259320Y-122454935D01*
X150412205Y-122226127D01*
X150517514Y-121971890D01*
X150571200Y-121701992D01*
X150571200Y-121426808D01*
X150517514Y-121156910D01*
X150412205Y-120902673D01*
X150259320Y-120673865D01*
X150064735Y-120479280D01*
X149835927Y-120326395D01*
X149581690Y-120221086D01*
X149311792Y-120167400D01*
X149036608Y-120167400D01*
X148766710Y-120221086D01*
X148512473Y-120326395D01*
X148283665Y-120479280D01*
X148089080Y-120673865D01*
X148018564Y-120779400D01*
X143827436Y-120779400D01*
X143756920Y-120673865D01*
X143562335Y-120479280D01*
X143333527Y-120326395D01*
X143079290Y-120221086D01*
X142809392Y-120167400D01*
X142534208Y-120167400D01*
X142264310Y-120221086D01*
X142010073Y-120326395D01*
X141781265Y-120479280D01*
X141630000Y-120630545D01*
X141630000Y-117188581D01*
X141627259Y-117160755D01*
X141627275Y-117158518D01*
X141626375Y-117149347D01*
X141622578Y-117113220D01*
X141620450Y-117091617D01*
X141620231Y-117090896D01*
X141618602Y-117075396D01*
X141606577Y-117016819D01*
X141595366Y-116958044D01*
X141592702Y-116949222D01*
X141570714Y-116878190D01*
X141547536Y-116823052D01*
X141525123Y-116767578D01*
X141520796Y-116759441D01*
X141485429Y-116694033D01*
X141452006Y-116644482D01*
X141419230Y-116594393D01*
X141413405Y-116587252D01*
X141366008Y-116529958D01*
X141323553Y-116487798D01*
X141281706Y-116445065D01*
X141274605Y-116439191D01*
X141216981Y-116392194D01*
X141167191Y-116359114D01*
X141117801Y-116325295D01*
X141109694Y-116320912D01*
X141044040Y-116286003D01*
X140988748Y-116263214D01*
X140933752Y-116239642D01*
X140924949Y-116236917D01*
X140853764Y-116215425D01*
X140795093Y-116203808D01*
X140736572Y-116191369D01*
X140727407Y-116190406D01*
X140653404Y-116183150D01*
X140653402Y-116183150D01*
X140621419Y-116180000D01*
X136550000Y-116180000D01*
X136550000Y-114513353D01*
X136774446Y-114737799D01*
X137134551Y-114978414D01*
X137534679Y-115144152D01*
X137959452Y-115228645D01*
X138392548Y-115228645D01*
X138817321Y-115144152D01*
X139217449Y-114978414D01*
X139577554Y-114737799D01*
X139883799Y-114431554D01*
X140124414Y-114071449D01*
X140290152Y-113671321D01*
X140334175Y-113450000D01*
X142021928Y-113450000D01*
X142021928Y-115150000D01*
X142034188Y-115274482D01*
X142070498Y-115394180D01*
X142129463Y-115504494D01*
X142208815Y-115601185D01*
X142305506Y-115680537D01*
X142415820Y-115739502D01*
X142535518Y-115775812D01*
X142660000Y-115788072D01*
X144360000Y-115788072D01*
X144484482Y-115775812D01*
X144604180Y-115739502D01*
X144714494Y-115680537D01*
X144811185Y-115601185D01*
X144890537Y-115504494D01*
X144949502Y-115394180D01*
X144971513Y-115321620D01*
X145103368Y-115453475D01*
X145346589Y-115615990D01*
X145616842Y-115727932D01*
X145903740Y-115785000D01*
X146196260Y-115785000D01*
X146483158Y-115727932D01*
X146753411Y-115615990D01*
X146996632Y-115453475D01*
X147203475Y-115246632D01*
X147320000Y-115072240D01*
X147436525Y-115246632D01*
X147643368Y-115453475D01*
X147886589Y-115615990D01*
X148156842Y-115727932D01*
X148443740Y-115785000D01*
X148736260Y-115785000D01*
X149023158Y-115727932D01*
X149293411Y-115615990D01*
X149536632Y-115453475D01*
X149743475Y-115246632D01*
X149860000Y-115072240D01*
X149976525Y-115246632D01*
X150183368Y-115453475D01*
X150426589Y-115615990D01*
X150696842Y-115727932D01*
X150983740Y-115785000D01*
X151276260Y-115785000D01*
X151563158Y-115727932D01*
X151833411Y-115615990D01*
X152076632Y-115453475D01*
X152283475Y-115246632D01*
X152405195Y-115064466D01*
X152474822Y-115181355D01*
X152669731Y-115397588D01*
X152903080Y-115571641D01*
X153165901Y-115696825D01*
X153313110Y-115741476D01*
X153543000Y-115620155D01*
X153543000Y-114427000D01*
X153523000Y-114427000D01*
X153523000Y-114173000D01*
X153543000Y-114173000D01*
X153543000Y-114153000D01*
X153797000Y-114153000D01*
X153797000Y-114173000D01*
X153817000Y-114173000D01*
X153817000Y-114427000D01*
X153797000Y-114427000D01*
X153797000Y-115620155D01*
X154026890Y-115741476D01*
X154174099Y-115696825D01*
X154436920Y-115571641D01*
X154670269Y-115397588D01*
X154865178Y-115181355D01*
X154934805Y-115064466D01*
X155056525Y-115246632D01*
X155263368Y-115453475D01*
X155506589Y-115615990D01*
X155776842Y-115727932D01*
X156063740Y-115785000D01*
X156356260Y-115785000D01*
X156643158Y-115727932D01*
X156913411Y-115615990D01*
X157156632Y-115453475D01*
X157363475Y-115246632D01*
X157480000Y-115072240D01*
X157596525Y-115246632D01*
X157803368Y-115453475D01*
X158046589Y-115615990D01*
X158316842Y-115727932D01*
X158603740Y-115785000D01*
X158896260Y-115785000D01*
X159183158Y-115727932D01*
X159453411Y-115615990D01*
X159696632Y-115453475D01*
X159903475Y-115246632D01*
X160020000Y-115072240D01*
X160136525Y-115246632D01*
X160343368Y-115453475D01*
X160586589Y-115615990D01*
X160856842Y-115727932D01*
X161143740Y-115785000D01*
X161436260Y-115785000D01*
X161723158Y-115727932D01*
X161993411Y-115615990D01*
X162236632Y-115453475D01*
X162443475Y-115246632D01*
X162605990Y-115003411D01*
X162717932Y-114733158D01*
X162775000Y-114446260D01*
X162775000Y-114153740D01*
X162717932Y-113866842D01*
X162605990Y-113596589D01*
X162443475Y-113353368D01*
X162236632Y-113146525D01*
X162062240Y-113030000D01*
X162236632Y-112913475D01*
X162443475Y-112706632D01*
X162605990Y-112463411D01*
X162717932Y-112193158D01*
X162775000Y-111906260D01*
X162775000Y-111613740D01*
X162717932Y-111326842D01*
X162605990Y-111056589D01*
X162443475Y-110813368D01*
X162236632Y-110606525D01*
X161993411Y-110444010D01*
X161723158Y-110332068D01*
X161436260Y-110275000D01*
X161143740Y-110275000D01*
X160856842Y-110332068D01*
X160586589Y-110444010D01*
X160343368Y-110606525D01*
X160136525Y-110813368D01*
X160020000Y-110987760D01*
X159903475Y-110813368D01*
X159696632Y-110606525D01*
X159453411Y-110444010D01*
X159183158Y-110332068D01*
X158896260Y-110275000D01*
X158603740Y-110275000D01*
X158316842Y-110332068D01*
X158046589Y-110444010D01*
X157803368Y-110606525D01*
X157596525Y-110813368D01*
X157480000Y-110987760D01*
X157363475Y-110813368D01*
X157156632Y-110606525D01*
X156913411Y-110444010D01*
X156643158Y-110332068D01*
X156356260Y-110275000D01*
X156063740Y-110275000D01*
X155776842Y-110332068D01*
X155506589Y-110444010D01*
X155263368Y-110606525D01*
X155056525Y-110813368D01*
X154940000Y-110987760D01*
X154823475Y-110813368D01*
X154616632Y-110606525D01*
X154373411Y-110444010D01*
X154103158Y-110332068D01*
X153816260Y-110275000D01*
X153523740Y-110275000D01*
X153236842Y-110332068D01*
X152966589Y-110444010D01*
X152723368Y-110606525D01*
X152516525Y-110813368D01*
X152400000Y-110987760D01*
X152283475Y-110813368D01*
X152076632Y-110606525D01*
X151833411Y-110444010D01*
X151563158Y-110332068D01*
X151276260Y-110275000D01*
X150983740Y-110275000D01*
X150696842Y-110332068D01*
X150426589Y-110444010D01*
X150183368Y-110606525D01*
X149976525Y-110813368D01*
X149854805Y-110995534D01*
X149785178Y-110878645D01*
X149590269Y-110662412D01*
X149356920Y-110488359D01*
X149094099Y-110363175D01*
X148946890Y-110318524D01*
X148717000Y-110439845D01*
X148717000Y-111633000D01*
X148737000Y-111633000D01*
X148737000Y-111887000D01*
X148717000Y-111887000D01*
X148717000Y-111907000D01*
X148463000Y-111907000D01*
X148463000Y-111887000D01*
X148443000Y-111887000D01*
X148443000Y-111633000D01*
X148463000Y-111633000D01*
X148463000Y-110439845D01*
X148233110Y-110318524D01*
X148085901Y-110363175D01*
X147823080Y-110488359D01*
X147589731Y-110662412D01*
X147394822Y-110878645D01*
X147325195Y-110995534D01*
X147203475Y-110813368D01*
X146996632Y-110606525D01*
X146753411Y-110444010D01*
X146483158Y-110332068D01*
X146196260Y-110275000D01*
X145903740Y-110275000D01*
X145616842Y-110332068D01*
X145346589Y-110444010D01*
X145103368Y-110606525D01*
X144896525Y-110813368D01*
X144780000Y-110987760D01*
X144663475Y-110813368D01*
X144456632Y-110606525D01*
X144213411Y-110444010D01*
X143943158Y-110332068D01*
X143656260Y-110275000D01*
X143363740Y-110275000D01*
X143076842Y-110332068D01*
X142806589Y-110444010D01*
X142563368Y-110606525D01*
X142356525Y-110813368D01*
X142194010Y-111056589D01*
X142082068Y-111326842D01*
X142025000Y-111613740D01*
X142025000Y-111906260D01*
X142082068Y-112193158D01*
X142194010Y-112463411D01*
X142356525Y-112706632D01*
X142488380Y-112838487D01*
X142415820Y-112860498D01*
X142305506Y-112919463D01*
X142208815Y-112998815D01*
X142129463Y-113095506D01*
X142070498Y-113205820D01*
X142034188Y-113325518D01*
X142021928Y-113450000D01*
X140334175Y-113450000D01*
X140374645Y-113246548D01*
X140374645Y-112813452D01*
X140290152Y-112388679D01*
X140124414Y-111988551D01*
X139883799Y-111628446D01*
X139577554Y-111322201D01*
X139217449Y-111081586D01*
X138817321Y-110915848D01*
X138392548Y-110831355D01*
X137959452Y-110831355D01*
X137534679Y-110915848D01*
X137134551Y-111081586D01*
X136774446Y-111322201D01*
X136550000Y-111546647D01*
X136550000Y-109880000D01*
X163170000Y-109880000D01*
X163170001Y-127102000D01*
G04 #@! TA.AperFunction,Conductor*
D16*
G36*
X163170001Y-127102000D02*
G01*
X150133455Y-127102000D01*
X150259320Y-126976135D01*
X150412205Y-126747327D01*
X150517514Y-126493090D01*
X150571200Y-126223192D01*
X150571200Y-125948008D01*
X150548302Y-125832891D01*
X151974519Y-125832891D01*
X152071843Y-126107252D01*
X152220822Y-126357355D01*
X152415731Y-126573588D01*
X152649080Y-126747641D01*
X152911901Y-126872825D01*
X153059110Y-126917476D01*
X153289000Y-126796155D01*
X153289000Y-125603000D01*
X152095186Y-125603000D01*
X151974519Y-125832891D01*
X150548302Y-125832891D01*
X150517514Y-125678110D01*
X150412205Y-125423873D01*
X150259320Y-125195065D01*
X150183364Y-125119109D01*
X151974519Y-125119109D01*
X152095186Y-125349000D01*
X153289000Y-125349000D01*
X153289000Y-124155845D01*
X153543000Y-124155845D01*
X153543000Y-125349000D01*
X153563000Y-125349000D01*
X153563000Y-125603000D01*
X153543000Y-125603000D01*
X153543000Y-126796155D01*
X153772890Y-126917476D01*
X153920099Y-126872825D01*
X154182920Y-126747641D01*
X154416269Y-126573588D01*
X154611178Y-126357355D01*
X154680805Y-126240466D01*
X154802525Y-126422632D01*
X155009368Y-126629475D01*
X155252589Y-126791990D01*
X155522842Y-126903932D01*
X155809740Y-126961000D01*
X156102260Y-126961000D01*
X156389158Y-126903932D01*
X156659411Y-126791990D01*
X156902632Y-126629475D01*
X157109475Y-126422632D01*
X157226000Y-126248240D01*
X157342525Y-126422632D01*
X157549368Y-126629475D01*
X157792589Y-126791990D01*
X158062842Y-126903932D01*
X158349740Y-126961000D01*
X158642260Y-126961000D01*
X158929158Y-126903932D01*
X159199411Y-126791990D01*
X159442632Y-126629475D01*
X159574487Y-126497620D01*
X159596498Y-126570180D01*
X159655463Y-126680494D01*
X159734815Y-126777185D01*
X159831506Y-126856537D01*
X159941820Y-126915502D01*
X160061518Y-126951812D01*
X160186000Y-126964072D01*
X161886000Y-126964072D01*
X162010482Y-126951812D01*
X162130180Y-126915502D01*
X162240494Y-126856537D01*
X162337185Y-126777185D01*
X162416537Y-126680494D01*
X162475502Y-126570180D01*
X162511812Y-126450482D01*
X162524072Y-126326000D01*
X162524072Y-124626000D01*
X162511812Y-124501518D01*
X162475502Y-124381820D01*
X162416537Y-124271506D01*
X162337185Y-124174815D01*
X162240494Y-124095463D01*
X162130180Y-124036498D01*
X162010482Y-124000188D01*
X161886000Y-123987928D01*
X160186000Y-123987928D01*
X160061518Y-124000188D01*
X159941820Y-124036498D01*
X159831506Y-124095463D01*
X159734815Y-124174815D01*
X159655463Y-124271506D01*
X159596498Y-124381820D01*
X159574487Y-124454380D01*
X159442632Y-124322525D01*
X159199411Y-124160010D01*
X158929158Y-124048068D01*
X158642260Y-123991000D01*
X158349740Y-123991000D01*
X158062842Y-124048068D01*
X157792589Y-124160010D01*
X157549368Y-124322525D01*
X157342525Y-124529368D01*
X157226000Y-124703760D01*
X157109475Y-124529368D01*
X156902632Y-124322525D01*
X156659411Y-124160010D01*
X156389158Y-124048068D01*
X156102260Y-123991000D01*
X155809740Y-123991000D01*
X155522842Y-124048068D01*
X155252589Y-124160010D01*
X155009368Y-124322525D01*
X154802525Y-124529368D01*
X154680805Y-124711534D01*
X154611178Y-124594645D01*
X154416269Y-124378412D01*
X154182920Y-124204359D01*
X153920099Y-124079175D01*
X153772890Y-124034524D01*
X153543000Y-124155845D01*
X153289000Y-124155845D01*
X153059110Y-124034524D01*
X152911901Y-124079175D01*
X152649080Y-124204359D01*
X152415731Y-124378412D01*
X152220822Y-124594645D01*
X152071843Y-124844748D01*
X151974519Y-125119109D01*
X150183364Y-125119109D01*
X150064735Y-125000480D01*
X149835927Y-124847595D01*
X149581690Y-124742286D01*
X149311792Y-124688600D01*
X149036608Y-124688600D01*
X148766710Y-124742286D01*
X148512473Y-124847595D01*
X148283665Y-125000480D01*
X148089080Y-125195065D01*
X147936195Y-125423873D01*
X147830886Y-125678110D01*
X147777200Y-125948008D01*
X147777200Y-126223192D01*
X147830886Y-126493090D01*
X147936195Y-126747327D01*
X148089080Y-126976135D01*
X148214945Y-127102000D01*
X143631055Y-127102000D01*
X143756920Y-126976135D01*
X143909805Y-126747327D01*
X144015114Y-126493090D01*
X144068800Y-126223192D01*
X144068800Y-125948008D01*
X144015114Y-125678110D01*
X143909805Y-125423873D01*
X143756920Y-125195065D01*
X143562335Y-125000480D01*
X143333527Y-124847595D01*
X143079290Y-124742286D01*
X142809392Y-124688600D01*
X142534208Y-124688600D01*
X142264310Y-124742286D01*
X142010073Y-124847595D01*
X141781265Y-125000480D01*
X141630000Y-125151745D01*
X141630000Y-122498255D01*
X141781265Y-122649520D01*
X142010073Y-122802405D01*
X142264310Y-122907714D01*
X142534208Y-122961400D01*
X142809392Y-122961400D01*
X143079290Y-122907714D01*
X143333527Y-122802405D01*
X143562335Y-122649520D01*
X143756920Y-122454935D01*
X143827436Y-122349400D01*
X148018564Y-122349400D01*
X148089080Y-122454935D01*
X148283665Y-122649520D01*
X148512473Y-122802405D01*
X148766710Y-122907714D01*
X149036608Y-122961400D01*
X149311792Y-122961400D01*
X149581690Y-122907714D01*
X149835927Y-122802405D01*
X150064735Y-122649520D01*
X150259320Y-122454935D01*
X150412205Y-122226127D01*
X150517514Y-121971890D01*
X150571200Y-121701992D01*
X150571200Y-121426808D01*
X150517514Y-121156910D01*
X150412205Y-120902673D01*
X150259320Y-120673865D01*
X150064735Y-120479280D01*
X149835927Y-120326395D01*
X149581690Y-120221086D01*
X149311792Y-120167400D01*
X149036608Y-120167400D01*
X148766710Y-120221086D01*
X148512473Y-120326395D01*
X148283665Y-120479280D01*
X148089080Y-120673865D01*
X148018564Y-120779400D01*
X143827436Y-120779400D01*
X143756920Y-120673865D01*
X143562335Y-120479280D01*
X143333527Y-120326395D01*
X143079290Y-120221086D01*
X142809392Y-120167400D01*
X142534208Y-120167400D01*
X142264310Y-120221086D01*
X142010073Y-120326395D01*
X141781265Y-120479280D01*
X141630000Y-120630545D01*
X141630000Y-117188581D01*
X141627259Y-117160755D01*
X141627275Y-117158518D01*
X141626375Y-117149347D01*
X141622578Y-117113220D01*
X141620450Y-117091617D01*
X141620231Y-117090896D01*
X141618602Y-117075396D01*
X141606577Y-117016819D01*
X141595366Y-116958044D01*
X141592702Y-116949222D01*
X141570714Y-116878190D01*
X141547536Y-116823052D01*
X141525123Y-116767578D01*
X141520796Y-116759441D01*
X141485429Y-116694033D01*
X141452006Y-116644482D01*
X141419230Y-116594393D01*
X141413405Y-116587252D01*
X141366008Y-116529958D01*
X141323553Y-116487798D01*
X141281706Y-116445065D01*
X141274605Y-116439191D01*
X141216981Y-116392194D01*
X141167191Y-116359114D01*
X141117801Y-116325295D01*
X141109694Y-116320912D01*
X141044040Y-116286003D01*
X140988748Y-116263214D01*
X140933752Y-116239642D01*
X140924949Y-116236917D01*
X140853764Y-116215425D01*
X140795093Y-116203808D01*
X140736572Y-116191369D01*
X140727407Y-116190406D01*
X140653404Y-116183150D01*
X140653402Y-116183150D01*
X140621419Y-116180000D01*
X136550000Y-116180000D01*
X136550000Y-114513353D01*
X136774446Y-114737799D01*
X137134551Y-114978414D01*
X137534679Y-115144152D01*
X137959452Y-115228645D01*
X138392548Y-115228645D01*
X138817321Y-115144152D01*
X139217449Y-114978414D01*
X139577554Y-114737799D01*
X139883799Y-114431554D01*
X140124414Y-114071449D01*
X140290152Y-113671321D01*
X140334175Y-113450000D01*
X142021928Y-113450000D01*
X142021928Y-115150000D01*
X142034188Y-115274482D01*
X142070498Y-115394180D01*
X142129463Y-115504494D01*
X142208815Y-115601185D01*
X142305506Y-115680537D01*
X142415820Y-115739502D01*
X142535518Y-115775812D01*
X142660000Y-115788072D01*
X144360000Y-115788072D01*
X144484482Y-115775812D01*
X144604180Y-115739502D01*
X144714494Y-115680537D01*
X144811185Y-115601185D01*
X144890537Y-115504494D01*
X144949502Y-115394180D01*
X144971513Y-115321620D01*
X145103368Y-115453475D01*
X145346589Y-115615990D01*
X145616842Y-115727932D01*
X145903740Y-115785000D01*
X146196260Y-115785000D01*
X146483158Y-115727932D01*
X146753411Y-115615990D01*
X146996632Y-115453475D01*
X147203475Y-115246632D01*
X147320000Y-115072240D01*
X147436525Y-115246632D01*
X147643368Y-115453475D01*
X147886589Y-115615990D01*
X148156842Y-115727932D01*
X148443740Y-115785000D01*
X148736260Y-115785000D01*
X149023158Y-115727932D01*
X149293411Y-115615990D01*
X149536632Y-115453475D01*
X149743475Y-115246632D01*
X149860000Y-115072240D01*
X149976525Y-115246632D01*
X150183368Y-115453475D01*
X150426589Y-115615990D01*
X150696842Y-115727932D01*
X150983740Y-115785000D01*
X151276260Y-115785000D01*
X151563158Y-115727932D01*
X151833411Y-115615990D01*
X152076632Y-115453475D01*
X152283475Y-115246632D01*
X152405195Y-115064466D01*
X152474822Y-115181355D01*
X152669731Y-115397588D01*
X152903080Y-115571641D01*
X153165901Y-115696825D01*
X153313110Y-115741476D01*
X153543000Y-115620155D01*
X153543000Y-114427000D01*
X153523000Y-114427000D01*
X153523000Y-114173000D01*
X153543000Y-114173000D01*
X153543000Y-114153000D01*
X153797000Y-114153000D01*
X153797000Y-114173000D01*
X153817000Y-114173000D01*
X153817000Y-114427000D01*
X153797000Y-114427000D01*
X153797000Y-115620155D01*
X154026890Y-115741476D01*
X154174099Y-115696825D01*
X154436920Y-115571641D01*
X154670269Y-115397588D01*
X154865178Y-115181355D01*
X154934805Y-115064466D01*
X155056525Y-115246632D01*
X155263368Y-115453475D01*
X155506589Y-115615990D01*
X155776842Y-115727932D01*
X156063740Y-115785000D01*
X156356260Y-115785000D01*
X156643158Y-115727932D01*
X156913411Y-115615990D01*
X157156632Y-115453475D01*
X157363475Y-115246632D01*
X157480000Y-115072240D01*
X157596525Y-115246632D01*
X157803368Y-115453475D01*
X158046589Y-115615990D01*
X158316842Y-115727932D01*
X158603740Y-115785000D01*
X158896260Y-115785000D01*
X159183158Y-115727932D01*
X159453411Y-115615990D01*
X159696632Y-115453475D01*
X159903475Y-115246632D01*
X160020000Y-115072240D01*
X160136525Y-115246632D01*
X160343368Y-115453475D01*
X160586589Y-115615990D01*
X160856842Y-115727932D01*
X161143740Y-115785000D01*
X161436260Y-115785000D01*
X161723158Y-115727932D01*
X161993411Y-115615990D01*
X162236632Y-115453475D01*
X162443475Y-115246632D01*
X162605990Y-115003411D01*
X162717932Y-114733158D01*
X162775000Y-114446260D01*
X162775000Y-114153740D01*
X162717932Y-113866842D01*
X162605990Y-113596589D01*
X162443475Y-113353368D01*
X162236632Y-113146525D01*
X162062240Y-113030000D01*
X162236632Y-112913475D01*
X162443475Y-112706632D01*
X162605990Y-112463411D01*
X162717932Y-112193158D01*
X162775000Y-111906260D01*
X162775000Y-111613740D01*
X162717932Y-111326842D01*
X162605990Y-111056589D01*
X162443475Y-110813368D01*
X162236632Y-110606525D01*
X161993411Y-110444010D01*
X161723158Y-110332068D01*
X161436260Y-110275000D01*
X161143740Y-110275000D01*
X160856842Y-110332068D01*
X160586589Y-110444010D01*
X160343368Y-110606525D01*
X160136525Y-110813368D01*
X160020000Y-110987760D01*
X159903475Y-110813368D01*
X159696632Y-110606525D01*
X159453411Y-110444010D01*
X159183158Y-110332068D01*
X158896260Y-110275000D01*
X158603740Y-110275000D01*
X158316842Y-110332068D01*
X158046589Y-110444010D01*
X157803368Y-110606525D01*
X157596525Y-110813368D01*
X157480000Y-110987760D01*
X157363475Y-110813368D01*
X157156632Y-110606525D01*
X156913411Y-110444010D01*
X156643158Y-110332068D01*
X156356260Y-110275000D01*
X156063740Y-110275000D01*
X155776842Y-110332068D01*
X155506589Y-110444010D01*
X155263368Y-110606525D01*
X155056525Y-110813368D01*
X154940000Y-110987760D01*
X154823475Y-110813368D01*
X154616632Y-110606525D01*
X154373411Y-110444010D01*
X154103158Y-110332068D01*
X153816260Y-110275000D01*
X153523740Y-110275000D01*
X153236842Y-110332068D01*
X152966589Y-110444010D01*
X152723368Y-110606525D01*
X152516525Y-110813368D01*
X152400000Y-110987760D01*
X152283475Y-110813368D01*
X152076632Y-110606525D01*
X151833411Y-110444010D01*
X151563158Y-110332068D01*
X151276260Y-110275000D01*
X150983740Y-110275000D01*
X150696842Y-110332068D01*
X150426589Y-110444010D01*
X150183368Y-110606525D01*
X149976525Y-110813368D01*
X149854805Y-110995534D01*
X149785178Y-110878645D01*
X149590269Y-110662412D01*
X149356920Y-110488359D01*
X149094099Y-110363175D01*
X148946890Y-110318524D01*
X148717000Y-110439845D01*
X148717000Y-111633000D01*
X148737000Y-111633000D01*
X148737000Y-111887000D01*
X148717000Y-111887000D01*
X148717000Y-111907000D01*
X148463000Y-111907000D01*
X148463000Y-111887000D01*
X148443000Y-111887000D01*
X148443000Y-111633000D01*
X148463000Y-111633000D01*
X148463000Y-110439845D01*
X148233110Y-110318524D01*
X148085901Y-110363175D01*
X147823080Y-110488359D01*
X147589731Y-110662412D01*
X147394822Y-110878645D01*
X147325195Y-110995534D01*
X147203475Y-110813368D01*
X146996632Y-110606525D01*
X146753411Y-110444010D01*
X146483158Y-110332068D01*
X146196260Y-110275000D01*
X145903740Y-110275000D01*
X145616842Y-110332068D01*
X145346589Y-110444010D01*
X145103368Y-110606525D01*
X144896525Y-110813368D01*
X144780000Y-110987760D01*
X144663475Y-110813368D01*
X144456632Y-110606525D01*
X144213411Y-110444010D01*
X143943158Y-110332068D01*
X143656260Y-110275000D01*
X143363740Y-110275000D01*
X143076842Y-110332068D01*
X142806589Y-110444010D01*
X142563368Y-110606525D01*
X142356525Y-110813368D01*
X142194010Y-111056589D01*
X142082068Y-111326842D01*
X142025000Y-111613740D01*
X142025000Y-111906260D01*
X142082068Y-112193158D01*
X142194010Y-112463411D01*
X142356525Y-112706632D01*
X142488380Y-112838487D01*
X142415820Y-112860498D01*
X142305506Y-112919463D01*
X142208815Y-112998815D01*
X142129463Y-113095506D01*
X142070498Y-113205820D01*
X142034188Y-113325518D01*
X142021928Y-113450000D01*
X140334175Y-113450000D01*
X140374645Y-113246548D01*
X140374645Y-112813452D01*
X140290152Y-112388679D01*
X140124414Y-111988551D01*
X139883799Y-111628446D01*
X139577554Y-111322201D01*
X139217449Y-111081586D01*
X138817321Y-110915848D01*
X138392548Y-110831355D01*
X137959452Y-110831355D01*
X137534679Y-110915848D01*
X137134551Y-111081586D01*
X136774446Y-111322201D01*
X136550000Y-111546647D01*
X136550000Y-109880000D01*
X163170000Y-109880000D01*
X163170001Y-127102000D01*
G37*
G04 #@! TD.AperFunction*
G04 #@! TD*
M02*
