G04 #@! TF.GenerationSoftware,KiCad,Pcbnew,(5.1.9)-1*
G04 #@! TF.CreationDate,2021-01-19T23:29:13-08:00*
G04 #@! TF.ProjectId,RPI_FS_HAT_REV1,5250495f-4653-45f4-9841-545f52455631,1*
G04 #@! TF.SameCoordinates,Original*
G04 #@! TF.FileFunction,Copper,L1,Top*
G04 #@! TF.FilePolarity,Positive*
%FSLAX46Y46*%
G04 Gerber Fmt 4.6, Leading zero omitted, Abs format (unit mm)*
G04 Created by KiCad (PCBNEW (5.1.9)-1) date 2021-01-19 23:29:13*
%MOMM*%
%LPD*%
G01*
G04 APERTURE LIST*
G04 #@! TA.AperFunction,ComponentPad*
%ADD10O,1.700000X1.700000*%
G04 #@! TD*
G04 #@! TA.AperFunction,ComponentPad*
%ADD11R,1.700000X1.700000*%
G04 #@! TD*
G04 #@! TA.AperFunction,ComponentPad*
%ADD12O,1.524000X1.524000*%
G04 #@! TD*
G04 #@! TA.AperFunction,ViaPad*
%ADD13C,1.000000*%
G04 #@! TD*
G04 #@! TA.AperFunction,Conductor*
%ADD14C,0.300000*%
G04 #@! TD*
G04 #@! TA.AperFunction,Conductor*
%ADD15C,0.254000*%
G04 #@! TD*
G04 #@! TA.AperFunction,Conductor*
%ADD16C,0.100000*%
G04 #@! TD*
G04 APERTURE END LIST*
D10*
G04 #@! TO.P,J1,16*
G04 #@! TO.N,Net-(J1-Pad16)*
X161290000Y-111760000D03*
G04 #@! TO.P,J1,15*
G04 #@! TO.N,Net-(J1-Pad15)*
X161290000Y-114300000D03*
G04 #@! TO.P,J1,14*
G04 #@! TO.N,Net-(J1-Pad14)*
X158750000Y-111760000D03*
G04 #@! TO.P,J1,13*
G04 #@! TO.N,Net-(J1-Pad13)*
X158750000Y-114300000D03*
G04 #@! TO.P,J1,12*
G04 #@! TO.N,Net-(J1-Pad12)*
X156210000Y-111760000D03*
G04 #@! TO.P,J1,11*
G04 #@! TO.N,Net-(J1-Pad11)*
X156210000Y-114300000D03*
G04 #@! TO.P,J1,10*
G04 #@! TO.N,Net-(J1-Pad10)*
X153670000Y-111760000D03*
G04 #@! TO.P,J1,9*
G04 #@! TO.N,GND*
X153670000Y-114300000D03*
G04 #@! TO.P,J1,8*
G04 #@! TO.N,/button_input*
X151130000Y-111760000D03*
G04 #@! TO.P,J1,7*
G04 #@! TO.N,Net-(J1-Pad7)*
X151130000Y-114300000D03*
G04 #@! TO.P,J1,6*
G04 #@! TO.N,GND*
X148590000Y-111760000D03*
G04 #@! TO.P,J1,5*
G04 #@! TO.N,Net-(J1-Pad5)*
X148590000Y-114300000D03*
G04 #@! TO.P,J1,4*
G04 #@! TO.N,Net-(J1-Pad4)*
X146050000Y-111760000D03*
G04 #@! TO.P,J1,3*
G04 #@! TO.N,Net-(J1-Pad3)*
X146050000Y-114300000D03*
G04 #@! TO.P,J1,2*
G04 #@! TO.N,Net-(J1-Pad2)*
X143510000Y-111760000D03*
D11*
G04 #@! TO.P,J1,1*
G04 #@! TO.N,/3.3V*
X143510000Y-114300000D03*
G04 #@! TD*
G04 #@! TO.P,D1,1*
G04 #@! TO.N,GND*
G04 #@! TA.AperFunction,SMDPad,CuDef*
G36*
G01*
X162297000Y-117653750D02*
X162297000Y-118566250D01*
G75*
G02*
X162053250Y-118810000I-243750J0D01*
G01*
X161565750Y-118810000D01*
G75*
G02*
X161322000Y-118566250I0J243750D01*
G01*
X161322000Y-117653750D01*
G75*
G02*
X161565750Y-117410000I243750J0D01*
G01*
X162053250Y-117410000D01*
G75*
G02*
X162297000Y-117653750I0J-243750D01*
G01*
G37*
G04 #@! TD.AperFunction*
G04 #@! TO.P,D1,2*
G04 #@! TO.N,Net-(D1-Pad2)*
G04 #@! TA.AperFunction,SMDPad,CuDef*
G36*
G01*
X160422000Y-117653750D02*
X160422000Y-118566250D01*
G75*
G02*
X160178250Y-118810000I-243750J0D01*
G01*
X159690750Y-118810000D01*
G75*
G02*
X159447000Y-118566250I0J243750D01*
G01*
X159447000Y-117653750D01*
G75*
G02*
X159690750Y-117410000I243750J0D01*
G01*
X160178250Y-117410000D01*
G75*
G02*
X160422000Y-117653750I0J-243750D01*
G01*
G37*
G04 #@! TD.AperFunction*
G04 #@! TD*
G04 #@! TO.P,D2,2*
G04 #@! TO.N,Net-(D2-Pad2)*
G04 #@! TA.AperFunction,SMDPad,CuDef*
G36*
G01*
X160422000Y-121082750D02*
X160422000Y-121995250D01*
G75*
G02*
X160178250Y-122239000I-243750J0D01*
G01*
X159690750Y-122239000D01*
G75*
G02*
X159447000Y-121995250I0J243750D01*
G01*
X159447000Y-121082750D01*
G75*
G02*
X159690750Y-120839000I243750J0D01*
G01*
X160178250Y-120839000D01*
G75*
G02*
X160422000Y-121082750I0J-243750D01*
G01*
G37*
G04 #@! TD.AperFunction*
G04 #@! TO.P,D2,1*
G04 #@! TO.N,GND*
G04 #@! TA.AperFunction,SMDPad,CuDef*
G36*
G01*
X162297000Y-121082750D02*
X162297000Y-121995250D01*
G75*
G02*
X162053250Y-122239000I-243750J0D01*
G01*
X161565750Y-122239000D01*
G75*
G02*
X161322000Y-121995250I0J243750D01*
G01*
X161322000Y-121082750D01*
G75*
G02*
X161565750Y-120839000I243750J0D01*
G01*
X162053250Y-120839000D01*
G75*
G02*
X162297000Y-121082750I0J-243750D01*
G01*
G37*
G04 #@! TD.AperFunction*
G04 #@! TD*
G04 #@! TO.P,R1,2*
G04 #@! TO.N,GND*
G04 #@! TA.AperFunction,SMDPad,CuDef*
G36*
G01*
X147696500Y-118515001D02*
X147696500Y-117614999D01*
G75*
G02*
X147946499Y-117365000I249999J0D01*
G01*
X148471501Y-117365000D01*
G75*
G02*
X148721500Y-117614999I0J-249999D01*
G01*
X148721500Y-118515001D01*
G75*
G02*
X148471501Y-118765000I-249999J0D01*
G01*
X147946499Y-118765000D01*
G75*
G02*
X147696500Y-118515001I0J249999D01*
G01*
G37*
G04 #@! TD.AperFunction*
G04 #@! TO.P,R1,1*
G04 #@! TO.N,/button_input*
G04 #@! TA.AperFunction,SMDPad,CuDef*
G36*
G01*
X145871500Y-118515001D02*
X145871500Y-117614999D01*
G75*
G02*
X146121499Y-117365000I249999J0D01*
G01*
X146646501Y-117365000D01*
G75*
G02*
X146896500Y-117614999I0J-249999D01*
G01*
X146896500Y-118515001D01*
G75*
G02*
X146646501Y-118765000I-249999J0D01*
G01*
X146121499Y-118765000D01*
G75*
G02*
X145871500Y-118515001I0J249999D01*
G01*
G37*
G04 #@! TD.AperFunction*
G04 #@! TD*
G04 #@! TO.P,R2,1*
G04 #@! TO.N,Net-(J1-Pad11)*
G04 #@! TA.AperFunction,SMDPad,CuDef*
G36*
G01*
X153340500Y-117614999D02*
X153340500Y-118515001D01*
G75*
G02*
X153090501Y-118765000I-249999J0D01*
G01*
X152565499Y-118765000D01*
G75*
G02*
X152315500Y-118515001I0J249999D01*
G01*
X152315500Y-117614999D01*
G75*
G02*
X152565499Y-117365000I249999J0D01*
G01*
X153090501Y-117365000D01*
G75*
G02*
X153340500Y-117614999I0J-249999D01*
G01*
G37*
G04 #@! TD.AperFunction*
G04 #@! TO.P,R2,2*
G04 #@! TO.N,/3.3V*
G04 #@! TA.AperFunction,SMDPad,CuDef*
G36*
G01*
X151515500Y-117614999D02*
X151515500Y-118515001D01*
G75*
G02*
X151265501Y-118765000I-249999J0D01*
G01*
X150740499Y-118765000D01*
G75*
G02*
X150490500Y-118515001I0J249999D01*
G01*
X150490500Y-117614999D01*
G75*
G02*
X150740499Y-117365000I249999J0D01*
G01*
X151265501Y-117365000D01*
G75*
G02*
X151515500Y-117614999I0J-249999D01*
G01*
G37*
G04 #@! TD.AperFunction*
G04 #@! TD*
G04 #@! TO.P,R3,2*
G04 #@! TO.N,Net-(D1-Pad2)*
G04 #@! TA.AperFunction,SMDPad,CuDef*
G36*
G01*
X156737000Y-118515001D02*
X156737000Y-117614999D01*
G75*
G02*
X156986999Y-117365000I249999J0D01*
G01*
X157512001Y-117365000D01*
G75*
G02*
X157762000Y-117614999I0J-249999D01*
G01*
X157762000Y-118515001D01*
G75*
G02*
X157512001Y-118765000I-249999J0D01*
G01*
X156986999Y-118765000D01*
G75*
G02*
X156737000Y-118515001I0J249999D01*
G01*
G37*
G04 #@! TD.AperFunction*
G04 #@! TO.P,R3,1*
G04 #@! TO.N,Net-(J1-Pad7)*
G04 #@! TA.AperFunction,SMDPad,CuDef*
G36*
G01*
X154912000Y-118515001D02*
X154912000Y-117614999D01*
G75*
G02*
X155161999Y-117365000I249999J0D01*
G01*
X155687001Y-117365000D01*
G75*
G02*
X155937000Y-117614999I0J-249999D01*
G01*
X155937000Y-118515001D01*
G75*
G02*
X155687001Y-118765000I-249999J0D01*
G01*
X155161999Y-118765000D01*
G75*
G02*
X154912000Y-118515001I0J249999D01*
G01*
G37*
G04 #@! TD.AperFunction*
G04 #@! TD*
G04 #@! TO.P,R4,2*
G04 #@! TO.N,Net-(D2-Pad2)*
G04 #@! TA.AperFunction,SMDPad,CuDef*
G36*
G01*
X156737000Y-121944001D02*
X156737000Y-121043999D01*
G75*
G02*
X156986999Y-120794000I249999J0D01*
G01*
X157512001Y-120794000D01*
G75*
G02*
X157762000Y-121043999I0J-249999D01*
G01*
X157762000Y-121944001D01*
G75*
G02*
X157512001Y-122194000I-249999J0D01*
G01*
X156986999Y-122194000D01*
G75*
G02*
X156737000Y-121944001I0J249999D01*
G01*
G37*
G04 #@! TD.AperFunction*
G04 #@! TO.P,R4,1*
G04 #@! TO.N,/3.3V*
G04 #@! TA.AperFunction,SMDPad,CuDef*
G36*
G01*
X154912000Y-121944001D02*
X154912000Y-121043999D01*
G75*
G02*
X155161999Y-120794000I249999J0D01*
G01*
X155687001Y-120794000D01*
G75*
G02*
X155937000Y-121043999I0J-249999D01*
G01*
X155937000Y-121944001D01*
G75*
G02*
X155687001Y-122194000I-249999J0D01*
G01*
X155161999Y-122194000D01*
G75*
G02*
X154912000Y-121944001I0J249999D01*
G01*
G37*
G04 #@! TD.AperFunction*
G04 #@! TD*
D12*
G04 #@! TO.P,SW1,1*
G04 #@! TO.N,/3.3V*
X149174200Y-126085600D03*
X142671800Y-126085600D03*
G04 #@! TO.P,SW1,2*
G04 #@! TO.N,/button_input*
X149174200Y-121564400D03*
X142671800Y-121564400D03*
G04 #@! TD*
D11*
G04 #@! TO.P,U1,1*
G04 #@! TO.N,/3.3V*
X161036000Y-125476000D03*
D10*
G04 #@! TO.P,U1,2*
G04 #@! TO.N,Net-(J1-Pad11)*
X158496000Y-125476000D03*
G04 #@! TO.P,U1,3*
G04 #@! TO.N,Net-(U1-Pad3)*
X155956000Y-125476000D03*
G04 #@! TO.P,U1,4*
G04 #@! TO.N,GND*
X153416000Y-125476000D03*
G04 #@! TD*
D13*
G04 #@! TO.N,GND*
X161798000Y-119761000D03*
G04 #@! TD*
D14*
G04 #@! TO.N,GND*
X162190500Y-119772500D02*
X162179000Y-119761000D01*
X161809500Y-121539000D02*
X161809500Y-119772500D01*
X162179000Y-118121500D02*
X162190500Y-118110000D01*
X161798000Y-119761000D02*
X161798000Y-118121500D01*
X153054002Y-114300000D02*
X153670000Y-114300000D01*
X149289002Y-118065000D02*
X153054002Y-114300000D01*
X148209000Y-118065000D02*
X149289002Y-118065000D01*
G04 #@! TO.N,Net-(D1-Pad2)*
X160270500Y-118065000D02*
X160315500Y-118110000D01*
X159889500Y-118065000D02*
X159934500Y-118110000D01*
X157249500Y-118065000D02*
X159889500Y-118065000D01*
G04 #@! TO.N,Net-(D2-Pad2)*
X160270500Y-121494000D02*
X160315500Y-121539000D01*
X159889500Y-121494000D02*
X159934500Y-121539000D01*
X157249500Y-121494000D02*
X159889500Y-121494000D01*
G04 #@! TO.N,/3.3V*
X142748000Y-115062000D02*
X143510000Y-114300000D01*
X149174200Y-126085600D02*
X142671800Y-126085600D01*
X141459799Y-124873599D02*
X141459799Y-116350201D01*
X142671800Y-126085600D02*
X141459799Y-124873599D01*
G04 #@! TO.N,/button_input*
X146765000Y-118110000D02*
X146765000Y-117901002D01*
G04 #@! TO.N,/3.3V*
X141459799Y-116350201D02*
X143510000Y-114300000D01*
X156574510Y-122644010D02*
X155424500Y-121494000D01*
X158204010Y-122644010D02*
X156574510Y-122644010D01*
X161036000Y-125476000D02*
X158204010Y-122644010D01*
G04 #@! TO.N,Net-(J1-Pad7)*
X152430001Y-112999999D02*
X151130000Y-114300000D01*
X156686001Y-112999999D02*
X152430001Y-112999999D01*
X157410001Y-113723999D02*
X156686001Y-112999999D01*
X157410001Y-116079499D02*
X157410001Y-113723999D01*
X155424500Y-118065000D02*
X157410001Y-116079499D01*
G04 #@! TO.N,/button_input*
X149829999Y-113060001D02*
X151130000Y-111760000D01*
X147965999Y-113060001D02*
X149829999Y-113060001D01*
X147250001Y-113775999D02*
X147965999Y-113060001D01*
X147250001Y-117198999D02*
X147250001Y-113775999D01*
X146384000Y-118065000D02*
X147250001Y-117198999D01*
X146384000Y-118774200D02*
X146384000Y-118065000D01*
X149174200Y-121564400D02*
X146384000Y-118774200D01*
G04 #@! TO.N,Net-(J1-Pad11)*
X158750000Y-125730000D02*
X158353454Y-125730000D01*
X152828000Y-117682000D02*
X156210000Y-114300000D01*
X152828000Y-118065000D02*
X152828000Y-117682000D01*
X152828000Y-120599966D02*
X152828000Y-118065000D01*
X157704034Y-125476000D02*
X152828000Y-120599966D01*
X158496000Y-125476000D02*
X157704034Y-125476000D01*
G04 #@! TD*
D15*
G04 #@! TO.N,/3.3V*
X163170001Y-127102000D02*
X150122926Y-127102000D01*
X150211820Y-127020997D01*
X150374369Y-126800594D01*
X150490796Y-126552714D01*
X150528420Y-126428670D01*
X150405920Y-126212600D01*
X149301200Y-126212600D01*
X149301200Y-126232600D01*
X149047200Y-126232600D01*
X149047200Y-126212600D01*
X147942480Y-126212600D01*
X147819980Y-126428670D01*
X147857604Y-126552714D01*
X147974031Y-126800594D01*
X148136580Y-127020997D01*
X148225474Y-127102000D01*
X143620526Y-127102000D01*
X143709420Y-127020997D01*
X143871969Y-126800594D01*
X143988396Y-126552714D01*
X144026020Y-126428670D01*
X143903520Y-126212600D01*
X142798800Y-126212600D01*
X142798800Y-126232600D01*
X142544800Y-126232600D01*
X142544800Y-126212600D01*
X142524800Y-126212600D01*
X142524800Y-125958600D01*
X142544800Y-125958600D01*
X142544800Y-124853130D01*
X142798800Y-124853130D01*
X142798800Y-125958600D01*
X143903520Y-125958600D01*
X144026020Y-125742530D01*
X147819980Y-125742530D01*
X147942480Y-125958600D01*
X149047200Y-125958600D01*
X149047200Y-124853130D01*
X149301200Y-124853130D01*
X149301200Y-125958600D01*
X150405920Y-125958600D01*
X150528420Y-125742530D01*
X150490796Y-125618486D01*
X150374369Y-125370606D01*
X150211820Y-125150203D01*
X150009396Y-124965747D01*
X149774875Y-124824326D01*
X149517271Y-124731375D01*
X149301200Y-124853130D01*
X149047200Y-124853130D01*
X148831129Y-124731375D01*
X148573525Y-124824326D01*
X148339004Y-124965747D01*
X148136580Y-125150203D01*
X147974031Y-125370606D01*
X147857604Y-125618486D01*
X147819980Y-125742530D01*
X144026020Y-125742530D01*
X143988396Y-125618486D01*
X143871969Y-125370606D01*
X143709420Y-125150203D01*
X143506996Y-124965747D01*
X143272475Y-124824326D01*
X143014871Y-124731375D01*
X142798800Y-124853130D01*
X142544800Y-124853130D01*
X142328729Y-124731375D01*
X142071125Y-124824326D01*
X141836604Y-124965747D01*
X141634180Y-125150203D01*
X141630000Y-125155871D01*
X141630000Y-122498255D01*
X141781265Y-122649520D01*
X142010073Y-122802405D01*
X142264310Y-122907714D01*
X142534208Y-122961400D01*
X142809392Y-122961400D01*
X143079290Y-122907714D01*
X143333527Y-122802405D01*
X143562335Y-122649520D01*
X143756920Y-122454935D01*
X143909805Y-122226127D01*
X144015114Y-121971890D01*
X144068800Y-121701992D01*
X144068800Y-121426808D01*
X144015114Y-121156910D01*
X143909805Y-120902673D01*
X143756920Y-120673865D01*
X143562335Y-120479280D01*
X143333527Y-120326395D01*
X143079290Y-120221086D01*
X142809392Y-120167400D01*
X142534208Y-120167400D01*
X142264310Y-120221086D01*
X142010073Y-120326395D01*
X141781265Y-120479280D01*
X141630000Y-120630545D01*
X141630000Y-117188581D01*
X141627259Y-117160755D01*
X141627275Y-117158518D01*
X141626375Y-117149347D01*
X141622578Y-117113220D01*
X141620450Y-117091617D01*
X141620231Y-117090896D01*
X141618602Y-117075396D01*
X141606577Y-117016819D01*
X141595366Y-116958044D01*
X141592702Y-116949222D01*
X141570714Y-116878190D01*
X141547536Y-116823052D01*
X141525123Y-116767578D01*
X141520796Y-116759441D01*
X141485429Y-116694033D01*
X141452006Y-116644482D01*
X141419230Y-116594393D01*
X141413405Y-116587252D01*
X141366008Y-116529958D01*
X141323553Y-116487798D01*
X141281706Y-116445065D01*
X141274605Y-116439191D01*
X141216981Y-116392194D01*
X141167191Y-116359114D01*
X141117801Y-116325295D01*
X141109694Y-116320912D01*
X141044040Y-116286003D01*
X140988748Y-116263214D01*
X140933752Y-116239642D01*
X140924949Y-116236917D01*
X140853764Y-116215425D01*
X140795093Y-116203808D01*
X140736572Y-116191369D01*
X140727407Y-116190406D01*
X140653404Y-116183150D01*
X140653402Y-116183150D01*
X140621419Y-116180000D01*
X136550000Y-116180000D01*
X136550000Y-114513353D01*
X136774446Y-114737799D01*
X137134551Y-114978414D01*
X137534679Y-115144152D01*
X137959452Y-115228645D01*
X138392548Y-115228645D01*
X138787921Y-115150000D01*
X142021928Y-115150000D01*
X142034188Y-115274482D01*
X142070498Y-115394180D01*
X142129463Y-115504494D01*
X142208815Y-115601185D01*
X142305506Y-115680537D01*
X142415820Y-115739502D01*
X142535518Y-115775812D01*
X142660000Y-115788072D01*
X143224250Y-115785000D01*
X143383000Y-115626250D01*
X143383000Y-114427000D01*
X142183750Y-114427000D01*
X142025000Y-114585750D01*
X142021928Y-115150000D01*
X138787921Y-115150000D01*
X138817321Y-115144152D01*
X139217449Y-114978414D01*
X139577554Y-114737799D01*
X139883799Y-114431554D01*
X140124414Y-114071449D01*
X140290152Y-113671321D01*
X140334175Y-113450000D01*
X142021928Y-113450000D01*
X142025000Y-114014250D01*
X142183750Y-114173000D01*
X143383000Y-114173000D01*
X143383000Y-114153000D01*
X143637000Y-114153000D01*
X143637000Y-114173000D01*
X143657000Y-114173000D01*
X143657000Y-114427000D01*
X143637000Y-114427000D01*
X143637000Y-115626250D01*
X143795750Y-115785000D01*
X144360000Y-115788072D01*
X144484482Y-115775812D01*
X144604180Y-115739502D01*
X144714494Y-115680537D01*
X144811185Y-115601185D01*
X144890537Y-115504494D01*
X144949502Y-115394180D01*
X144971513Y-115321620D01*
X145103368Y-115453475D01*
X145346589Y-115615990D01*
X145616842Y-115727932D01*
X145903740Y-115785000D01*
X146196260Y-115785000D01*
X146465001Y-115731544D01*
X146465001Y-116726928D01*
X146121499Y-116726928D01*
X145948245Y-116743992D01*
X145781649Y-116794528D01*
X145628113Y-116876595D01*
X145493538Y-116987038D01*
X145383095Y-117121613D01*
X145301028Y-117275149D01*
X145250492Y-117441745D01*
X145233428Y-117614999D01*
X145233428Y-118515001D01*
X145250492Y-118688255D01*
X145301028Y-118854851D01*
X145383095Y-119008387D01*
X145493538Y-119142962D01*
X145628113Y-119253405D01*
X145781649Y-119335472D01*
X145858396Y-119358753D01*
X147801962Y-121302319D01*
X147777200Y-121426808D01*
X147777200Y-121701992D01*
X147830886Y-121971890D01*
X147936195Y-122226127D01*
X148089080Y-122454935D01*
X148283665Y-122649520D01*
X148512473Y-122802405D01*
X148766710Y-122907714D01*
X149036608Y-122961400D01*
X149311792Y-122961400D01*
X149581690Y-122907714D01*
X149835927Y-122802405D01*
X150064735Y-122649520D01*
X150259320Y-122454935D01*
X150412205Y-122226127D01*
X150517514Y-121971890D01*
X150571200Y-121701992D01*
X150571200Y-121426808D01*
X150517514Y-121156910D01*
X150412205Y-120902673D01*
X150259320Y-120673865D01*
X150064735Y-120479280D01*
X149835927Y-120326395D01*
X149581690Y-120221086D01*
X149311792Y-120167400D01*
X149036608Y-120167400D01*
X148912119Y-120192162D01*
X148123029Y-119403072D01*
X148471501Y-119403072D01*
X148644755Y-119386008D01*
X148811351Y-119335472D01*
X148964887Y-119253405D01*
X149099462Y-119142962D01*
X149209905Y-119008387D01*
X149291972Y-118854851D01*
X149292393Y-118853463D01*
X149327555Y-118850000D01*
X149327563Y-118850000D01*
X149442889Y-118838641D01*
X149590862Y-118793754D01*
X149727235Y-118720862D01*
X149846766Y-118622764D01*
X149853544Y-118614505D01*
X149852428Y-118765000D01*
X149864688Y-118889482D01*
X149900998Y-119009180D01*
X149959963Y-119119494D01*
X150039315Y-119216185D01*
X150136006Y-119295537D01*
X150246320Y-119354502D01*
X150366018Y-119390812D01*
X150490500Y-119403072D01*
X150717250Y-119400000D01*
X150876000Y-119241250D01*
X150876000Y-118192000D01*
X150856000Y-118192000D01*
X150856000Y-117938000D01*
X150876000Y-117938000D01*
X150876000Y-117918000D01*
X151130000Y-117918000D01*
X151130000Y-117938000D01*
X151150000Y-117938000D01*
X151150000Y-118192000D01*
X151130000Y-118192000D01*
X151130000Y-119241250D01*
X151288750Y-119400000D01*
X151515500Y-119403072D01*
X151639982Y-119390812D01*
X151759680Y-119354502D01*
X151869994Y-119295537D01*
X151966685Y-119216185D01*
X151990863Y-119186724D01*
X152043001Y-119229513D01*
X152043000Y-120561413D01*
X152039203Y-120599966D01*
X152043000Y-120638519D01*
X152043000Y-120638526D01*
X152054359Y-120753852D01*
X152099246Y-120901825D01*
X152172138Y-121038198D01*
X152270236Y-121157730D01*
X152300190Y-121182313D01*
X155270477Y-124152601D01*
X155252589Y-124160010D01*
X155009368Y-124322525D01*
X154802525Y-124529368D01*
X154686000Y-124703760D01*
X154569475Y-124529368D01*
X154362632Y-124322525D01*
X154119411Y-124160010D01*
X153849158Y-124048068D01*
X153562260Y-123991000D01*
X153269740Y-123991000D01*
X152982842Y-124048068D01*
X152712589Y-124160010D01*
X152469368Y-124322525D01*
X152262525Y-124529368D01*
X152100010Y-124772589D01*
X151988068Y-125042842D01*
X151931000Y-125329740D01*
X151931000Y-125622260D01*
X151988068Y-125909158D01*
X152100010Y-126179411D01*
X152262525Y-126422632D01*
X152469368Y-126629475D01*
X152712589Y-126791990D01*
X152982842Y-126903932D01*
X153269740Y-126961000D01*
X153562260Y-126961000D01*
X153849158Y-126903932D01*
X154119411Y-126791990D01*
X154362632Y-126629475D01*
X154569475Y-126422632D01*
X154686000Y-126248240D01*
X154802525Y-126422632D01*
X155009368Y-126629475D01*
X155252589Y-126791990D01*
X155522842Y-126903932D01*
X155809740Y-126961000D01*
X156102260Y-126961000D01*
X156389158Y-126903932D01*
X156659411Y-126791990D01*
X156902632Y-126629475D01*
X157109475Y-126422632D01*
X157226000Y-126248240D01*
X157342525Y-126422632D01*
X157549368Y-126629475D01*
X157792589Y-126791990D01*
X158062842Y-126903932D01*
X158349740Y-126961000D01*
X158642260Y-126961000D01*
X158929158Y-126903932D01*
X159199411Y-126791990D01*
X159442632Y-126629475D01*
X159574487Y-126497620D01*
X159596498Y-126570180D01*
X159655463Y-126680494D01*
X159734815Y-126777185D01*
X159831506Y-126856537D01*
X159941820Y-126915502D01*
X160061518Y-126951812D01*
X160186000Y-126964072D01*
X160750250Y-126961000D01*
X160909000Y-126802250D01*
X160909000Y-125603000D01*
X161163000Y-125603000D01*
X161163000Y-126802250D01*
X161321750Y-126961000D01*
X161886000Y-126964072D01*
X162010482Y-126951812D01*
X162130180Y-126915502D01*
X162240494Y-126856537D01*
X162337185Y-126777185D01*
X162416537Y-126680494D01*
X162475502Y-126570180D01*
X162511812Y-126450482D01*
X162524072Y-126326000D01*
X162521000Y-125761750D01*
X162362250Y-125603000D01*
X161163000Y-125603000D01*
X160909000Y-125603000D01*
X160889000Y-125603000D01*
X160889000Y-125349000D01*
X160909000Y-125349000D01*
X160909000Y-124149750D01*
X161163000Y-124149750D01*
X161163000Y-125349000D01*
X162362250Y-125349000D01*
X162521000Y-125190250D01*
X162524072Y-124626000D01*
X162511812Y-124501518D01*
X162475502Y-124381820D01*
X162416537Y-124271506D01*
X162337185Y-124174815D01*
X162240494Y-124095463D01*
X162130180Y-124036498D01*
X162010482Y-124000188D01*
X161886000Y-123987928D01*
X161321750Y-123991000D01*
X161163000Y-124149750D01*
X160909000Y-124149750D01*
X160750250Y-123991000D01*
X160186000Y-123987928D01*
X160061518Y-124000188D01*
X159941820Y-124036498D01*
X159831506Y-124095463D01*
X159734815Y-124174815D01*
X159655463Y-124271506D01*
X159596498Y-124381820D01*
X159574487Y-124454380D01*
X159442632Y-124322525D01*
X159199411Y-124160010D01*
X158929158Y-124048068D01*
X158642260Y-123991000D01*
X158349740Y-123991000D01*
X158062842Y-124048068D01*
X157792589Y-124160010D01*
X157616117Y-124277925D01*
X156135539Y-122797347D01*
X156181180Y-122783502D01*
X156291494Y-122724537D01*
X156388185Y-122645185D01*
X156412363Y-122615724D01*
X156493613Y-122682405D01*
X156647149Y-122764472D01*
X156813745Y-122815008D01*
X156986999Y-122832072D01*
X157512001Y-122832072D01*
X157685255Y-122815008D01*
X157851851Y-122764472D01*
X158005387Y-122682405D01*
X158139962Y-122571962D01*
X158250405Y-122437387D01*
X158332472Y-122283851D01*
X158333944Y-122279000D01*
X158859760Y-122279000D01*
X158876053Y-122332709D01*
X158957542Y-122485164D01*
X159067208Y-122618792D01*
X159200836Y-122728458D01*
X159353291Y-122809947D01*
X159518715Y-122860128D01*
X159690750Y-122877072D01*
X160178250Y-122877072D01*
X160350285Y-122860128D01*
X160515709Y-122809947D01*
X160668164Y-122728458D01*
X160801792Y-122618792D01*
X160872000Y-122533244D01*
X160942208Y-122618792D01*
X161075836Y-122728458D01*
X161228291Y-122809947D01*
X161393715Y-122860128D01*
X161565750Y-122877072D01*
X162053250Y-122877072D01*
X162225285Y-122860128D01*
X162390709Y-122809947D01*
X162543164Y-122728458D01*
X162676792Y-122618792D01*
X162786458Y-122485164D01*
X162867947Y-122332709D01*
X162918128Y-122167285D01*
X162935072Y-121995250D01*
X162935072Y-121082750D01*
X162918128Y-120910715D01*
X162867947Y-120745291D01*
X162786458Y-120592836D01*
X162687669Y-120472462D01*
X162803824Y-120298624D01*
X162833983Y-120225814D01*
X162846361Y-120210731D01*
X162919253Y-120074359D01*
X162964141Y-119926386D01*
X162979297Y-119772499D01*
X162964141Y-119618613D01*
X162919253Y-119470641D01*
X162861452Y-119362501D01*
X162803824Y-119223376D01*
X162734444Y-119119542D01*
X162786458Y-119056164D01*
X162867947Y-118903709D01*
X162918128Y-118738285D01*
X162935072Y-118566250D01*
X162935072Y-118359712D01*
X162964141Y-118263887D01*
X162979297Y-118110001D01*
X162964141Y-117956114D01*
X162935072Y-117860288D01*
X162935072Y-117653750D01*
X162918128Y-117481715D01*
X162867947Y-117316291D01*
X162786458Y-117163836D01*
X162676792Y-117030208D01*
X162543164Y-116920542D01*
X162390709Y-116839053D01*
X162225285Y-116788872D01*
X162053250Y-116771928D01*
X161565750Y-116771928D01*
X161393715Y-116788872D01*
X161228291Y-116839053D01*
X161075836Y-116920542D01*
X160942208Y-117030208D01*
X160872000Y-117115756D01*
X160801792Y-117030208D01*
X160668164Y-116920542D01*
X160515709Y-116839053D01*
X160350285Y-116788872D01*
X160178250Y-116771928D01*
X159690750Y-116771928D01*
X159518715Y-116788872D01*
X159353291Y-116839053D01*
X159200836Y-116920542D01*
X159067208Y-117030208D01*
X158957542Y-117163836D01*
X158895451Y-117280000D01*
X158333944Y-117280000D01*
X158332472Y-117275149D01*
X158250405Y-117121613D01*
X158139962Y-116987038D01*
X158005387Y-116876595D01*
X157851851Y-116794528D01*
X157816004Y-116783654D01*
X157937818Y-116661840D01*
X157967765Y-116637263D01*
X157992406Y-116607239D01*
X158028735Y-116562972D01*
X158065863Y-116517732D01*
X158138755Y-116381359D01*
X158175072Y-116261638D01*
X158183642Y-116233387D01*
X158187875Y-116190406D01*
X158195001Y-116118060D01*
X158195001Y-116118053D01*
X158198798Y-116079500D01*
X158195001Y-116040947D01*
X158195001Y-115677464D01*
X158316842Y-115727932D01*
X158603740Y-115785000D01*
X158896260Y-115785000D01*
X159183158Y-115727932D01*
X159453411Y-115615990D01*
X159696632Y-115453475D01*
X159903475Y-115246632D01*
X160020000Y-115072240D01*
X160136525Y-115246632D01*
X160343368Y-115453475D01*
X160586589Y-115615990D01*
X160856842Y-115727932D01*
X161143740Y-115785000D01*
X161436260Y-115785000D01*
X161723158Y-115727932D01*
X161993411Y-115615990D01*
X162236632Y-115453475D01*
X162443475Y-115246632D01*
X162605990Y-115003411D01*
X162717932Y-114733158D01*
X162775000Y-114446260D01*
X162775000Y-114153740D01*
X162717932Y-113866842D01*
X162605990Y-113596589D01*
X162443475Y-113353368D01*
X162236632Y-113146525D01*
X162062240Y-113030000D01*
X162236632Y-112913475D01*
X162443475Y-112706632D01*
X162605990Y-112463411D01*
X162717932Y-112193158D01*
X162775000Y-111906260D01*
X162775000Y-111613740D01*
X162717932Y-111326842D01*
X162605990Y-111056589D01*
X162443475Y-110813368D01*
X162236632Y-110606525D01*
X161993411Y-110444010D01*
X161723158Y-110332068D01*
X161436260Y-110275000D01*
X161143740Y-110275000D01*
X160856842Y-110332068D01*
X160586589Y-110444010D01*
X160343368Y-110606525D01*
X160136525Y-110813368D01*
X160020000Y-110987760D01*
X159903475Y-110813368D01*
X159696632Y-110606525D01*
X159453411Y-110444010D01*
X159183158Y-110332068D01*
X158896260Y-110275000D01*
X158603740Y-110275000D01*
X158316842Y-110332068D01*
X158046589Y-110444010D01*
X157803368Y-110606525D01*
X157596525Y-110813368D01*
X157480000Y-110987760D01*
X157363475Y-110813368D01*
X157156632Y-110606525D01*
X156913411Y-110444010D01*
X156643158Y-110332068D01*
X156356260Y-110275000D01*
X156063740Y-110275000D01*
X155776842Y-110332068D01*
X155506589Y-110444010D01*
X155263368Y-110606525D01*
X155056525Y-110813368D01*
X154940000Y-110987760D01*
X154823475Y-110813368D01*
X154616632Y-110606525D01*
X154373411Y-110444010D01*
X154103158Y-110332068D01*
X153816260Y-110275000D01*
X153523740Y-110275000D01*
X153236842Y-110332068D01*
X152966589Y-110444010D01*
X152723368Y-110606525D01*
X152516525Y-110813368D01*
X152400000Y-110987760D01*
X152283475Y-110813368D01*
X152076632Y-110606525D01*
X151833411Y-110444010D01*
X151563158Y-110332068D01*
X151276260Y-110275000D01*
X150983740Y-110275000D01*
X150696842Y-110332068D01*
X150426589Y-110444010D01*
X150183368Y-110606525D01*
X149976525Y-110813368D01*
X149860000Y-110987760D01*
X149743475Y-110813368D01*
X149536632Y-110606525D01*
X149293411Y-110444010D01*
X149023158Y-110332068D01*
X148736260Y-110275000D01*
X148443740Y-110275000D01*
X148156842Y-110332068D01*
X147886589Y-110444010D01*
X147643368Y-110606525D01*
X147436525Y-110813368D01*
X147320000Y-110987760D01*
X147203475Y-110813368D01*
X146996632Y-110606525D01*
X146753411Y-110444010D01*
X146483158Y-110332068D01*
X146196260Y-110275000D01*
X145903740Y-110275000D01*
X145616842Y-110332068D01*
X145346589Y-110444010D01*
X145103368Y-110606525D01*
X144896525Y-110813368D01*
X144780000Y-110987760D01*
X144663475Y-110813368D01*
X144456632Y-110606525D01*
X144213411Y-110444010D01*
X143943158Y-110332068D01*
X143656260Y-110275000D01*
X143363740Y-110275000D01*
X143076842Y-110332068D01*
X142806589Y-110444010D01*
X142563368Y-110606525D01*
X142356525Y-110813368D01*
X142194010Y-111056589D01*
X142082068Y-111326842D01*
X142025000Y-111613740D01*
X142025000Y-111906260D01*
X142082068Y-112193158D01*
X142194010Y-112463411D01*
X142356525Y-112706632D01*
X142488380Y-112838487D01*
X142415820Y-112860498D01*
X142305506Y-112919463D01*
X142208815Y-112998815D01*
X142129463Y-113095506D01*
X142070498Y-113205820D01*
X142034188Y-113325518D01*
X142021928Y-113450000D01*
X140334175Y-113450000D01*
X140374645Y-113246548D01*
X140374645Y-112813452D01*
X140290152Y-112388679D01*
X140124414Y-111988551D01*
X139883799Y-111628446D01*
X139577554Y-111322201D01*
X139217449Y-111081586D01*
X138817321Y-110915848D01*
X138392548Y-110831355D01*
X137959452Y-110831355D01*
X137534679Y-110915848D01*
X137134551Y-111081586D01*
X136774446Y-111322201D01*
X136550000Y-111546647D01*
X136550000Y-109880000D01*
X163170000Y-109880000D01*
X163170001Y-127102000D01*
G04 #@! TA.AperFunction,Conductor*
D16*
G36*
X163170001Y-127102000D02*
G01*
X150122926Y-127102000D01*
X150211820Y-127020997D01*
X150374369Y-126800594D01*
X150490796Y-126552714D01*
X150528420Y-126428670D01*
X150405920Y-126212600D01*
X149301200Y-126212600D01*
X149301200Y-126232600D01*
X149047200Y-126232600D01*
X149047200Y-126212600D01*
X147942480Y-126212600D01*
X147819980Y-126428670D01*
X147857604Y-126552714D01*
X147974031Y-126800594D01*
X148136580Y-127020997D01*
X148225474Y-127102000D01*
X143620526Y-127102000D01*
X143709420Y-127020997D01*
X143871969Y-126800594D01*
X143988396Y-126552714D01*
X144026020Y-126428670D01*
X143903520Y-126212600D01*
X142798800Y-126212600D01*
X142798800Y-126232600D01*
X142544800Y-126232600D01*
X142544800Y-126212600D01*
X142524800Y-126212600D01*
X142524800Y-125958600D01*
X142544800Y-125958600D01*
X142544800Y-124853130D01*
X142798800Y-124853130D01*
X142798800Y-125958600D01*
X143903520Y-125958600D01*
X144026020Y-125742530D01*
X147819980Y-125742530D01*
X147942480Y-125958600D01*
X149047200Y-125958600D01*
X149047200Y-124853130D01*
X149301200Y-124853130D01*
X149301200Y-125958600D01*
X150405920Y-125958600D01*
X150528420Y-125742530D01*
X150490796Y-125618486D01*
X150374369Y-125370606D01*
X150211820Y-125150203D01*
X150009396Y-124965747D01*
X149774875Y-124824326D01*
X149517271Y-124731375D01*
X149301200Y-124853130D01*
X149047200Y-124853130D01*
X148831129Y-124731375D01*
X148573525Y-124824326D01*
X148339004Y-124965747D01*
X148136580Y-125150203D01*
X147974031Y-125370606D01*
X147857604Y-125618486D01*
X147819980Y-125742530D01*
X144026020Y-125742530D01*
X143988396Y-125618486D01*
X143871969Y-125370606D01*
X143709420Y-125150203D01*
X143506996Y-124965747D01*
X143272475Y-124824326D01*
X143014871Y-124731375D01*
X142798800Y-124853130D01*
X142544800Y-124853130D01*
X142328729Y-124731375D01*
X142071125Y-124824326D01*
X141836604Y-124965747D01*
X141634180Y-125150203D01*
X141630000Y-125155871D01*
X141630000Y-122498255D01*
X141781265Y-122649520D01*
X142010073Y-122802405D01*
X142264310Y-122907714D01*
X142534208Y-122961400D01*
X142809392Y-122961400D01*
X143079290Y-122907714D01*
X143333527Y-122802405D01*
X143562335Y-122649520D01*
X143756920Y-122454935D01*
X143909805Y-122226127D01*
X144015114Y-121971890D01*
X144068800Y-121701992D01*
X144068800Y-121426808D01*
X144015114Y-121156910D01*
X143909805Y-120902673D01*
X143756920Y-120673865D01*
X143562335Y-120479280D01*
X143333527Y-120326395D01*
X143079290Y-120221086D01*
X142809392Y-120167400D01*
X142534208Y-120167400D01*
X142264310Y-120221086D01*
X142010073Y-120326395D01*
X141781265Y-120479280D01*
X141630000Y-120630545D01*
X141630000Y-117188581D01*
X141627259Y-117160755D01*
X141627275Y-117158518D01*
X141626375Y-117149347D01*
X141622578Y-117113220D01*
X141620450Y-117091617D01*
X141620231Y-117090896D01*
X141618602Y-117075396D01*
X141606577Y-117016819D01*
X141595366Y-116958044D01*
X141592702Y-116949222D01*
X141570714Y-116878190D01*
X141547536Y-116823052D01*
X141525123Y-116767578D01*
X141520796Y-116759441D01*
X141485429Y-116694033D01*
X141452006Y-116644482D01*
X141419230Y-116594393D01*
X141413405Y-116587252D01*
X141366008Y-116529958D01*
X141323553Y-116487798D01*
X141281706Y-116445065D01*
X141274605Y-116439191D01*
X141216981Y-116392194D01*
X141167191Y-116359114D01*
X141117801Y-116325295D01*
X141109694Y-116320912D01*
X141044040Y-116286003D01*
X140988748Y-116263214D01*
X140933752Y-116239642D01*
X140924949Y-116236917D01*
X140853764Y-116215425D01*
X140795093Y-116203808D01*
X140736572Y-116191369D01*
X140727407Y-116190406D01*
X140653404Y-116183150D01*
X140653402Y-116183150D01*
X140621419Y-116180000D01*
X136550000Y-116180000D01*
X136550000Y-114513353D01*
X136774446Y-114737799D01*
X137134551Y-114978414D01*
X137534679Y-115144152D01*
X137959452Y-115228645D01*
X138392548Y-115228645D01*
X138787921Y-115150000D01*
X142021928Y-115150000D01*
X142034188Y-115274482D01*
X142070498Y-115394180D01*
X142129463Y-115504494D01*
X142208815Y-115601185D01*
X142305506Y-115680537D01*
X142415820Y-115739502D01*
X142535518Y-115775812D01*
X142660000Y-115788072D01*
X143224250Y-115785000D01*
X143383000Y-115626250D01*
X143383000Y-114427000D01*
X142183750Y-114427000D01*
X142025000Y-114585750D01*
X142021928Y-115150000D01*
X138787921Y-115150000D01*
X138817321Y-115144152D01*
X139217449Y-114978414D01*
X139577554Y-114737799D01*
X139883799Y-114431554D01*
X140124414Y-114071449D01*
X140290152Y-113671321D01*
X140334175Y-113450000D01*
X142021928Y-113450000D01*
X142025000Y-114014250D01*
X142183750Y-114173000D01*
X143383000Y-114173000D01*
X143383000Y-114153000D01*
X143637000Y-114153000D01*
X143637000Y-114173000D01*
X143657000Y-114173000D01*
X143657000Y-114427000D01*
X143637000Y-114427000D01*
X143637000Y-115626250D01*
X143795750Y-115785000D01*
X144360000Y-115788072D01*
X144484482Y-115775812D01*
X144604180Y-115739502D01*
X144714494Y-115680537D01*
X144811185Y-115601185D01*
X144890537Y-115504494D01*
X144949502Y-115394180D01*
X144971513Y-115321620D01*
X145103368Y-115453475D01*
X145346589Y-115615990D01*
X145616842Y-115727932D01*
X145903740Y-115785000D01*
X146196260Y-115785000D01*
X146465001Y-115731544D01*
X146465001Y-116726928D01*
X146121499Y-116726928D01*
X145948245Y-116743992D01*
X145781649Y-116794528D01*
X145628113Y-116876595D01*
X145493538Y-116987038D01*
X145383095Y-117121613D01*
X145301028Y-117275149D01*
X145250492Y-117441745D01*
X145233428Y-117614999D01*
X145233428Y-118515001D01*
X145250492Y-118688255D01*
X145301028Y-118854851D01*
X145383095Y-119008387D01*
X145493538Y-119142962D01*
X145628113Y-119253405D01*
X145781649Y-119335472D01*
X145858396Y-119358753D01*
X147801962Y-121302319D01*
X147777200Y-121426808D01*
X147777200Y-121701992D01*
X147830886Y-121971890D01*
X147936195Y-122226127D01*
X148089080Y-122454935D01*
X148283665Y-122649520D01*
X148512473Y-122802405D01*
X148766710Y-122907714D01*
X149036608Y-122961400D01*
X149311792Y-122961400D01*
X149581690Y-122907714D01*
X149835927Y-122802405D01*
X150064735Y-122649520D01*
X150259320Y-122454935D01*
X150412205Y-122226127D01*
X150517514Y-121971890D01*
X150571200Y-121701992D01*
X150571200Y-121426808D01*
X150517514Y-121156910D01*
X150412205Y-120902673D01*
X150259320Y-120673865D01*
X150064735Y-120479280D01*
X149835927Y-120326395D01*
X149581690Y-120221086D01*
X149311792Y-120167400D01*
X149036608Y-120167400D01*
X148912119Y-120192162D01*
X148123029Y-119403072D01*
X148471501Y-119403072D01*
X148644755Y-119386008D01*
X148811351Y-119335472D01*
X148964887Y-119253405D01*
X149099462Y-119142962D01*
X149209905Y-119008387D01*
X149291972Y-118854851D01*
X149292393Y-118853463D01*
X149327555Y-118850000D01*
X149327563Y-118850000D01*
X149442889Y-118838641D01*
X149590862Y-118793754D01*
X149727235Y-118720862D01*
X149846766Y-118622764D01*
X149853544Y-118614505D01*
X149852428Y-118765000D01*
X149864688Y-118889482D01*
X149900998Y-119009180D01*
X149959963Y-119119494D01*
X150039315Y-119216185D01*
X150136006Y-119295537D01*
X150246320Y-119354502D01*
X150366018Y-119390812D01*
X150490500Y-119403072D01*
X150717250Y-119400000D01*
X150876000Y-119241250D01*
X150876000Y-118192000D01*
X150856000Y-118192000D01*
X150856000Y-117938000D01*
X150876000Y-117938000D01*
X150876000Y-117918000D01*
X151130000Y-117918000D01*
X151130000Y-117938000D01*
X151150000Y-117938000D01*
X151150000Y-118192000D01*
X151130000Y-118192000D01*
X151130000Y-119241250D01*
X151288750Y-119400000D01*
X151515500Y-119403072D01*
X151639982Y-119390812D01*
X151759680Y-119354502D01*
X151869994Y-119295537D01*
X151966685Y-119216185D01*
X151990863Y-119186724D01*
X152043001Y-119229513D01*
X152043000Y-120561413D01*
X152039203Y-120599966D01*
X152043000Y-120638519D01*
X152043000Y-120638526D01*
X152054359Y-120753852D01*
X152099246Y-120901825D01*
X152172138Y-121038198D01*
X152270236Y-121157730D01*
X152300190Y-121182313D01*
X155270477Y-124152601D01*
X155252589Y-124160010D01*
X155009368Y-124322525D01*
X154802525Y-124529368D01*
X154686000Y-124703760D01*
X154569475Y-124529368D01*
X154362632Y-124322525D01*
X154119411Y-124160010D01*
X153849158Y-124048068D01*
X153562260Y-123991000D01*
X153269740Y-123991000D01*
X152982842Y-124048068D01*
X152712589Y-124160010D01*
X152469368Y-124322525D01*
X152262525Y-124529368D01*
X152100010Y-124772589D01*
X151988068Y-125042842D01*
X151931000Y-125329740D01*
X151931000Y-125622260D01*
X151988068Y-125909158D01*
X152100010Y-126179411D01*
X152262525Y-126422632D01*
X152469368Y-126629475D01*
X152712589Y-126791990D01*
X152982842Y-126903932D01*
X153269740Y-126961000D01*
X153562260Y-126961000D01*
X153849158Y-126903932D01*
X154119411Y-126791990D01*
X154362632Y-126629475D01*
X154569475Y-126422632D01*
X154686000Y-126248240D01*
X154802525Y-126422632D01*
X155009368Y-126629475D01*
X155252589Y-126791990D01*
X155522842Y-126903932D01*
X155809740Y-126961000D01*
X156102260Y-126961000D01*
X156389158Y-126903932D01*
X156659411Y-126791990D01*
X156902632Y-126629475D01*
X157109475Y-126422632D01*
X157226000Y-126248240D01*
X157342525Y-126422632D01*
X157549368Y-126629475D01*
X157792589Y-126791990D01*
X158062842Y-126903932D01*
X158349740Y-126961000D01*
X158642260Y-126961000D01*
X158929158Y-126903932D01*
X159199411Y-126791990D01*
X159442632Y-126629475D01*
X159574487Y-126497620D01*
X159596498Y-126570180D01*
X159655463Y-126680494D01*
X159734815Y-126777185D01*
X159831506Y-126856537D01*
X159941820Y-126915502D01*
X160061518Y-126951812D01*
X160186000Y-126964072D01*
X160750250Y-126961000D01*
X160909000Y-126802250D01*
X160909000Y-125603000D01*
X161163000Y-125603000D01*
X161163000Y-126802250D01*
X161321750Y-126961000D01*
X161886000Y-126964072D01*
X162010482Y-126951812D01*
X162130180Y-126915502D01*
X162240494Y-126856537D01*
X162337185Y-126777185D01*
X162416537Y-126680494D01*
X162475502Y-126570180D01*
X162511812Y-126450482D01*
X162524072Y-126326000D01*
X162521000Y-125761750D01*
X162362250Y-125603000D01*
X161163000Y-125603000D01*
X160909000Y-125603000D01*
X160889000Y-125603000D01*
X160889000Y-125349000D01*
X160909000Y-125349000D01*
X160909000Y-124149750D01*
X161163000Y-124149750D01*
X161163000Y-125349000D01*
X162362250Y-125349000D01*
X162521000Y-125190250D01*
X162524072Y-124626000D01*
X162511812Y-124501518D01*
X162475502Y-124381820D01*
X162416537Y-124271506D01*
X162337185Y-124174815D01*
X162240494Y-124095463D01*
X162130180Y-124036498D01*
X162010482Y-124000188D01*
X161886000Y-123987928D01*
X161321750Y-123991000D01*
X161163000Y-124149750D01*
X160909000Y-124149750D01*
X160750250Y-123991000D01*
X160186000Y-123987928D01*
X160061518Y-124000188D01*
X159941820Y-124036498D01*
X159831506Y-124095463D01*
X159734815Y-124174815D01*
X159655463Y-124271506D01*
X159596498Y-124381820D01*
X159574487Y-124454380D01*
X159442632Y-124322525D01*
X159199411Y-124160010D01*
X158929158Y-124048068D01*
X158642260Y-123991000D01*
X158349740Y-123991000D01*
X158062842Y-124048068D01*
X157792589Y-124160010D01*
X157616117Y-124277925D01*
X156135539Y-122797347D01*
X156181180Y-122783502D01*
X156291494Y-122724537D01*
X156388185Y-122645185D01*
X156412363Y-122615724D01*
X156493613Y-122682405D01*
X156647149Y-122764472D01*
X156813745Y-122815008D01*
X156986999Y-122832072D01*
X157512001Y-122832072D01*
X157685255Y-122815008D01*
X157851851Y-122764472D01*
X158005387Y-122682405D01*
X158139962Y-122571962D01*
X158250405Y-122437387D01*
X158332472Y-122283851D01*
X158333944Y-122279000D01*
X158859760Y-122279000D01*
X158876053Y-122332709D01*
X158957542Y-122485164D01*
X159067208Y-122618792D01*
X159200836Y-122728458D01*
X159353291Y-122809947D01*
X159518715Y-122860128D01*
X159690750Y-122877072D01*
X160178250Y-122877072D01*
X160350285Y-122860128D01*
X160515709Y-122809947D01*
X160668164Y-122728458D01*
X160801792Y-122618792D01*
X160872000Y-122533244D01*
X160942208Y-122618792D01*
X161075836Y-122728458D01*
X161228291Y-122809947D01*
X161393715Y-122860128D01*
X161565750Y-122877072D01*
X162053250Y-122877072D01*
X162225285Y-122860128D01*
X162390709Y-122809947D01*
X162543164Y-122728458D01*
X162676792Y-122618792D01*
X162786458Y-122485164D01*
X162867947Y-122332709D01*
X162918128Y-122167285D01*
X162935072Y-121995250D01*
X162935072Y-121082750D01*
X162918128Y-120910715D01*
X162867947Y-120745291D01*
X162786458Y-120592836D01*
X162687669Y-120472462D01*
X162803824Y-120298624D01*
X162833983Y-120225814D01*
X162846361Y-120210731D01*
X162919253Y-120074359D01*
X162964141Y-119926386D01*
X162979297Y-119772499D01*
X162964141Y-119618613D01*
X162919253Y-119470641D01*
X162861452Y-119362501D01*
X162803824Y-119223376D01*
X162734444Y-119119542D01*
X162786458Y-119056164D01*
X162867947Y-118903709D01*
X162918128Y-118738285D01*
X162935072Y-118566250D01*
X162935072Y-118359712D01*
X162964141Y-118263887D01*
X162979297Y-118110001D01*
X162964141Y-117956114D01*
X162935072Y-117860288D01*
X162935072Y-117653750D01*
X162918128Y-117481715D01*
X162867947Y-117316291D01*
X162786458Y-117163836D01*
X162676792Y-117030208D01*
X162543164Y-116920542D01*
X162390709Y-116839053D01*
X162225285Y-116788872D01*
X162053250Y-116771928D01*
X161565750Y-116771928D01*
X161393715Y-116788872D01*
X161228291Y-116839053D01*
X161075836Y-116920542D01*
X160942208Y-117030208D01*
X160872000Y-117115756D01*
X160801792Y-117030208D01*
X160668164Y-116920542D01*
X160515709Y-116839053D01*
X160350285Y-116788872D01*
X160178250Y-116771928D01*
X159690750Y-116771928D01*
X159518715Y-116788872D01*
X159353291Y-116839053D01*
X159200836Y-116920542D01*
X159067208Y-117030208D01*
X158957542Y-117163836D01*
X158895451Y-117280000D01*
X158333944Y-117280000D01*
X158332472Y-117275149D01*
X158250405Y-117121613D01*
X158139962Y-116987038D01*
X158005387Y-116876595D01*
X157851851Y-116794528D01*
X157816004Y-116783654D01*
X157937818Y-116661840D01*
X157967765Y-116637263D01*
X157992406Y-116607239D01*
X158028735Y-116562972D01*
X158065863Y-116517732D01*
X158138755Y-116381359D01*
X158175072Y-116261638D01*
X158183642Y-116233387D01*
X158187875Y-116190406D01*
X158195001Y-116118060D01*
X158195001Y-116118053D01*
X158198798Y-116079500D01*
X158195001Y-116040947D01*
X158195001Y-115677464D01*
X158316842Y-115727932D01*
X158603740Y-115785000D01*
X158896260Y-115785000D01*
X159183158Y-115727932D01*
X159453411Y-115615990D01*
X159696632Y-115453475D01*
X159903475Y-115246632D01*
X160020000Y-115072240D01*
X160136525Y-115246632D01*
X160343368Y-115453475D01*
X160586589Y-115615990D01*
X160856842Y-115727932D01*
X161143740Y-115785000D01*
X161436260Y-115785000D01*
X161723158Y-115727932D01*
X161993411Y-115615990D01*
X162236632Y-115453475D01*
X162443475Y-115246632D01*
X162605990Y-115003411D01*
X162717932Y-114733158D01*
X162775000Y-114446260D01*
X162775000Y-114153740D01*
X162717932Y-113866842D01*
X162605990Y-113596589D01*
X162443475Y-113353368D01*
X162236632Y-113146525D01*
X162062240Y-113030000D01*
X162236632Y-112913475D01*
X162443475Y-112706632D01*
X162605990Y-112463411D01*
X162717932Y-112193158D01*
X162775000Y-111906260D01*
X162775000Y-111613740D01*
X162717932Y-111326842D01*
X162605990Y-111056589D01*
X162443475Y-110813368D01*
X162236632Y-110606525D01*
X161993411Y-110444010D01*
X161723158Y-110332068D01*
X161436260Y-110275000D01*
X161143740Y-110275000D01*
X160856842Y-110332068D01*
X160586589Y-110444010D01*
X160343368Y-110606525D01*
X160136525Y-110813368D01*
X160020000Y-110987760D01*
X159903475Y-110813368D01*
X159696632Y-110606525D01*
X159453411Y-110444010D01*
X159183158Y-110332068D01*
X158896260Y-110275000D01*
X158603740Y-110275000D01*
X158316842Y-110332068D01*
X158046589Y-110444010D01*
X157803368Y-110606525D01*
X157596525Y-110813368D01*
X157480000Y-110987760D01*
X157363475Y-110813368D01*
X157156632Y-110606525D01*
X156913411Y-110444010D01*
X156643158Y-110332068D01*
X156356260Y-110275000D01*
X156063740Y-110275000D01*
X155776842Y-110332068D01*
X155506589Y-110444010D01*
X155263368Y-110606525D01*
X155056525Y-110813368D01*
X154940000Y-110987760D01*
X154823475Y-110813368D01*
X154616632Y-110606525D01*
X154373411Y-110444010D01*
X154103158Y-110332068D01*
X153816260Y-110275000D01*
X153523740Y-110275000D01*
X153236842Y-110332068D01*
X152966589Y-110444010D01*
X152723368Y-110606525D01*
X152516525Y-110813368D01*
X152400000Y-110987760D01*
X152283475Y-110813368D01*
X152076632Y-110606525D01*
X151833411Y-110444010D01*
X151563158Y-110332068D01*
X151276260Y-110275000D01*
X150983740Y-110275000D01*
X150696842Y-110332068D01*
X150426589Y-110444010D01*
X150183368Y-110606525D01*
X149976525Y-110813368D01*
X149860000Y-110987760D01*
X149743475Y-110813368D01*
X149536632Y-110606525D01*
X149293411Y-110444010D01*
X149023158Y-110332068D01*
X148736260Y-110275000D01*
X148443740Y-110275000D01*
X148156842Y-110332068D01*
X147886589Y-110444010D01*
X147643368Y-110606525D01*
X147436525Y-110813368D01*
X147320000Y-110987760D01*
X147203475Y-110813368D01*
X146996632Y-110606525D01*
X146753411Y-110444010D01*
X146483158Y-110332068D01*
X146196260Y-110275000D01*
X145903740Y-110275000D01*
X145616842Y-110332068D01*
X145346589Y-110444010D01*
X145103368Y-110606525D01*
X144896525Y-110813368D01*
X144780000Y-110987760D01*
X144663475Y-110813368D01*
X144456632Y-110606525D01*
X144213411Y-110444010D01*
X143943158Y-110332068D01*
X143656260Y-110275000D01*
X143363740Y-110275000D01*
X143076842Y-110332068D01*
X142806589Y-110444010D01*
X142563368Y-110606525D01*
X142356525Y-110813368D01*
X142194010Y-111056589D01*
X142082068Y-111326842D01*
X142025000Y-111613740D01*
X142025000Y-111906260D01*
X142082068Y-112193158D01*
X142194010Y-112463411D01*
X142356525Y-112706632D01*
X142488380Y-112838487D01*
X142415820Y-112860498D01*
X142305506Y-112919463D01*
X142208815Y-112998815D01*
X142129463Y-113095506D01*
X142070498Y-113205820D01*
X142034188Y-113325518D01*
X142021928Y-113450000D01*
X140334175Y-113450000D01*
X140374645Y-113246548D01*
X140374645Y-112813452D01*
X140290152Y-112388679D01*
X140124414Y-111988551D01*
X139883799Y-111628446D01*
X139577554Y-111322201D01*
X139217449Y-111081586D01*
X138817321Y-110915848D01*
X138392548Y-110831355D01*
X137959452Y-110831355D01*
X137534679Y-110915848D01*
X137134551Y-111081586D01*
X136774446Y-111322201D01*
X136550000Y-111546647D01*
X136550000Y-109880000D01*
X163170000Y-109880000D01*
X163170001Y-127102000D01*
G37*
G04 #@! TD.AperFunction*
D15*
X154290992Y-117441745D02*
X154273928Y-117614999D01*
X154273928Y-118515001D01*
X154290992Y-118688255D01*
X154341528Y-118854851D01*
X154423595Y-119008387D01*
X154534038Y-119142962D01*
X154668613Y-119253405D01*
X154822149Y-119335472D01*
X154988745Y-119386008D01*
X155161999Y-119403072D01*
X155687001Y-119403072D01*
X155860255Y-119386008D01*
X156026851Y-119335472D01*
X156180387Y-119253405D01*
X156314962Y-119142962D01*
X156337000Y-119116109D01*
X156359038Y-119142962D01*
X156493613Y-119253405D01*
X156647149Y-119335472D01*
X156813745Y-119386008D01*
X156986999Y-119403072D01*
X157512001Y-119403072D01*
X157685255Y-119386008D01*
X157851851Y-119335472D01*
X158005387Y-119253405D01*
X158139962Y-119142962D01*
X158250405Y-119008387D01*
X158332472Y-118854851D01*
X158333944Y-118850000D01*
X158859760Y-118850000D01*
X158876053Y-118903709D01*
X158957542Y-119056164D01*
X159067208Y-119189792D01*
X159200836Y-119299458D01*
X159353291Y-119380947D01*
X159518715Y-119431128D01*
X159690750Y-119448072D01*
X160178250Y-119448072D01*
X160350285Y-119431128D01*
X160515709Y-119380947D01*
X160668164Y-119299458D01*
X160801792Y-119189792D01*
X160870805Y-119105700D01*
X160792176Y-119223376D01*
X160706617Y-119429933D01*
X160663000Y-119649212D01*
X160663000Y-119872788D01*
X160706617Y-120092067D01*
X160792176Y-120298624D01*
X160916388Y-120484520D01*
X160919160Y-120487292D01*
X160872000Y-120544756D01*
X160801792Y-120459208D01*
X160668164Y-120349542D01*
X160515709Y-120268053D01*
X160350285Y-120217872D01*
X160178250Y-120200928D01*
X159690750Y-120200928D01*
X159518715Y-120217872D01*
X159353291Y-120268053D01*
X159200836Y-120349542D01*
X159067208Y-120459208D01*
X158957542Y-120592836D01*
X158895451Y-120709000D01*
X158333944Y-120709000D01*
X158332472Y-120704149D01*
X158250405Y-120550613D01*
X158139962Y-120416038D01*
X158005387Y-120305595D01*
X157851851Y-120223528D01*
X157685255Y-120172992D01*
X157512001Y-120155928D01*
X156986999Y-120155928D01*
X156813745Y-120172992D01*
X156647149Y-120223528D01*
X156493613Y-120305595D01*
X156412363Y-120372276D01*
X156388185Y-120342815D01*
X156291494Y-120263463D01*
X156181180Y-120204498D01*
X156061482Y-120168188D01*
X155937000Y-120155928D01*
X155710250Y-120159000D01*
X155551500Y-120317750D01*
X155551500Y-121367000D01*
X155571500Y-121367000D01*
X155571500Y-121621000D01*
X155551500Y-121621000D01*
X155551500Y-121641000D01*
X155297500Y-121641000D01*
X155297500Y-121621000D01*
X155277500Y-121621000D01*
X155277500Y-121367000D01*
X155297500Y-121367000D01*
X155297500Y-120317750D01*
X155138750Y-120159000D01*
X154912000Y-120155928D01*
X154787518Y-120168188D01*
X154667820Y-120204498D01*
X154557506Y-120263463D01*
X154460815Y-120342815D01*
X154381463Y-120439506D01*
X154322498Y-120549820D01*
X154286188Y-120669518D01*
X154273928Y-120794000D01*
X154274987Y-120936796D01*
X153613000Y-120274809D01*
X153613000Y-119229513D01*
X153718462Y-119142962D01*
X153828905Y-119008387D01*
X153910972Y-118854851D01*
X153961508Y-118688255D01*
X153978572Y-118515001D01*
X153978572Y-117641585D01*
X154340013Y-117280145D01*
X154290992Y-117441745D01*
G04 #@! TA.AperFunction,Conductor*
D16*
G36*
X154290992Y-117441745D02*
G01*
X154273928Y-117614999D01*
X154273928Y-118515001D01*
X154290992Y-118688255D01*
X154341528Y-118854851D01*
X154423595Y-119008387D01*
X154534038Y-119142962D01*
X154668613Y-119253405D01*
X154822149Y-119335472D01*
X154988745Y-119386008D01*
X155161999Y-119403072D01*
X155687001Y-119403072D01*
X155860255Y-119386008D01*
X156026851Y-119335472D01*
X156180387Y-119253405D01*
X156314962Y-119142962D01*
X156337000Y-119116109D01*
X156359038Y-119142962D01*
X156493613Y-119253405D01*
X156647149Y-119335472D01*
X156813745Y-119386008D01*
X156986999Y-119403072D01*
X157512001Y-119403072D01*
X157685255Y-119386008D01*
X157851851Y-119335472D01*
X158005387Y-119253405D01*
X158139962Y-119142962D01*
X158250405Y-119008387D01*
X158332472Y-118854851D01*
X158333944Y-118850000D01*
X158859760Y-118850000D01*
X158876053Y-118903709D01*
X158957542Y-119056164D01*
X159067208Y-119189792D01*
X159200836Y-119299458D01*
X159353291Y-119380947D01*
X159518715Y-119431128D01*
X159690750Y-119448072D01*
X160178250Y-119448072D01*
X160350285Y-119431128D01*
X160515709Y-119380947D01*
X160668164Y-119299458D01*
X160801792Y-119189792D01*
X160870805Y-119105700D01*
X160792176Y-119223376D01*
X160706617Y-119429933D01*
X160663000Y-119649212D01*
X160663000Y-119872788D01*
X160706617Y-120092067D01*
X160792176Y-120298624D01*
X160916388Y-120484520D01*
X160919160Y-120487292D01*
X160872000Y-120544756D01*
X160801792Y-120459208D01*
X160668164Y-120349542D01*
X160515709Y-120268053D01*
X160350285Y-120217872D01*
X160178250Y-120200928D01*
X159690750Y-120200928D01*
X159518715Y-120217872D01*
X159353291Y-120268053D01*
X159200836Y-120349542D01*
X159067208Y-120459208D01*
X158957542Y-120592836D01*
X158895451Y-120709000D01*
X158333944Y-120709000D01*
X158332472Y-120704149D01*
X158250405Y-120550613D01*
X158139962Y-120416038D01*
X158005387Y-120305595D01*
X157851851Y-120223528D01*
X157685255Y-120172992D01*
X157512001Y-120155928D01*
X156986999Y-120155928D01*
X156813745Y-120172992D01*
X156647149Y-120223528D01*
X156493613Y-120305595D01*
X156412363Y-120372276D01*
X156388185Y-120342815D01*
X156291494Y-120263463D01*
X156181180Y-120204498D01*
X156061482Y-120168188D01*
X155937000Y-120155928D01*
X155710250Y-120159000D01*
X155551500Y-120317750D01*
X155551500Y-121367000D01*
X155571500Y-121367000D01*
X155571500Y-121621000D01*
X155551500Y-121621000D01*
X155551500Y-121641000D01*
X155297500Y-121641000D01*
X155297500Y-121621000D01*
X155277500Y-121621000D01*
X155277500Y-121367000D01*
X155297500Y-121367000D01*
X155297500Y-120317750D01*
X155138750Y-120159000D01*
X154912000Y-120155928D01*
X154787518Y-120168188D01*
X154667820Y-120204498D01*
X154557506Y-120263463D01*
X154460815Y-120342815D01*
X154381463Y-120439506D01*
X154322498Y-120549820D01*
X154286188Y-120669518D01*
X154273928Y-120794000D01*
X154274987Y-120936796D01*
X153613000Y-120274809D01*
X153613000Y-119229513D01*
X153718462Y-119142962D01*
X153828905Y-119008387D01*
X153910972Y-118854851D01*
X153961508Y-118688255D01*
X153978572Y-118515001D01*
X153978572Y-117641585D01*
X154340013Y-117280145D01*
X154290992Y-117441745D01*
G37*
G04 #@! TD.AperFunction*
G04 #@! TD*
M02*
