G04 #@! TF.GenerationSoftware,KiCad,Pcbnew,(5.1.9)-1*
G04 #@! TF.CreationDate,2021-01-19T23:29:13-08:00*
G04 #@! TF.ProjectId,RPI_FS_HAT_REV1,5250495f-4653-45f4-9841-545f52455631,1*
G04 #@! TF.SameCoordinates,Original*
G04 #@! TF.FileFunction,Legend,Bot*
G04 #@! TF.FilePolarity,Positive*
%FSLAX46Y46*%
G04 Gerber Fmt 4.6, Leading zero omitted, Abs format (unit mm)*
G04 Created by KiCad (PCBNEW (5.1.9)-1) date 2021-01-19 23:29:13*
%MOMM*%
%LPD*%
G01*
G04 APERTURE LIST*
%ADD10C,0.150000*%
%ADD11C,0.010000*%
G04 APERTURE END LIST*
D10*
X149195833Y-123414666D02*
X149429166Y-123081333D01*
X149595833Y-123414666D02*
X149595833Y-122714666D01*
X149329166Y-122714666D01*
X149262500Y-122748000D01*
X149229166Y-122781333D01*
X149195833Y-122848000D01*
X149195833Y-122948000D01*
X149229166Y-123014666D01*
X149262500Y-123048000D01*
X149329166Y-123081333D01*
X149595833Y-123081333D01*
X148595833Y-123414666D02*
X148595833Y-123048000D01*
X148629166Y-122981333D01*
X148695833Y-122948000D01*
X148829166Y-122948000D01*
X148895833Y-122981333D01*
X148595833Y-123381333D02*
X148662500Y-123414666D01*
X148829166Y-123414666D01*
X148895833Y-123381333D01*
X148929166Y-123314666D01*
X148929166Y-123248000D01*
X148895833Y-123181333D01*
X148829166Y-123148000D01*
X148662500Y-123148000D01*
X148595833Y-123114666D01*
X148295833Y-123381333D02*
X148229166Y-123414666D01*
X148095833Y-123414666D01*
X148029166Y-123381333D01*
X147995833Y-123314666D01*
X147995833Y-123281333D01*
X148029166Y-123214666D01*
X148095833Y-123181333D01*
X148195833Y-123181333D01*
X148262500Y-123148000D01*
X148295833Y-123081333D01*
X148295833Y-123048000D01*
X148262500Y-122981333D01*
X148195833Y-122948000D01*
X148095833Y-122948000D01*
X148029166Y-122981333D01*
X147695833Y-122948000D02*
X147695833Y-123648000D01*
X147695833Y-122981333D02*
X147629166Y-122948000D01*
X147495833Y-122948000D01*
X147429166Y-122981333D01*
X147395833Y-123014666D01*
X147362500Y-123081333D01*
X147362500Y-123281333D01*
X147395833Y-123348000D01*
X147429166Y-123381333D01*
X147495833Y-123414666D01*
X147629166Y-123414666D01*
X147695833Y-123381333D01*
X147062500Y-123414666D02*
X147062500Y-122714666D01*
X147062500Y-122981333D02*
X146995833Y-122948000D01*
X146862500Y-122948000D01*
X146795833Y-122981333D01*
X146762500Y-123014666D01*
X146729166Y-123081333D01*
X146729166Y-123281333D01*
X146762500Y-123348000D01*
X146795833Y-123381333D01*
X146862500Y-123414666D01*
X146995833Y-123414666D01*
X147062500Y-123381333D01*
X146162500Y-123381333D02*
X146229166Y-123414666D01*
X146362500Y-123414666D01*
X146429166Y-123381333D01*
X146462500Y-123314666D01*
X146462500Y-123048000D01*
X146429166Y-122981333D01*
X146362500Y-122948000D01*
X146229166Y-122948000D01*
X146162500Y-122981333D01*
X146129166Y-123048000D01*
X146129166Y-123114666D01*
X146462500Y-123181333D01*
X145829166Y-123414666D02*
X145829166Y-122948000D01*
X145829166Y-123081333D02*
X145795833Y-123014666D01*
X145762500Y-122981333D01*
X145695833Y-122948000D01*
X145629166Y-122948000D01*
X145395833Y-123414666D02*
X145395833Y-122948000D01*
X145395833Y-123081333D02*
X145362500Y-123014666D01*
X145329166Y-122981333D01*
X145262500Y-122948000D01*
X145195833Y-122948000D01*
X145029166Y-122948000D02*
X144862500Y-123414666D01*
X144695833Y-122948000D02*
X144862500Y-123414666D01*
X144929166Y-123581333D01*
X144962500Y-123614666D01*
X145029166Y-123648000D01*
X143895833Y-123414666D02*
X143895833Y-122714666D01*
X143629166Y-122714666D01*
X143562500Y-122748000D01*
X143529166Y-122781333D01*
X143495833Y-122848000D01*
X143495833Y-122948000D01*
X143529166Y-123014666D01*
X143562500Y-123048000D01*
X143629166Y-123081333D01*
X143895833Y-123081333D01*
X143195833Y-123414666D02*
X143195833Y-122948000D01*
X143195833Y-122714666D02*
X143229166Y-122748000D01*
X143195833Y-122781333D01*
X143162500Y-122748000D01*
X143195833Y-122714666D01*
X143195833Y-122781333D01*
X149362500Y-124248000D02*
X149595833Y-124248000D01*
X149595833Y-124614666D02*
X149595833Y-123914666D01*
X149262500Y-123914666D01*
X148695833Y-124148000D02*
X148695833Y-124614666D01*
X148995833Y-124148000D02*
X148995833Y-124514666D01*
X148962500Y-124581333D01*
X148895833Y-124614666D01*
X148795833Y-124614666D01*
X148729166Y-124581333D01*
X148695833Y-124548000D01*
X148262500Y-124614666D02*
X148329166Y-124581333D01*
X148362500Y-124514666D01*
X148362500Y-123914666D01*
X147895833Y-124614666D02*
X147962500Y-124581333D01*
X147995833Y-124514666D01*
X147995833Y-123914666D01*
X147129166Y-124581333D02*
X147029166Y-124614666D01*
X146862500Y-124614666D01*
X146795833Y-124581333D01*
X146762500Y-124548000D01*
X146729166Y-124481333D01*
X146729166Y-124414666D01*
X146762500Y-124348000D01*
X146795833Y-124314666D01*
X146862500Y-124281333D01*
X146995833Y-124248000D01*
X147062500Y-124214666D01*
X147095833Y-124181333D01*
X147129166Y-124114666D01*
X147129166Y-124048000D01*
X147095833Y-123981333D01*
X147062500Y-123948000D01*
X146995833Y-123914666D01*
X146829166Y-123914666D01*
X146729166Y-123948000D01*
X146529166Y-124148000D02*
X146262500Y-124148000D01*
X146429166Y-123914666D02*
X146429166Y-124514666D01*
X146395833Y-124581333D01*
X146329166Y-124614666D01*
X146262500Y-124614666D01*
X145729166Y-124614666D02*
X145729166Y-124248000D01*
X145762500Y-124181333D01*
X145829166Y-124148000D01*
X145962500Y-124148000D01*
X146029166Y-124181333D01*
X145729166Y-124581333D02*
X145795833Y-124614666D01*
X145962500Y-124614666D01*
X146029166Y-124581333D01*
X146062500Y-124514666D01*
X146062500Y-124448000D01*
X146029166Y-124381333D01*
X145962500Y-124348000D01*
X145795833Y-124348000D01*
X145729166Y-124314666D01*
X145095833Y-124581333D02*
X145162500Y-124614666D01*
X145295833Y-124614666D01*
X145362500Y-124581333D01*
X145395833Y-124548000D01*
X145429166Y-124481333D01*
X145429166Y-124281333D01*
X145395833Y-124214666D01*
X145362500Y-124181333D01*
X145295833Y-124148000D01*
X145162500Y-124148000D01*
X145095833Y-124181333D01*
X144795833Y-124614666D02*
X144795833Y-123914666D01*
X144729166Y-124348000D02*
X144529166Y-124614666D01*
X144529166Y-124148000D02*
X144795833Y-124414666D01*
X143695833Y-124614666D02*
X143695833Y-123914666D01*
X143695833Y-124248000D02*
X143295833Y-124248000D01*
X143295833Y-124614666D02*
X143295833Y-123914666D01*
X142995833Y-124414666D02*
X142662500Y-124414666D01*
X143062500Y-124614666D02*
X142829166Y-123914666D01*
X142595833Y-124614666D01*
X142462500Y-123914666D02*
X142062500Y-123914666D01*
X142262500Y-124614666D02*
X142262500Y-123914666D01*
D11*
G04 #@! TO.C,REF\u002A\u002A*
G36*
X150901400Y-116107054D02*
G01*
X150890535Y-116220993D01*
X150858918Y-116328616D01*
X150808015Y-116427615D01*
X150739293Y-116515684D01*
X150654219Y-116590516D01*
X150557232Y-116648384D01*
X150450964Y-116688005D01*
X150343950Y-116706573D01*
X150238300Y-116705434D01*
X150136125Y-116685930D01*
X150039534Y-116649406D01*
X149950638Y-116597205D01*
X149871546Y-116530673D01*
X149804369Y-116451152D01*
X149751217Y-116359987D01*
X149714199Y-116258523D01*
X149695427Y-116148102D01*
X149693489Y-116098206D01*
X149693489Y-116010267D01*
X149641560Y-116010267D01*
X149605253Y-116013111D01*
X149578355Y-116024911D01*
X149551249Y-116048649D01*
X149512867Y-116087031D01*
X149512867Y-118278602D01*
X149512876Y-118540739D01*
X149512908Y-118781241D01*
X149512972Y-119001048D01*
X149513076Y-119201101D01*
X149513227Y-119382344D01*
X149513434Y-119545716D01*
X149513706Y-119692160D01*
X149514050Y-119822617D01*
X149514474Y-119938029D01*
X149514987Y-120039338D01*
X149515597Y-120127484D01*
X149516312Y-120203410D01*
X149517140Y-120268057D01*
X149518089Y-120322367D01*
X149519167Y-120367280D01*
X149520383Y-120403740D01*
X149521745Y-120432687D01*
X149523261Y-120455063D01*
X149524938Y-120471809D01*
X149526786Y-120483868D01*
X149528813Y-120492180D01*
X149531025Y-120497687D01*
X149532108Y-120499537D01*
X149536271Y-120506549D01*
X149539805Y-120512996D01*
X149543635Y-120518900D01*
X149548682Y-120524286D01*
X149555871Y-120529178D01*
X149566123Y-120533598D01*
X149580364Y-120537572D01*
X149599514Y-120541121D01*
X149624499Y-120544270D01*
X149656240Y-120547042D01*
X149695662Y-120549461D01*
X149743686Y-120551551D01*
X149801237Y-120553335D01*
X149869237Y-120554837D01*
X149948610Y-120556080D01*
X150040279Y-120557089D01*
X150145166Y-120557885D01*
X150264196Y-120558494D01*
X150398290Y-120558939D01*
X150548373Y-120559243D01*
X150715367Y-120559430D01*
X150900196Y-120559524D01*
X151103783Y-120559548D01*
X151327050Y-120559525D01*
X151570922Y-120559480D01*
X151836321Y-120559437D01*
X151874704Y-120559432D01*
X152141682Y-120559389D01*
X152387002Y-120559318D01*
X152611583Y-120559213D01*
X152816345Y-120559066D01*
X153002206Y-120558869D01*
X153170088Y-120558616D01*
X153320908Y-120558300D01*
X153455587Y-120557913D01*
X153575044Y-120557447D01*
X153680199Y-120556897D01*
X153771971Y-120556253D01*
X153851279Y-120555511D01*
X153919043Y-120554661D01*
X153976182Y-120553697D01*
X154023617Y-120552611D01*
X154062266Y-120551397D01*
X154093049Y-120550047D01*
X154116885Y-120548555D01*
X154134694Y-120546911D01*
X154147395Y-120545111D01*
X154155908Y-120543145D01*
X154160266Y-120541477D01*
X154168728Y-120537906D01*
X154176497Y-120535270D01*
X154183602Y-120532634D01*
X154190073Y-120529062D01*
X154195939Y-120523621D01*
X154201229Y-120515375D01*
X154205974Y-120503390D01*
X154210202Y-120486731D01*
X154213943Y-120464463D01*
X154217227Y-120435652D01*
X154220083Y-120399363D01*
X154222540Y-120354661D01*
X154224629Y-120300611D01*
X154226378Y-120236279D01*
X154227817Y-120160730D01*
X154228976Y-120073030D01*
X154229883Y-119972243D01*
X154230569Y-119857434D01*
X154231063Y-119727670D01*
X154231395Y-119582015D01*
X154231593Y-119419535D01*
X154231687Y-119239295D01*
X154231708Y-119040360D01*
X154231685Y-118821796D01*
X154231646Y-118582668D01*
X154231622Y-118322040D01*
X154231622Y-118279889D01*
X154231636Y-118016992D01*
X154231661Y-117775732D01*
X154231671Y-117555165D01*
X154231642Y-117354352D01*
X154231548Y-117172349D01*
X154231362Y-117008216D01*
X154231059Y-116861011D01*
X154230614Y-116729792D01*
X154230034Y-116619867D01*
X153927197Y-116619867D01*
X153887407Y-116677711D01*
X153876236Y-116693479D01*
X153866166Y-116707441D01*
X153857138Y-116720784D01*
X153849097Y-116734693D01*
X153841986Y-116750356D01*
X153835747Y-116768958D01*
X153830325Y-116791686D01*
X153825662Y-116819727D01*
X153821701Y-116854267D01*
X153818385Y-116896492D01*
X153815659Y-116947589D01*
X153813464Y-117008744D01*
X153811745Y-117081144D01*
X153810444Y-117165975D01*
X153809505Y-117264422D01*
X153808870Y-117377674D01*
X153808484Y-117506916D01*
X153808288Y-117653334D01*
X153808227Y-117818116D01*
X153808243Y-118002447D01*
X153808280Y-118207513D01*
X153808289Y-118330133D01*
X153808265Y-118547082D01*
X153808231Y-118742642D01*
X153808243Y-118917999D01*
X153808358Y-119074341D01*
X153808630Y-119212857D01*
X153809118Y-119334734D01*
X153809876Y-119441160D01*
X153810962Y-119533322D01*
X153812431Y-119612409D01*
X153814340Y-119679608D01*
X153816744Y-119736107D01*
X153819701Y-119783093D01*
X153823266Y-119821755D01*
X153827495Y-119853280D01*
X153832446Y-119878855D01*
X153838173Y-119899670D01*
X153844733Y-119916911D01*
X153852183Y-119931765D01*
X153860579Y-119945422D01*
X153869976Y-119959069D01*
X153880432Y-119973893D01*
X153886523Y-119982783D01*
X153925296Y-120040400D01*
X153393732Y-120040400D01*
X153270483Y-120040365D01*
X153167987Y-120040215D01*
X153084420Y-120039878D01*
X153017956Y-120039286D01*
X152966771Y-120038367D01*
X152929041Y-120037051D01*
X152902940Y-120035269D01*
X152886644Y-120032951D01*
X152878328Y-120030026D01*
X152876168Y-120026424D01*
X152878339Y-120022075D01*
X152879535Y-120020645D01*
X152904685Y-119983573D01*
X152930583Y-119930772D01*
X152954192Y-119868770D01*
X152962461Y-119842357D01*
X152967078Y-119824416D01*
X152970979Y-119803355D01*
X152974248Y-119777089D01*
X152976966Y-119743532D01*
X152979215Y-119700599D01*
X152981077Y-119646204D01*
X152982636Y-119578262D01*
X152983972Y-119494688D01*
X152985169Y-119393395D01*
X152986308Y-119272300D01*
X152986685Y-119227600D01*
X152987702Y-119102449D01*
X152988460Y-118998082D01*
X152988903Y-118912707D01*
X152988970Y-118844533D01*
X152988605Y-118791765D01*
X152987748Y-118752614D01*
X152986341Y-118725285D01*
X152984325Y-118707986D01*
X152981643Y-118698926D01*
X152978236Y-118696312D01*
X152974044Y-118698351D01*
X152969571Y-118702667D01*
X152959216Y-118715602D01*
X152937158Y-118744676D01*
X152904957Y-118787759D01*
X152864174Y-118842718D01*
X152816370Y-118907423D01*
X152763105Y-118979742D01*
X152705940Y-119057544D01*
X152646437Y-119138698D01*
X152586155Y-119221072D01*
X152526655Y-119302536D01*
X152469498Y-119380957D01*
X152416245Y-119454204D01*
X152368457Y-119520147D01*
X152327693Y-119576654D01*
X152295516Y-119621593D01*
X152273485Y-119652834D01*
X152268917Y-119659466D01*
X152245996Y-119696369D01*
X152219188Y-119744359D01*
X152193789Y-119793897D01*
X152190568Y-119800577D01*
X152168890Y-119848772D01*
X152156304Y-119886334D01*
X152150574Y-119922160D01*
X152149456Y-119964200D01*
X152150090Y-120040400D01*
X150995651Y-120040400D01*
X151086815Y-119946669D01*
X151133612Y-119896775D01*
X151183899Y-119840295D01*
X151229944Y-119786026D01*
X151250369Y-119760673D01*
X151280807Y-119721128D01*
X151320862Y-119667916D01*
X151369361Y-119602667D01*
X151425135Y-119527011D01*
X151487011Y-119442577D01*
X151553819Y-119350994D01*
X151624387Y-119253892D01*
X151697545Y-119152901D01*
X151772121Y-119049650D01*
X151846944Y-118945768D01*
X151920843Y-118842885D01*
X151992646Y-118742631D01*
X152061184Y-118646636D01*
X152125284Y-118556527D01*
X152183775Y-118473936D01*
X152235486Y-118400492D01*
X152279247Y-118337824D01*
X152313885Y-118287561D01*
X152338230Y-118251334D01*
X152351111Y-118230771D01*
X152352869Y-118226668D01*
X152344910Y-118215342D01*
X152324115Y-118188162D01*
X152291847Y-118146829D01*
X152249470Y-118093044D01*
X152198347Y-118028506D01*
X152139841Y-117954918D01*
X152075314Y-117873978D01*
X152006131Y-117787388D01*
X151933653Y-117696848D01*
X151859246Y-117604060D01*
X151799517Y-117529702D01*
X150788511Y-117529702D01*
X150782602Y-117542659D01*
X150768272Y-117564908D01*
X150767225Y-117566391D01*
X150748438Y-117596544D01*
X150728791Y-117633375D01*
X150724892Y-117641511D01*
X150721356Y-117649940D01*
X150718230Y-117660059D01*
X150715486Y-117673260D01*
X150713092Y-117690938D01*
X150711019Y-117714484D01*
X150709235Y-117745293D01*
X150707712Y-117784757D01*
X150706419Y-117834269D01*
X150705326Y-117895223D01*
X150704403Y-117969011D01*
X150703619Y-118057028D01*
X150702945Y-118160665D01*
X150702350Y-118281316D01*
X150701805Y-118420374D01*
X150701279Y-118579232D01*
X150700745Y-118758089D01*
X150700206Y-118943207D01*
X150699772Y-119107145D01*
X150699509Y-119251303D01*
X150699484Y-119377079D01*
X150699765Y-119485871D01*
X150700419Y-119579077D01*
X150701514Y-119658097D01*
X150703118Y-119724328D01*
X150705297Y-119779170D01*
X150708119Y-119824021D01*
X150711651Y-119860278D01*
X150715961Y-119889341D01*
X150721117Y-119912609D01*
X150727185Y-119931479D01*
X150734233Y-119947351D01*
X150742329Y-119961622D01*
X150751540Y-119975691D01*
X150760040Y-119988158D01*
X150777176Y-120014452D01*
X150787322Y-120032037D01*
X150788511Y-120035257D01*
X150777604Y-120036334D01*
X150746411Y-120037335D01*
X150697223Y-120038235D01*
X150632333Y-120039010D01*
X150554030Y-120039637D01*
X150464607Y-120040091D01*
X150366356Y-120040349D01*
X150297445Y-120040400D01*
X150192452Y-120040180D01*
X150095610Y-120039548D01*
X150009107Y-120038549D01*
X149935132Y-120037227D01*
X149875874Y-120035626D01*
X149833520Y-120033791D01*
X149810260Y-120031765D01*
X149806378Y-120030493D01*
X149814076Y-120015591D01*
X149822074Y-120007560D01*
X149835246Y-119990434D01*
X149852485Y-119960183D01*
X149864407Y-119935622D01*
X149891045Y-119876711D01*
X149894120Y-118699845D01*
X149897195Y-117522978D01*
X150342853Y-117522978D01*
X150440670Y-117523142D01*
X150531064Y-117523611D01*
X150611630Y-117524347D01*
X150679962Y-117525316D01*
X150733656Y-117526480D01*
X150770305Y-117527803D01*
X150787504Y-117529249D01*
X150788511Y-117529702D01*
X151799517Y-117529702D01*
X151784270Y-117510722D01*
X151710090Y-117418537D01*
X151638069Y-117329204D01*
X151569569Y-117244424D01*
X151505955Y-117165898D01*
X151448588Y-117095326D01*
X151398833Y-117034409D01*
X151358052Y-116984847D01*
X151340888Y-116964178D01*
X151254596Y-116863516D01*
X151177997Y-116780259D01*
X151109183Y-116712438D01*
X151046248Y-116658089D01*
X151036867Y-116650722D01*
X150997356Y-116620117D01*
X152129116Y-116619867D01*
X152123827Y-116667844D01*
X152127130Y-116725188D01*
X152148661Y-116793463D01*
X152188635Y-116873212D01*
X152233943Y-116945495D01*
X152250161Y-116968140D01*
X152278214Y-117005696D01*
X152316430Y-117056021D01*
X152363137Y-117116973D01*
X152416661Y-117186411D01*
X152475331Y-117262194D01*
X152537475Y-117342180D01*
X152601421Y-117424228D01*
X152665495Y-117506196D01*
X152728027Y-117585943D01*
X152787343Y-117661327D01*
X152841771Y-117730207D01*
X152889639Y-117790442D01*
X152929275Y-117839889D01*
X152959006Y-117876408D01*
X152977161Y-117897858D01*
X152980220Y-117901156D01*
X152983079Y-117893149D01*
X152985293Y-117862855D01*
X152986857Y-117810556D01*
X152987767Y-117736531D01*
X152988020Y-117641063D01*
X152987613Y-117524434D01*
X152986704Y-117404445D01*
X152985382Y-117272333D01*
X152983857Y-117160594D01*
X152981881Y-117067025D01*
X152979206Y-116989419D01*
X152975582Y-116925574D01*
X152970761Y-116873283D01*
X152964494Y-116830344D01*
X152956532Y-116794551D01*
X152946627Y-116763700D01*
X152934531Y-116735586D01*
X152919993Y-116708005D01*
X152905311Y-116682966D01*
X152867314Y-116619867D01*
X153927197Y-116619867D01*
X154230034Y-116619867D01*
X154230001Y-116613617D01*
X154229195Y-116511544D01*
X154228170Y-116422633D01*
X154226900Y-116345941D01*
X154225360Y-116280527D01*
X154223524Y-116225449D01*
X154221367Y-116179765D01*
X154218863Y-116142534D01*
X154215987Y-116112813D01*
X154212713Y-116089662D01*
X154209015Y-116072139D01*
X154204869Y-116059301D01*
X154200247Y-116050208D01*
X154195126Y-116043918D01*
X154189478Y-116039488D01*
X154183279Y-116035978D01*
X154176504Y-116032445D01*
X154170508Y-116028876D01*
X154165275Y-116026300D01*
X154157099Y-116023972D01*
X154144886Y-116021878D01*
X154127541Y-116020007D01*
X154103969Y-116018347D01*
X154073077Y-116016884D01*
X154033768Y-116015608D01*
X153984950Y-116014504D01*
X153925527Y-116013561D01*
X153854404Y-116012767D01*
X153770488Y-116012109D01*
X153672683Y-116011575D01*
X153559894Y-116011153D01*
X153431029Y-116010829D01*
X153284991Y-116010592D01*
X153120686Y-116010430D01*
X152937020Y-116010330D01*
X152732897Y-116010280D01*
X152521753Y-116010267D01*
X150901400Y-116010267D01*
X150901400Y-116107054D01*
G37*
X150901400Y-116107054D02*
X150890535Y-116220993D01*
X150858918Y-116328616D01*
X150808015Y-116427615D01*
X150739293Y-116515684D01*
X150654219Y-116590516D01*
X150557232Y-116648384D01*
X150450964Y-116688005D01*
X150343950Y-116706573D01*
X150238300Y-116705434D01*
X150136125Y-116685930D01*
X150039534Y-116649406D01*
X149950638Y-116597205D01*
X149871546Y-116530673D01*
X149804369Y-116451152D01*
X149751217Y-116359987D01*
X149714199Y-116258523D01*
X149695427Y-116148102D01*
X149693489Y-116098206D01*
X149693489Y-116010267D01*
X149641560Y-116010267D01*
X149605253Y-116013111D01*
X149578355Y-116024911D01*
X149551249Y-116048649D01*
X149512867Y-116087031D01*
X149512867Y-118278602D01*
X149512876Y-118540739D01*
X149512908Y-118781241D01*
X149512972Y-119001048D01*
X149513076Y-119201101D01*
X149513227Y-119382344D01*
X149513434Y-119545716D01*
X149513706Y-119692160D01*
X149514050Y-119822617D01*
X149514474Y-119938029D01*
X149514987Y-120039338D01*
X149515597Y-120127484D01*
X149516312Y-120203410D01*
X149517140Y-120268057D01*
X149518089Y-120322367D01*
X149519167Y-120367280D01*
X149520383Y-120403740D01*
X149521745Y-120432687D01*
X149523261Y-120455063D01*
X149524938Y-120471809D01*
X149526786Y-120483868D01*
X149528813Y-120492180D01*
X149531025Y-120497687D01*
X149532108Y-120499537D01*
X149536271Y-120506549D01*
X149539805Y-120512996D01*
X149543635Y-120518900D01*
X149548682Y-120524286D01*
X149555871Y-120529178D01*
X149566123Y-120533598D01*
X149580364Y-120537572D01*
X149599514Y-120541121D01*
X149624499Y-120544270D01*
X149656240Y-120547042D01*
X149695662Y-120549461D01*
X149743686Y-120551551D01*
X149801237Y-120553335D01*
X149869237Y-120554837D01*
X149948610Y-120556080D01*
X150040279Y-120557089D01*
X150145166Y-120557885D01*
X150264196Y-120558494D01*
X150398290Y-120558939D01*
X150548373Y-120559243D01*
X150715367Y-120559430D01*
X150900196Y-120559524D01*
X151103783Y-120559548D01*
X151327050Y-120559525D01*
X151570922Y-120559480D01*
X151836321Y-120559437D01*
X151874704Y-120559432D01*
X152141682Y-120559389D01*
X152387002Y-120559318D01*
X152611583Y-120559213D01*
X152816345Y-120559066D01*
X153002206Y-120558869D01*
X153170088Y-120558616D01*
X153320908Y-120558300D01*
X153455587Y-120557913D01*
X153575044Y-120557447D01*
X153680199Y-120556897D01*
X153771971Y-120556253D01*
X153851279Y-120555511D01*
X153919043Y-120554661D01*
X153976182Y-120553697D01*
X154023617Y-120552611D01*
X154062266Y-120551397D01*
X154093049Y-120550047D01*
X154116885Y-120548555D01*
X154134694Y-120546911D01*
X154147395Y-120545111D01*
X154155908Y-120543145D01*
X154160266Y-120541477D01*
X154168728Y-120537906D01*
X154176497Y-120535270D01*
X154183602Y-120532634D01*
X154190073Y-120529062D01*
X154195939Y-120523621D01*
X154201229Y-120515375D01*
X154205974Y-120503390D01*
X154210202Y-120486731D01*
X154213943Y-120464463D01*
X154217227Y-120435652D01*
X154220083Y-120399363D01*
X154222540Y-120354661D01*
X154224629Y-120300611D01*
X154226378Y-120236279D01*
X154227817Y-120160730D01*
X154228976Y-120073030D01*
X154229883Y-119972243D01*
X154230569Y-119857434D01*
X154231063Y-119727670D01*
X154231395Y-119582015D01*
X154231593Y-119419535D01*
X154231687Y-119239295D01*
X154231708Y-119040360D01*
X154231685Y-118821796D01*
X154231646Y-118582668D01*
X154231622Y-118322040D01*
X154231622Y-118279889D01*
X154231636Y-118016992D01*
X154231661Y-117775732D01*
X154231671Y-117555165D01*
X154231642Y-117354352D01*
X154231548Y-117172349D01*
X154231362Y-117008216D01*
X154231059Y-116861011D01*
X154230614Y-116729792D01*
X154230034Y-116619867D01*
X153927197Y-116619867D01*
X153887407Y-116677711D01*
X153876236Y-116693479D01*
X153866166Y-116707441D01*
X153857138Y-116720784D01*
X153849097Y-116734693D01*
X153841986Y-116750356D01*
X153835747Y-116768958D01*
X153830325Y-116791686D01*
X153825662Y-116819727D01*
X153821701Y-116854267D01*
X153818385Y-116896492D01*
X153815659Y-116947589D01*
X153813464Y-117008744D01*
X153811745Y-117081144D01*
X153810444Y-117165975D01*
X153809505Y-117264422D01*
X153808870Y-117377674D01*
X153808484Y-117506916D01*
X153808288Y-117653334D01*
X153808227Y-117818116D01*
X153808243Y-118002447D01*
X153808280Y-118207513D01*
X153808289Y-118330133D01*
X153808265Y-118547082D01*
X153808231Y-118742642D01*
X153808243Y-118917999D01*
X153808358Y-119074341D01*
X153808630Y-119212857D01*
X153809118Y-119334734D01*
X153809876Y-119441160D01*
X153810962Y-119533322D01*
X153812431Y-119612409D01*
X153814340Y-119679608D01*
X153816744Y-119736107D01*
X153819701Y-119783093D01*
X153823266Y-119821755D01*
X153827495Y-119853280D01*
X153832446Y-119878855D01*
X153838173Y-119899670D01*
X153844733Y-119916911D01*
X153852183Y-119931765D01*
X153860579Y-119945422D01*
X153869976Y-119959069D01*
X153880432Y-119973893D01*
X153886523Y-119982783D01*
X153925296Y-120040400D01*
X153393732Y-120040400D01*
X153270483Y-120040365D01*
X153167987Y-120040215D01*
X153084420Y-120039878D01*
X153017956Y-120039286D01*
X152966771Y-120038367D01*
X152929041Y-120037051D01*
X152902940Y-120035269D01*
X152886644Y-120032951D01*
X152878328Y-120030026D01*
X152876168Y-120026424D01*
X152878339Y-120022075D01*
X152879535Y-120020645D01*
X152904685Y-119983573D01*
X152930583Y-119930772D01*
X152954192Y-119868770D01*
X152962461Y-119842357D01*
X152967078Y-119824416D01*
X152970979Y-119803355D01*
X152974248Y-119777089D01*
X152976966Y-119743532D01*
X152979215Y-119700599D01*
X152981077Y-119646204D01*
X152982636Y-119578262D01*
X152983972Y-119494688D01*
X152985169Y-119393395D01*
X152986308Y-119272300D01*
X152986685Y-119227600D01*
X152987702Y-119102449D01*
X152988460Y-118998082D01*
X152988903Y-118912707D01*
X152988970Y-118844533D01*
X152988605Y-118791765D01*
X152987748Y-118752614D01*
X152986341Y-118725285D01*
X152984325Y-118707986D01*
X152981643Y-118698926D01*
X152978236Y-118696312D01*
X152974044Y-118698351D01*
X152969571Y-118702667D01*
X152959216Y-118715602D01*
X152937158Y-118744676D01*
X152904957Y-118787759D01*
X152864174Y-118842718D01*
X152816370Y-118907423D01*
X152763105Y-118979742D01*
X152705940Y-119057544D01*
X152646437Y-119138698D01*
X152586155Y-119221072D01*
X152526655Y-119302536D01*
X152469498Y-119380957D01*
X152416245Y-119454204D01*
X152368457Y-119520147D01*
X152327693Y-119576654D01*
X152295516Y-119621593D01*
X152273485Y-119652834D01*
X152268917Y-119659466D01*
X152245996Y-119696369D01*
X152219188Y-119744359D01*
X152193789Y-119793897D01*
X152190568Y-119800577D01*
X152168890Y-119848772D01*
X152156304Y-119886334D01*
X152150574Y-119922160D01*
X152149456Y-119964200D01*
X152150090Y-120040400D01*
X150995651Y-120040400D01*
X151086815Y-119946669D01*
X151133612Y-119896775D01*
X151183899Y-119840295D01*
X151229944Y-119786026D01*
X151250369Y-119760673D01*
X151280807Y-119721128D01*
X151320862Y-119667916D01*
X151369361Y-119602667D01*
X151425135Y-119527011D01*
X151487011Y-119442577D01*
X151553819Y-119350994D01*
X151624387Y-119253892D01*
X151697545Y-119152901D01*
X151772121Y-119049650D01*
X151846944Y-118945768D01*
X151920843Y-118842885D01*
X151992646Y-118742631D01*
X152061184Y-118646636D01*
X152125284Y-118556527D01*
X152183775Y-118473936D01*
X152235486Y-118400492D01*
X152279247Y-118337824D01*
X152313885Y-118287561D01*
X152338230Y-118251334D01*
X152351111Y-118230771D01*
X152352869Y-118226668D01*
X152344910Y-118215342D01*
X152324115Y-118188162D01*
X152291847Y-118146829D01*
X152249470Y-118093044D01*
X152198347Y-118028506D01*
X152139841Y-117954918D01*
X152075314Y-117873978D01*
X152006131Y-117787388D01*
X151933653Y-117696848D01*
X151859246Y-117604060D01*
X151799517Y-117529702D01*
X150788511Y-117529702D01*
X150782602Y-117542659D01*
X150768272Y-117564908D01*
X150767225Y-117566391D01*
X150748438Y-117596544D01*
X150728791Y-117633375D01*
X150724892Y-117641511D01*
X150721356Y-117649940D01*
X150718230Y-117660059D01*
X150715486Y-117673260D01*
X150713092Y-117690938D01*
X150711019Y-117714484D01*
X150709235Y-117745293D01*
X150707712Y-117784757D01*
X150706419Y-117834269D01*
X150705326Y-117895223D01*
X150704403Y-117969011D01*
X150703619Y-118057028D01*
X150702945Y-118160665D01*
X150702350Y-118281316D01*
X150701805Y-118420374D01*
X150701279Y-118579232D01*
X150700745Y-118758089D01*
X150700206Y-118943207D01*
X150699772Y-119107145D01*
X150699509Y-119251303D01*
X150699484Y-119377079D01*
X150699765Y-119485871D01*
X150700419Y-119579077D01*
X150701514Y-119658097D01*
X150703118Y-119724328D01*
X150705297Y-119779170D01*
X150708119Y-119824021D01*
X150711651Y-119860278D01*
X150715961Y-119889341D01*
X150721117Y-119912609D01*
X150727185Y-119931479D01*
X150734233Y-119947351D01*
X150742329Y-119961622D01*
X150751540Y-119975691D01*
X150760040Y-119988158D01*
X150777176Y-120014452D01*
X150787322Y-120032037D01*
X150788511Y-120035257D01*
X150777604Y-120036334D01*
X150746411Y-120037335D01*
X150697223Y-120038235D01*
X150632333Y-120039010D01*
X150554030Y-120039637D01*
X150464607Y-120040091D01*
X150366356Y-120040349D01*
X150297445Y-120040400D01*
X150192452Y-120040180D01*
X150095610Y-120039548D01*
X150009107Y-120038549D01*
X149935132Y-120037227D01*
X149875874Y-120035626D01*
X149833520Y-120033791D01*
X149810260Y-120031765D01*
X149806378Y-120030493D01*
X149814076Y-120015591D01*
X149822074Y-120007560D01*
X149835246Y-119990434D01*
X149852485Y-119960183D01*
X149864407Y-119935622D01*
X149891045Y-119876711D01*
X149894120Y-118699845D01*
X149897195Y-117522978D01*
X150342853Y-117522978D01*
X150440670Y-117523142D01*
X150531064Y-117523611D01*
X150611630Y-117524347D01*
X150679962Y-117525316D01*
X150733656Y-117526480D01*
X150770305Y-117527803D01*
X150787504Y-117529249D01*
X150788511Y-117529702D01*
X151799517Y-117529702D01*
X151784270Y-117510722D01*
X151710090Y-117418537D01*
X151638069Y-117329204D01*
X151569569Y-117244424D01*
X151505955Y-117165898D01*
X151448588Y-117095326D01*
X151398833Y-117034409D01*
X151358052Y-116984847D01*
X151340888Y-116964178D01*
X151254596Y-116863516D01*
X151177997Y-116780259D01*
X151109183Y-116712438D01*
X151046248Y-116658089D01*
X151036867Y-116650722D01*
X150997356Y-116620117D01*
X152129116Y-116619867D01*
X152123827Y-116667844D01*
X152127130Y-116725188D01*
X152148661Y-116793463D01*
X152188635Y-116873212D01*
X152233943Y-116945495D01*
X152250161Y-116968140D01*
X152278214Y-117005696D01*
X152316430Y-117056021D01*
X152363137Y-117116973D01*
X152416661Y-117186411D01*
X152475331Y-117262194D01*
X152537475Y-117342180D01*
X152601421Y-117424228D01*
X152665495Y-117506196D01*
X152728027Y-117585943D01*
X152787343Y-117661327D01*
X152841771Y-117730207D01*
X152889639Y-117790442D01*
X152929275Y-117839889D01*
X152959006Y-117876408D01*
X152977161Y-117897858D01*
X152980220Y-117901156D01*
X152983079Y-117893149D01*
X152985293Y-117862855D01*
X152986857Y-117810556D01*
X152987767Y-117736531D01*
X152988020Y-117641063D01*
X152987613Y-117524434D01*
X152986704Y-117404445D01*
X152985382Y-117272333D01*
X152983857Y-117160594D01*
X152981881Y-117067025D01*
X152979206Y-116989419D01*
X152975582Y-116925574D01*
X152970761Y-116873283D01*
X152964494Y-116830344D01*
X152956532Y-116794551D01*
X152946627Y-116763700D01*
X152934531Y-116735586D01*
X152919993Y-116708005D01*
X152905311Y-116682966D01*
X152867314Y-116619867D01*
X153927197Y-116619867D01*
X154230034Y-116619867D01*
X154230001Y-116613617D01*
X154229195Y-116511544D01*
X154228170Y-116422633D01*
X154226900Y-116345941D01*
X154225360Y-116280527D01*
X154223524Y-116225449D01*
X154221367Y-116179765D01*
X154218863Y-116142534D01*
X154215987Y-116112813D01*
X154212713Y-116089662D01*
X154209015Y-116072139D01*
X154204869Y-116059301D01*
X154200247Y-116050208D01*
X154195126Y-116043918D01*
X154189478Y-116039488D01*
X154183279Y-116035978D01*
X154176504Y-116032445D01*
X154170508Y-116028876D01*
X154165275Y-116026300D01*
X154157099Y-116023972D01*
X154144886Y-116021878D01*
X154127541Y-116020007D01*
X154103969Y-116018347D01*
X154073077Y-116016884D01*
X154033768Y-116015608D01*
X153984950Y-116014504D01*
X153925527Y-116013561D01*
X153854404Y-116012767D01*
X153770488Y-116012109D01*
X153672683Y-116011575D01*
X153559894Y-116011153D01*
X153431029Y-116010829D01*
X153284991Y-116010592D01*
X153120686Y-116010430D01*
X152937020Y-116010330D01*
X152732897Y-116010280D01*
X152521753Y-116010267D01*
X150901400Y-116010267D01*
X150901400Y-116107054D01*
G36*
X147626571Y-116567071D02*
G01*
X147466430Y-116588245D01*
X147302490Y-116628385D01*
X147132687Y-116687889D01*
X146954957Y-116767154D01*
X146943690Y-116772699D01*
X146885995Y-116800725D01*
X146834448Y-116824802D01*
X146792809Y-116843249D01*
X146764838Y-116854386D01*
X146755267Y-116856933D01*
X146736050Y-116861941D01*
X146731439Y-116866147D01*
X146736542Y-116876580D01*
X146752582Y-116902868D01*
X146777712Y-116942257D01*
X146810086Y-116991991D01*
X146847857Y-117049315D01*
X146889178Y-117111476D01*
X146932202Y-117175718D01*
X146975083Y-117239285D01*
X147015974Y-117299425D01*
X147053029Y-117353380D01*
X147084400Y-117398397D01*
X147108241Y-117431721D01*
X147122706Y-117450597D01*
X147124691Y-117452787D01*
X147134809Y-117448138D01*
X147157150Y-117430962D01*
X147187720Y-117404440D01*
X147203464Y-117389964D01*
X147299953Y-117314682D01*
X147406664Y-117259241D01*
X147522168Y-117224141D01*
X147645038Y-117209880D01*
X147714439Y-117211051D01*
X147835577Y-117228212D01*
X147944795Y-117264094D01*
X148042418Y-117318959D01*
X148128772Y-117393070D01*
X148204185Y-117486688D01*
X148268982Y-117600076D01*
X148306399Y-117686667D01*
X148350252Y-117822366D01*
X148382572Y-117969850D01*
X148403443Y-118125314D01*
X148412949Y-118284956D01*
X148411173Y-118444973D01*
X148398197Y-118601561D01*
X148374106Y-118750918D01*
X148338982Y-118889240D01*
X148292908Y-119012724D01*
X148276627Y-119046978D01*
X148208380Y-119161064D01*
X148127921Y-119257557D01*
X148036430Y-119335670D01*
X147935089Y-119394617D01*
X147825080Y-119433612D01*
X147707585Y-119451868D01*
X147666117Y-119453211D01*
X147544559Y-119442290D01*
X147424122Y-119409474D01*
X147306334Y-119355439D01*
X147192723Y-119280865D01*
X147101315Y-119202539D01*
X147054785Y-119158008D01*
X146873517Y-119455271D01*
X146828420Y-119529433D01*
X146787181Y-119597646D01*
X146751265Y-119657459D01*
X146722134Y-119706420D01*
X146701250Y-119742079D01*
X146690076Y-119761984D01*
X146688625Y-119765079D01*
X146696854Y-119774718D01*
X146722433Y-119791999D01*
X146762127Y-119815283D01*
X146812703Y-119842934D01*
X146870926Y-119873315D01*
X146933563Y-119904790D01*
X146997379Y-119935722D01*
X147059140Y-119964473D01*
X147115612Y-119989408D01*
X147163562Y-120008889D01*
X147187014Y-120017318D01*
X147320779Y-120055133D01*
X147458673Y-120080136D01*
X147606378Y-120093140D01*
X147733167Y-120095468D01*
X147801122Y-120094373D01*
X147866723Y-120092275D01*
X147924153Y-120089434D01*
X147967597Y-120086106D01*
X147981702Y-120084422D01*
X148120716Y-120055587D01*
X148262243Y-120010468D01*
X148399725Y-119951750D01*
X148526606Y-119882120D01*
X148604111Y-119829441D01*
X148731519Y-119721239D01*
X148849822Y-119594671D01*
X148956828Y-119452866D01*
X149050348Y-119298951D01*
X149128190Y-119136053D01*
X149172044Y-119018756D01*
X149222292Y-118835128D01*
X149255791Y-118640581D01*
X149272551Y-118439325D01*
X149272584Y-118235568D01*
X149255899Y-118033521D01*
X149222507Y-117837392D01*
X149172420Y-117651391D01*
X149168603Y-117639803D01*
X149105719Y-117477750D01*
X149028972Y-117329832D01*
X148935758Y-117191865D01*
X148823473Y-117059661D01*
X148779608Y-117014399D01*
X148643466Y-116890457D01*
X148503509Y-116787915D01*
X148357589Y-116705656D01*
X148203558Y-116642564D01*
X148039268Y-116597523D01*
X147943711Y-116580033D01*
X147784977Y-116564466D01*
X147626571Y-116567071D01*
G37*
X147626571Y-116567071D02*
X147466430Y-116588245D01*
X147302490Y-116628385D01*
X147132687Y-116687889D01*
X146954957Y-116767154D01*
X146943690Y-116772699D01*
X146885995Y-116800725D01*
X146834448Y-116824802D01*
X146792809Y-116843249D01*
X146764838Y-116854386D01*
X146755267Y-116856933D01*
X146736050Y-116861941D01*
X146731439Y-116866147D01*
X146736542Y-116876580D01*
X146752582Y-116902868D01*
X146777712Y-116942257D01*
X146810086Y-116991991D01*
X146847857Y-117049315D01*
X146889178Y-117111476D01*
X146932202Y-117175718D01*
X146975083Y-117239285D01*
X147015974Y-117299425D01*
X147053029Y-117353380D01*
X147084400Y-117398397D01*
X147108241Y-117431721D01*
X147122706Y-117450597D01*
X147124691Y-117452787D01*
X147134809Y-117448138D01*
X147157150Y-117430962D01*
X147187720Y-117404440D01*
X147203464Y-117389964D01*
X147299953Y-117314682D01*
X147406664Y-117259241D01*
X147522168Y-117224141D01*
X147645038Y-117209880D01*
X147714439Y-117211051D01*
X147835577Y-117228212D01*
X147944795Y-117264094D01*
X148042418Y-117318959D01*
X148128772Y-117393070D01*
X148204185Y-117486688D01*
X148268982Y-117600076D01*
X148306399Y-117686667D01*
X148350252Y-117822366D01*
X148382572Y-117969850D01*
X148403443Y-118125314D01*
X148412949Y-118284956D01*
X148411173Y-118444973D01*
X148398197Y-118601561D01*
X148374106Y-118750918D01*
X148338982Y-118889240D01*
X148292908Y-119012724D01*
X148276627Y-119046978D01*
X148208380Y-119161064D01*
X148127921Y-119257557D01*
X148036430Y-119335670D01*
X147935089Y-119394617D01*
X147825080Y-119433612D01*
X147707585Y-119451868D01*
X147666117Y-119453211D01*
X147544559Y-119442290D01*
X147424122Y-119409474D01*
X147306334Y-119355439D01*
X147192723Y-119280865D01*
X147101315Y-119202539D01*
X147054785Y-119158008D01*
X146873517Y-119455271D01*
X146828420Y-119529433D01*
X146787181Y-119597646D01*
X146751265Y-119657459D01*
X146722134Y-119706420D01*
X146701250Y-119742079D01*
X146690076Y-119761984D01*
X146688625Y-119765079D01*
X146696854Y-119774718D01*
X146722433Y-119791999D01*
X146762127Y-119815283D01*
X146812703Y-119842934D01*
X146870926Y-119873315D01*
X146933563Y-119904790D01*
X146997379Y-119935722D01*
X147059140Y-119964473D01*
X147115612Y-119989408D01*
X147163562Y-120008889D01*
X147187014Y-120017318D01*
X147320779Y-120055133D01*
X147458673Y-120080136D01*
X147606378Y-120093140D01*
X147733167Y-120095468D01*
X147801122Y-120094373D01*
X147866723Y-120092275D01*
X147924153Y-120089434D01*
X147967597Y-120086106D01*
X147981702Y-120084422D01*
X148120716Y-120055587D01*
X148262243Y-120010468D01*
X148399725Y-119951750D01*
X148526606Y-119882120D01*
X148604111Y-119829441D01*
X148731519Y-119721239D01*
X148849822Y-119594671D01*
X148956828Y-119452866D01*
X149050348Y-119298951D01*
X149128190Y-119136053D01*
X149172044Y-119018756D01*
X149222292Y-118835128D01*
X149255791Y-118640581D01*
X149272551Y-118439325D01*
X149272584Y-118235568D01*
X149255899Y-118033521D01*
X149222507Y-117837392D01*
X149172420Y-117651391D01*
X149168603Y-117639803D01*
X149105719Y-117477750D01*
X149028972Y-117329832D01*
X148935758Y-117191865D01*
X148823473Y-117059661D01*
X148779608Y-117014399D01*
X148643466Y-116890457D01*
X148503509Y-116787915D01*
X148357589Y-116705656D01*
X148203558Y-116642564D01*
X148039268Y-116597523D01*
X147943711Y-116580033D01*
X147784977Y-116564466D01*
X147626571Y-116567071D01*
G36*
X145281426Y-117484552D02*
G01*
X145129508Y-117504567D01*
X144994244Y-117538202D01*
X144874761Y-117585725D01*
X144770185Y-117647405D01*
X144692576Y-117710965D01*
X144623735Y-117785099D01*
X144569994Y-117864871D01*
X144527090Y-117957091D01*
X144511616Y-118000161D01*
X144498756Y-118039142D01*
X144487554Y-118075289D01*
X144477880Y-118110434D01*
X144469604Y-118146410D01*
X144462597Y-118185050D01*
X144456728Y-118228185D01*
X144451869Y-118277649D01*
X144447890Y-118335273D01*
X144444660Y-118402891D01*
X144442051Y-118482334D01*
X144439933Y-118575436D01*
X144438176Y-118684027D01*
X144436651Y-118809942D01*
X144435228Y-118955012D01*
X144433975Y-119097778D01*
X144432649Y-119253968D01*
X144431444Y-119389239D01*
X144430234Y-119505246D01*
X144428894Y-119603645D01*
X144427300Y-119686093D01*
X144425325Y-119754246D01*
X144422844Y-119809760D01*
X144419731Y-119854292D01*
X144415862Y-119889498D01*
X144411111Y-119917034D01*
X144405352Y-119938556D01*
X144398461Y-119955722D01*
X144390311Y-119970186D01*
X144380777Y-119983606D01*
X144369734Y-119997638D01*
X144365434Y-120003071D01*
X144349614Y-120025910D01*
X144342578Y-120041463D01*
X144342556Y-120041922D01*
X144353433Y-120044121D01*
X144384418Y-120046147D01*
X144433043Y-120047942D01*
X144496837Y-120049451D01*
X144573331Y-120050616D01*
X144660056Y-120051380D01*
X144754543Y-120051686D01*
X144765450Y-120051689D01*
X145188343Y-120051689D01*
X145191605Y-119955622D01*
X145194867Y-119859556D01*
X145256956Y-119910543D01*
X145354286Y-119978057D01*
X145464187Y-120032749D01*
X145550651Y-120062978D01*
X145619722Y-120077666D01*
X145703075Y-120087659D01*
X145792841Y-120092646D01*
X145881155Y-120092313D01*
X145960149Y-120086351D01*
X145996378Y-120080638D01*
X146136397Y-120042776D01*
X146262822Y-119987932D01*
X146374740Y-119916924D01*
X146471238Y-119830568D01*
X146551400Y-119729679D01*
X146614313Y-119615076D01*
X146658688Y-119488984D01*
X146671022Y-119432401D01*
X146678632Y-119370202D01*
X146682261Y-119295363D01*
X146682755Y-119261467D01*
X146682690Y-119258282D01*
X145922752Y-119258282D01*
X145913459Y-119333333D01*
X145885272Y-119397160D01*
X145836803Y-119452798D01*
X145831746Y-119457211D01*
X145783452Y-119492037D01*
X145731743Y-119514620D01*
X145671011Y-119526540D01*
X145595648Y-119529383D01*
X145577541Y-119528978D01*
X145523722Y-119526325D01*
X145483692Y-119520909D01*
X145448676Y-119510745D01*
X145409897Y-119493850D01*
X145399255Y-119488672D01*
X145338604Y-119452844D01*
X145291785Y-119410212D01*
X145279048Y-119394973D01*
X145234378Y-119338462D01*
X145234378Y-119142586D01*
X145234914Y-119063939D01*
X145236604Y-119005988D01*
X145239572Y-118966875D01*
X145243943Y-118944741D01*
X145248028Y-118938274D01*
X145263953Y-118935111D01*
X145297736Y-118932488D01*
X145344660Y-118930655D01*
X145400007Y-118929857D01*
X145408894Y-118929842D01*
X145529670Y-118935096D01*
X145632340Y-118951263D01*
X145718894Y-118978961D01*
X145791319Y-119018808D01*
X145846249Y-119065758D01*
X145890796Y-119123645D01*
X145915520Y-119186693D01*
X145922752Y-119258282D01*
X146682690Y-119258282D01*
X146680822Y-119167712D01*
X146672478Y-119088812D01*
X146656232Y-119017590D01*
X146630595Y-118946864D01*
X146606599Y-118894493D01*
X146547980Y-118799196D01*
X146469883Y-118711170D01*
X146374685Y-118632017D01*
X146264762Y-118563340D01*
X146142490Y-118506741D01*
X146010245Y-118463821D01*
X145945578Y-118448882D01*
X145809396Y-118426777D01*
X145660951Y-118412194D01*
X145509495Y-118405813D01*
X145382936Y-118407445D01*
X145221050Y-118414224D01*
X145228470Y-118355245D01*
X145247762Y-118256092D01*
X145278896Y-118175372D01*
X145322731Y-118112466D01*
X145380129Y-118066756D01*
X145451952Y-118037622D01*
X145539059Y-118024447D01*
X145642314Y-118026611D01*
X145680289Y-118030612D01*
X145821480Y-118055780D01*
X145958293Y-118096814D01*
X146052822Y-118134815D01*
X146097982Y-118154190D01*
X146136415Y-118169760D01*
X146162766Y-118179405D01*
X146170454Y-118181452D01*
X146180198Y-118172374D01*
X146196917Y-118143405D01*
X146220768Y-118094217D01*
X146251907Y-118024484D01*
X146290493Y-117933879D01*
X146297090Y-117918089D01*
X146327147Y-117845772D01*
X146354126Y-117780425D01*
X146376864Y-117724906D01*
X146394194Y-117682072D01*
X146404952Y-117654781D01*
X146408059Y-117645942D01*
X146398060Y-117641187D01*
X146371783Y-117635910D01*
X146343511Y-117632231D01*
X146313354Y-117627474D01*
X146265567Y-117618028D01*
X146204388Y-117604820D01*
X146134054Y-117588776D01*
X146058806Y-117570820D01*
X146030245Y-117563797D01*
X145925184Y-117538209D01*
X145837520Y-117518147D01*
X145762932Y-117502969D01*
X145697097Y-117492035D01*
X145635693Y-117484704D01*
X145574398Y-117480335D01*
X145508890Y-117478287D01*
X145450872Y-117477889D01*
X145281426Y-117484552D01*
G37*
X145281426Y-117484552D02*
X145129508Y-117504567D01*
X144994244Y-117538202D01*
X144874761Y-117585725D01*
X144770185Y-117647405D01*
X144692576Y-117710965D01*
X144623735Y-117785099D01*
X144569994Y-117864871D01*
X144527090Y-117957091D01*
X144511616Y-118000161D01*
X144498756Y-118039142D01*
X144487554Y-118075289D01*
X144477880Y-118110434D01*
X144469604Y-118146410D01*
X144462597Y-118185050D01*
X144456728Y-118228185D01*
X144451869Y-118277649D01*
X144447890Y-118335273D01*
X144444660Y-118402891D01*
X144442051Y-118482334D01*
X144439933Y-118575436D01*
X144438176Y-118684027D01*
X144436651Y-118809942D01*
X144435228Y-118955012D01*
X144433975Y-119097778D01*
X144432649Y-119253968D01*
X144431444Y-119389239D01*
X144430234Y-119505246D01*
X144428894Y-119603645D01*
X144427300Y-119686093D01*
X144425325Y-119754246D01*
X144422844Y-119809760D01*
X144419731Y-119854292D01*
X144415862Y-119889498D01*
X144411111Y-119917034D01*
X144405352Y-119938556D01*
X144398461Y-119955722D01*
X144390311Y-119970186D01*
X144380777Y-119983606D01*
X144369734Y-119997638D01*
X144365434Y-120003071D01*
X144349614Y-120025910D01*
X144342578Y-120041463D01*
X144342556Y-120041922D01*
X144353433Y-120044121D01*
X144384418Y-120046147D01*
X144433043Y-120047942D01*
X144496837Y-120049451D01*
X144573331Y-120050616D01*
X144660056Y-120051380D01*
X144754543Y-120051686D01*
X144765450Y-120051689D01*
X145188343Y-120051689D01*
X145191605Y-119955622D01*
X145194867Y-119859556D01*
X145256956Y-119910543D01*
X145354286Y-119978057D01*
X145464187Y-120032749D01*
X145550651Y-120062978D01*
X145619722Y-120077666D01*
X145703075Y-120087659D01*
X145792841Y-120092646D01*
X145881155Y-120092313D01*
X145960149Y-120086351D01*
X145996378Y-120080638D01*
X146136397Y-120042776D01*
X146262822Y-119987932D01*
X146374740Y-119916924D01*
X146471238Y-119830568D01*
X146551400Y-119729679D01*
X146614313Y-119615076D01*
X146658688Y-119488984D01*
X146671022Y-119432401D01*
X146678632Y-119370202D01*
X146682261Y-119295363D01*
X146682755Y-119261467D01*
X146682690Y-119258282D01*
X145922752Y-119258282D01*
X145913459Y-119333333D01*
X145885272Y-119397160D01*
X145836803Y-119452798D01*
X145831746Y-119457211D01*
X145783452Y-119492037D01*
X145731743Y-119514620D01*
X145671011Y-119526540D01*
X145595648Y-119529383D01*
X145577541Y-119528978D01*
X145523722Y-119526325D01*
X145483692Y-119520909D01*
X145448676Y-119510745D01*
X145409897Y-119493850D01*
X145399255Y-119488672D01*
X145338604Y-119452844D01*
X145291785Y-119410212D01*
X145279048Y-119394973D01*
X145234378Y-119338462D01*
X145234378Y-119142586D01*
X145234914Y-119063939D01*
X145236604Y-119005988D01*
X145239572Y-118966875D01*
X145243943Y-118944741D01*
X145248028Y-118938274D01*
X145263953Y-118935111D01*
X145297736Y-118932488D01*
X145344660Y-118930655D01*
X145400007Y-118929857D01*
X145408894Y-118929842D01*
X145529670Y-118935096D01*
X145632340Y-118951263D01*
X145718894Y-118978961D01*
X145791319Y-119018808D01*
X145846249Y-119065758D01*
X145890796Y-119123645D01*
X145915520Y-119186693D01*
X145922752Y-119258282D01*
X146682690Y-119258282D01*
X146680822Y-119167712D01*
X146672478Y-119088812D01*
X146656232Y-119017590D01*
X146630595Y-118946864D01*
X146606599Y-118894493D01*
X146547980Y-118799196D01*
X146469883Y-118711170D01*
X146374685Y-118632017D01*
X146264762Y-118563340D01*
X146142490Y-118506741D01*
X146010245Y-118463821D01*
X145945578Y-118448882D01*
X145809396Y-118426777D01*
X145660951Y-118412194D01*
X145509495Y-118405813D01*
X145382936Y-118407445D01*
X145221050Y-118414224D01*
X145228470Y-118355245D01*
X145247762Y-118256092D01*
X145278896Y-118175372D01*
X145322731Y-118112466D01*
X145380129Y-118066756D01*
X145451952Y-118037622D01*
X145539059Y-118024447D01*
X145642314Y-118026611D01*
X145680289Y-118030612D01*
X145821480Y-118055780D01*
X145958293Y-118096814D01*
X146052822Y-118134815D01*
X146097982Y-118154190D01*
X146136415Y-118169760D01*
X146162766Y-118179405D01*
X146170454Y-118181452D01*
X146180198Y-118172374D01*
X146196917Y-118143405D01*
X146220768Y-118094217D01*
X146251907Y-118024484D01*
X146290493Y-117933879D01*
X146297090Y-117918089D01*
X146327147Y-117845772D01*
X146354126Y-117780425D01*
X146376864Y-117724906D01*
X146394194Y-117682072D01*
X146404952Y-117654781D01*
X146408059Y-117645942D01*
X146398060Y-117641187D01*
X146371783Y-117635910D01*
X146343511Y-117632231D01*
X146313354Y-117627474D01*
X146265567Y-117618028D01*
X146204388Y-117604820D01*
X146134054Y-117588776D01*
X146058806Y-117570820D01*
X146030245Y-117563797D01*
X145925184Y-117538209D01*
X145837520Y-117518147D01*
X145762932Y-117502969D01*
X145697097Y-117492035D01*
X145635693Y-117484704D01*
X145574398Y-117480335D01*
X145508890Y-117478287D01*
X145450872Y-117477889D01*
X145281426Y-117484552D01*
G36*
X141768493Y-118090245D02*
G01*
X141768474Y-118324662D01*
X141768448Y-118537603D01*
X141768375Y-118730168D01*
X141768218Y-118903459D01*
X141767936Y-119058576D01*
X141767491Y-119196620D01*
X141766844Y-119318692D01*
X141765955Y-119425894D01*
X141764787Y-119519326D01*
X141763299Y-119600090D01*
X141761454Y-119669286D01*
X141759211Y-119728015D01*
X141756531Y-119777379D01*
X141753377Y-119818478D01*
X141749708Y-119852413D01*
X141745487Y-119880286D01*
X141740673Y-119903198D01*
X141735227Y-119922249D01*
X141729112Y-119938540D01*
X141722288Y-119953173D01*
X141714715Y-119967249D01*
X141706355Y-119981868D01*
X141701161Y-119990974D01*
X141666896Y-120051689D01*
X142525045Y-120051689D01*
X142525045Y-119955733D01*
X142525776Y-119912370D01*
X142527728Y-119879205D01*
X142530537Y-119861424D01*
X142531779Y-119859778D01*
X142543201Y-119866662D01*
X142565916Y-119884505D01*
X142588615Y-119903879D01*
X142643200Y-119944614D01*
X142712679Y-119985617D01*
X142789730Y-120023123D01*
X142867035Y-120053364D01*
X142897887Y-120063012D01*
X142966384Y-120077578D01*
X143049236Y-120087539D01*
X143138629Y-120092583D01*
X143226752Y-120092396D01*
X143305793Y-120086666D01*
X143343489Y-120080858D01*
X143481586Y-120042797D01*
X143608887Y-119985073D01*
X143724708Y-119908211D01*
X143828363Y-119812739D01*
X143919167Y-119699179D01*
X143985969Y-119588381D01*
X144040836Y-119471625D01*
X144082837Y-119352276D01*
X144112833Y-119226283D01*
X144131689Y-119089594D01*
X144140268Y-118938158D01*
X144140994Y-118860711D01*
X144138900Y-118803934D01*
X143309783Y-118803934D01*
X143309576Y-118897002D01*
X143306663Y-118984692D01*
X143301000Y-119061772D01*
X143292545Y-119123009D01*
X143289962Y-119135350D01*
X143258160Y-119242633D01*
X143216502Y-119329658D01*
X143164637Y-119396642D01*
X143102219Y-119443805D01*
X143028900Y-119471365D01*
X142944331Y-119479541D01*
X142848165Y-119468551D01*
X142784689Y-119452829D01*
X142735546Y-119434639D01*
X142681417Y-119408791D01*
X142640756Y-119385089D01*
X142570200Y-119338721D01*
X142570200Y-118188530D01*
X142637608Y-118144962D01*
X142716133Y-118104040D01*
X142800319Y-118077389D01*
X142885443Y-118065465D01*
X142966784Y-118068722D01*
X143039620Y-118087615D01*
X143071574Y-118103184D01*
X143129499Y-118146181D01*
X143178456Y-118202953D01*
X143219610Y-118275575D01*
X143254126Y-118366121D01*
X143283167Y-118476666D01*
X143284448Y-118482533D01*
X143294619Y-118544788D01*
X143302261Y-118622594D01*
X143307330Y-118710720D01*
X143309783Y-118803934D01*
X144138900Y-118803934D01*
X144133143Y-118647895D01*
X144111198Y-118452059D01*
X144075214Y-118273332D01*
X144025241Y-118111845D01*
X143961332Y-117967726D01*
X143883538Y-117841106D01*
X143791911Y-117732115D01*
X143686503Y-117640883D01*
X143641338Y-117609932D01*
X143540389Y-117553785D01*
X143437099Y-117514174D01*
X143327011Y-117490014D01*
X143205670Y-117480219D01*
X143113164Y-117481265D01*
X142983510Y-117492231D01*
X142870916Y-117514046D01*
X142772125Y-117547714D01*
X142683879Y-117594236D01*
X142635014Y-117628448D01*
X142605647Y-117650362D01*
X142583957Y-117665333D01*
X142575747Y-117669733D01*
X142574132Y-117658904D01*
X142572841Y-117628251D01*
X142571862Y-117580526D01*
X142571183Y-117518479D01*
X142570790Y-117444862D01*
X142570670Y-117362427D01*
X142570812Y-117273925D01*
X142571203Y-117182107D01*
X142571829Y-117089724D01*
X142572680Y-116999528D01*
X142573740Y-116914271D01*
X142574999Y-116836703D01*
X142576444Y-116769576D01*
X142578062Y-116715641D01*
X142579839Y-116677650D01*
X142580331Y-116670667D01*
X142587908Y-116600251D01*
X142599469Y-116545102D01*
X142617208Y-116497981D01*
X142643318Y-116451647D01*
X142649585Y-116442067D01*
X142674017Y-116405378D01*
X141768689Y-116405378D01*
X141768493Y-118090245D01*
G37*
X141768493Y-118090245D02*
X141768474Y-118324662D01*
X141768448Y-118537603D01*
X141768375Y-118730168D01*
X141768218Y-118903459D01*
X141767936Y-119058576D01*
X141767491Y-119196620D01*
X141766844Y-119318692D01*
X141765955Y-119425894D01*
X141764787Y-119519326D01*
X141763299Y-119600090D01*
X141761454Y-119669286D01*
X141759211Y-119728015D01*
X141756531Y-119777379D01*
X141753377Y-119818478D01*
X141749708Y-119852413D01*
X141745487Y-119880286D01*
X141740673Y-119903198D01*
X141735227Y-119922249D01*
X141729112Y-119938540D01*
X141722288Y-119953173D01*
X141714715Y-119967249D01*
X141706355Y-119981868D01*
X141701161Y-119990974D01*
X141666896Y-120051689D01*
X142525045Y-120051689D01*
X142525045Y-119955733D01*
X142525776Y-119912370D01*
X142527728Y-119879205D01*
X142530537Y-119861424D01*
X142531779Y-119859778D01*
X142543201Y-119866662D01*
X142565916Y-119884505D01*
X142588615Y-119903879D01*
X142643200Y-119944614D01*
X142712679Y-119985617D01*
X142789730Y-120023123D01*
X142867035Y-120053364D01*
X142897887Y-120063012D01*
X142966384Y-120077578D01*
X143049236Y-120087539D01*
X143138629Y-120092583D01*
X143226752Y-120092396D01*
X143305793Y-120086666D01*
X143343489Y-120080858D01*
X143481586Y-120042797D01*
X143608887Y-119985073D01*
X143724708Y-119908211D01*
X143828363Y-119812739D01*
X143919167Y-119699179D01*
X143985969Y-119588381D01*
X144040836Y-119471625D01*
X144082837Y-119352276D01*
X144112833Y-119226283D01*
X144131689Y-119089594D01*
X144140268Y-118938158D01*
X144140994Y-118860711D01*
X144138900Y-118803934D01*
X143309783Y-118803934D01*
X143309576Y-118897002D01*
X143306663Y-118984692D01*
X143301000Y-119061772D01*
X143292545Y-119123009D01*
X143289962Y-119135350D01*
X143258160Y-119242633D01*
X143216502Y-119329658D01*
X143164637Y-119396642D01*
X143102219Y-119443805D01*
X143028900Y-119471365D01*
X142944331Y-119479541D01*
X142848165Y-119468551D01*
X142784689Y-119452829D01*
X142735546Y-119434639D01*
X142681417Y-119408791D01*
X142640756Y-119385089D01*
X142570200Y-119338721D01*
X142570200Y-118188530D01*
X142637608Y-118144962D01*
X142716133Y-118104040D01*
X142800319Y-118077389D01*
X142885443Y-118065465D01*
X142966784Y-118068722D01*
X143039620Y-118087615D01*
X143071574Y-118103184D01*
X143129499Y-118146181D01*
X143178456Y-118202953D01*
X143219610Y-118275575D01*
X143254126Y-118366121D01*
X143283167Y-118476666D01*
X143284448Y-118482533D01*
X143294619Y-118544788D01*
X143302261Y-118622594D01*
X143307330Y-118710720D01*
X143309783Y-118803934D01*
X144138900Y-118803934D01*
X144133143Y-118647895D01*
X144111198Y-118452059D01*
X144075214Y-118273332D01*
X144025241Y-118111845D01*
X143961332Y-117967726D01*
X143883538Y-117841106D01*
X143791911Y-117732115D01*
X143686503Y-117640883D01*
X143641338Y-117609932D01*
X143540389Y-117553785D01*
X143437099Y-117514174D01*
X143327011Y-117490014D01*
X143205670Y-117480219D01*
X143113164Y-117481265D01*
X142983510Y-117492231D01*
X142870916Y-117514046D01*
X142772125Y-117547714D01*
X142683879Y-117594236D01*
X142635014Y-117628448D01*
X142605647Y-117650362D01*
X142583957Y-117665333D01*
X142575747Y-117669733D01*
X142574132Y-117658904D01*
X142572841Y-117628251D01*
X142571862Y-117580526D01*
X142571183Y-117518479D01*
X142570790Y-117444862D01*
X142570670Y-117362427D01*
X142570812Y-117273925D01*
X142571203Y-117182107D01*
X142571829Y-117089724D01*
X142572680Y-116999528D01*
X142573740Y-116914271D01*
X142574999Y-116836703D01*
X142576444Y-116769576D01*
X142578062Y-116715641D01*
X142579839Y-116677650D01*
X142580331Y-116670667D01*
X142587908Y-116600251D01*
X142599469Y-116545102D01*
X142617208Y-116497981D01*
X142643318Y-116451647D01*
X142649585Y-116442067D01*
X142674017Y-116405378D01*
X141768689Y-116405378D01*
X141768493Y-118090245D01*
G36*
X150228043Y-115644571D02*
G01*
X150131768Y-115668809D01*
X150045184Y-115711641D01*
X149970373Y-115771419D01*
X149909418Y-115846494D01*
X149864399Y-115935220D01*
X149838136Y-116031530D01*
X149832286Y-116128795D01*
X149847140Y-116222654D01*
X149880840Y-116310511D01*
X149931528Y-116389770D01*
X149997345Y-116457836D01*
X150076434Y-116512112D01*
X150166934Y-116550002D01*
X150218200Y-116562426D01*
X150262698Y-116569947D01*
X150296999Y-116572919D01*
X150329960Y-116571094D01*
X150370434Y-116564225D01*
X150403531Y-116557250D01*
X150496947Y-116525741D01*
X150580619Y-116474617D01*
X150652665Y-116405429D01*
X150711200Y-116319728D01*
X150725148Y-116292489D01*
X150741586Y-116256122D01*
X150751894Y-116225582D01*
X150757460Y-116193450D01*
X150759669Y-116152307D01*
X150759948Y-116106222D01*
X150755861Y-116021865D01*
X150742446Y-115952586D01*
X150717256Y-115891961D01*
X150677846Y-115833567D01*
X150639298Y-115789302D01*
X150567406Y-115723484D01*
X150492313Y-115678053D01*
X150409562Y-115650850D01*
X150331928Y-115640576D01*
X150228043Y-115644571D01*
G37*
X150228043Y-115644571D02*
X150131768Y-115668809D01*
X150045184Y-115711641D01*
X149970373Y-115771419D01*
X149909418Y-115846494D01*
X149864399Y-115935220D01*
X149838136Y-116031530D01*
X149832286Y-116128795D01*
X149847140Y-116222654D01*
X149880840Y-116310511D01*
X149931528Y-116389770D01*
X149997345Y-116457836D01*
X150076434Y-116512112D01*
X150166934Y-116550002D01*
X150218200Y-116562426D01*
X150262698Y-116569947D01*
X150296999Y-116572919D01*
X150329960Y-116571094D01*
X150370434Y-116564225D01*
X150403531Y-116557250D01*
X150496947Y-116525741D01*
X150580619Y-116474617D01*
X150652665Y-116405429D01*
X150711200Y-116319728D01*
X150725148Y-116292489D01*
X150741586Y-116256122D01*
X150751894Y-116225582D01*
X150757460Y-116193450D01*
X150759669Y-116152307D01*
X150759948Y-116106222D01*
X150755861Y-116021865D01*
X150742446Y-115952586D01*
X150717256Y-115891961D01*
X150677846Y-115833567D01*
X150639298Y-115789302D01*
X150567406Y-115723484D01*
X150492313Y-115678053D01*
X150409562Y-115650850D01*
X150331928Y-115640576D01*
X150228043Y-115644571D01*
G36*
X160277759Y-120468184D02*
G01*
X160251247Y-120481282D01*
X160218553Y-120504106D01*
X160194725Y-120528996D01*
X160178406Y-120560249D01*
X160168240Y-120602166D01*
X160162872Y-120659044D01*
X160160944Y-120735184D01*
X160160831Y-120767917D01*
X160161161Y-120839656D01*
X160162527Y-120890927D01*
X160165500Y-120926404D01*
X160170649Y-120950763D01*
X160178543Y-120968680D01*
X160186757Y-120980902D01*
X160239187Y-121032905D01*
X160300930Y-121064184D01*
X160367536Y-121073592D01*
X160434558Y-121059980D01*
X160455792Y-121050354D01*
X160506624Y-121023859D01*
X160506624Y-121439052D01*
X160469525Y-121419868D01*
X160420643Y-121405025D01*
X160360561Y-121401222D01*
X160300564Y-121408243D01*
X160255256Y-121424013D01*
X160217675Y-121454047D01*
X160185564Y-121497024D01*
X160183150Y-121501436D01*
X160172967Y-121522221D01*
X160165530Y-121543170D01*
X160160411Y-121568548D01*
X160157181Y-121602618D01*
X160155413Y-121649641D01*
X160154677Y-121713882D01*
X160154544Y-121786176D01*
X160154544Y-122016822D01*
X160292861Y-122016822D01*
X160292861Y-121591533D01*
X160331549Y-121558979D01*
X160371738Y-121532940D01*
X160409797Y-121528205D01*
X160448066Y-121540389D01*
X160468462Y-121552320D01*
X160483642Y-121569313D01*
X160494438Y-121594995D01*
X160501683Y-121632991D01*
X160506208Y-121686926D01*
X160508844Y-121760425D01*
X160509772Y-121809347D01*
X160512911Y-122010535D01*
X160578926Y-122014336D01*
X160644940Y-122018136D01*
X160644940Y-120769650D01*
X160506624Y-120769650D01*
X160503097Y-120839254D01*
X160491215Y-120887569D01*
X160469020Y-120917631D01*
X160434559Y-120932471D01*
X160399742Y-120935436D01*
X160360329Y-120932028D01*
X160334171Y-120918617D01*
X160317814Y-120900896D01*
X160304937Y-120881835D01*
X160297272Y-120860601D01*
X160293861Y-120830849D01*
X160293749Y-120786236D01*
X160294897Y-120748880D01*
X160297532Y-120692604D01*
X160301456Y-120655658D01*
X160308063Y-120632223D01*
X160318749Y-120616480D01*
X160328833Y-120607380D01*
X160370970Y-120587537D01*
X160420840Y-120584332D01*
X160449476Y-120591168D01*
X160477828Y-120615464D01*
X160496609Y-120662728D01*
X160505712Y-120732624D01*
X160506624Y-120769650D01*
X160644940Y-120769650D01*
X160644940Y-120457614D01*
X160575782Y-120457614D01*
X160534260Y-120459256D01*
X160512838Y-120465087D01*
X160506626Y-120476461D01*
X160506624Y-120476798D01*
X160503742Y-120487938D01*
X160491030Y-120486673D01*
X160465757Y-120474433D01*
X160406869Y-120455707D01*
X160340615Y-120453739D01*
X160277759Y-120468184D01*
G37*
X160277759Y-120468184D02*
X160251247Y-120481282D01*
X160218553Y-120504106D01*
X160194725Y-120528996D01*
X160178406Y-120560249D01*
X160168240Y-120602166D01*
X160162872Y-120659044D01*
X160160944Y-120735184D01*
X160160831Y-120767917D01*
X160161161Y-120839656D01*
X160162527Y-120890927D01*
X160165500Y-120926404D01*
X160170649Y-120950763D01*
X160178543Y-120968680D01*
X160186757Y-120980902D01*
X160239187Y-121032905D01*
X160300930Y-121064184D01*
X160367536Y-121073592D01*
X160434558Y-121059980D01*
X160455792Y-121050354D01*
X160506624Y-121023859D01*
X160506624Y-121439052D01*
X160469525Y-121419868D01*
X160420643Y-121405025D01*
X160360561Y-121401222D01*
X160300564Y-121408243D01*
X160255256Y-121424013D01*
X160217675Y-121454047D01*
X160185564Y-121497024D01*
X160183150Y-121501436D01*
X160172967Y-121522221D01*
X160165530Y-121543170D01*
X160160411Y-121568548D01*
X160157181Y-121602618D01*
X160155413Y-121649641D01*
X160154677Y-121713882D01*
X160154544Y-121786176D01*
X160154544Y-122016822D01*
X160292861Y-122016822D01*
X160292861Y-121591533D01*
X160331549Y-121558979D01*
X160371738Y-121532940D01*
X160409797Y-121528205D01*
X160448066Y-121540389D01*
X160468462Y-121552320D01*
X160483642Y-121569313D01*
X160494438Y-121594995D01*
X160501683Y-121632991D01*
X160506208Y-121686926D01*
X160508844Y-121760425D01*
X160509772Y-121809347D01*
X160512911Y-122010535D01*
X160578926Y-122014336D01*
X160644940Y-122018136D01*
X160644940Y-120769650D01*
X160506624Y-120769650D01*
X160503097Y-120839254D01*
X160491215Y-120887569D01*
X160469020Y-120917631D01*
X160434559Y-120932471D01*
X160399742Y-120935436D01*
X160360329Y-120932028D01*
X160334171Y-120918617D01*
X160317814Y-120900896D01*
X160304937Y-120881835D01*
X160297272Y-120860601D01*
X160293861Y-120830849D01*
X160293749Y-120786236D01*
X160294897Y-120748880D01*
X160297532Y-120692604D01*
X160301456Y-120655658D01*
X160308063Y-120632223D01*
X160318749Y-120616480D01*
X160328833Y-120607380D01*
X160370970Y-120587537D01*
X160420840Y-120584332D01*
X160449476Y-120591168D01*
X160477828Y-120615464D01*
X160496609Y-120662728D01*
X160505712Y-120732624D01*
X160506624Y-120769650D01*
X160644940Y-120769650D01*
X160644940Y-120457614D01*
X160575782Y-120457614D01*
X160534260Y-120459256D01*
X160512838Y-120465087D01*
X160506626Y-120476461D01*
X160506624Y-120476798D01*
X160503742Y-120487938D01*
X160491030Y-120486673D01*
X160465757Y-120474433D01*
X160406869Y-120455707D01*
X160340615Y-120453739D01*
X160277759Y-120468184D01*
G36*
X159753210Y-121405555D02*
G01*
X159694055Y-121421339D01*
X159649023Y-121449948D01*
X159617246Y-121487419D01*
X159607366Y-121503411D01*
X159600073Y-121520163D01*
X159594974Y-121541592D01*
X159591679Y-121571616D01*
X159589797Y-121614154D01*
X159588937Y-121673122D01*
X159588707Y-121752440D01*
X159588703Y-121773484D01*
X159588703Y-122016822D01*
X159649059Y-122016822D01*
X159687557Y-122014126D01*
X159716023Y-122007295D01*
X159723155Y-122003083D01*
X159742652Y-121995813D01*
X159762566Y-122003083D01*
X159795353Y-122012160D01*
X159842978Y-122015813D01*
X159895764Y-122014228D01*
X159944036Y-122007589D01*
X159972218Y-121999072D01*
X160026753Y-121964063D01*
X160060835Y-121915479D01*
X160076157Y-121850882D01*
X160076299Y-121849223D01*
X160074955Y-121820566D01*
X159953356Y-121820566D01*
X159942726Y-121853161D01*
X159925410Y-121871505D01*
X159890652Y-121885379D01*
X159844773Y-121890917D01*
X159797988Y-121888191D01*
X159760514Y-121877274D01*
X159750015Y-121870269D01*
X159731668Y-121837904D01*
X159727020Y-121801111D01*
X159727020Y-121752763D01*
X159796582Y-121752763D01*
X159862667Y-121757850D01*
X159912764Y-121772263D01*
X159943929Y-121794729D01*
X159953356Y-121820566D01*
X160074955Y-121820566D01*
X160072987Y-121778647D01*
X160049710Y-121722845D01*
X160005948Y-121680647D01*
X159999899Y-121676808D01*
X159973907Y-121664309D01*
X159941735Y-121656740D01*
X159896760Y-121653061D01*
X159843331Y-121652216D01*
X159727020Y-121652169D01*
X159727020Y-121603411D01*
X159731953Y-121565581D01*
X159744543Y-121540236D01*
X159746017Y-121538887D01*
X159774034Y-121527800D01*
X159816326Y-121523503D01*
X159863064Y-121525615D01*
X159904418Y-121533756D01*
X159928957Y-121545965D01*
X159942253Y-121555746D01*
X159956294Y-121557613D01*
X159975671Y-121549600D01*
X160004976Y-121529739D01*
X160048803Y-121496063D01*
X160052825Y-121492909D01*
X160050764Y-121481236D01*
X160033568Y-121461822D01*
X160007433Y-121440248D01*
X159978552Y-121422096D01*
X159969478Y-121417809D01*
X159936380Y-121409256D01*
X159887880Y-121403155D01*
X159833695Y-121400708D01*
X159831161Y-121400703D01*
X159753210Y-121405555D01*
G37*
X159753210Y-121405555D02*
X159694055Y-121421339D01*
X159649023Y-121449948D01*
X159617246Y-121487419D01*
X159607366Y-121503411D01*
X159600073Y-121520163D01*
X159594974Y-121541592D01*
X159591679Y-121571616D01*
X159589797Y-121614154D01*
X159588937Y-121673122D01*
X159588707Y-121752440D01*
X159588703Y-121773484D01*
X159588703Y-122016822D01*
X159649059Y-122016822D01*
X159687557Y-122014126D01*
X159716023Y-122007295D01*
X159723155Y-122003083D01*
X159742652Y-121995813D01*
X159762566Y-122003083D01*
X159795353Y-122012160D01*
X159842978Y-122015813D01*
X159895764Y-122014228D01*
X159944036Y-122007589D01*
X159972218Y-121999072D01*
X160026753Y-121964063D01*
X160060835Y-121915479D01*
X160076157Y-121850882D01*
X160076299Y-121849223D01*
X160074955Y-121820566D01*
X159953356Y-121820566D01*
X159942726Y-121853161D01*
X159925410Y-121871505D01*
X159890652Y-121885379D01*
X159844773Y-121890917D01*
X159797988Y-121888191D01*
X159760514Y-121877274D01*
X159750015Y-121870269D01*
X159731668Y-121837904D01*
X159727020Y-121801111D01*
X159727020Y-121752763D01*
X159796582Y-121752763D01*
X159862667Y-121757850D01*
X159912764Y-121772263D01*
X159943929Y-121794729D01*
X159953356Y-121820566D01*
X160074955Y-121820566D01*
X160072987Y-121778647D01*
X160049710Y-121722845D01*
X160005948Y-121680647D01*
X159999899Y-121676808D01*
X159973907Y-121664309D01*
X159941735Y-121656740D01*
X159896760Y-121653061D01*
X159843331Y-121652216D01*
X159727020Y-121652169D01*
X159727020Y-121603411D01*
X159731953Y-121565581D01*
X159744543Y-121540236D01*
X159746017Y-121538887D01*
X159774034Y-121527800D01*
X159816326Y-121523503D01*
X159863064Y-121525615D01*
X159904418Y-121533756D01*
X159928957Y-121545965D01*
X159942253Y-121555746D01*
X159956294Y-121557613D01*
X159975671Y-121549600D01*
X160004976Y-121529739D01*
X160048803Y-121496063D01*
X160052825Y-121492909D01*
X160050764Y-121481236D01*
X160033568Y-121461822D01*
X160007433Y-121440248D01*
X159978552Y-121422096D01*
X159969478Y-121417809D01*
X159936380Y-121409256D01*
X159887880Y-121403155D01*
X159833695Y-121400708D01*
X159831161Y-121400703D01*
X159753210Y-121405555D01*
G36*
X159362356Y-121402020D02*
G01*
X159343539Y-121407660D01*
X159337473Y-121420053D01*
X159337218Y-121425647D01*
X159336129Y-121441230D01*
X159328632Y-121443676D01*
X159308381Y-121432993D01*
X159296351Y-121425694D01*
X159258400Y-121410063D01*
X159213072Y-121402334D01*
X159165544Y-121401740D01*
X159120995Y-121407513D01*
X159084602Y-121418884D01*
X159061543Y-121435088D01*
X159056996Y-121455355D01*
X159059291Y-121460843D01*
X159076020Y-121483626D01*
X159101963Y-121511647D01*
X159106655Y-121516177D01*
X159131383Y-121537005D01*
X159152718Y-121543735D01*
X159182555Y-121539038D01*
X159194508Y-121535917D01*
X159231705Y-121528421D01*
X159257859Y-121531792D01*
X159279946Y-121543681D01*
X159300178Y-121559635D01*
X159315079Y-121579700D01*
X159325434Y-121607702D01*
X159332029Y-121647467D01*
X159335649Y-121702823D01*
X159337078Y-121777594D01*
X159337218Y-121822740D01*
X159337218Y-122016822D01*
X159462960Y-122016822D01*
X159462960Y-121400683D01*
X159400089Y-121400683D01*
X159362356Y-121402020D01*
G37*
X159362356Y-121402020D02*
X159343539Y-121407660D01*
X159337473Y-121420053D01*
X159337218Y-121425647D01*
X159336129Y-121441230D01*
X159328632Y-121443676D01*
X159308381Y-121432993D01*
X159296351Y-121425694D01*
X159258400Y-121410063D01*
X159213072Y-121402334D01*
X159165544Y-121401740D01*
X159120995Y-121407513D01*
X159084602Y-121418884D01*
X159061543Y-121435088D01*
X159056996Y-121455355D01*
X159059291Y-121460843D01*
X159076020Y-121483626D01*
X159101963Y-121511647D01*
X159106655Y-121516177D01*
X159131383Y-121537005D01*
X159152718Y-121543735D01*
X159182555Y-121539038D01*
X159194508Y-121535917D01*
X159231705Y-121528421D01*
X159257859Y-121531792D01*
X159279946Y-121543681D01*
X159300178Y-121559635D01*
X159315079Y-121579700D01*
X159325434Y-121607702D01*
X159332029Y-121647467D01*
X159335649Y-121702823D01*
X159337078Y-121777594D01*
X159337218Y-121822740D01*
X159337218Y-122016822D01*
X159462960Y-122016822D01*
X159462960Y-121400683D01*
X159400089Y-121400683D01*
X159362356Y-121402020D01*
G36*
X158570188Y-122016822D02*
G01*
X158639346Y-122016822D01*
X158679488Y-122015645D01*
X158700394Y-122010772D01*
X158707922Y-122000186D01*
X158708505Y-121993029D01*
X158709774Y-121978676D01*
X158717779Y-121975923D01*
X158738815Y-121984771D01*
X158755173Y-121993029D01*
X158817977Y-122012597D01*
X158886248Y-122013729D01*
X158941752Y-121999135D01*
X158993438Y-121963877D01*
X159032838Y-121911835D01*
X159054413Y-121850450D01*
X159054962Y-121847018D01*
X159058167Y-121809571D01*
X159059761Y-121755813D01*
X159059633Y-121715155D01*
X158922279Y-121715155D01*
X158919097Y-121769194D01*
X158911859Y-121813735D01*
X158902060Y-121838888D01*
X158864989Y-121873260D01*
X158820974Y-121885582D01*
X158775584Y-121875618D01*
X158736797Y-121845895D01*
X158722108Y-121825905D01*
X158713519Y-121802050D01*
X158709496Y-121767230D01*
X158708505Y-121714930D01*
X158710278Y-121663139D01*
X158714963Y-121617634D01*
X158721603Y-121587181D01*
X158722710Y-121584452D01*
X158749491Y-121552000D01*
X158788579Y-121534183D01*
X158832315Y-121531306D01*
X158873038Y-121543674D01*
X158903087Y-121571593D01*
X158906204Y-121577148D01*
X158915961Y-121611022D01*
X158921277Y-121659728D01*
X158922279Y-121715155D01*
X159059633Y-121715155D01*
X159059568Y-121694540D01*
X159058664Y-121661563D01*
X159052514Y-121579981D01*
X159039733Y-121518730D01*
X159018471Y-121473449D01*
X158986878Y-121439779D01*
X158956207Y-121420014D01*
X158913354Y-121406120D01*
X158860056Y-121401354D01*
X158805480Y-121405236D01*
X158758792Y-121417282D01*
X158734124Y-121431693D01*
X158708505Y-121454878D01*
X158708505Y-121161773D01*
X158570188Y-121161773D01*
X158570188Y-122016822D01*
G37*
X158570188Y-122016822D02*
X158639346Y-122016822D01*
X158679488Y-122015645D01*
X158700394Y-122010772D01*
X158707922Y-122000186D01*
X158708505Y-121993029D01*
X158709774Y-121978676D01*
X158717779Y-121975923D01*
X158738815Y-121984771D01*
X158755173Y-121993029D01*
X158817977Y-122012597D01*
X158886248Y-122013729D01*
X158941752Y-121999135D01*
X158993438Y-121963877D01*
X159032838Y-121911835D01*
X159054413Y-121850450D01*
X159054962Y-121847018D01*
X159058167Y-121809571D01*
X159059761Y-121755813D01*
X159059633Y-121715155D01*
X158922279Y-121715155D01*
X158919097Y-121769194D01*
X158911859Y-121813735D01*
X158902060Y-121838888D01*
X158864989Y-121873260D01*
X158820974Y-121885582D01*
X158775584Y-121875618D01*
X158736797Y-121845895D01*
X158722108Y-121825905D01*
X158713519Y-121802050D01*
X158709496Y-121767230D01*
X158708505Y-121714930D01*
X158710278Y-121663139D01*
X158714963Y-121617634D01*
X158721603Y-121587181D01*
X158722710Y-121584452D01*
X158749491Y-121552000D01*
X158788579Y-121534183D01*
X158832315Y-121531306D01*
X158873038Y-121543674D01*
X158903087Y-121571593D01*
X158906204Y-121577148D01*
X158915961Y-121611022D01*
X158921277Y-121659728D01*
X158922279Y-121715155D01*
X159059633Y-121715155D01*
X159059568Y-121694540D01*
X159058664Y-121661563D01*
X159052514Y-121579981D01*
X159039733Y-121518730D01*
X159018471Y-121473449D01*
X158986878Y-121439779D01*
X158956207Y-121420014D01*
X158913354Y-121406120D01*
X158860056Y-121401354D01*
X158805480Y-121405236D01*
X158758792Y-121417282D01*
X158734124Y-121431693D01*
X158708505Y-121454878D01*
X158708505Y-121161773D01*
X158570188Y-121161773D01*
X158570188Y-122016822D01*
G36*
X158087476Y-121403237D02*
G01*
X158037745Y-121406971D01*
X157907709Y-121796773D01*
X157887322Y-121727614D01*
X157875054Y-121684874D01*
X157858915Y-121627115D01*
X157841488Y-121563625D01*
X157832274Y-121529570D01*
X157797612Y-121400683D01*
X157654609Y-121400683D01*
X157697354Y-121535857D01*
X157718404Y-121602342D01*
X157743833Y-121682539D01*
X157770390Y-121766193D01*
X157794098Y-121840782D01*
X157848098Y-122010535D01*
X157906402Y-122014328D01*
X157964705Y-122018122D01*
X157996321Y-121913734D01*
X158015818Y-121848889D01*
X158037096Y-121777400D01*
X158055692Y-121714263D01*
X158056426Y-121711750D01*
X158070316Y-121668969D01*
X158082571Y-121639779D01*
X158091154Y-121628741D01*
X158092918Y-121630018D01*
X158099109Y-121647130D01*
X158110872Y-121683787D01*
X158126775Y-121735378D01*
X158145386Y-121797294D01*
X158155457Y-121831352D01*
X158209993Y-122016822D01*
X158325736Y-122016822D01*
X158418263Y-121724471D01*
X158444256Y-121642462D01*
X158467934Y-121567987D01*
X158488180Y-121504544D01*
X158503874Y-121455632D01*
X158513898Y-121424749D01*
X158516945Y-121415726D01*
X158514533Y-121406487D01*
X158495592Y-121402441D01*
X158456177Y-121402846D01*
X158450007Y-121403152D01*
X158376914Y-121406971D01*
X158329043Y-121583010D01*
X158311447Y-121647211D01*
X158295723Y-121703649D01*
X158283254Y-121747422D01*
X158275426Y-121773630D01*
X158273980Y-121777903D01*
X158267986Y-121772990D01*
X158255899Y-121747532D01*
X158239107Y-121704997D01*
X158218997Y-121648850D01*
X158201997Y-121598130D01*
X158137206Y-121399504D01*
X158087476Y-121403237D01*
G37*
X158087476Y-121403237D02*
X158037745Y-121406971D01*
X157907709Y-121796773D01*
X157887322Y-121727614D01*
X157875054Y-121684874D01*
X157858915Y-121627115D01*
X157841488Y-121563625D01*
X157832274Y-121529570D01*
X157797612Y-121400683D01*
X157654609Y-121400683D01*
X157697354Y-121535857D01*
X157718404Y-121602342D01*
X157743833Y-121682539D01*
X157770390Y-121766193D01*
X157794098Y-121840782D01*
X157848098Y-122010535D01*
X157906402Y-122014328D01*
X157964705Y-122018122D01*
X157996321Y-121913734D01*
X158015818Y-121848889D01*
X158037096Y-121777400D01*
X158055692Y-121714263D01*
X158056426Y-121711750D01*
X158070316Y-121668969D01*
X158082571Y-121639779D01*
X158091154Y-121628741D01*
X158092918Y-121630018D01*
X158099109Y-121647130D01*
X158110872Y-121683787D01*
X158126775Y-121735378D01*
X158145386Y-121797294D01*
X158155457Y-121831352D01*
X158209993Y-122016822D01*
X158325736Y-122016822D01*
X158418263Y-121724471D01*
X158444256Y-121642462D01*
X158467934Y-121567987D01*
X158488180Y-121504544D01*
X158503874Y-121455632D01*
X158513898Y-121424749D01*
X158516945Y-121415726D01*
X158514533Y-121406487D01*
X158495592Y-121402441D01*
X158456177Y-121402846D01*
X158450007Y-121403152D01*
X158376914Y-121406971D01*
X158329043Y-121583010D01*
X158311447Y-121647211D01*
X158295723Y-121703649D01*
X158283254Y-121747422D01*
X158275426Y-121773630D01*
X158273980Y-121777903D01*
X158267986Y-121772990D01*
X158255899Y-121747532D01*
X158239107Y-121704997D01*
X158218997Y-121648850D01*
X158201997Y-121598130D01*
X158137206Y-121399504D01*
X158087476Y-121403237D01*
G36*
X157330589Y-121404417D02*
G01*
X157277589Y-121417290D01*
X157262269Y-121424110D01*
X157232572Y-121441974D01*
X157209780Y-121462093D01*
X157192917Y-121487962D01*
X157181002Y-121523073D01*
X157173058Y-121570920D01*
X157168106Y-121634996D01*
X157165169Y-121718794D01*
X157164053Y-121774768D01*
X157159948Y-122016822D01*
X157230068Y-122016822D01*
X157272607Y-122015038D01*
X157294524Y-122008942D01*
X157300188Y-121998706D01*
X157303179Y-121987637D01*
X157316549Y-121989754D01*
X157334767Y-121998629D01*
X157380376Y-122012233D01*
X157438993Y-122015899D01*
X157500646Y-122009903D01*
X157555362Y-121994521D01*
X157560270Y-121992386D01*
X157610277Y-121957255D01*
X157643244Y-121908419D01*
X157658413Y-121851333D01*
X157657254Y-121830824D01*
X157533492Y-121830824D01*
X157522587Y-121858425D01*
X157490255Y-121878204D01*
X157438090Y-121888819D01*
X157410213Y-121890228D01*
X157363753Y-121886620D01*
X157332871Y-121872597D01*
X157325336Y-121865931D01*
X157304924Y-121829666D01*
X157300188Y-121796773D01*
X157300188Y-121752763D01*
X157361487Y-121752763D01*
X157432744Y-121756395D01*
X157482724Y-121767818D01*
X157514304Y-121787824D01*
X157521374Y-121796743D01*
X157533492Y-121830824D01*
X157657254Y-121830824D01*
X157655029Y-121791456D01*
X157632337Y-121734244D01*
X157601376Y-121695580D01*
X157582624Y-121678864D01*
X157564267Y-121667878D01*
X157540381Y-121661180D01*
X157505043Y-121657326D01*
X157452331Y-121654873D01*
X157431423Y-121654168D01*
X157300188Y-121649879D01*
X157300380Y-121610158D01*
X157305463Y-121568405D01*
X157323838Y-121543158D01*
X157360961Y-121527030D01*
X157361957Y-121526742D01*
X157414590Y-121520400D01*
X157466094Y-121528684D01*
X157504370Y-121548827D01*
X157519728Y-121558773D01*
X157536270Y-121557397D01*
X157561725Y-121542987D01*
X157576672Y-121532817D01*
X157605909Y-121511088D01*
X157624020Y-121494800D01*
X157626926Y-121490137D01*
X157614960Y-121466005D01*
X157579604Y-121437185D01*
X157564247Y-121427461D01*
X157520099Y-121410714D01*
X157460602Y-121401227D01*
X157394513Y-121399095D01*
X157330589Y-121404417D01*
G37*
X157330589Y-121404417D02*
X157277589Y-121417290D01*
X157262269Y-121424110D01*
X157232572Y-121441974D01*
X157209780Y-121462093D01*
X157192917Y-121487962D01*
X157181002Y-121523073D01*
X157173058Y-121570920D01*
X157168106Y-121634996D01*
X157165169Y-121718794D01*
X157164053Y-121774768D01*
X157159948Y-122016822D01*
X157230068Y-122016822D01*
X157272607Y-122015038D01*
X157294524Y-122008942D01*
X157300188Y-121998706D01*
X157303179Y-121987637D01*
X157316549Y-121989754D01*
X157334767Y-121998629D01*
X157380376Y-122012233D01*
X157438993Y-122015899D01*
X157500646Y-122009903D01*
X157555362Y-121994521D01*
X157560270Y-121992386D01*
X157610277Y-121957255D01*
X157643244Y-121908419D01*
X157658413Y-121851333D01*
X157657254Y-121830824D01*
X157533492Y-121830824D01*
X157522587Y-121858425D01*
X157490255Y-121878204D01*
X157438090Y-121888819D01*
X157410213Y-121890228D01*
X157363753Y-121886620D01*
X157332871Y-121872597D01*
X157325336Y-121865931D01*
X157304924Y-121829666D01*
X157300188Y-121796773D01*
X157300188Y-121752763D01*
X157361487Y-121752763D01*
X157432744Y-121756395D01*
X157482724Y-121767818D01*
X157514304Y-121787824D01*
X157521374Y-121796743D01*
X157533492Y-121830824D01*
X157657254Y-121830824D01*
X157655029Y-121791456D01*
X157632337Y-121734244D01*
X157601376Y-121695580D01*
X157582624Y-121678864D01*
X157564267Y-121667878D01*
X157540381Y-121661180D01*
X157505043Y-121657326D01*
X157452331Y-121654873D01*
X157431423Y-121654168D01*
X157300188Y-121649879D01*
X157300380Y-121610158D01*
X157305463Y-121568405D01*
X157323838Y-121543158D01*
X157360961Y-121527030D01*
X157361957Y-121526742D01*
X157414590Y-121520400D01*
X157466094Y-121528684D01*
X157504370Y-121548827D01*
X157519728Y-121558773D01*
X157536270Y-121557397D01*
X157561725Y-121542987D01*
X157576672Y-121532817D01*
X157605909Y-121511088D01*
X157624020Y-121494800D01*
X157626926Y-121490137D01*
X157614960Y-121466005D01*
X157579604Y-121437185D01*
X157564247Y-121427461D01*
X157520099Y-121410714D01*
X157460602Y-121401227D01*
X157394513Y-121399095D01*
X157330589Y-121404417D01*
G36*
X156733745Y-121400486D02*
G01*
X156685405Y-121410015D01*
X156657886Y-121424125D01*
X156628936Y-121447568D01*
X156670124Y-121499571D01*
X156695518Y-121531064D01*
X156712762Y-121546428D01*
X156729898Y-121548776D01*
X156754973Y-121541217D01*
X156766743Y-121536941D01*
X156814730Y-121530631D01*
X156858676Y-121544156D01*
X156890940Y-121574710D01*
X156896181Y-121584452D01*
X156901888Y-121610258D01*
X156906294Y-121657817D01*
X156909189Y-121723758D01*
X156910369Y-121804710D01*
X156910386Y-121816226D01*
X156910386Y-122016822D01*
X157048703Y-122016822D01*
X157048703Y-121400683D01*
X156979544Y-121400683D01*
X156939667Y-121401725D01*
X156918893Y-121406358D01*
X156911211Y-121416849D01*
X156910386Y-121426745D01*
X156910386Y-121452806D01*
X156877255Y-121426745D01*
X156839265Y-121408965D01*
X156788230Y-121400174D01*
X156733745Y-121400486D01*
G37*
X156733745Y-121400486D02*
X156685405Y-121410015D01*
X156657886Y-121424125D01*
X156628936Y-121447568D01*
X156670124Y-121499571D01*
X156695518Y-121531064D01*
X156712762Y-121546428D01*
X156729898Y-121548776D01*
X156754973Y-121541217D01*
X156766743Y-121536941D01*
X156814730Y-121530631D01*
X156858676Y-121544156D01*
X156890940Y-121574710D01*
X156896181Y-121584452D01*
X156901888Y-121610258D01*
X156906294Y-121657817D01*
X156909189Y-121723758D01*
X156910369Y-121804710D01*
X156910386Y-121816226D01*
X156910386Y-122016822D01*
X157048703Y-122016822D01*
X157048703Y-121400683D01*
X156979544Y-121400683D01*
X156939667Y-121401725D01*
X156918893Y-121406358D01*
X156911211Y-121416849D01*
X156910386Y-121426745D01*
X156910386Y-121452806D01*
X156877255Y-121426745D01*
X156839265Y-121408965D01*
X156788230Y-121400174D01*
X156733745Y-121400486D01*
G36*
X156336419Y-121403970D02*
G01*
X156276315Y-121419597D01*
X156225979Y-121451848D01*
X156201607Y-121475940D01*
X156161655Y-121532895D01*
X156138758Y-121598965D01*
X156130892Y-121680182D01*
X156130852Y-121686748D01*
X156130782Y-121752763D01*
X156510736Y-121752763D01*
X156502637Y-121787342D01*
X156488013Y-121818659D01*
X156462419Y-121851291D01*
X156457065Y-121856500D01*
X156411057Y-121884694D01*
X156358590Y-121889475D01*
X156298197Y-121870926D01*
X156287960Y-121865931D01*
X156256561Y-121850745D01*
X156235530Y-121842094D01*
X156231861Y-121841293D01*
X156219052Y-121849063D01*
X156194622Y-121868072D01*
X156182221Y-121878460D01*
X156156524Y-121902321D01*
X156148085Y-121918077D01*
X156153942Y-121932571D01*
X156157072Y-121936534D01*
X156178275Y-121953879D01*
X156213262Y-121974959D01*
X156237663Y-121987265D01*
X156306928Y-122008946D01*
X156383612Y-122015971D01*
X156456235Y-122007647D01*
X156476574Y-122001686D01*
X156539524Y-121967952D01*
X156586185Y-121916045D01*
X156616827Y-121845459D01*
X156631718Y-121755692D01*
X156633353Y-121708753D01*
X156628579Y-121640413D01*
X156508010Y-121640413D01*
X156496348Y-121645465D01*
X156465002Y-121649429D01*
X156419429Y-121651768D01*
X156388554Y-121652169D01*
X156333019Y-121651783D01*
X156297967Y-121649975D01*
X156278738Y-121645773D01*
X156270670Y-121638203D01*
X156269099Y-121627218D01*
X156279879Y-121593381D01*
X156307020Y-121559940D01*
X156342723Y-121534272D01*
X156378440Y-121523772D01*
X156426952Y-121533086D01*
X156468947Y-121560013D01*
X156498064Y-121598827D01*
X156508010Y-121640413D01*
X156628579Y-121640413D01*
X156626401Y-121609236D01*
X156604945Y-121529949D01*
X156568530Y-121470263D01*
X156516703Y-121429549D01*
X156449010Y-121407179D01*
X156412338Y-121402871D01*
X156336419Y-121403970D01*
G37*
X156336419Y-121403970D02*
X156276315Y-121419597D01*
X156225979Y-121451848D01*
X156201607Y-121475940D01*
X156161655Y-121532895D01*
X156138758Y-121598965D01*
X156130892Y-121680182D01*
X156130852Y-121686748D01*
X156130782Y-121752763D01*
X156510736Y-121752763D01*
X156502637Y-121787342D01*
X156488013Y-121818659D01*
X156462419Y-121851291D01*
X156457065Y-121856500D01*
X156411057Y-121884694D01*
X156358590Y-121889475D01*
X156298197Y-121870926D01*
X156287960Y-121865931D01*
X156256561Y-121850745D01*
X156235530Y-121842094D01*
X156231861Y-121841293D01*
X156219052Y-121849063D01*
X156194622Y-121868072D01*
X156182221Y-121878460D01*
X156156524Y-121902321D01*
X156148085Y-121918077D01*
X156153942Y-121932571D01*
X156157072Y-121936534D01*
X156178275Y-121953879D01*
X156213262Y-121974959D01*
X156237663Y-121987265D01*
X156306928Y-122008946D01*
X156383612Y-122015971D01*
X156456235Y-122007647D01*
X156476574Y-122001686D01*
X156539524Y-121967952D01*
X156586185Y-121916045D01*
X156616827Y-121845459D01*
X156631718Y-121755692D01*
X156633353Y-121708753D01*
X156628579Y-121640413D01*
X156508010Y-121640413D01*
X156496348Y-121645465D01*
X156465002Y-121649429D01*
X156419429Y-121651768D01*
X156388554Y-121652169D01*
X156333019Y-121651783D01*
X156297967Y-121649975D01*
X156278738Y-121645773D01*
X156270670Y-121638203D01*
X156269099Y-121627218D01*
X156279879Y-121593381D01*
X156307020Y-121559940D01*
X156342723Y-121534272D01*
X156378440Y-121523772D01*
X156426952Y-121533086D01*
X156468947Y-121560013D01*
X156498064Y-121598827D01*
X156508010Y-121640413D01*
X156628579Y-121640413D01*
X156626401Y-121609236D01*
X156604945Y-121529949D01*
X156568530Y-121470263D01*
X156516703Y-121429549D01*
X156449010Y-121407179D01*
X156412338Y-121402871D01*
X156336419Y-121403970D01*
G36*
X160907261Y-120464148D02*
G01*
X160841479Y-120493231D01*
X160791540Y-120541793D01*
X160757374Y-120609908D01*
X160738907Y-120697651D01*
X160737583Y-120711351D01*
X160736546Y-120807939D01*
X160749993Y-120892602D01*
X160777108Y-120961221D01*
X160791627Y-120983294D01*
X160842201Y-121030011D01*
X160906609Y-121060268D01*
X160978666Y-121072824D01*
X161052185Y-121066439D01*
X161108072Y-121046772D01*
X161156132Y-121013629D01*
X161195412Y-120970175D01*
X161196092Y-120969158D01*
X161212044Y-120942338D01*
X161222410Y-120915368D01*
X161228688Y-120881332D01*
X161232373Y-120833310D01*
X161233997Y-120793931D01*
X161234672Y-120758219D01*
X161108955Y-120758219D01*
X161107726Y-120793770D01*
X161103266Y-120841094D01*
X161095397Y-120871465D01*
X161081207Y-120893072D01*
X161067917Y-120905694D01*
X161020802Y-120932122D01*
X160971505Y-120935653D01*
X160925593Y-120916639D01*
X160902638Y-120895331D01*
X160886096Y-120873859D01*
X160876421Y-120853313D01*
X160872174Y-120826574D01*
X160871920Y-120786523D01*
X160873228Y-120749638D01*
X160876043Y-120696947D01*
X160880505Y-120662772D01*
X160888548Y-120640480D01*
X160902103Y-120623442D01*
X160912845Y-120613703D01*
X160957777Y-120588123D01*
X161006249Y-120586847D01*
X161046894Y-120601999D01*
X161081567Y-120633642D01*
X161102224Y-120685620D01*
X161108955Y-120758219D01*
X161234672Y-120758219D01*
X161235479Y-120715621D01*
X161232948Y-120657056D01*
X161225362Y-120613007D01*
X161211681Y-120578248D01*
X161190865Y-120547551D01*
X161183147Y-120538436D01*
X161134889Y-120493021D01*
X161083128Y-120466493D01*
X161019828Y-120455379D01*
X160988961Y-120454471D01*
X160907261Y-120464148D01*
G37*
X160907261Y-120464148D02*
X160841479Y-120493231D01*
X160791540Y-120541793D01*
X160757374Y-120609908D01*
X160738907Y-120697651D01*
X160737583Y-120711351D01*
X160736546Y-120807939D01*
X160749993Y-120892602D01*
X160777108Y-120961221D01*
X160791627Y-120983294D01*
X160842201Y-121030011D01*
X160906609Y-121060268D01*
X160978666Y-121072824D01*
X161052185Y-121066439D01*
X161108072Y-121046772D01*
X161156132Y-121013629D01*
X161195412Y-120970175D01*
X161196092Y-120969158D01*
X161212044Y-120942338D01*
X161222410Y-120915368D01*
X161228688Y-120881332D01*
X161232373Y-120833310D01*
X161233997Y-120793931D01*
X161234672Y-120758219D01*
X161108955Y-120758219D01*
X161107726Y-120793770D01*
X161103266Y-120841094D01*
X161095397Y-120871465D01*
X161081207Y-120893072D01*
X161067917Y-120905694D01*
X161020802Y-120932122D01*
X160971505Y-120935653D01*
X160925593Y-120916639D01*
X160902638Y-120895331D01*
X160886096Y-120873859D01*
X160876421Y-120853313D01*
X160872174Y-120826574D01*
X160871920Y-120786523D01*
X160873228Y-120749638D01*
X160876043Y-120696947D01*
X160880505Y-120662772D01*
X160888548Y-120640480D01*
X160902103Y-120623442D01*
X160912845Y-120613703D01*
X160957777Y-120588123D01*
X161006249Y-120586847D01*
X161046894Y-120601999D01*
X161081567Y-120633642D01*
X161102224Y-120685620D01*
X161108955Y-120758219D01*
X161234672Y-120758219D01*
X161235479Y-120715621D01*
X161232948Y-120657056D01*
X161225362Y-120613007D01*
X161211681Y-120578248D01*
X161190865Y-120547551D01*
X161183147Y-120538436D01*
X161134889Y-120493021D01*
X161083128Y-120466493D01*
X161019828Y-120455379D01*
X160988961Y-120454471D01*
X160907261Y-120464148D01*
G36*
X159725699Y-120471614D02*
G01*
X159713168Y-120477514D01*
X159669799Y-120509283D01*
X159628790Y-120555646D01*
X159598168Y-120606696D01*
X159589459Y-120630166D01*
X159581512Y-120672091D01*
X159576774Y-120722757D01*
X159576199Y-120743679D01*
X159576129Y-120809693D01*
X159956083Y-120809693D01*
X159947983Y-120844273D01*
X159928104Y-120885170D01*
X159893347Y-120920514D01*
X159851998Y-120943282D01*
X159825649Y-120948010D01*
X159789916Y-120942273D01*
X159747282Y-120927882D01*
X159732799Y-120921262D01*
X159679240Y-120894513D01*
X159633533Y-120929376D01*
X159607158Y-120952955D01*
X159593124Y-120972417D01*
X159592414Y-120978129D01*
X159604951Y-120991973D01*
X159632428Y-121013012D01*
X159657366Y-121029425D01*
X159724664Y-121058930D01*
X159800110Y-121072284D01*
X159874888Y-121068812D01*
X159934495Y-121050663D01*
X159995941Y-121011784D01*
X160039608Y-120960595D01*
X160066926Y-120894367D01*
X160079322Y-120810371D01*
X160080421Y-120771936D01*
X160076022Y-120683861D01*
X160075482Y-120681299D01*
X159949582Y-120681299D01*
X159946115Y-120689558D01*
X159931863Y-120694113D01*
X159902470Y-120696065D01*
X159853575Y-120696517D01*
X159834748Y-120696525D01*
X159777467Y-120695843D01*
X159741141Y-120693364D01*
X159721604Y-120688443D01*
X159714690Y-120680434D01*
X159714445Y-120677862D01*
X159722336Y-120657423D01*
X159742085Y-120628789D01*
X159750575Y-120618763D01*
X159782094Y-120590408D01*
X159814949Y-120579259D01*
X159832651Y-120578327D01*
X159880539Y-120589981D01*
X159920699Y-120621285D01*
X159946173Y-120666752D01*
X159946625Y-120668233D01*
X159949582Y-120681299D01*
X160075482Y-120681299D01*
X160061392Y-120614510D01*
X160035038Y-120559025D01*
X160002807Y-120519639D01*
X159943217Y-120476931D01*
X159873168Y-120454109D01*
X159798661Y-120452046D01*
X159725699Y-120471614D01*
G37*
X159725699Y-120471614D02*
X159713168Y-120477514D01*
X159669799Y-120509283D01*
X159628790Y-120555646D01*
X159598168Y-120606696D01*
X159589459Y-120630166D01*
X159581512Y-120672091D01*
X159576774Y-120722757D01*
X159576199Y-120743679D01*
X159576129Y-120809693D01*
X159956083Y-120809693D01*
X159947983Y-120844273D01*
X159928104Y-120885170D01*
X159893347Y-120920514D01*
X159851998Y-120943282D01*
X159825649Y-120948010D01*
X159789916Y-120942273D01*
X159747282Y-120927882D01*
X159732799Y-120921262D01*
X159679240Y-120894513D01*
X159633533Y-120929376D01*
X159607158Y-120952955D01*
X159593124Y-120972417D01*
X159592414Y-120978129D01*
X159604951Y-120991973D01*
X159632428Y-121013012D01*
X159657366Y-121029425D01*
X159724664Y-121058930D01*
X159800110Y-121072284D01*
X159874888Y-121068812D01*
X159934495Y-121050663D01*
X159995941Y-121011784D01*
X160039608Y-120960595D01*
X160066926Y-120894367D01*
X160079322Y-120810371D01*
X160080421Y-120771936D01*
X160076022Y-120683861D01*
X160075482Y-120681299D01*
X159949582Y-120681299D01*
X159946115Y-120689558D01*
X159931863Y-120694113D01*
X159902470Y-120696065D01*
X159853575Y-120696517D01*
X159834748Y-120696525D01*
X159777467Y-120695843D01*
X159741141Y-120693364D01*
X159721604Y-120688443D01*
X159714690Y-120680434D01*
X159714445Y-120677862D01*
X159722336Y-120657423D01*
X159742085Y-120628789D01*
X159750575Y-120618763D01*
X159782094Y-120590408D01*
X159814949Y-120579259D01*
X159832651Y-120578327D01*
X159880539Y-120589981D01*
X159920699Y-120621285D01*
X159946173Y-120666752D01*
X159946625Y-120668233D01*
X159949582Y-120681299D01*
X160075482Y-120681299D01*
X160061392Y-120614510D01*
X160035038Y-120559025D01*
X160002807Y-120519639D01*
X159943217Y-120476931D01*
X159873168Y-120454109D01*
X159798661Y-120452046D01*
X159725699Y-120471614D01*
G36*
X158354983Y-120455452D02*
G01*
X158307366Y-120464482D01*
X158257966Y-120483370D01*
X158252688Y-120485777D01*
X158215226Y-120505476D01*
X158189283Y-120523781D01*
X158180897Y-120535508D01*
X158188883Y-120554632D01*
X158208280Y-120582850D01*
X158216890Y-120593384D01*
X158252372Y-120634847D01*
X158298115Y-120607858D01*
X158341650Y-120589878D01*
X158391950Y-120580267D01*
X158440188Y-120579660D01*
X158477533Y-120588691D01*
X158486495Y-120594327D01*
X158503563Y-120620171D01*
X158505637Y-120649941D01*
X158492866Y-120673197D01*
X158485312Y-120677708D01*
X158462675Y-120683309D01*
X158422885Y-120689892D01*
X158373834Y-120696183D01*
X158364785Y-120697170D01*
X158286004Y-120710798D01*
X158228864Y-120733946D01*
X158190970Y-120768752D01*
X158169921Y-120817354D01*
X158163365Y-120876718D01*
X158172423Y-120944198D01*
X158201836Y-120997188D01*
X158251722Y-121035783D01*
X158322200Y-121060081D01*
X158400435Y-121069667D01*
X158464234Y-121069552D01*
X158515984Y-121060845D01*
X158551327Y-121048825D01*
X158595983Y-121027880D01*
X158637253Y-121003574D01*
X158651921Y-120992876D01*
X158689643Y-120962084D01*
X158644148Y-120916049D01*
X158598653Y-120870013D01*
X158546928Y-120904243D01*
X158495048Y-120929952D01*
X158439649Y-120943399D01*
X158386395Y-120944818D01*
X158340951Y-120934443D01*
X158308984Y-120912507D01*
X158298662Y-120893998D01*
X158300211Y-120864314D01*
X158325860Y-120841615D01*
X158375540Y-120825940D01*
X158429969Y-120818695D01*
X158513736Y-120804873D01*
X158575967Y-120778796D01*
X158617493Y-120739699D01*
X158639147Y-120686820D01*
X158642147Y-120624126D01*
X158627329Y-120558642D01*
X158593546Y-120509144D01*
X158540495Y-120475408D01*
X158467874Y-120457207D01*
X158414072Y-120453639D01*
X158354983Y-120455452D01*
G37*
X158354983Y-120455452D02*
X158307366Y-120464482D01*
X158257966Y-120483370D01*
X158252688Y-120485777D01*
X158215226Y-120505476D01*
X158189283Y-120523781D01*
X158180897Y-120535508D01*
X158188883Y-120554632D01*
X158208280Y-120582850D01*
X158216890Y-120593384D01*
X158252372Y-120634847D01*
X158298115Y-120607858D01*
X158341650Y-120589878D01*
X158391950Y-120580267D01*
X158440188Y-120579660D01*
X158477533Y-120588691D01*
X158486495Y-120594327D01*
X158503563Y-120620171D01*
X158505637Y-120649941D01*
X158492866Y-120673197D01*
X158485312Y-120677708D01*
X158462675Y-120683309D01*
X158422885Y-120689892D01*
X158373834Y-120696183D01*
X158364785Y-120697170D01*
X158286004Y-120710798D01*
X158228864Y-120733946D01*
X158190970Y-120768752D01*
X158169921Y-120817354D01*
X158163365Y-120876718D01*
X158172423Y-120944198D01*
X158201836Y-120997188D01*
X158251722Y-121035783D01*
X158322200Y-121060081D01*
X158400435Y-121069667D01*
X158464234Y-121069552D01*
X158515984Y-121060845D01*
X158551327Y-121048825D01*
X158595983Y-121027880D01*
X158637253Y-121003574D01*
X158651921Y-120992876D01*
X158689643Y-120962084D01*
X158644148Y-120916049D01*
X158598653Y-120870013D01*
X158546928Y-120904243D01*
X158495048Y-120929952D01*
X158439649Y-120943399D01*
X158386395Y-120944818D01*
X158340951Y-120934443D01*
X158308984Y-120912507D01*
X158298662Y-120893998D01*
X158300211Y-120864314D01*
X158325860Y-120841615D01*
X158375540Y-120825940D01*
X158429969Y-120818695D01*
X158513736Y-120804873D01*
X158575967Y-120778796D01*
X158617493Y-120739699D01*
X158639147Y-120686820D01*
X158642147Y-120624126D01*
X158627329Y-120558642D01*
X158593546Y-120509144D01*
X158540495Y-120475408D01*
X158467874Y-120457207D01*
X158414072Y-120453639D01*
X158354983Y-120455452D01*
G36*
X157758238Y-120465055D02*
G01*
X157694637Y-120499692D01*
X157644877Y-120554372D01*
X157621432Y-120598842D01*
X157611366Y-120638121D01*
X157604844Y-120694116D01*
X157602049Y-120758621D01*
X157603164Y-120823429D01*
X157608374Y-120880334D01*
X157614459Y-120910727D01*
X157634986Y-120952306D01*
X157670537Y-120996468D01*
X157713381Y-121035087D01*
X157755789Y-121060034D01*
X157756823Y-121060430D01*
X157809447Y-121071331D01*
X157871812Y-121071601D01*
X157931076Y-121061676D01*
X157953960Y-121053722D01*
X158012898Y-121020300D01*
X158055110Y-120976511D01*
X158082844Y-120918538D01*
X158098349Y-120842565D01*
X158101857Y-120802771D01*
X158101410Y-120752766D01*
X157966624Y-120752766D01*
X157962083Y-120825732D01*
X157949014Y-120881334D01*
X157928244Y-120916861D01*
X157913448Y-120927020D01*
X157875536Y-120934104D01*
X157830473Y-120932007D01*
X157791513Y-120921812D01*
X157781296Y-120916204D01*
X157754341Y-120883538D01*
X157736549Y-120833545D01*
X157728976Y-120772705D01*
X157732675Y-120707497D01*
X157740943Y-120668253D01*
X157764680Y-120622805D01*
X157802151Y-120594396D01*
X157847280Y-120584573D01*
X157893989Y-120594887D01*
X157929868Y-120620112D01*
X157948723Y-120640925D01*
X157959728Y-120661439D01*
X157964974Y-120689203D01*
X157966551Y-120731762D01*
X157966624Y-120752766D01*
X158101410Y-120752766D01*
X158100906Y-120696580D01*
X158083612Y-120609501D01*
X158049971Y-120541530D01*
X157999982Y-120492664D01*
X157933644Y-120462899D01*
X157919399Y-120459448D01*
X157833790Y-120451345D01*
X157758238Y-120465055D01*
G37*
X157758238Y-120465055D02*
X157694637Y-120499692D01*
X157644877Y-120554372D01*
X157621432Y-120598842D01*
X157611366Y-120638121D01*
X157604844Y-120694116D01*
X157602049Y-120758621D01*
X157603164Y-120823429D01*
X157608374Y-120880334D01*
X157614459Y-120910727D01*
X157634986Y-120952306D01*
X157670537Y-120996468D01*
X157713381Y-121035087D01*
X157755789Y-121060034D01*
X157756823Y-121060430D01*
X157809447Y-121071331D01*
X157871812Y-121071601D01*
X157931076Y-121061676D01*
X157953960Y-121053722D01*
X158012898Y-121020300D01*
X158055110Y-120976511D01*
X158082844Y-120918538D01*
X158098349Y-120842565D01*
X158101857Y-120802771D01*
X158101410Y-120752766D01*
X157966624Y-120752766D01*
X157962083Y-120825732D01*
X157949014Y-120881334D01*
X157928244Y-120916861D01*
X157913448Y-120927020D01*
X157875536Y-120934104D01*
X157830473Y-120932007D01*
X157791513Y-120921812D01*
X157781296Y-120916204D01*
X157754341Y-120883538D01*
X157736549Y-120833545D01*
X157728976Y-120772705D01*
X157732675Y-120707497D01*
X157740943Y-120668253D01*
X157764680Y-120622805D01*
X157802151Y-120594396D01*
X157847280Y-120584573D01*
X157893989Y-120594887D01*
X157929868Y-120620112D01*
X157948723Y-120640925D01*
X157959728Y-120661439D01*
X157964974Y-120689203D01*
X157966551Y-120731762D01*
X157966624Y-120752766D01*
X158101410Y-120752766D01*
X158100906Y-120696580D01*
X158083612Y-120609501D01*
X158049971Y-120541530D01*
X157999982Y-120492664D01*
X157933644Y-120462899D01*
X157919399Y-120459448D01*
X157833790Y-120451345D01*
X157758238Y-120465055D01*
G36*
X157375633Y-120653342D02*
G01*
X157374445Y-120745563D01*
X157370103Y-120815610D01*
X157361442Y-120866381D01*
X157347296Y-120900772D01*
X157326500Y-120921679D01*
X157297890Y-120932000D01*
X157262465Y-120934636D01*
X157225364Y-120931682D01*
X157197182Y-120920889D01*
X157176757Y-120899360D01*
X157162921Y-120864199D01*
X157154509Y-120812510D01*
X157150357Y-120741394D01*
X157149297Y-120653342D01*
X157149297Y-120457614D01*
X157010980Y-120457614D01*
X157010980Y-121061179D01*
X157080138Y-121061179D01*
X157121830Y-121059489D01*
X157143299Y-121053556D01*
X157149297Y-121042293D01*
X157152909Y-121032261D01*
X157167286Y-121034383D01*
X157196264Y-121048580D01*
X157262681Y-121070480D01*
X157333125Y-121068928D01*
X157400623Y-121045147D01*
X157432767Y-121026362D01*
X157457285Y-121006022D01*
X157475196Y-120980573D01*
X157487521Y-120946458D01*
X157495277Y-120900121D01*
X157499484Y-120838007D01*
X157501160Y-120756561D01*
X157501376Y-120693578D01*
X157501376Y-120457614D01*
X157375633Y-120457614D01*
X157375633Y-120653342D01*
G37*
X157375633Y-120653342D02*
X157374445Y-120745563D01*
X157370103Y-120815610D01*
X157361442Y-120866381D01*
X157347296Y-120900772D01*
X157326500Y-120921679D01*
X157297890Y-120932000D01*
X157262465Y-120934636D01*
X157225364Y-120931682D01*
X157197182Y-120920889D01*
X157176757Y-120899360D01*
X157162921Y-120864199D01*
X157154509Y-120812510D01*
X157150357Y-120741394D01*
X157149297Y-120653342D01*
X157149297Y-120457614D01*
X157010980Y-120457614D01*
X157010980Y-121061179D01*
X157080138Y-121061179D01*
X157121830Y-121059489D01*
X157143299Y-121053556D01*
X157149297Y-121042293D01*
X157152909Y-121032261D01*
X157167286Y-121034383D01*
X157196264Y-121048580D01*
X157262681Y-121070480D01*
X157333125Y-121068928D01*
X157400623Y-121045147D01*
X157432767Y-121026362D01*
X157457285Y-121006022D01*
X157475196Y-120980573D01*
X157487521Y-120946458D01*
X157495277Y-120900121D01*
X157499484Y-120838007D01*
X157501160Y-120756561D01*
X157501376Y-120693578D01*
X157501376Y-120457614D01*
X157375633Y-120457614D01*
X157375633Y-120653342D01*
G36*
X156151774Y-120462880D02*
G01*
X156078920Y-120493830D01*
X156055973Y-120508895D01*
X156026646Y-120532048D01*
X156008236Y-120550253D01*
X156005039Y-120556183D01*
X156014065Y-120569340D01*
X156037163Y-120591667D01*
X156055656Y-120607250D01*
X156106272Y-120647926D01*
X156146240Y-120614295D01*
X156177126Y-120592584D01*
X156207241Y-120585090D01*
X156241708Y-120586920D01*
X156296439Y-120600528D01*
X156334114Y-120628772D01*
X156357009Y-120674433D01*
X156367403Y-120740289D01*
X156367405Y-120740331D01*
X156366506Y-120813939D01*
X156352537Y-120867946D01*
X156324672Y-120904716D01*
X156305675Y-120917168D01*
X156255224Y-120932673D01*
X156201337Y-120932683D01*
X156154454Y-120917638D01*
X156143356Y-120910287D01*
X156115524Y-120891511D01*
X156093764Y-120888434D01*
X156070296Y-120902409D01*
X156044351Y-120927510D01*
X156003284Y-120969880D01*
X156048879Y-121007464D01*
X156119326Y-121049882D01*
X156198767Y-121070785D01*
X156281785Y-121069272D01*
X156336306Y-121055411D01*
X156400030Y-121021135D01*
X156450995Y-120967212D01*
X156474149Y-120929149D01*
X156492901Y-120874536D01*
X156502285Y-120805369D01*
X156502357Y-120730407D01*
X156493176Y-120658409D01*
X156474801Y-120598137D01*
X156471907Y-120591958D01*
X156429048Y-120531351D01*
X156371021Y-120487224D01*
X156302409Y-120460493D01*
X156227799Y-120452073D01*
X156151774Y-120462880D01*
G37*
X156151774Y-120462880D02*
X156078920Y-120493830D01*
X156055973Y-120508895D01*
X156026646Y-120532048D01*
X156008236Y-120550253D01*
X156005039Y-120556183D01*
X156014065Y-120569340D01*
X156037163Y-120591667D01*
X156055656Y-120607250D01*
X156106272Y-120647926D01*
X156146240Y-120614295D01*
X156177126Y-120592584D01*
X156207241Y-120585090D01*
X156241708Y-120586920D01*
X156296439Y-120600528D01*
X156334114Y-120628772D01*
X156357009Y-120674433D01*
X156367403Y-120740289D01*
X156367405Y-120740331D01*
X156366506Y-120813939D01*
X156352537Y-120867946D01*
X156324672Y-120904716D01*
X156305675Y-120917168D01*
X156255224Y-120932673D01*
X156201337Y-120932683D01*
X156154454Y-120917638D01*
X156143356Y-120910287D01*
X156115524Y-120891511D01*
X156093764Y-120888434D01*
X156070296Y-120902409D01*
X156044351Y-120927510D01*
X156003284Y-120969880D01*
X156048879Y-121007464D01*
X156119326Y-121049882D01*
X156198767Y-121070785D01*
X156281785Y-121069272D01*
X156336306Y-121055411D01*
X156400030Y-121021135D01*
X156450995Y-120967212D01*
X156474149Y-120929149D01*
X156492901Y-120874536D01*
X156502285Y-120805369D01*
X156502357Y-120730407D01*
X156493176Y-120658409D01*
X156474801Y-120598137D01*
X156471907Y-120591958D01*
X156429048Y-120531351D01*
X156371021Y-120487224D01*
X156302409Y-120460493D01*
X156227799Y-120452073D01*
X156151774Y-120462880D01*
G36*
X155691102Y-120455457D02*
G01*
X155658904Y-120463279D01*
X155597175Y-120491921D01*
X155544390Y-120535667D01*
X155507859Y-120588117D01*
X155502840Y-120599893D01*
X155495955Y-120630740D01*
X155491136Y-120676371D01*
X155489495Y-120722492D01*
X155489495Y-120809693D01*
X155671822Y-120809693D01*
X155747021Y-120809978D01*
X155799997Y-120811704D01*
X155833675Y-120816181D01*
X155850980Y-120824720D01*
X155854837Y-120838630D01*
X155848171Y-120859222D01*
X155836230Y-120883315D01*
X155802920Y-120923525D01*
X155756632Y-120943558D01*
X155700056Y-120942905D01*
X155635969Y-120921101D01*
X155580583Y-120894193D01*
X155534625Y-120930532D01*
X155488667Y-120966872D01*
X155531904Y-121006819D01*
X155589626Y-121044563D01*
X155660614Y-121067320D01*
X155736971Y-121073688D01*
X155810801Y-121062268D01*
X155822713Y-121058393D01*
X155887601Y-121024506D01*
X155935870Y-120973986D01*
X155968535Y-120905325D01*
X155986615Y-120817014D01*
X155986825Y-120815121D01*
X155988444Y-120718878D01*
X155981900Y-120684542D01*
X155854148Y-120684542D01*
X155842416Y-120689822D01*
X155810562Y-120693867D01*
X155763603Y-120696176D01*
X155733846Y-120696525D01*
X155678352Y-120696306D01*
X155643654Y-120694916D01*
X155625399Y-120691251D01*
X155619234Y-120684210D01*
X155620805Y-120672690D01*
X155622122Y-120668233D01*
X155644618Y-120626355D01*
X155679997Y-120592604D01*
X155711220Y-120577773D01*
X155752699Y-120578668D01*
X155794731Y-120597164D01*
X155829988Y-120627786D01*
X155851146Y-120665062D01*
X155854148Y-120684542D01*
X155981900Y-120684542D01*
X155972310Y-120634229D01*
X155940302Y-120563191D01*
X155894299Y-120507779D01*
X155836179Y-120470009D01*
X155767820Y-120451896D01*
X155691102Y-120455457D01*
G37*
X155691102Y-120455457D02*
X155658904Y-120463279D01*
X155597175Y-120491921D01*
X155544390Y-120535667D01*
X155507859Y-120588117D01*
X155502840Y-120599893D01*
X155495955Y-120630740D01*
X155491136Y-120676371D01*
X155489495Y-120722492D01*
X155489495Y-120809693D01*
X155671822Y-120809693D01*
X155747021Y-120809978D01*
X155799997Y-120811704D01*
X155833675Y-120816181D01*
X155850980Y-120824720D01*
X155854837Y-120838630D01*
X155848171Y-120859222D01*
X155836230Y-120883315D01*
X155802920Y-120923525D01*
X155756632Y-120943558D01*
X155700056Y-120942905D01*
X155635969Y-120921101D01*
X155580583Y-120894193D01*
X155534625Y-120930532D01*
X155488667Y-120966872D01*
X155531904Y-121006819D01*
X155589626Y-121044563D01*
X155660614Y-121067320D01*
X155736971Y-121073688D01*
X155810801Y-121062268D01*
X155822713Y-121058393D01*
X155887601Y-121024506D01*
X155935870Y-120973986D01*
X155968535Y-120905325D01*
X155986615Y-120817014D01*
X155986825Y-120815121D01*
X155988444Y-120718878D01*
X155981900Y-120684542D01*
X155854148Y-120684542D01*
X155842416Y-120689822D01*
X155810562Y-120693867D01*
X155763603Y-120696176D01*
X155733846Y-120696525D01*
X155678352Y-120696306D01*
X155643654Y-120694916D01*
X155625399Y-120691251D01*
X155619234Y-120684210D01*
X155620805Y-120672690D01*
X155622122Y-120668233D01*
X155644618Y-120626355D01*
X155679997Y-120592604D01*
X155711220Y-120577773D01*
X155752699Y-120578668D01*
X155794731Y-120597164D01*
X155829988Y-120627786D01*
X155851146Y-120665062D01*
X155854148Y-120684542D01*
X155981900Y-120684542D01*
X155972310Y-120634229D01*
X155940302Y-120563191D01*
X155894299Y-120507779D01*
X155836179Y-120470009D01*
X155767820Y-120451896D01*
X155691102Y-120455457D01*
G36*
X159123012Y-120468002D02*
G01*
X159091717Y-120482950D01*
X159061409Y-120504541D01*
X159038318Y-120529391D01*
X159021500Y-120561087D01*
X159010006Y-120603214D01*
X159002891Y-120659358D01*
X158999207Y-120733106D01*
X158998008Y-120828044D01*
X158997989Y-120837985D01*
X158997713Y-121061179D01*
X159136030Y-121061179D01*
X159136030Y-120855418D01*
X159136128Y-120779189D01*
X159136809Y-120723939D01*
X159138651Y-120685501D01*
X159142233Y-120659706D01*
X159148132Y-120642384D01*
X159156927Y-120629368D01*
X159169180Y-120616507D01*
X159212047Y-120588873D01*
X159258843Y-120583745D01*
X159303424Y-120601217D01*
X159318928Y-120614221D01*
X159330310Y-120626447D01*
X159338481Y-120639540D01*
X159343974Y-120657615D01*
X159347320Y-120684787D01*
X159349051Y-120725170D01*
X159349697Y-120782879D01*
X159349792Y-120853132D01*
X159349792Y-121061179D01*
X159488109Y-121061179D01*
X159488109Y-120457614D01*
X159418950Y-120457614D01*
X159377428Y-120459256D01*
X159356006Y-120465087D01*
X159349795Y-120476461D01*
X159349792Y-120476798D01*
X159346910Y-120487938D01*
X159334199Y-120486674D01*
X159308926Y-120474434D01*
X159251605Y-120456424D01*
X159186037Y-120454421D01*
X159123012Y-120468002D01*
G37*
X159123012Y-120468002D02*
X159091717Y-120482950D01*
X159061409Y-120504541D01*
X159038318Y-120529391D01*
X159021500Y-120561087D01*
X159010006Y-120603214D01*
X159002891Y-120659358D01*
X158999207Y-120733106D01*
X158998008Y-120828044D01*
X158997989Y-120837985D01*
X158997713Y-121061179D01*
X159136030Y-121061179D01*
X159136030Y-120855418D01*
X159136128Y-120779189D01*
X159136809Y-120723939D01*
X159138651Y-120685501D01*
X159142233Y-120659706D01*
X159148132Y-120642384D01*
X159156927Y-120629368D01*
X159169180Y-120616507D01*
X159212047Y-120588873D01*
X159258843Y-120583745D01*
X159303424Y-120601217D01*
X159318928Y-120614221D01*
X159330310Y-120626447D01*
X159338481Y-120639540D01*
X159343974Y-120657615D01*
X159347320Y-120684787D01*
X159349051Y-120725170D01*
X159349697Y-120782879D01*
X159349792Y-120853132D01*
X159349792Y-121061179D01*
X159488109Y-121061179D01*
X159488109Y-120457614D01*
X159418950Y-120457614D01*
X159377428Y-120459256D01*
X159356006Y-120465087D01*
X159349795Y-120476461D01*
X159349792Y-120476798D01*
X159346910Y-120487938D01*
X159334199Y-120486674D01*
X159308926Y-120474434D01*
X159251605Y-120456424D01*
X159186037Y-120454421D01*
X159123012Y-120468002D01*
G36*
X156569540Y-120457030D02*
G01*
X156526289Y-120470245D01*
X156498442Y-120486941D01*
X156489371Y-120500145D01*
X156491868Y-120515797D01*
X156508069Y-120540385D01*
X156521768Y-120557800D01*
X156550008Y-120589283D01*
X156571225Y-120602529D01*
X156589312Y-120601664D01*
X156642965Y-120588010D01*
X156682370Y-120588630D01*
X156714368Y-120604104D01*
X156725110Y-120613161D01*
X156759495Y-120645027D01*
X156759495Y-121061179D01*
X156897812Y-121061179D01*
X156897812Y-120457614D01*
X156828653Y-120457614D01*
X156787131Y-120459256D01*
X156765709Y-120465087D01*
X156759498Y-120476461D01*
X156759495Y-120476798D01*
X156756561Y-120488713D01*
X156743296Y-120487159D01*
X156724916Y-120478563D01*
X156686954Y-120462568D01*
X156656128Y-120452945D01*
X156616464Y-120450478D01*
X156569540Y-120457030D01*
G37*
X156569540Y-120457030D02*
X156526289Y-120470245D01*
X156498442Y-120486941D01*
X156489371Y-120500145D01*
X156491868Y-120515797D01*
X156508069Y-120540385D01*
X156521768Y-120557800D01*
X156550008Y-120589283D01*
X156571225Y-120602529D01*
X156589312Y-120601664D01*
X156642965Y-120588010D01*
X156682370Y-120588630D01*
X156714368Y-120604104D01*
X156725110Y-120613161D01*
X156759495Y-120645027D01*
X156759495Y-121061179D01*
X156897812Y-121061179D01*
X156897812Y-120457614D01*
X156828653Y-120457614D01*
X156787131Y-120459256D01*
X156765709Y-120465087D01*
X156759498Y-120476461D01*
X156759495Y-120476798D01*
X156756561Y-120488713D01*
X156743296Y-120487159D01*
X156724916Y-120478563D01*
X156686954Y-120462568D01*
X156656128Y-120452945D01*
X156616464Y-120450478D01*
X156569540Y-120457030D01*
G36*
X157992036Y-116289018D02*
G01*
X157935188Y-116590570D01*
X157515662Y-116763512D01*
X157264016Y-116592395D01*
X157193542Y-116544750D01*
X157129837Y-116502210D01*
X157075874Y-116466715D01*
X157034627Y-116440210D01*
X157009066Y-116424636D01*
X157002105Y-116421278D01*
X156989565Y-116429914D01*
X156962769Y-116453792D01*
X156924720Y-116489859D01*
X156878421Y-116535067D01*
X156826877Y-116586364D01*
X156773091Y-116640701D01*
X156720065Y-116695028D01*
X156670805Y-116746295D01*
X156628313Y-116791451D01*
X156595593Y-116827446D01*
X156575649Y-116851230D01*
X156570881Y-116859190D01*
X156577743Y-116873865D01*
X156596980Y-116906014D01*
X156626570Y-116952492D01*
X156664490Y-117010156D01*
X156708718Y-117075860D01*
X156734346Y-117113336D01*
X156781059Y-117181768D01*
X156822568Y-117243520D01*
X156856860Y-117295519D01*
X156881920Y-117334692D01*
X156895736Y-117357965D01*
X156897812Y-117362855D01*
X156893105Y-117376755D01*
X156880277Y-117409150D01*
X156861262Y-117455485D01*
X156837997Y-117511206D01*
X156812416Y-117571758D01*
X156786455Y-117632586D01*
X156762050Y-117689136D01*
X156741137Y-117736852D01*
X156725651Y-117771181D01*
X156717528Y-117787568D01*
X156717048Y-117788212D01*
X156704293Y-117791341D01*
X156670323Y-117798321D01*
X156618660Y-117808467D01*
X156552824Y-117821092D01*
X156476336Y-117835509D01*
X156431710Y-117843823D01*
X156349979Y-117859384D01*
X156276157Y-117874192D01*
X156213979Y-117887436D01*
X156167178Y-117898305D01*
X156139491Y-117905989D01*
X156133926Y-117908427D01*
X156128474Y-117924930D01*
X156124076Y-117962200D01*
X156120728Y-118015880D01*
X156118426Y-118081612D01*
X156117168Y-118155037D01*
X156116952Y-118231796D01*
X156117773Y-118307532D01*
X156119629Y-118377886D01*
X156122518Y-118438500D01*
X156126435Y-118485016D01*
X156131378Y-118513075D01*
X156134343Y-118518916D01*
X156152066Y-118525917D01*
X156189619Y-118535927D01*
X156242036Y-118547769D01*
X156304348Y-118560267D01*
X156326100Y-118564310D01*
X156430976Y-118583520D01*
X156513820Y-118598991D01*
X156577370Y-118611337D01*
X156624363Y-118621173D01*
X156657537Y-118629114D01*
X156679629Y-118635776D01*
X156693376Y-118641773D01*
X156701516Y-118647719D01*
X156702655Y-118648894D01*
X156714023Y-118667826D01*
X156731365Y-118704669D01*
X156752950Y-118754913D01*
X156777046Y-118814046D01*
X156801921Y-118877556D01*
X156825843Y-118940932D01*
X156847081Y-118999662D01*
X156863903Y-119049235D01*
X156874578Y-119085139D01*
X156877373Y-119102862D01*
X156877140Y-119103483D01*
X156867669Y-119117970D01*
X156846182Y-119149844D01*
X156814937Y-119195789D01*
X156776193Y-119252485D01*
X156732207Y-119316617D01*
X156719681Y-119334842D01*
X156675016Y-119400914D01*
X156635712Y-119461200D01*
X156603912Y-119512235D01*
X156581755Y-119550560D01*
X156571383Y-119572711D01*
X156570881Y-119575432D01*
X156579595Y-119589736D01*
X156603675Y-119618072D01*
X156640024Y-119657396D01*
X156685547Y-119704661D01*
X156737148Y-119756823D01*
X156791733Y-119810835D01*
X156846206Y-119863653D01*
X156897471Y-119912231D01*
X156942433Y-119953523D01*
X156977996Y-119984485D01*
X157001065Y-120002070D01*
X157007446Y-120004941D01*
X157022301Y-119998178D01*
X157052714Y-119979939D01*
X157093732Y-119953297D01*
X157125291Y-119931852D01*
X157182475Y-119892503D01*
X157250194Y-119846171D01*
X157318120Y-119799913D01*
X157354639Y-119775155D01*
X157478248Y-119691547D01*
X157582009Y-119747650D01*
X157629280Y-119772228D01*
X157669477Y-119791331D01*
X157696674Y-119802227D01*
X157703598Y-119803743D01*
X157711923Y-119792549D01*
X157728346Y-119760917D01*
X157751643Y-119711765D01*
X157780586Y-119648010D01*
X157813950Y-119572571D01*
X157850509Y-119488364D01*
X157889036Y-119398308D01*
X157928306Y-119305321D01*
X157967092Y-119212320D01*
X158004170Y-119122223D01*
X158038311Y-119037948D01*
X158068292Y-118962413D01*
X158092884Y-118898534D01*
X158110864Y-118849231D01*
X158121003Y-118817421D01*
X158122634Y-118806496D01*
X158109709Y-118792561D01*
X158081411Y-118769940D01*
X158043654Y-118743333D01*
X158040485Y-118741228D01*
X157942900Y-118663114D01*
X157864214Y-118571982D01*
X157805109Y-118470745D01*
X157766268Y-118362318D01*
X157748372Y-118249614D01*
X157752103Y-118135548D01*
X157778143Y-118023034D01*
X157827175Y-117914985D01*
X157841600Y-117891345D01*
X157916631Y-117795887D01*
X158005270Y-117719232D01*
X158104451Y-117661780D01*
X158211105Y-117623929D01*
X158322164Y-117606078D01*
X158434561Y-117608625D01*
X158545227Y-117631970D01*
X158651094Y-117676510D01*
X158749095Y-117742645D01*
X158779410Y-117769487D01*
X158856562Y-117853512D01*
X158912782Y-117941966D01*
X158951347Y-118041115D01*
X158972826Y-118139303D01*
X158978128Y-118249697D01*
X158960448Y-118360640D01*
X158921581Y-118468381D01*
X158863323Y-118569169D01*
X158787469Y-118659256D01*
X158695817Y-118734892D01*
X158683772Y-118742864D01*
X158645611Y-118768974D01*
X158616601Y-118791595D01*
X158602732Y-118806039D01*
X158602531Y-118806496D01*
X158605508Y-118822121D01*
X158617311Y-118857582D01*
X158636714Y-118909962D01*
X158662488Y-118976345D01*
X158693409Y-119053814D01*
X158728249Y-119139450D01*
X158765783Y-119230337D01*
X158804783Y-119323559D01*
X158844023Y-119416197D01*
X158882276Y-119505335D01*
X158918317Y-119588055D01*
X158950917Y-119661441D01*
X158978852Y-119722575D01*
X159000895Y-119768541D01*
X159015818Y-119796421D01*
X159021828Y-119803743D01*
X159040191Y-119798041D01*
X159074552Y-119782749D01*
X159118984Y-119760599D01*
X159143417Y-119747650D01*
X159247178Y-119691547D01*
X159370787Y-119775155D01*
X159433886Y-119817987D01*
X159502970Y-119865122D01*
X159567707Y-119909503D01*
X159600134Y-119931852D01*
X159645741Y-119962477D01*
X159684360Y-119986747D01*
X159710952Y-120001587D01*
X159719590Y-120004724D01*
X159732161Y-119996261D01*
X159759984Y-119972636D01*
X159800361Y-119936302D01*
X159850595Y-119889711D01*
X159907988Y-119835317D01*
X159944286Y-119800392D01*
X160007790Y-119737996D01*
X160062673Y-119682188D01*
X160106714Y-119635354D01*
X160137695Y-119599882D01*
X160153398Y-119578161D01*
X160154905Y-119573752D01*
X160147914Y-119556985D01*
X160128594Y-119523082D01*
X160099091Y-119475476D01*
X160061545Y-119417599D01*
X160018100Y-119352884D01*
X160005745Y-119334842D01*
X159960727Y-119269267D01*
X159920340Y-119210228D01*
X159886840Y-119161042D01*
X159862486Y-119125028D01*
X159849536Y-119105502D01*
X159848285Y-119103483D01*
X159850156Y-119087922D01*
X159860087Y-119053709D01*
X159876347Y-119005355D01*
X159897205Y-118947371D01*
X159920927Y-118884270D01*
X159945784Y-118820563D01*
X159970042Y-118760761D01*
X159991971Y-118709376D01*
X160009838Y-118670919D01*
X160021913Y-118649902D01*
X160022771Y-118648894D01*
X160030154Y-118642888D01*
X160042625Y-118636948D01*
X160062920Y-118630460D01*
X160093778Y-118622809D01*
X160137934Y-118613380D01*
X160198126Y-118601559D01*
X160277093Y-118586729D01*
X160377570Y-118568277D01*
X160399325Y-118564310D01*
X160463802Y-118551853D01*
X160520011Y-118539666D01*
X160562987Y-118528926D01*
X160587760Y-118520809D01*
X160591082Y-118518916D01*
X160596556Y-118502138D01*
X160601006Y-118464645D01*
X160604428Y-118410794D01*
X160606819Y-118344944D01*
X160608177Y-118271453D01*
X160608499Y-118194680D01*
X160607781Y-118118983D01*
X160606021Y-118048720D01*
X160603216Y-117988250D01*
X160599362Y-117941930D01*
X160594457Y-117914119D01*
X160591500Y-117908427D01*
X160575037Y-117902686D01*
X160537551Y-117893345D01*
X160482775Y-117881215D01*
X160414445Y-117867107D01*
X160336294Y-117851830D01*
X160293716Y-117843823D01*
X160212929Y-117828721D01*
X160140887Y-117815040D01*
X160081111Y-117803467D01*
X160037121Y-117794687D01*
X160012439Y-117789387D01*
X160008377Y-117788212D01*
X160001511Y-117774965D01*
X159986998Y-117743057D01*
X159966771Y-117697047D01*
X159942766Y-117641492D01*
X159916918Y-117580953D01*
X159891160Y-117519986D01*
X159867427Y-117463151D01*
X159847654Y-117415006D01*
X159833776Y-117380110D01*
X159827726Y-117363021D01*
X159827614Y-117362274D01*
X159834472Y-117348793D01*
X159853698Y-117317770D01*
X159883272Y-117272289D01*
X159921173Y-117215432D01*
X159965380Y-117150283D01*
X159991079Y-117112862D01*
X160037907Y-117044247D01*
X160079499Y-116981952D01*
X160113825Y-116929129D01*
X160138857Y-116888927D01*
X160152565Y-116864500D01*
X160154544Y-116859024D01*
X160146034Y-116846278D01*
X160122507Y-116819063D01*
X160086968Y-116780428D01*
X160042423Y-116733423D01*
X159991877Y-116681095D01*
X159938336Y-116626495D01*
X159884805Y-116572670D01*
X159834289Y-116522670D01*
X159789794Y-116479543D01*
X159754325Y-116446339D01*
X159730887Y-116426106D01*
X159723046Y-116421278D01*
X159710280Y-116428067D01*
X159679744Y-116447142D01*
X159634410Y-116476561D01*
X159577244Y-116514381D01*
X159511216Y-116558661D01*
X159461410Y-116592395D01*
X159209764Y-116763512D01*
X159000001Y-116677041D01*
X158790237Y-116590570D01*
X158733389Y-116289018D01*
X158676540Y-115987466D01*
X158048885Y-115987466D01*
X157992036Y-116289018D01*
G37*
X157992036Y-116289018D02*
X157935188Y-116590570D01*
X157515662Y-116763512D01*
X157264016Y-116592395D01*
X157193542Y-116544750D01*
X157129837Y-116502210D01*
X157075874Y-116466715D01*
X157034627Y-116440210D01*
X157009066Y-116424636D01*
X157002105Y-116421278D01*
X156989565Y-116429914D01*
X156962769Y-116453792D01*
X156924720Y-116489859D01*
X156878421Y-116535067D01*
X156826877Y-116586364D01*
X156773091Y-116640701D01*
X156720065Y-116695028D01*
X156670805Y-116746295D01*
X156628313Y-116791451D01*
X156595593Y-116827446D01*
X156575649Y-116851230D01*
X156570881Y-116859190D01*
X156577743Y-116873865D01*
X156596980Y-116906014D01*
X156626570Y-116952492D01*
X156664490Y-117010156D01*
X156708718Y-117075860D01*
X156734346Y-117113336D01*
X156781059Y-117181768D01*
X156822568Y-117243520D01*
X156856860Y-117295519D01*
X156881920Y-117334692D01*
X156895736Y-117357965D01*
X156897812Y-117362855D01*
X156893105Y-117376755D01*
X156880277Y-117409150D01*
X156861262Y-117455485D01*
X156837997Y-117511206D01*
X156812416Y-117571758D01*
X156786455Y-117632586D01*
X156762050Y-117689136D01*
X156741137Y-117736852D01*
X156725651Y-117771181D01*
X156717528Y-117787568D01*
X156717048Y-117788212D01*
X156704293Y-117791341D01*
X156670323Y-117798321D01*
X156618660Y-117808467D01*
X156552824Y-117821092D01*
X156476336Y-117835509D01*
X156431710Y-117843823D01*
X156349979Y-117859384D01*
X156276157Y-117874192D01*
X156213979Y-117887436D01*
X156167178Y-117898305D01*
X156139491Y-117905989D01*
X156133926Y-117908427D01*
X156128474Y-117924930D01*
X156124076Y-117962200D01*
X156120728Y-118015880D01*
X156118426Y-118081612D01*
X156117168Y-118155037D01*
X156116952Y-118231796D01*
X156117773Y-118307532D01*
X156119629Y-118377886D01*
X156122518Y-118438500D01*
X156126435Y-118485016D01*
X156131378Y-118513075D01*
X156134343Y-118518916D01*
X156152066Y-118525917D01*
X156189619Y-118535927D01*
X156242036Y-118547769D01*
X156304348Y-118560267D01*
X156326100Y-118564310D01*
X156430976Y-118583520D01*
X156513820Y-118598991D01*
X156577370Y-118611337D01*
X156624363Y-118621173D01*
X156657537Y-118629114D01*
X156679629Y-118635776D01*
X156693376Y-118641773D01*
X156701516Y-118647719D01*
X156702655Y-118648894D01*
X156714023Y-118667826D01*
X156731365Y-118704669D01*
X156752950Y-118754913D01*
X156777046Y-118814046D01*
X156801921Y-118877556D01*
X156825843Y-118940932D01*
X156847081Y-118999662D01*
X156863903Y-119049235D01*
X156874578Y-119085139D01*
X156877373Y-119102862D01*
X156877140Y-119103483D01*
X156867669Y-119117970D01*
X156846182Y-119149844D01*
X156814937Y-119195789D01*
X156776193Y-119252485D01*
X156732207Y-119316617D01*
X156719681Y-119334842D01*
X156675016Y-119400914D01*
X156635712Y-119461200D01*
X156603912Y-119512235D01*
X156581755Y-119550560D01*
X156571383Y-119572711D01*
X156570881Y-119575432D01*
X156579595Y-119589736D01*
X156603675Y-119618072D01*
X156640024Y-119657396D01*
X156685547Y-119704661D01*
X156737148Y-119756823D01*
X156791733Y-119810835D01*
X156846206Y-119863653D01*
X156897471Y-119912231D01*
X156942433Y-119953523D01*
X156977996Y-119984485D01*
X157001065Y-120002070D01*
X157007446Y-120004941D01*
X157022301Y-119998178D01*
X157052714Y-119979939D01*
X157093732Y-119953297D01*
X157125291Y-119931852D01*
X157182475Y-119892503D01*
X157250194Y-119846171D01*
X157318120Y-119799913D01*
X157354639Y-119775155D01*
X157478248Y-119691547D01*
X157582009Y-119747650D01*
X157629280Y-119772228D01*
X157669477Y-119791331D01*
X157696674Y-119802227D01*
X157703598Y-119803743D01*
X157711923Y-119792549D01*
X157728346Y-119760917D01*
X157751643Y-119711765D01*
X157780586Y-119648010D01*
X157813950Y-119572571D01*
X157850509Y-119488364D01*
X157889036Y-119398308D01*
X157928306Y-119305321D01*
X157967092Y-119212320D01*
X158004170Y-119122223D01*
X158038311Y-119037948D01*
X158068292Y-118962413D01*
X158092884Y-118898534D01*
X158110864Y-118849231D01*
X158121003Y-118817421D01*
X158122634Y-118806496D01*
X158109709Y-118792561D01*
X158081411Y-118769940D01*
X158043654Y-118743333D01*
X158040485Y-118741228D01*
X157942900Y-118663114D01*
X157864214Y-118571982D01*
X157805109Y-118470745D01*
X157766268Y-118362318D01*
X157748372Y-118249614D01*
X157752103Y-118135548D01*
X157778143Y-118023034D01*
X157827175Y-117914985D01*
X157841600Y-117891345D01*
X157916631Y-117795887D01*
X158005270Y-117719232D01*
X158104451Y-117661780D01*
X158211105Y-117623929D01*
X158322164Y-117606078D01*
X158434561Y-117608625D01*
X158545227Y-117631970D01*
X158651094Y-117676510D01*
X158749095Y-117742645D01*
X158779410Y-117769487D01*
X158856562Y-117853512D01*
X158912782Y-117941966D01*
X158951347Y-118041115D01*
X158972826Y-118139303D01*
X158978128Y-118249697D01*
X158960448Y-118360640D01*
X158921581Y-118468381D01*
X158863323Y-118569169D01*
X158787469Y-118659256D01*
X158695817Y-118734892D01*
X158683772Y-118742864D01*
X158645611Y-118768974D01*
X158616601Y-118791595D01*
X158602732Y-118806039D01*
X158602531Y-118806496D01*
X158605508Y-118822121D01*
X158617311Y-118857582D01*
X158636714Y-118909962D01*
X158662488Y-118976345D01*
X158693409Y-119053814D01*
X158728249Y-119139450D01*
X158765783Y-119230337D01*
X158804783Y-119323559D01*
X158844023Y-119416197D01*
X158882276Y-119505335D01*
X158918317Y-119588055D01*
X158950917Y-119661441D01*
X158978852Y-119722575D01*
X159000895Y-119768541D01*
X159015818Y-119796421D01*
X159021828Y-119803743D01*
X159040191Y-119798041D01*
X159074552Y-119782749D01*
X159118984Y-119760599D01*
X159143417Y-119747650D01*
X159247178Y-119691547D01*
X159370787Y-119775155D01*
X159433886Y-119817987D01*
X159502970Y-119865122D01*
X159567707Y-119909503D01*
X159600134Y-119931852D01*
X159645741Y-119962477D01*
X159684360Y-119986747D01*
X159710952Y-120001587D01*
X159719590Y-120004724D01*
X159732161Y-119996261D01*
X159759984Y-119972636D01*
X159800361Y-119936302D01*
X159850595Y-119889711D01*
X159907988Y-119835317D01*
X159944286Y-119800392D01*
X160007790Y-119737996D01*
X160062673Y-119682188D01*
X160106714Y-119635354D01*
X160137695Y-119599882D01*
X160153398Y-119578161D01*
X160154905Y-119573752D01*
X160147914Y-119556985D01*
X160128594Y-119523082D01*
X160099091Y-119475476D01*
X160061545Y-119417599D01*
X160018100Y-119352884D01*
X160005745Y-119334842D01*
X159960727Y-119269267D01*
X159920340Y-119210228D01*
X159886840Y-119161042D01*
X159862486Y-119125028D01*
X159849536Y-119105502D01*
X159848285Y-119103483D01*
X159850156Y-119087922D01*
X159860087Y-119053709D01*
X159876347Y-119005355D01*
X159897205Y-118947371D01*
X159920927Y-118884270D01*
X159945784Y-118820563D01*
X159970042Y-118760761D01*
X159991971Y-118709376D01*
X160009838Y-118670919D01*
X160021913Y-118649902D01*
X160022771Y-118648894D01*
X160030154Y-118642888D01*
X160042625Y-118636948D01*
X160062920Y-118630460D01*
X160093778Y-118622809D01*
X160137934Y-118613380D01*
X160198126Y-118601559D01*
X160277093Y-118586729D01*
X160377570Y-118568277D01*
X160399325Y-118564310D01*
X160463802Y-118551853D01*
X160520011Y-118539666D01*
X160562987Y-118528926D01*
X160587760Y-118520809D01*
X160591082Y-118518916D01*
X160596556Y-118502138D01*
X160601006Y-118464645D01*
X160604428Y-118410794D01*
X160606819Y-118344944D01*
X160608177Y-118271453D01*
X160608499Y-118194680D01*
X160607781Y-118118983D01*
X160606021Y-118048720D01*
X160603216Y-117988250D01*
X160599362Y-117941930D01*
X160594457Y-117914119D01*
X160591500Y-117908427D01*
X160575037Y-117902686D01*
X160537551Y-117893345D01*
X160482775Y-117881215D01*
X160414445Y-117867107D01*
X160336294Y-117851830D01*
X160293716Y-117843823D01*
X160212929Y-117828721D01*
X160140887Y-117815040D01*
X160081111Y-117803467D01*
X160037121Y-117794687D01*
X160012439Y-117789387D01*
X160008377Y-117788212D01*
X160001511Y-117774965D01*
X159986998Y-117743057D01*
X159966771Y-117697047D01*
X159942766Y-117641492D01*
X159916918Y-117580953D01*
X159891160Y-117519986D01*
X159867427Y-117463151D01*
X159847654Y-117415006D01*
X159833776Y-117380110D01*
X159827726Y-117363021D01*
X159827614Y-117362274D01*
X159834472Y-117348793D01*
X159853698Y-117317770D01*
X159883272Y-117272289D01*
X159921173Y-117215432D01*
X159965380Y-117150283D01*
X159991079Y-117112862D01*
X160037907Y-117044247D01*
X160079499Y-116981952D01*
X160113825Y-116929129D01*
X160138857Y-116888927D01*
X160152565Y-116864500D01*
X160154544Y-116859024D01*
X160146034Y-116846278D01*
X160122507Y-116819063D01*
X160086968Y-116780428D01*
X160042423Y-116733423D01*
X159991877Y-116681095D01*
X159938336Y-116626495D01*
X159884805Y-116572670D01*
X159834289Y-116522670D01*
X159789794Y-116479543D01*
X159754325Y-116446339D01*
X159730887Y-116426106D01*
X159723046Y-116421278D01*
X159710280Y-116428067D01*
X159679744Y-116447142D01*
X159634410Y-116476561D01*
X159577244Y-116514381D01*
X159511216Y-116558661D01*
X159461410Y-116592395D01*
X159209764Y-116763512D01*
X159000001Y-116677041D01*
X158790237Y-116590570D01*
X158733389Y-116289018D01*
X158676540Y-115987466D01*
X158048885Y-115987466D01*
X157992036Y-116289018D01*
G04 #@! TD*
M02*
